<svg class="w-full" width="136" height="85" xmlns="http://www.w3.org/2000/svg" viewBox="0 0 136 85" fill="none">
<path d="M23.7798 27.1638C23.7798 33.7092 21.2647 39.7512 16.8371 44.2826L26.2326 57.3315H17.8349L7.58709 43.1498L10.2062 41.1148C14.5714 37.7791 17.0866 32.7022 17.0866 27.1008L23.7383 27.1638H23.7798ZM0 57.3735H6.77644V27.1428H0V57.3735ZM28.2074 57.3735H34.6512V27.1428H28.2074V57.3735ZM91.0036 35.912C88.5508 35.912 86.2435 36.7092 84.6845 38.8491V36.4784H78.5733V57.3735H84.7884V46.3595C84.7884 43.1917 86.8671 41.6183 89.3823 41.6183C92.0637 41.6183 93.6435 43.2546 93.6435 46.3176V57.3315H99.7964V44.0518C99.7964 39.1847 95.9924 35.912 91.0036 35.912ZM54.0659 36.4784H60.2187V57.3735H54.0659V56.0099C52.3198 57.2057 50.262 57.9399 47.9754 57.9399C42.0513 57.9399 37.1664 52.9679 37.1664 46.926C37.1664 40.884 42.0305 35.912 47.9754 35.912C50.2204 35.912 52.3406 36.6463 54.0659 37.8421V36.4784ZM54.0659 46.926C54.0659 43.926 51.5507 41.5554 48.5159 41.5554C45.481 41.5554 42.9659 43.9889 42.9659 46.926C42.9659 49.863 45.481 52.2966 48.5159 52.2966C51.5507 52.2966 54.0659 49.863 54.0659 46.926ZM69.739 39.1847V36.4784H63.4614V57.3735H69.7805V47.5973C69.7805 44.3246 73.3143 42.5204 75.7047 42.5204H75.7671V36.4784C73.1895 36.4784 70.9446 37.5484 69.7182 39.1847M118.795 36.4784H124.948V57.3735H118.795V56.0099C117.07 57.2057 114.991 57.9399 112.705 57.9399C106.718 57.9399 101.896 53.0309 101.896 46.926C101.896 40.8211 106.76 35.912 112.705 35.912C114.95 35.912 117.07 36.6463 118.795 37.8421V36.4784ZM118.795 46.926C118.795 43.926 116.342 41.5554 113.245 41.5554C110.148 41.5554 107.695 43.9889 107.695 46.926C107.695 49.863 110.21 52.2966 113.245 52.2966C116.28 52.2966 118.795 49.863 118.795 46.926ZM131.496 49.926C129.376 49.926 127.63 51.6673 127.63 53.8281C127.63 55.9889 129.355 57.7301 131.496 57.7301C133.637 57.7301 135.362 55.9889 135.362 53.8281C135.3 51.7302 133.637 49.926 131.496 49.926Z" fill="white"></path>
</svg>