<svg class="w-full" width="136" height="85" xmlns="http://www.w3.org/2000/svg" viewBox="0 0 136 85" fill="none">
<path fill-rule="evenodd" clip-rule="evenodd" d="M14.6377 30.2144C15.045 30.6058 15.2894 31.0789 15.4361 31.715H15.4198C14.7874 31.8778 14.17 32.0305 13.5483 32.1844L13.5483 32.1844L13.5482 32.1844L13.5482 32.1844L13.5481 32.1844L13.5481 32.1844L13.5481 32.1844L13.548 32.1844L13.548 32.1844L13.5477 32.1845L13.5477 32.1845C13.0483 32.3081 12.546 32.4324 12.0307 32.5632C12.1122 31.5029 12.3891 30.6548 13.1875 30.0513C13.66 29.6761 14.1815 29.7577 14.6377 30.2144ZM7.67219 48.5769L7.67227 48.5766L7.67235 48.5764C7.72244 48.4147 7.77394 48.2484 7.82687 48.075V48.0424C8.01346 48.1573 8.17792 48.2659 8.33278 48.3682L8.33304 48.3684L8.33313 48.3684L8.33317 48.3685L8.33334 48.3686L8.33338 48.3686C8.52988 48.4984 8.71095 48.618 8.90222 48.7274C9.32586 48.9231 9.76579 49.1189 10.222 49.2168C11.0204 49.3799 11.6559 48.6295 11.4115 47.8629C11.3301 47.602 11.1508 47.3247 10.9553 47.1126C10.6385 46.7667 10.2708 46.4589 9.90842 46.1556L9.90841 46.1556L9.76584 46.0361C8.70674 45.1553 8.33195 44.0298 8.51118 42.7086C8.82077 40.4251 10.499 38.7614 12.7639 38.4514C13.6274 38.321 14.4584 38.272 15.3057 38.4514C15.4849 38.4841 15.6479 38.533 15.8108 38.5983C15.99 38.6635 16.0716 38.8103 16.0064 38.9734C15.7626 39.669 15.5279 40.3646 15.2955 41.0534L15.2952 41.0541L15.2946 41.0561L15.2933 41.0599C15.2158 41.2896 15.1386 41.5184 15.0613 41.7463C14.7641 41.6675 14.4809 41.6028 14.2043 41.5397C13.9653 41.4851 13.7312 41.4316 13.4971 41.3711C13.0572 41.257 12.6009 41.3222 12.161 41.469C11.3463 41.7626 11.102 42.676 11.7211 43.2795C12.2751 43.8015 12.8779 44.2582 13.4808 44.7149C15.876 46.5907 15.1916 50.3748 13.0571 51.5655C12.438 51.9244 11.7537 52.0712 11.0693 52.0712C9.99393 52.0712 8.95115 51.7939 8.0387 51.1741L8.03717 51.1731L8.03714 51.173C7.9399 51.1081 7.84267 51.0432 7.76163 50.9783C7.10994 50.4728 7.10996 50.4727 7.33801 49.69L7.33808 49.6898C7.44137 49.3221 7.55274 48.9626 7.67219 48.5769ZM19.0207 55.0398C19.0696 54.5831 19.1184 54.1264 19.1673 53.6207L19.1836 53.6044C19.2672 53.6044 19.3466 53.5958 19.4238 53.5875C19.4971 53.5795 19.5685 53.5718 19.6399 53.5718C19.8786 53.599 20.1173 53.6279 20.3559 53.6569L20.3567 53.657C20.8347 53.715 21.3127 53.773 21.7907 53.8165C21.9501 53.8284 22.1094 53.8414 22.269 53.8543L22.2692 53.8543L22.2693 53.8543L22.2694 53.8544L22.2696 53.8544L22.2697 53.8544L22.2699 53.8544L22.27 53.8544L22.2702 53.8544C22.7629 53.8944 23.2579 53.9346 23.7622 53.9469C24.1858 53.9633 24.4629 53.6697 24.4303 53.2782C24.3814 52.6584 24.2999 52.0222 24.2185 51.4024C24.1452 50.8644 24.0759 50.3263 24.0067 49.7883L24.0066 49.7875C23.9374 49.2493 23.8681 48.7111 23.7948 48.1728C23.6319 46.8516 23.4526 45.5141 23.2734 44.1929L23.2732 44.1918C23.1104 42.9525 22.9475 41.7133 22.7683 40.4577C22.6705 39.7402 22.5647 39.0226 22.4588 38.305L22.4588 38.305L22.4587 38.305L22.4587 38.3049L22.4587 38.3049L22.4587 38.3048L22.4587 38.3048L22.4587 38.3048L22.4587 38.3047L22.4587 38.3047L22.4587 38.3047V38.3046C22.3528 37.587 22.2469 36.8693 22.1491 36.1516C22.0839 35.7275 21.8721 35.4339 21.5463 35.1892C21.2693 34.9935 20.9963 34.7937 20.7234 34.5939C20.4505 34.3941 20.1776 34.1943 19.9006 33.9985C19.5627 33.7679 19.2264 33.5357 18.8907 33.3039L18.8906 33.3038C18.158 32.7978 17.4282 32.2938 16.6907 31.8129C16.4626 31.6661 16.3159 31.5356 16.2181 31.2746C16.0715 30.8668 15.8923 30.459 15.6479 30.0839C15.1917 29.3825 14.5236 28.9258 13.6763 28.991C12.9105 29.0563 12.3077 29.4967 11.9166 30.1981C11.5419 30.8668 11.2649 31.5682 11.1997 32.3348C11.1671 32.6447 11.0368 32.8241 10.7109 32.8894C10.3101 32.9646 9.91883 33.0784 9.52242 33.1937C9.40321 33.2284 9.28353 33.2632 9.16298 33.2972C8.80451 33.3787 8.52749 33.5744 8.31567 33.868L8.315 33.869L8.315 33.869L8.31499 33.869L8.31499 33.869L8.31498 33.869L8.31497 33.869L8.31497 33.869L8.31496 33.869L8.31496 33.8691L8.31495 33.8691L8.31495 33.8691C7.7449 34.6843 7.17486 35.4995 6.58852 36.2984C5.90418 37.2118 5.44794 38.2068 5.35018 39.3649C5.2842 40.2344 5.15888 41.104 5.03429 41.9685L5.03428 41.9685C4.97424 42.3851 4.91437 42.8005 4.86138 43.2143C4.75547 44.0298 4.65771 44.8413 4.55995 45.6528C4.46219 46.4643 4.36443 47.2757 4.25852 48.0913C4.17705 48.7437 4.08743 49.388 3.99781 50.0323C3.90819 50.6766 3.81857 51.3209 3.7371 51.9733C3.59046 53.0988 3.80224 53.3598 4.92652 53.5718C7.37002 54.0121 9.81351 54.4687 12.257 54.9253L12.2587 54.9256C12.876 55.0394 13.4932 55.1551 14.1104 55.2707L14.1112 55.2708L14.1117 55.2709L14.1123 55.271L14.1128 55.2711L14.1134 55.2712L14.1139 55.2713L14.1145 55.2714L14.115 55.2715L14.1156 55.2716L14.1161 55.2717C15.3545 55.5037 16.5929 55.7357 17.8313 55.9532C18.5319 56.0674 18.9393 55.7412 19.0207 55.0398ZM68.5856 43.914C68.5838 43.9701 68.5821 44.025 68.5821 44.0783H68.5984C68.5332 45.5789 68.1748 46.9816 67.2135 48.156C66.9691 48.4333 66.6594 48.678 66.3499 48.8737C65.7633 49.2325 65.1767 49.1184 64.5901 48.8574C64.362 48.7595 64.2316 48.5964 64.2968 48.3354C64.377 47.9484 64.4544 47.56 64.5319 47.1714L64.5319 47.1712C64.7221 46.217 64.9126 45.2617 65.1441 44.3229C65.2908 43.7357 65.6493 43.1975 66.1055 42.7734C66.4966 42.3982 66.969 42.1046 67.5393 42.2025C68.1422 42.3003 68.4843 42.7571 68.5821 43.5563C68.5931 43.6772 68.5893 43.7981 68.5856 43.914ZM62.6023 39.658C61.5921 45.1385 60.5981 50.5374 59.6042 55.9853L59.6205 55.969C60.647 56.0995 61.5921 56.0832 62.5209 56.0342C62.749 56.0342 62.863 55.9038 62.9119 55.6591C63.0911 54.6804 63.2703 53.7181 63.4658 52.7394L63.7592 51.2225C63.7965 51.2287 63.8267 51.2326 63.8525 51.2358L63.8525 51.2359L63.8526 51.2359C63.8943 51.2412 63.9245 51.245 63.9547 51.2551C65.91 51.9076 67.7186 51.6303 69.2339 50.2438C71.6128 48.0418 72.4437 45.2527 71.8409 42.0883C71.6128 40.8813 70.9285 39.9353 69.6576 39.5927C68.24 39.2176 67.0016 39.6579 65.9262 40.6203C65.6981 40.816 65.47 40.9955 65.2582 41.1586C65.2677 41.0354 65.2771 40.9068 65.287 40.7727L65.2873 40.769L65.2874 40.7677C65.3114 40.4412 65.3378 40.0821 65.3723 39.6906C64.6214 39.6413 63.9077 39.6479 63.2382 39.654L63.238 39.654C63.0214 39.656 62.8094 39.658 62.6023 39.658ZM42.9609 38.484L42.9607 38.4849C42.7992 39.3354 42.6383 40.1832 42.48 41.0283L42.5288 41.0772C42.6243 40.9817 42.7267 40.893 42.8315 40.8022L42.8316 40.8021C42.8877 40.7535 42.9445 40.7043 43.0013 40.6532C44.0115 39.7071 45.201 39.3157 46.5534 39.5603C47.5474 39.7234 48.2968 40.5227 48.4923 41.5177C48.6552 42.3169 48.5738 43.0998 48.4435 43.8664C48.179 45.466 47.8847 47.0581 47.5909 48.6478L47.5908 48.6478L47.5908 48.6479L47.5908 48.6479L47.5908 48.648L47.5908 48.648L47.5908 48.648L47.5908 48.6481L47.5908 48.6481L47.5906 48.6488L47.5903 48.6506L47.5901 48.6517C47.4497 49.4112 47.3094 50.1702 47.1725 50.9291C47.1399 51.1575 47.0748 51.3206 46.7978 51.3206H44.0604C44.0116 51.3206 43.9464 51.288 43.8486 51.2391C43.9138 50.8802 43.9749 50.5254 44.036 50.1707C44.0971 49.8159 44.1582 49.4611 44.2233 49.1023C44.37 48.2786 44.5207 47.4589 44.6715 46.6393L44.6715 46.6391L44.6715 46.639L44.6716 46.6388L44.6716 46.6386L44.6716 46.6384L44.6717 46.6382L44.6717 46.6381L44.6717 46.6379L44.6718 46.6377C44.8224 45.8186 44.973 44.9995 45.1196 44.1764C45.1586 43.903 45.156 43.6297 45.1534 43.348C45.1528 43.2767 45.1521 43.2049 45.1521 43.1325C45.1195 42.3332 44.533 41.8928 43.7998 42.219C43.425 42.3821 43.0665 42.6594 42.7895 42.9693C42.0725 43.7523 41.8119 44.7636 41.6164 45.7585C41.2905 47.4386 40.9646 49.1349 40.655 50.8149C40.6061 51.0759 40.541 51.3206 40.2151 51.3206H37.657C37.5978 51.3206 37.5326 51.2967 37.4614 51.2705C37.4151 51.2535 37.3662 51.2356 37.3148 51.2227C37.4777 50.293 37.6406 49.3796 37.8199 48.4825C38.2435 46.1989 38.6672 43.9154 39.1071 41.6318C39.5308 39.4298 39.938 37.2442 40.3454 35.0422C40.378 34.8138 40.4432 34.5854 40.7365 34.5854C41.3557 34.5854 41.9748 34.5999 42.594 34.6144C42.9036 34.6217 43.2131 34.6289 43.5227 34.6344C43.563 34.6478 43.6034 34.6724 43.662 34.708L43.702 34.7322L43.6694 34.7159C43.4367 35.9777 43.1982 37.2338 42.9609 38.484ZM84.7954 53.8888L84.7769 53.8981L84.7932 53.8818L84.7954 53.8888ZM84.7954 53.8888C85.0469 53.7629 85.2383 53.6674 85.445 53.5719C86.6345 53.0173 87.6284 52.2507 88.2801 51.0926C88.4268 50.8316 88.4756 50.6033 88.4104 50.2933C88.0739 48.5111 87.7519 46.7289 87.4298 44.9466C87.2685 44.0539 87.1072 43.1611 86.944 42.2683L86.5041 39.8217C87.1069 39.6259 89.1111 39.6096 89.9095 39.789L89.9198 39.8832L89.9203 39.8879C90.1937 42.3995 90.4671 44.9113 90.7405 47.4389H90.822C90.8709 47.3003 90.9238 47.1657 90.9768 47.0311C91.0297 46.8966 91.0827 46.762 91.1316 46.6234C91.5307 45.5389 91.9338 44.4545 92.337 43.3701L92.3392 43.3643C92.7418 42.2813 93.1444 41.1983 93.543 40.1152C93.6734 39.789 93.8201 39.6259 94.1948 39.6422C94.5856 39.6609 94.9816 39.6582 95.38 39.6555H95.3801C95.6793 39.6535 95.9798 39.6515 96.2804 39.6585C96.4096 39.6585 96.5389 39.6768 96.6777 39.6964C96.8015 39.7139 96.9329 39.7324 97.0788 39.7401L97.0022 39.9156L97.0022 39.9156L97.0021 39.9158L97.0018 39.9164C96.8056 40.3663 96.6291 40.7709 96.4271 41.1754C95.9529 42.1812 95.4847 43.1908 95.0162 44.201L95.0161 44.2013L95.0159 44.2017L95.0157 44.202L95.0156 44.2024L95.0153 44.2029L95.015 44.2036L95.0146 44.2045L95.0141 44.2055L95.014 44.2058C94.1308 46.1102 93.2467 48.0165 92.321 49.9019C91.4574 51.6961 90.3657 53.3598 88.9318 54.7626C88.166 55.5129 87.2699 56.0674 86.2759 56.4426C85.7708 56.6383 85.6731 56.5894 85.4939 56.1001C85.2664 55.4008 85.039 54.6852 84.7954 53.8888ZM56.9699 43.9171V43.9169V43.9167C56.9735 43.7591 56.977 43.6039 56.9662 43.4414C56.8684 42.4138 56.1352 41.8756 55.125 42.0713C54.6362 42.1692 54.2777 42.4954 54.017 42.8869C53.0394 44.3385 52.6646 45.9533 52.8764 47.6823C52.9579 48.2532 53.2513 48.7588 53.8541 48.9546C54.4733 49.1503 55.011 49.0198 55.4509 48.5468C55.7116 48.2695 55.956 47.9433 56.1515 47.6007C56.7381 46.5242 56.9499 45.3498 56.9825 44.1428L56.9662 44.1591C56.9662 44.0773 56.968 43.9972 56.9699 43.9178V43.9176V43.9174V43.9173V43.9171ZM60.3554 44.1265C60.3554 46.198 59.7525 48.0575 58.3512 49.6233C56.7707 51.4012 54.2289 52.0537 52.1107 51.2381C50.5628 50.6346 49.5852 49.1829 49.5037 47.5192C49.4222 45.7576 49.7154 44.0939 50.6442 42.5933C51.5566 41.109 52.8113 40.0161 54.5548 39.6083C55.4346 39.3963 56.3471 39.38 57.227 39.592C58.9704 40.0161 60.2413 41.5167 60.3554 43.5067V44.1102V44.1265ZM79.2572 42.1776C79.4581 42.1755 79.661 42.1733 79.861 42.2354L79.8448 42.2518C79.8383 42.3039 79.8369 42.3561 79.8356 42.4083C79.8337 42.4866 79.8317 42.5649 79.8121 42.6432C79.574 43.8946 79.3393 45.146 79.1049 46.3958L79.1048 46.3963L79.1045 46.3981L79.1034 46.4036L79.1024 46.4092L79.1013 46.415C78.8236 47.8956 78.5463 49.3741 78.2642 50.8477C78.1827 51.2555 78.2479 51.3533 78.6879 51.3533H80.8713C81.1904 51.3533 81.3451 51.3533 81.4345 51.2769C81.5187 51.205 81.545 51.0654 81.596 50.7943L81.5961 50.7942L81.5961 50.7941L81.6044 50.7498C81.857 49.3797 82.1096 48.0136 82.3621 46.6475L82.3623 46.6465C82.6148 45.2808 82.8673 43.9151 83.1198 42.5454C83.1686 42.2844 83.2664 42.1702 83.5434 42.1702C83.891 42.1811 84.2386 42.1774 84.5862 42.1738C84.76 42.172 84.9338 42.1702 85.1077 42.1702C85.2706 42.1702 85.4498 42.1702 85.4824 41.9582C85.5964 41.2242 85.7268 40.4902 85.8734 39.6746H83.6901C83.7064 38.9569 83.9019 38.3534 84.293 37.8151C84.8958 36.967 85.7757 36.967 86.6881 37.1953C86.7838 36.7861 86.8841 36.4001 86.9816 36.0249L86.9818 36.0244L86.9821 36.0233L86.9823 36.0224L86.9824 36.022C87.0673 35.6954 87.1501 35.377 87.2258 35.0586C87.3236 34.6671 87.2747 34.5529 86.8511 34.4877C85.9712 34.3572 85.0914 34.3083 84.2278 34.5203C82.7288 34.8792 81.7022 35.8415 81.0993 37.2279C80.8959 37.6989 80.7619 38.2097 80.6277 38.7214L80.6276 38.7215C80.5899 38.8654 80.5521 39.0094 80.5128 39.1527L80.4999 39.1986C80.4338 39.4346 80.4005 39.5536 80.3221 39.6136C80.2423 39.6746 80.1159 39.6746 79.861 39.6746H79.1604C78.9811 39.6746 78.8671 39.7399 78.8346 39.9356C78.7362 40.5402 78.6257 41.1328 78.5136 41.7341L78.4597 42.0234C78.7135 42.1833 78.9835 42.1805 79.2572 42.1776ZM28.3854 50.7482C28.6286 50.0827 28.8395 49.4817 29.0503 48.8811L29.0534 48.8724C29.1511 48.5625 29.3141 48.5462 29.5911 48.6441C29.7241 48.6833 29.8571 48.7243 29.9903 48.7654L29.9905 48.7655L29.9906 48.7655L29.9907 48.7655L29.9913 48.7657C30.4127 48.8957 30.8363 49.0265 31.2694 49.1008C31.6604 49.166 32.1004 49.1497 32.4751 49.0356C33.2246 48.8235 33.5016 48.008 33.0127 47.3718C32.7683 47.0782 32.4425 46.8499 32.1166 46.6215C31.97 46.5128 31.8197 46.4077 31.6695 46.3026C31.3689 46.0923 31.0684 45.8821 30.7968 45.6429C29.4118 44.4195 29.5259 42.3644 30.6502 41.0921C31.4812 40.146 32.5566 39.6404 33.7949 39.5915C34.4539 39.5661 35.1129 39.6098 35.7719 39.6535C35.9602 39.666 36.1485 39.6785 36.3368 39.6893C36.485 39.6893 36.6333 39.7453 36.7816 39.8012C36.8451 39.8252 36.9087 39.8492 36.9722 39.8688C37.2492 39.9503 37.3144 40.146 37.2329 40.3744C37.0907 40.8142 36.9384 41.2438 36.7838 41.6794C36.7435 41.793 36.7031 41.9071 36.6626 42.0218C36.5812 42.2502 36.4182 42.3154 36.1738 42.2339C35.5709 42.0381 34.9518 41.9239 34.3163 41.9892C34.0719 42.0055 33.8112 42.0707 33.5994 42.1686C32.9802 42.4622 32.8661 43.1799 33.3386 43.6692C33.5363 43.8671 33.7622 44.0223 34.0034 44.1879L34.0556 44.2238C34.194 44.3241 34.3338 44.4231 34.4733 44.5218L34.4734 44.5218C34.8103 44.7602 35.1458 44.9977 35.4568 45.2514C37.1188 46.5889 36.7604 48.693 35.8153 49.9164C35.1636 50.7482 34.2674 51.1886 33.2572 51.417C31.807 51.7269 30.3732 51.6943 29.0045 51.1071C28.9344 51.0688 28.8618 51.028 28.7848 50.9847L28.7847 50.9847C28.6648 50.9174 28.5341 50.844 28.3854 50.7645V50.7482ZM121.5 40.6618L121.5 40.6631C121.507 40.7798 121.513 40.8906 121.521 40.9935V41.0098C121.44 43.5543 120.951 45.8378 119.68 47.9093C118.963 49.0674 118.034 49.9972 116.714 50.4213C115.427 50.8453 114.14 50.8127 112.983 49.9809C112.054 49.3121 111.647 48.3334 111.403 47.2569C110.995 45.4138 111.24 43.6032 111.729 41.809C112.136 40.3737 112.69 39.0035 113.635 37.8291C114.384 36.8831 115.329 36.198 116.519 35.986C117.953 35.725 119.338 35.8392 120.397 37.0299C120.983 37.7149 121.244 38.5305 121.374 39.395C121.449 39.8321 121.476 40.2787 121.5 40.6617V40.6618ZM120.136 49.0348C121.945 46.5718 122.596 43.7174 122.629 40.5041C122.598 40.3344 122.571 40.1451 122.541 39.9431C122.477 39.5045 122.404 39.0055 122.271 38.5142C121.88 37.0788 121.097 35.9207 119.68 35.3335C118.197 34.7137 116.682 34.8279 115.232 35.464C113.602 36.1654 112.527 37.4213 111.745 38.9709C110.832 40.8304 110.262 42.7877 110.164 44.8592C110.099 46.0662 110.148 47.2895 110.604 48.4476C111.5 50.7148 113.081 51.6283 115.167 51.612C117.22 51.5956 118.93 50.6985 120.136 49.0348ZM72.1176 51.351C72.4026 49.8294 72.6876 48.3178 72.9716 46.8111L72.9726 46.8059C73.419 44.438 73.863 42.0827 74.301 39.7212H77.5434C77.5109 40.0474 77.4783 40.3247 77.4294 40.5857C77.2125 41.7308 76.9939 42.876 76.7752 44.0211L76.7752 44.0213L76.7752 44.0215C76.3367 46.3178 75.8982 48.6142 75.4742 50.9106C75.409 51.2368 75.295 51.351 74.9528 51.351C74.3496 51.3402 73.7393 51.3437 73.1078 51.3473H73.1075H73.1071H73.1067C72.7832 51.3491 72.4541 51.351 72.1176 51.351ZM102.316 43.4382C102.289 43.4232 102.26 43.4073 102.228 43.3913V43.375L102.23 43.3649L102.23 43.3648C102.36 42.6831 102.489 42.0016 102.619 41.3361C102.728 40.7608 102.835 40.1831 102.942 39.6041L102.942 39.6006L102.942 39.5994L102.943 39.5984C103.123 38.6199 103.305 37.6374 103.499 36.6549C103.596 36.1519 103.613 36.1492 104.11 36.069L104.118 36.0677C104.965 35.9209 105.813 35.9535 106.644 36.1818C107.817 36.5244 108.452 37.291 108.55 38.498C108.778 41.0425 107.312 42.9999 104.819 43.5055C104.053 43.6523 103.303 43.6197 102.554 43.5218C102.468 43.5218 102.4 43.4846 102.316 43.4382ZM99.9632 49.8179C99.8655 50.3072 99.784 50.7639 99.7026 51.3022L99.7188 51.2859C99.8515 51.2933 99.9675 51.2973 100.074 51.301C100.204 51.3055 100.32 51.3096 100.436 51.3185C100.68 51.3511 100.794 51.2206 100.827 50.976C100.859 50.7368 100.906 50.4976 100.954 50.2583C100.977 50.1387 101.001 50.0191 101.022 49.8994L102 44.7125C102.011 44.6473 102.043 44.5821 102.078 44.512C102.096 44.477 102.114 44.4407 102.13 44.4026C102.326 44.4327 102.521 44.4489 102.704 44.4641L102.749 44.4679C104.314 44.5983 105.813 44.4189 107.149 43.5544C108.762 42.5268 109.593 40.9773 109.707 39.1015C109.821 37.1279 108.843 35.562 106.693 35.1706C105.438 34.9259 104.2 35.089 102.945 35.2847C102.717 35.3337 102.684 35.4805 102.652 35.6599C102.481 36.5652 102.31 37.4664 102.138 38.3676L102.134 38.3937L102.133 38.3957C101.964 39.2875 101.795 40.1793 101.625 41.0752C101.071 43.9785 100.517 46.8982 99.9632 49.8179ZM131.689 36.5253C131.585 36.4838 131.493 36.4423 131.407 36.4033C131.29 36.3503 131.182 36.3019 131.07 36.2643C130.222 35.9055 129.343 35.8239 128.446 36.0034C127.241 36.2643 126.393 36.9983 126.051 38.1564C125.676 39.3961 125.921 40.5379 126.899 41.4513C127.188 41.72 127.5 41.9533 127.813 42.1886L127.814 42.1888C127.976 42.3104 128.139 42.4326 128.3 42.5604C128.414 42.6501 128.53 42.7378 128.646 42.8254C128.994 43.0885 129.343 43.3515 129.636 43.6696C130.939 45.0234 131.2 46.6219 130.646 48.3508C130.092 50.0798 128.854 51.0911 127.094 51.4499C125.839 51.7109 124.585 51.5804 123.412 51.0422C122.744 50.7323 122.711 50.6344 123.021 49.982C123.045 49.9341 123.077 49.8862 123.119 49.8255C123.134 49.8034 123.15 49.7797 123.167 49.7536L123.209 49.7762L123.209 49.7763C123.37 49.8642 123.507 49.9394 123.672 50.0146C125.22 50.7975 126.768 50.8954 128.283 49.9167C130.06 48.7749 130.353 46.0347 129 44.5993C128.696 44.2707 128.356 43.9875 128.014 43.7022C127.897 43.6052 127.78 43.508 127.664 43.4086C127.483 43.2583 127.297 43.1129 127.111 42.9677C126.712 42.6561 126.314 42.3456 125.97 41.9895C125.253 41.2718 124.927 40.4237 124.878 39.3635C124.731 36.7863 126.947 35.1552 128.821 34.9758C129.815 34.8779 130.76 35.0247 131.673 35.3999C132.145 35.5956 132.161 35.6609 131.933 36.1012C131.89 36.1705 131.851 36.2398 131.81 36.314C131.773 36.3795 131.735 36.4488 131.689 36.5253ZM76.7319 34.7485C75.6891 34.7159 74.8419 35.5477 74.8419 36.6242C74.8419 37.6355 75.4284 38.288 76.3572 38.288C77.5141 38.3043 78.3125 37.554 78.3125 36.3959C78.3288 35.4662 77.6607 34.7811 76.7319 34.7485Z" fill="white"></path>
</svg>