<svg class="w-full" width="136" height="85" xmlns="http://www.w3.org/2000/svg" viewBox="0 0 136 85" fill="none">
<path fill-rule="evenodd" clip-rule="evenodd" d="M19.5182 42.5116L19.4856 42.5768C19.453 42.6095 19.4204 42.6095 19.3878 42.6095H19.2575C18.7198 42.6095 18.1495 42.479 17.6281 42.2343C17.123 41.9896 16.683 41.6634 16.3083 41.2556C15.9335 40.8479 15.6728 40.3422 15.4936 39.804C15.3307 39.2657 15.2981 38.7111 15.3633 38.1402C15.3633 38.1076 15.3958 38.075 15.3958 38.075C15.4284 38.0424 15.461 38.0424 15.461 38.0424H20.3003L20.3329 38.075L20.3654 38.1076V38.1728L19.5182 42.5116ZM14.9233 48.041C14.9233 48.041 14.8907 48.0737 14.8907 48.1063C14.8744 48.1063 14.8663 48.1144 14.8581 48.1226C14.85 48.1308 14.8418 48.1389 14.8255 48.1389H8.1288L8.09618 48.1063C8.09618 48.1063 8.06361 48.0737 8.06361 48.041V47.9758L9.35084 41.3372C9.35084 41.3372 9.38341 41.3046 9.38341 41.272L9.4486 41.2393H9.51379C9.51379 41.2393 9.54634 41.272 9.57892 41.272L14.9233 47.9106C14.9233 47.9106 14.9559 47.9432 14.9559 47.9758C14.9559 47.9758 14.9559 48.0084 14.9233 48.041ZM7.91697 38.2218V38.1565L7.98216 38.0913C7.99461 38.0913 8.0023 38.0865 8.00886 38.0825C8.01948 38.0759 8.02716 38.0711 8.0473 38.0913H14.7441L14.7767 38.1239C14.7767 38.1239 14.8093 38.1566 14.8093 38.1892V38.2544L13.5221 44.9256C13.5221 44.9256 13.4895 44.9583 13.4895 44.9909H13.3917C13.3917 44.9909 13.3591 44.9583 13.3265 44.9583L7.94954 38.287C7.94954 38.287 7.94956 38.2544 7.91697 38.2218ZM13.5384 29.4138C6.15726 29.4138 0.177399 35.4163 0.177399 42.7889C0.177399 50.1615 6.17355 56.1639 13.5384 56.1639C20.9032 56.1639 26.8993 50.1615 26.8993 42.7889C26.9319 35.4 20.9358 29.4138 13.5384 29.4138ZM38.1412 37.1598H42.9153C43.1597 37.1598 43.29 37.2902 43.2575 37.5349L42.9804 39.0519C43.9255 37.698 45.2779 36.8499 46.6629 36.8499C47.3472 36.8499 47.9827 37.0945 48.4878 37.5023C48.7322 37.7306 48.7322 37.8448 48.5529 38.0732L47.168 40.0305C47.005 40.3078 46.8584 40.2752 46.5977 40.1284C46.2881 39.9979 45.9622 39.9326 45.62 39.8837C43.9581 39.8837 42.5731 40.9602 41.9377 44.2877L40.96 49.2626L40.96 49.2627C40.9274 49.3605 40.8948 49.4583 40.8297 49.5399C40.7645 49.6051 40.6667 49.6377 40.5201 49.6703H37.9783C37.9783 49.6703 37.8805 49.6703 37.8479 49.6377L37.7501 49.5399C37.7501 49.5399 37.6849 49.4746 37.6849 49.4094V49.2789L39.575 39.688L37.9783 37.4534C37.8153 37.3229 37.913 37.1435 38.1412 37.1435V37.1598ZM54.1132 39.7043C55.4004 39.7043 56.7528 40.5198 56.6225 42.4772H50.6263C51.0989 40.8624 52.4187 39.7043 54.1132 39.7043ZM54.488 36.8499C50.773 36.8499 47.9216 39.427 47.2861 43.3253L47.3024 43.309C46.6507 47.0932 48.8177 50.0129 52.7446 50.0455C54.5369 50.0455 56.4595 49.5235 57.649 48.447C57.8445 48.2513 57.9097 48.1208 57.7794 47.8761L56.8669 46.4244C56.704 46.1798 56.4921 46.2939 56.2966 46.4244C55.4167 47.0279 54.3902 47.3379 53.3474 47.3705C51.6855 47.3705 50.3982 46.4897 50.3331 44.6629H58.3822C59.0828 44.6629 59.3598 43.9941 59.4902 43.1459C60.0442 39.8674 58.203 36.8499 54.488 36.8499ZM71.5138 49.4283L74.3978 34.7157L72.9802 32.8236C72.9802 32.8236 72.9477 32.7584 72.9477 32.7258V32.7257C72.9477 32.6931 72.9477 32.6605 72.9802 32.6279C72.9927 32.6154 73.0004 32.603 73.007 32.5923C73.0176 32.5751 73.0253 32.5626 73.0454 32.5626C73.0617 32.5626 73.078 32.5545 73.0943 32.5463C73.1106 32.5382 73.1269 32.53 73.1432 32.53H77.5751C77.8195 32.53 77.9499 32.6605 77.9173 32.9052L76.6301 39.4133C77.6077 37.929 79.1067 36.9014 80.8665 36.9014C83.6364 36.9014 85.2332 39.2665 84.6629 42.2188L83.2128 49.363C83.2128 49.4609 83.1476 49.5588 83.0498 49.6403C82.9846 49.7056 82.8543 49.7382 82.7403 49.7382H80.1333C80.1333 49.7382 80.0355 49.7382 80.0029 49.7056C79.9908 49.6934 79.9741 49.6858 79.9563 49.6777C79.9263 49.6639 79.893 49.6487 79.8726 49.6077C79.84 49.5751 79.8074 49.5098 79.8074 49.4772V49.3467L81.0946 42.9039C81.4368 41.1749 80.9642 40.0984 79.9051 40.0984C77.901 40.0984 76.3531 42.333 75.6687 45.481L74.8215 49.4446C74.8215 49.4446 74.7889 49.6077 74.7237 49.6403C74.6585 49.7056 74.5934 49.7382 74.5282 49.7382H71.7582C71.7582 49.7382 71.693 49.7382 71.6604 49.7056C71.6279 49.7056 71.5953 49.6729 71.5953 49.6403C71.5627 49.6077 71.5627 49.5751 71.5627 49.5425V49.5424V49.4446L71.5138 49.4283ZM95.2066 43.4088C94.8975 45.3634 93.4184 47.0577 91.4185 47.0624C89.4848 47.0576 88.5103 45.2983 88.8194 43.4088C89.1453 41.5493 90.5629 39.9182 92.567 39.9182C94.4245 39.9182 95.5162 41.4025 95.2066 43.4088ZM92.5507 36.9006C89.129 36.9006 86.1798 39.3473 85.5444 43.5066V43.4903C84.9741 47.144 86.9294 50.0637 90.4488 50.0637C91.2309 50.0637 91.9968 49.9006 92.7137 49.558C93.4306 49.2155 94.0335 48.7425 94.5386 48.139L94.3105 49.3623C94.2779 49.6069 94.3756 49.7374 94.62 49.7374H97.0641C97.1782 49.7374 97.2759 49.7048 97.3737 49.6396C97.4715 49.558 97.5041 49.4601 97.5367 49.3623L99.8341 37.5368V37.4063C99.8341 37.3737 99.8015 37.3084 99.7689 37.2758C99.7363 37.2105 99.6386 37.1779 99.6386 37.1779H97.0967C96.9827 37.1779 96.8849 37.2105 96.7871 37.2758C96.6894 37.39 96.6242 37.4878 96.6242 37.5857L96.3146 39.1026C95.7606 37.7162 94.3756 36.9006 92.5507 36.9006ZM99.0657 49.3277L101.396 37.4696C101.428 37.2739 101.526 37.1271 101.705 37.1271H104.312C104.54 37.1271 104.687 37.2575 104.655 37.5022L104.378 39.0191C105.323 37.6653 106.675 36.8171 108.06 36.8171C108.744 36.8171 109.38 37.0618 109.885 37.4696C110.113 37.698 110.113 37.8121 109.95 38.0405L108.565 39.9978C108.402 40.2751 108.255 40.2425 107.995 40.0957C107.685 39.9652 107.343 39.8999 107.017 39.851C105.355 39.851 103.97 40.9275 103.335 44.255L102.39 49.3114C102.39 49.4093 102.324 49.5071 102.259 49.5887C102.2 49.6485 102.085 49.6809 101.978 49.7111L101.95 49.7192H99.4079C99.4079 49.7192 99.3101 49.7192 99.2775 49.6866L99.1798 49.5887C99.1472 49.5561 99.1146 49.5235 99.1146 49.4582C99.0494 49.4256 99.0494 49.3603 99.082 49.3277H99.0657ZM118.359 43.2594C118.05 45.1515 116.551 46.7826 114.563 46.7826C112.64 46.7826 111.614 45.1189 111.956 43.292C112.298 41.4652 113.716 39.8993 115.72 39.8993C117.577 39.8993 118.669 41.3674 118.359 43.2594ZM107.589 53.095C107.622 53.1929 107.719 53.3234 107.719 53.3234V53.3397C109.007 54.3836 111.011 54.824 112.803 54.824C117.072 54.824 120.184 52.4426 121.097 47.9407L123.133 37.5342V37.4037C123.133 37.3711 123.101 37.3059 123.068 37.2733C123.036 37.208 122.938 37.1754 122.938 37.1754H120.363C120.217 37.1754 120.119 37.208 120.054 37.2733C119.989 37.3548 119.923 37.4527 119.923 37.5506L119.614 38.9044C119.207 37.9909 117.854 36.8655 115.85 36.8655C112.233 36.8655 109.398 39.4426 108.713 43.2757C108.127 46.6684 110.033 49.686 113.618 49.686C115.443 49.686 116.665 49.1151 117.985 47.8591C117.268 51.0398 115.263 52.0185 112.901 52.0185C111.548 52.0185 110.44 51.5781 109.284 50.8604C109.153 50.7136 108.941 50.7951 108.811 50.9909L107.654 52.8177C107.589 52.9318 107.589 52.9971 107.589 53.0948V53.095ZM132.564 42.4772C132.694 40.5198 131.342 39.7043 130.055 39.7043C128.36 39.7043 127.04 40.8624 126.568 42.4772H132.564ZM123.195 43.3253C123.83 39.427 126.682 36.8499 130.397 36.8499C134.112 36.8499 135.953 39.8674 135.399 43.1459C135.269 43.9941 134.992 44.6629 134.291 44.6629H126.242C126.307 46.4897 127.594 47.3705 129.256 47.3705C130.299 47.3379 131.326 47.0279 132.205 46.4244C132.401 46.2939 132.613 46.1798 132.776 46.4244L133.688 47.8761C133.818 48.1208 133.753 48.2513 133.558 48.447C132.368 49.5235 130.446 50.0455 128.653 50.0455C124.759 50.0129 122.592 47.0932 123.211 43.309L123.195 43.3253ZM68.5321 49.6052C67.7174 49.9477 66.8375 50.1108 65.9576 50.0782L65.9902 50.1434C62.5033 50.1434 59.8637 47.3379 60.434 43.3743C60.9391 39.7044 63.9535 36.9641 67.6359 36.9641C69.4608 36.9641 71.1228 37.6818 72.1982 39.1987C72.2308 39.2313 72.2633 39.3292 72.2633 39.3292V39.4597C72.2307 39.4923 72.1982 39.5902 72.1982 39.5902L72.1004 39.6881L70.3407 41.1723C70.1451 41.3355 69.9985 41.3355 69.803 41.1397C69.0535 40.3894 68.3691 40.0143 67.3263 40.0143C65.4362 40.0143 63.9046 41.5475 63.6765 43.4722C63.4321 45.4458 64.5075 46.9628 66.479 46.9628C67.3915 46.9301 68.3039 46.6202 69.0534 46.0494C69.086 46.0167 69.1186 45.9841 69.1512 45.9841C69.1838 45.9515 69.249 45.9515 69.2816 45.9515C69.2979 45.9515 69.3223 45.9597 69.3467 45.9678C69.3712 45.976 69.3956 45.9841 69.4119 45.9841C69.4445 45.9841 69.5097 46.0494 69.5097 46.0494L70.8621 47.5663C70.8947 47.6315 70.9273 47.7294 70.9273 47.7294V47.8925C70.9273 47.9578 70.8947 48.023 70.8621 48.0556C70.8393 48.1011 70.8008 48.1307 70.7685 48.1556C70.7544 48.1663 70.7416 48.1762 70.7317 48.1861C70.0799 48.7896 69.3468 49.2626 68.5321 49.6052Z" fill="white"></path>
</svg>