<svg width="110" height="74" xmlns="http://www.w3.org/2000/svg" viewBox="0 0 110 74" fill="none">
<g opacity=".4">
<mask id="jufsmxzeda-a" style="mask-type:luminance" maskUnits="userSpaceOnUse" x="0" y="7" width="34" height="39">
<path fill-rule="evenodd" clip-rule="evenodd" d="M0 7.567h33.413v37.96H0V7.568Z" fill="#fff"></path>
</mask>
<g mask="url(#jufsmxzeda-a)" fill-rule="evenodd" clip-rule="evenodd" fill="#000">
<path d="M6.3 8.547V44.6l7.024-.103c11-.155 15.235-6.035 15.235-17.279 0-12.74-4.958-18.568-14.719-18.62l-7.54-.05ZM0 45.425c1.653-2.63 2.066-4.126 2.066-7.634V15.51c0-3.507-.413-5.003-2.066-7.634v-.103c6.662 0 7.385-.206 14.305-.206 11.93 0 19.108 6.705 19.108 18.929 0 12.224-7.075 19.032-19.624 19.032H-.001v-.103Z"></path>
<path d="M6.3 8.547V44.6l7.024-.103c11-.155 15.235-6.035 15.235-17.279 0-12.74-4.958-18.568-14.719-18.62l-7.54-.05ZM0 45.425c1.653-2.63 2.066-4.126 2.066-7.634V15.51c0-3.507-.413-5.003-2.066-7.634v-.103c6.662 0 7.385-.206 14.305-.206 11.93 0 19.108 6.705 19.108 18.929 0 12.224-7.075 19.032-19.624 19.032H-.001v-.103Z" fill-opacity=".2"></path>
</g>
<path fill-rule="evenodd" clip-rule="evenodd" d="M38.99 33.253v-17.64c0-3.61-.36-5.054-2.065-7.736v-.103h8.366v.103c-1.394 2.218-2.066 4.126-2.066 7.736v17.485c0 8.871 4.648 12.018 10.794 12.018 8.315 0 10.948-5.932 10.948-12.482V16.387c0-3.868-.67-5.467-3.718-8.51v-.103h8.211l.104.103c-2.79 3.043-3.46 4.642-3.46 8.51v16.196c0 7.375-3.202 13.719-13.015 13.719-7.643 0-14.098-3.765-14.098-13.049Z" fill="#000"></path>
<path fill-rule="evenodd" clip-rule="evenodd" d="M38.99 33.253v-17.64c0-3.61-.36-5.054-2.065-7.736v-.103h8.366v.103c-1.394 2.218-2.066 4.126-2.066 7.736v17.485c0 8.871 4.648 12.018 10.794 12.018 8.315 0 10.948-5.932 10.948-12.482V16.387c0-3.868-.67-5.467-3.718-8.51v-.103h8.211l.104.103c-2.79 3.043-3.46 4.642-3.46 8.51v16.196c0 7.375-3.202 13.719-13.015 13.719-7.643 0-14.098-3.765-14.098-13.049Z" fill="#000" fill-opacity=".2"></path>
<mask id="jufsmxzeda-b" style="mask-type:luminance" maskUnits="userSpaceOnUse" x="71" y="7" width="39" height="40">
<path fill-rule="evenodd" clip-rule="evenodd" d="M71.68 7H110v39.302H71.68V7Z" fill="#fff"></path>
</mask>
<g mask="url(#jufsmxzeda-b)" fill-rule="evenodd" clip-rule="evenodd" fill="#000">
<path d="M105.146 26.703c0-10.625-5.062-18.671-14.357-18.671-9.245 0-14.254 8.046-14.254 18.67 0 10.626 5.01 18.568 14.254 18.568 9.295 0 14.357-7.89 14.357-18.567Zm-33.466 0C71.68 15.665 80.563 7 90.79 7 101.066 7 110 15.665 110 26.703c0 11.037-8.934 19.6-19.211 19.6-10.226 0-19.109-8.563-19.109-19.6Z"></path>
<path d="M105.146 26.703c0-10.625-5.062-18.671-14.357-18.671-9.245 0-14.254 8.046-14.254 18.67 0 10.626 5.01 18.568 14.254 18.568 9.295 0 14.357-7.89 14.357-18.567Zm-33.466 0C71.68 15.665 80.563 7 90.79 7 101.066 7 110 15.665 110 26.703c0 11.037-8.934 19.6-19.211 19.6-10.226 0-19.109-8.563-19.109-19.6Z" fill-opacity=".2"></path>
</g>
<path fill-rule="evenodd" clip-rule="evenodd" d="M48.361 63.62c0-1.328-.846-2.331-2.185-2.331-1.348 0-2.194 1.003-2.194 2.33 0 1.338.837 2.332 2.194 2.332 1.34 0 2.185-.994 2.185-2.331Zm-5.514 0c0-1.82 1.246-3.38 3.33-3.38 2.054 0 3.319 1.56 3.319 3.38 0 1.82-1.265 3.38-3.32 3.38-2.073 0-3.329-1.56-3.329-3.38Zm-5.69 2.265c.715 0 1.022-.409 1.022-.92 0-.52-.307-.928-1.06-.928h-1.292v1.848h1.33Zm-.112-2.785c.632 0 .939-.344.939-.883 0-.547-.353-.845-.94-.845h-1.217V63.1h1.218Zm-2.353-2.721h2.39c1.348 0 2.008.724 2.008 1.736 0 .706-.362 1.124-.818 1.365v.019c.456.148 1.042.576 1.042 1.504 0 1.133-.846 1.876-2.148 1.876h-2.474v-6.5Zm21.815.91c1.34 0 2.186 1.003 2.186 2.33 0 1.338-.847 2.332-2.186 2.332-1.357 0-2.194-.994-2.194-2.331 0-1.328.846-2.331 2.194-2.331Zm0-1.05c-2.082 0-3.328 1.56-3.328 3.38 0 1.82 1.255 3.381 3.328 3.381 2.056 0 3.32-1.56 3.32-3.38 0-1.82-1.264-3.38-3.32-3.38Zm8.305 1.19h-1.878v-1.05h4.89v1.05h-1.877v5.45h-1.135v-5.45Zm7.383 3.417-1.06.306C71.451 66.359 72.344 67 73.627 67c1.34 0 2.4-.761 2.4-1.95 0-1.124-.717-1.709-2.204-2.006-.884-.186-1.367-.372-1.367-.883 0-.603.483-.9 1.162-.9.716 0 1.041.38 1.218 1.05l1.06-.298c-.279-1.114-1.079-1.774-2.278-1.774-1.348 0-2.297.79-2.297 1.922 0 1.115.828 1.681 2.297 1.95 1.004.177 1.274.502 1.274.939 0 .613-.53.928-1.265.928-.827 0-1.209-.38-1.432-1.132Z" fill="#000"></path>
<path fill-rule="evenodd" clip-rule="evenodd" d="M48.361 63.62c0-1.328-.846-2.331-2.185-2.331-1.348 0-2.194 1.003-2.194 2.33 0 1.338.837 2.332 2.194 2.332 1.34 0 2.185-.994 2.185-2.331Zm-5.514 0c0-1.82 1.246-3.38 3.33-3.38 2.054 0 3.319 1.56 3.319 3.38 0 1.82-1.265 3.38-3.32 3.38-2.073 0-3.329-1.56-3.329-3.38Zm-5.69 2.265c.715 0 1.022-.409 1.022-.92 0-.52-.307-.928-1.06-.928h-1.292v1.848h1.33Zm-.112-2.785c.632 0 .939-.344.939-.883 0-.547-.353-.845-.94-.845h-1.217V63.1h1.218Zm-2.353-2.721h2.39c1.348 0 2.008.724 2.008 1.736 0 .706-.362 1.124-.818 1.365v.019c.456.148 1.042.576 1.042 1.504 0 1.133-.846 1.876-2.148 1.876h-2.474v-6.5Zm21.815.91c1.34 0 2.186 1.003 2.186 2.33 0 1.338-.847 2.332-2.186 2.332-1.357 0-2.194-.994-2.194-2.331 0-1.328.846-2.331 2.194-2.331Zm0-1.05c-2.082 0-3.328 1.56-3.328 3.38 0 1.82 1.255 3.381 3.328 3.381 2.056 0 3.32-1.56 3.32-3.38 0-1.82-1.264-3.38-3.32-3.38Zm8.305 1.19h-1.878v-1.05h4.89v1.05h-1.877v5.45h-1.135v-5.45Zm7.383 3.417-1.06.306C71.451 66.359 72.344 67 73.627 67c1.34 0 2.4-.761 2.4-1.95 0-1.124-.717-1.709-2.204-2.006-.884-.186-1.367-.372-1.367-.883 0-.603.483-.9 1.162-.9.716 0 1.041.38 1.218 1.05l1.06-.298c-.279-1.114-1.079-1.774-2.278-1.774-1.348 0-2.297.79-2.297 1.922 0 1.115.828 1.681 2.297 1.95 1.004.177 1.274.502 1.274.939 0 .613-.53.928-1.265.928-.827 0-1.209-.38-1.432-1.132Z" fill="#000" fill-opacity=".2"></path>
</g>
</svg>