<svg width="291" height="74" xmlns="http://www.w3.org/2000/svg" viewBox="0 0 291 74" fill="none">
<g opacity=".3" fill-rule="evenodd" clip-rule="evenodd" fill="#000">
<path d="m202.202 41.426.31.845c.338.918.995 2.477 2.194 2.485h.058v.096h-4.509v-.096h.058a1.092 1.092 0 0 0 .963-.624c.153-.316.094-.59-.022-.907-.216-.584-.432-1.168-.65-1.753l-.128-.35-.635-1.713a.628.628 0 0 0-.743-.51h-4.439c-.157 0-.314-.002-.471-.005-.157-.003-.313-.007-.469-.007-.235 0-.516.056-.611.303-.076.189-.143.38-.211.572h-.001l-.054.154-.036.101-.437 1.209c-.073.207-.148.413-.224.62l-.213.614c-.225.62-.353 1.217-.107 1.728.174.358.535.588.934.595h.056v.095h-3.355v-.098h.054c.274-.03.53-.148.728-.339.114-.095.231-.204.342-.31.324-.363.586-.776.774-1.224l.09-.255L196.645 28h.615l4.879 13.257.063.17Zm-8.855-2.931h4.569l1.583-.005-1.107-2.994c-.395-1.07-.788-2.14-1.181-3.212l-.002-.006-.002-.005-.001-.003-.001-.002v-.002l-.012-.031-.826-2.252-2.633 7.386-.302.883c-.004.007-.005.012-.007.018a.246.246 0 0 1-.013.036c-.013.033-.026.066-.038.101l-.003.007c-.007.016-.024.053-.024.07v.01Zm32.834-10.172h.327l.012-.009h.252v.097h-.056a1.155 1.155 0 0 0-.199.027 2.185 2.185 0 0 0-.506.293l-.024.017-.006.004-.009.01a6.58 6.58 0 0 0-.325.297 4.028 4.028 0 0 0-.633.921 3.043 3.043 0 0 0-.151.302l-.091.256-4.441 12.45-.67 1.88h-.221l-.125-.303a12667.75 12667.75 0 0 1-3.822-9.277c-.573-1.379-1.139-2.762-1.705-4.144v-.002l-1.013-2.471-.183-.372-.033-.066a.04.04 0 0 1 .015-.05.038.038 0 0 1 .037-.012l.302.08a4.51 4.51 0 0 1 1.067.39c.353.203.616.5.861 1.03l.053.128 5.191 12.603 2.755-7.714.166-.465.463-1.296c.255-.717.512-1.433.768-2.15l.026-.07.026-.07v-.002c.117-.318.231-.631.231-.981a1.426 1.426 0 0 0-.127-.643 1.065 1.065 0 0 0-.932-.597h-.056v-.09h2.776Zm-215.339.618a5.153 5.153 0 0 0-1.62-.501 6.051 6.051 0 0 0-.558-.062c-1.317-.073-2.79-.08-4.247-.076h-.123l-2.265.012H.823v.1h.058c.024 0 .057 0 .093.007.32.038 1.058.256 1.058 1.458V42.48l-.01.604c.011 1.51-.755 1.682-1.011 1.697H.924v.097h3.72v-.095H4.56c-.257-.015-1.007-.183-1.01-1.662l.027-1.36v-4.586h.85c1.456 0 2.929 0 4.245-.077 2.312-.127 4.591-1.713 4.603-4.2v-.163c.046-1.587-.842-3.055-2.433-3.794Zm.285 6.042a3.272 3.272 0 0 1-1.208 1.285c-.371.224-.789.358-1.22.391-1.36.1-2.621.083-3.916.065-.344-.005-.69-.01-1.04-.012a.166.166 0 0 1-.14-.083 1.94 1.94 0 0 1-.027-.349v-7.093a1.964 1.964 0 0 1 .026-.349.166.166 0 0 1 .14-.083c.35-.002.693-.007 1.034-.012 1.298-.017 2.56-.034 3.922.067.433.029.854.158 1.228.377a3.75 3.75 0 0 1 1.198 1.298 4.948 4.948 0 0 1 0 4.498h.003Zm28.084 8.603-1.118-1.274-2.23-2.542-2.194-2.5c-.1-.092-.19-.193-.269-.303-.063-.11-.025-.117.07-.134l.081-.017c.255-.068.512-.139.766-.214.938-.284 1.797-.663 2.5-1.36.592-.591 1.057-1.359 1.134-2.21v-.025c.21-2.395-1.51-4.42-4.018-4.634h-.163a137.529 137.529 0 0 0-7.013-.01h-.578v.096h.055c.082.004.164.016.244.036.805.2.873 1.1.873 1.754v13.227c-.098 1.129-.703 1.311-.964 1.337h-.119v.097h3.729v-.097h-.085a.883.883 0 0 1-.234-.047c-.328-.112-.787-.476-.778-1.65 0 0-.007-4.815-.007-5.976v-.123a.17.17 0 0 1 .089-.14.43.43 0 0 1 .192-.018H29.955c.095 0 .19 0 .285.01.051.006.1.009.147.011l.125.009c.09.01.174.018.26.032a3.146 3.146 0 0 1 .488.114 2.386 2.386 0 0 1 .46.204 2.642 2.642 0 0 1 .443.316c.07.06.151.136.22.21l.035.04c.06.064.127.136.183.206.068.085.151.19.22.287l.034.046.013.02 4.958 5.608c.705.907 1.217.906 2.335.906h.081a.042.042 0 0 0 .032-.068l-1.063-1.224Zm-6.495-7.099-3.497-.02h-.103a.464.464 0 0 1-.102 0 .15.15 0 0 1-.101-.076.27.27 0 0 1-.023-.07V35.16l.03-6.372c0-.08.062-.146.142-.151l.302-.01c.48-.015.96-.015 1.44-.015h.531a11.037 11.037 0 0 1 2.2.158c.223.047.453.101.673.17 1.828.552 2.494 2.553 2.024 4.802-.323 1.552-1.828 2.716-3.518 2.75l.002-.004Zm146.504 5.784c-.088.048-.163.2-.2.276l-.019.037a9.47 9.47 0 0 1-.207.35c-.627 1.003-1.571 1.577-2.773 1.592h-2.496c-.151 0-.302 0-.441-.008h-1.563a.228.228 0 0 1-.228-.226v-3.553c.004-1.31.004-2.62.005-3.931.001-1.748.001-3.495.01-5.243 0-.173 0-.348-.012-.523v-.929c-.011-1.51.755-1.683 1.012-1.698h.066a.018.018 0 0 0 .014-.005.019.019 0 0 0 .006-.014v-.058a.018.018 0 0 0-.006-.014.018.018 0 0 0-.014-.005h-3.721a.02.02 0 0 0-.02.02v.057c0 .01.009.02.02.02h.066c.26.014 1.023.185 1.012 1.697v.93c0 .082-.003.166-.006.248-.003.092-.007.183-.006.274.007 1.488.007 2.976.007 4.464v.009c0 1.567 0 3.135.008 4.701v2.345c.011 1.51-.755 1.68-1.012 1.696h-.066l-.008.001-.001.001-.003.002-.002.002c-.003.002-.004.005-.005.008l-.001.005v.058c0 .01.009.02.02.02h9.735a.824.824 0 0 0 .824-.756c.031-.338.062-.675.095-1.013.009-.094.022-.187.034-.28v-.003c.021-.157.042-.313.047-.473a.116.116 0 0 0-.022-.069.126.126 0 0 0-.149-.012Zm60.335-14.025h-2.588v.097h.087c.247.013.965.175 1.007 1.539v13.285c-.042 1.359-.755 1.525-1.007 1.539h-.087v.096h3.762v-.096h-.087c-.244-.014-.944-.17-1.006-1.478v-13.4c.059-1.316.756-1.472 1.006-1.485h.087v-.097h-1.174Zm47.513 0H290.823v.097h-.086c-.249.014-.948.174-1.004 1.498a.278.278 0 0 0 0 .041v13.29a.258.258 0 0 0 0 .04c.056 1.326.758 1.486 1.004 1.5h.086v.096h-3.761v-.096h.086a.923.923 0 0 0 .432-.151c.272-.17.538-.538.574-1.333v-6.42c.001-.152.002-.311-.124-.425a.763.763 0 0 0-.35-.163 2.065 2.065 0 0 0-.474-.038h-8.536a2.093 2.093 0 0 0-.476.038.77.77 0 0 0-.349.163c-.126.114-.125.268-.124.423v6.41c.037.795.31 1.162.574 1.333a.921.921 0 0 0 .432.15h.103v.097h-3.761V44.7h.085c.25-.014.95-.174 1.006-1.5a.256.256 0 0 1 0-.04V29.877a.278.278 0 0 1 0-.04c-.056-1.325-.76-1.486-1.006-1.5h-.085v-.096h3.761v.097h-.086a.885.885 0 0 0-.432.15c-.272.173-.539.54-.574 1.34v4.57c0 .066-.002.137-.005.21-.014.42-.03.918.383 1.125.142.066.296.104.453.11h8.76c.157-.007.311-.044.454-.11.412-.207.396-.7.382-1.123v-.004c-.002-.072-.005-.142-.005-.208v-4.563c-.035-.8-.309-1.168-.574-1.34a.884.884 0 0 0-.432-.151h-.086v-.097ZM62.083 43.234h.001c.164-.144.332-.291.51-.439a.11.11 0 0 1 .166.112l-.048.328v.001c-.024.164-.047.327-.073.491-.037.248-.08.497-.131.743a.829.829 0 0 1-.086.302.549.549 0 0 1-.224.16.906.906 0 0 1-.415.076H59.8c-2.195-.018-4.39-.018-6.584-.018h-1.058v-.095h.055a1.1 1.1 0 0 0 .829-.411 1.36 1.36 0 0 0 .28-.925c0-.981-.004-1.963-.008-2.945v-.003a848.63 848.63 0 0 1-.006-2.942V35.67c0-.982.003-1.962.006-2.943v-.003c.004-.982.007-1.964.007-2.946a1.36 1.36 0 0 0-.28-.924 1.1 1.1 0 0 0-.828-.41h-.056v-.096h1.057c.876-.002 1.753 0 2.63.002 1.916.004 3.833.008 5.747-.022.781-.012 1.009.121 1.009 1 .007.268.005.538.002.81l-.002.408v.07a.16.16 0 0 1 0 .046.032.032 0 0 1-.009.015.084.084 0 0 1-.068.029.098.098 0 0 1-.086-.05c-.826-1.396-2.134-1.982-3.613-2.029h-3.732a.218.218 0 0 0-.221.22l.014 1.367c.017 1.575.035 3.188.003 4.612-.01.387.004.843.395 1.038a1.7 1.7 0 0 0 .792.118h1.32a7.545 7.545 0 0 0 1.796-.151c.51-.126.957-.4 1.403-.672l.159-.097a.11.11 0 0 1 .169.09c0 .201-.002.402-.004.603-.005.49-.01.981.014 1.47a.11.11 0 0 1-.166.086l-.19-.113a7.2 7.2 0 0 0-.943-.499 4.833 4.833 0 0 0-1.92-.374h-1.86a2.068 2.068 0 0 0-.474.038.754.754 0 0 0-.35.163.474.474 0 0 0-.152.346l.01 1.641c.033 1.425.015 3.039-.002 4.613l-.014 1.366a.22.22 0 0 0 .22.22h2.804c.967 0 1.873-.037 2.78-.453.5-.23.933-.61 1.408-1.026Zm196.866-7.023c-1.319-.435-2.612-.906-3.76-1.719-2.176-1.553-1.634-3.596-.278-4.91 1.523-1.476 4.304-1.14 5.711-.204l.03.02c.363.268.659.613.869 1.011.232.4.448.813.664 1.223l.002.004.003.005.002.004.137.261c.013.023.023.046.034.07l.002.003.021.045c.022.042.035.056.068.056a.067.067 0 0 0 .064-.06v-.013c0-.066.003-.136.006-.204V31.8c.002-.052.004-.103.004-.149 0-.169.004-.338.008-.508v-.001c.007-.34.015-.681-.008-1.02l-.003-.067c-.009-.144-.015-.257-.031-.352a.52.52 0 0 0-.073-.218.578.578 0 0 0-.089-.1.778.778 0 0 0-.223-.15 12.293 12.293 0 0 0-3.221-.973l-.151-.017c-.046 0-.094-.006-.141-.013a8.054 8.054 0 0 0-.566-.043h-.028c-4.532-.15-5.202 3.559-5.201 3.559-.317 1.17-.072 2.245.873 3.285 1.014 1.117 2.307 1.75 3.72 2.178 1.239.377 2.417.867 3.443 1.688.604.484 1.148 1.03 1.373 1.791.388 1.317-.349 2.84-1.662 3.516-1.528.789-3.129.596-4.682.215a4.07 4.07 0 0 1-1.628-.811 4.517 4.517 0 0 1-.623-.638 5.727 5.727 0 0 1-.515-.765c-.098-.174-.19-.35-.282-.525l-.103-.193v-.001l-.035-.066c-.021-.037-.036-.077-.054-.114-.018-.038-.036-.06-.071-.06a.065.065 0 0 0-.064.058v.015c0 .066-.002.136-.005.204v.003c-.002.051-.005.101-.005.147 0 .17-.004.34-.008.51v.001c-.007.34-.014.68.008 1.019l.005.09c.031.544.037.648.667.892 1.661.643 3.389.89 5.154.906 1.59.012 3.031-.423 4.078-1.7 1.032-1.247 1.418-2.943.391-4.463-.932-1.4-2.278-2.21-3.827-2.72ZM136.52 28.385h2.028v.005h.423v.093h-.042a.642.642 0 0 0-.151.027.653.653 0 0 0-.228.139l-.023.023a5.223 5.223 0 0 0-.495.56c-.17.2-.322.415-.453.642-.432.767-.864 1.533-1.297 2.298-1.042 1.847-2.085 3.694-3.117 5.546a1.865 1.865 0 0 0-.21.848c-.008.754-.006 1.509-.005 2.264.001.916.002 1.833-.012 2.749v.057c-.004.255-.008.522.126.746a.743.743 0 0 0 .589.4h.071v.096H130.6v-.1h.071a.753.753 0 0 0 .554-.364c.157-.226.154-.471.152-.728v-.095c.013-1.51.013-3.021.013-4.531a.782.782 0 0 0-.065-.348 1.212 1.212 0 0 0-.078-.15l-.082-.152-.711-1.343-.712-1.341-.711-1.343-.713-1.341-.713-1.341a47.97 47.97 0 0 0-.196-.37 28.674 28.674 0 0 1-.587-1.14 8.133 8.133 0 0 0-.862-1.412.708.708 0 0 0-.535-.285h-.042v-.097h3.701v.097h-.044a.673.673 0 0 0-.314.09c-.198.11-.419.334-.396.578.04.214.113.422.216.614.101.217.201.43.302.642.132.269.27.535.409.802v.001a2195.781 2195.781 0 0 0 3.189 6.184c.04.08.088.153.147.245l.098.153a.407.407 0 0 1 .051-.092c.025-.04.048-.081.07-.123l.015-.028.019-.035.491-.885.755-1.373.889-1.6.865-1.559.696-1.253a7.51 7.51 0 0 0 .605-1.231c.093-.254.142-.523 0-.766a.726.726 0 0 0-.585-.38h-.042v-.093Zm-47.913-.081a239.88 239.88 0 0 1-3.13.024h-6.389c-1.042 0-2.085-.008-3.128-.024-.78-.012-1.003.122-1.009 1 0 .401 0 .81.008 1.217v.071a.156.156 0 0 0 0 .045.045.045 0 0 0 .009.017.086.086 0 0 0 .068.027.095.095 0 0 0 .085-.05c.827-1.394 2.135-1.98 3.614-2.028h2.544a.219.219 0 0 1 .22.22v3.625c-.004 1.311-.004 2.622-.005 3.933 0 1.748-.001 3.496-.01 5.243 0 .173 0 .346.012.522v.93c.01 1.51-.755 1.683-1.012 1.698h-.08v.104h3.761v-.095h-.086c-.258-.015-1.023-.184-1.012-1.698v-.93c0-.084.003-.167.006-.25.004-.09.007-.181.006-.272-.006-1.487-.007-2.975-.007-4.463 0-1.571 0-3.142-.008-4.712v-3.626a.22.22 0 0 1 .22-.22h2.544c1.479.048 2.787.634 3.613 2.028.017.032.05.051.086.05a.086.086 0 0 0 .068-.027v-.017a.119.119 0 0 0 0-.045v-.072c0-.182.003-.363.005-.543v-.002c.003-.226.006-.45.004-.673.005-.885-.216-1.02-.997-1.007Zm21.541.024c1.043-.003 2.086-.008 3.128-.024.781-.012 1.003.122.984 1.009.007.267.004.538.002.809l-.002.408v.071a.172.172 0 0 1 0 .045.05.05 0 0 1-.009.017.088.088 0 0 1-.068.027.095.095 0 0 1-.085-.05c-.828-1.394-2.136-1.98-3.614-2.028h-2.544a.22.22 0 0 0-.221.22v3.626c.008 1.57.008 3.14.009 4.712 0 1.487 0 2.975.007 4.463 0 .09-.003.181-.006.273-.003.082-.007.165-.007.249v.93c-.012 1.514.754 1.683 1.012 1.698h.085v.095h-3.759v-.104h.084c.257-.015 1.024-.188 1.012-1.698v-.93c-.012-.176-.012-.35-.012-.522.009-1.748.009-3.495.01-5.244.001-1.31.001-2.62.005-3.932v-3.625a.216.216 0 0 0-.219-.22h-2.545c-1.477.048-2.787.634-3.613 2.028a.095.095 0 0 1-.086.05.086.086 0 0 1-.068-.027v-.017a.115.115 0 0 1 0-.045v-.071c-.01-.408-.01-.816-.01-1.217.008-.878.229-1.012 1.01-1 1.042.016 2.086.024 3.129.024H110.148Z"></path>
<path d="m202.202 41.426.31.845c.338.918.995 2.477 2.194 2.485h.058v.096h-4.509v-.096h.058a1.092 1.092 0 0 0 .963-.624c.153-.316.094-.59-.022-.907-.216-.584-.432-1.168-.65-1.753l-.128-.35-.635-1.713a.628.628 0 0 0-.743-.51h-4.439c-.157 0-.314-.002-.471-.005-.157-.003-.313-.007-.469-.007-.235 0-.516.056-.611.303-.076.189-.143.38-.211.572h-.001l-.054.154-.036.101-.437 1.209c-.073.207-.148.413-.224.62l-.213.614c-.225.62-.353 1.217-.107 1.728.174.358.535.588.934.595h.056v.095h-3.355v-.098h.054c.274-.03.53-.148.728-.339.114-.095.231-.204.342-.31.324-.363.586-.776.774-1.224l.09-.255L196.645 28h.615l4.879 13.257.063.17Zm-8.855-2.931h4.569l1.583-.005-1.107-2.994c-.395-1.07-.788-2.14-1.181-3.212l-.002-.006-.002-.005-.001-.003-.001-.002v-.002l-.012-.031-.826-2.252-2.633 7.386-.302.883c-.004.007-.005.012-.007.018a.246.246 0 0 1-.013.036c-.013.033-.026.066-.038.101l-.003.007c-.007.016-.024.053-.024.07v.01Zm32.834-10.172h.327l.012-.009h.252v.097h-.056a1.155 1.155 0 0 0-.199.027 2.185 2.185 0 0 0-.506.293l-.024.017-.006.004-.009.01a6.58 6.58 0 0 0-.325.297 4.028 4.028 0 0 0-.633.921 3.043 3.043 0 0 0-.151.302l-.091.256-4.441 12.45-.67 1.88h-.221l-.125-.303a12667.75 12667.75 0 0 1-3.822-9.277c-.573-1.379-1.139-2.762-1.705-4.144v-.002l-1.013-2.471-.183-.372-.033-.066a.04.04 0 0 1 .015-.05.038.038 0 0 1 .037-.012l.302.08a4.51 4.51 0 0 1 1.067.39c.353.203.616.5.861 1.03l.053.128 5.191 12.603 2.755-7.714.166-.465.463-1.296c.255-.717.512-1.433.768-2.15l.026-.07.026-.07v-.002c.117-.318.231-.631.231-.981a1.426 1.426 0 0 0-.127-.643 1.065 1.065 0 0 0-.932-.597h-.056v-.09h2.776Zm-215.339.618a5.153 5.153 0 0 0-1.62-.501 6.051 6.051 0 0 0-.558-.062c-1.317-.073-2.79-.08-4.247-.076h-.123l-2.265.012H.823v.1h.058c.024 0 .057 0 .093.007.32.038 1.058.256 1.058 1.458V42.48l-.01.604c.011 1.51-.755 1.682-1.011 1.697H.924v.097h3.72v-.095H4.56c-.257-.015-1.007-.183-1.01-1.662l.027-1.36v-4.586h.85c1.456 0 2.929 0 4.245-.077 2.312-.127 4.591-1.713 4.603-4.2v-.163c.046-1.587-.842-3.055-2.433-3.794Zm.285 6.042a3.272 3.272 0 0 1-1.208 1.285c-.371.224-.789.358-1.22.391-1.36.1-2.621.083-3.916.065-.344-.005-.69-.01-1.04-.012a.166.166 0 0 1-.14-.083 1.94 1.94 0 0 1-.027-.349v-7.093a1.964 1.964 0 0 1 .026-.349.166.166 0 0 1 .14-.083c.35-.002.693-.007 1.034-.012 1.298-.017 2.56-.034 3.922.067.433.029.854.158 1.228.377a3.75 3.75 0 0 1 1.198 1.298 4.948 4.948 0 0 1 0 4.498h.003Zm28.084 8.603-1.118-1.274-2.23-2.542-2.194-2.5c-.1-.092-.19-.193-.269-.303-.063-.11-.025-.117.07-.134l.081-.017c.255-.068.512-.139.766-.214.938-.284 1.797-.663 2.5-1.36.592-.591 1.057-1.359 1.134-2.21v-.025c.21-2.395-1.51-4.42-4.018-4.634h-.163a137.529 137.529 0 0 0-7.013-.01h-.578v.096h.055c.082.004.164.016.244.036.805.2.873 1.1.873 1.754v13.227c-.098 1.129-.703 1.311-.964 1.337h-.119v.097h3.729v-.097h-.085a.883.883 0 0 1-.234-.047c-.328-.112-.787-.476-.778-1.65 0 0-.007-4.815-.007-5.976v-.123a.17.17 0 0 1 .089-.14.43.43 0 0 1 .192-.018H29.955c.095 0 .19 0 .285.01.051.006.1.009.147.011l.125.009c.09.01.174.018.26.032a3.146 3.146 0 0 1 .488.114 2.386 2.386 0 0 1 .46.204 2.642 2.642 0 0 1 .443.316c.07.06.151.136.22.21l.035.04c.06.064.127.136.183.206.068.085.151.19.22.287l.034.046.013.02 4.958 5.608c.705.907 1.217.906 2.335.906h.081a.042.042 0 0 0 .032-.068l-1.063-1.224Zm-6.495-7.099-3.497-.02h-.103a.464.464 0 0 1-.102 0 .15.15 0 0 1-.101-.076.27.27 0 0 1-.023-.07V35.16l.03-6.372c0-.08.062-.146.142-.151l.302-.01c.48-.015.96-.015 1.44-.015h.531a11.037 11.037 0 0 1 2.2.158c.223.047.453.101.673.17 1.828.552 2.494 2.553 2.024 4.802-.323 1.552-1.828 2.716-3.518 2.75l.002-.004Zm146.504 5.784c-.088.048-.163.2-.2.276l-.019.037a9.47 9.47 0 0 1-.207.35c-.627 1.003-1.571 1.577-2.773 1.592h-2.496c-.151 0-.302 0-.441-.008h-1.563a.228.228 0 0 1-.228-.226v-3.553c.004-1.31.004-2.62.005-3.931.001-1.748.001-3.495.01-5.243 0-.173 0-.348-.012-.523v-.929c-.011-1.51.755-1.683 1.012-1.698h.066a.018.018 0 0 0 .014-.005.019.019 0 0 0 .006-.014v-.058a.018.018 0 0 0-.006-.014.018.018 0 0 0-.014-.005h-3.721a.02.02 0 0 0-.02.02v.057c0 .01.009.02.02.02h.066c.26.014 1.023.185 1.012 1.697v.93c0 .082-.003.166-.006.248-.003.092-.007.183-.006.274.007 1.488.007 2.976.007 4.464v.009c0 1.567 0 3.135.008 4.701v2.345c.011 1.51-.755 1.68-1.012 1.696h-.066l-.008.001-.001.001-.003.002-.002.002c-.003.002-.004.005-.005.008l-.001.005v.058c0 .01.009.02.02.02h9.735a.824.824 0 0 0 .824-.756c.031-.338.062-.675.095-1.013.009-.094.022-.187.034-.28v-.003c.021-.157.042-.313.047-.473a.116.116 0 0 0-.022-.069.126.126 0 0 0-.149-.012Zm60.335-14.025h-2.588v.097h.087c.247.013.965.175 1.007 1.539v13.285c-.042 1.359-.755 1.525-1.007 1.539h-.087v.096h3.762v-.096h-.087c-.244-.014-.944-.17-1.006-1.478v-13.4c.059-1.316.756-1.472 1.006-1.485h.087v-.097h-1.174Zm47.513 0H290.823v.097h-.086c-.249.014-.948.174-1.004 1.498a.278.278 0 0 0 0 .041v13.29a.258.258 0 0 0 0 .04c.056 1.326.758 1.486 1.004 1.5h.086v.096h-3.761v-.096h.086a.923.923 0 0 0 .432-.151c.272-.17.538-.538.574-1.333v-6.42c.001-.152.002-.311-.124-.425a.763.763 0 0 0-.35-.163 2.065 2.065 0 0 0-.474-.038h-8.536a2.093 2.093 0 0 0-.476.038.77.77 0 0 0-.349.163c-.126.114-.125.268-.124.423v6.41c.037.795.31 1.162.574 1.333a.921.921 0 0 0 .432.15h.103v.097h-3.761V44.7h.085c.25-.014.95-.174 1.006-1.5a.256.256 0 0 1 0-.04V29.877a.278.278 0 0 1 0-.04c-.056-1.325-.76-1.486-1.006-1.5h-.085v-.096h3.761v.097h-.086a.885.885 0 0 0-.432.15c-.272.173-.539.54-.574 1.34v4.57c0 .066-.002.137-.005.21-.014.42-.03.918.383 1.125.142.066.296.104.453.11h8.76c.157-.007.311-.044.454-.11.412-.207.396-.7.382-1.123v-.004c-.002-.072-.005-.142-.005-.208v-4.563c-.035-.8-.309-1.168-.574-1.34a.884.884 0 0 0-.432-.151h-.086v-.097ZM62.083 43.234h.001c.164-.144.332-.291.51-.439a.11.11 0 0 1 .166.112l-.048.328v.001c-.024.164-.047.327-.073.491-.037.248-.08.497-.131.743a.829.829 0 0 1-.086.302.549.549 0 0 1-.224.16.906.906 0 0 1-.415.076H59.8c-2.195-.018-4.39-.018-6.584-.018h-1.058v-.095h.055a1.1 1.1 0 0 0 .829-.411 1.36 1.36 0 0 0 .28-.925c0-.981-.004-1.963-.008-2.945v-.003a848.63 848.63 0 0 1-.006-2.942V35.67c0-.982.003-1.962.006-2.943v-.003c.004-.982.007-1.964.007-2.946a1.36 1.36 0 0 0-.28-.924 1.1 1.1 0 0 0-.828-.41h-.056v-.096h1.057c.876-.002 1.753 0 2.63.002 1.916.004 3.833.008 5.747-.022.781-.012 1.009.121 1.009 1 .007.268.005.538.002.81l-.002.408v.07a.16.16 0 0 1 0 .046.032.032 0 0 1-.009.015.084.084 0 0 1-.068.029.098.098 0 0 1-.086-.05c-.826-1.396-2.134-1.982-3.613-2.029h-3.732a.218.218 0 0 0-.221.22l.014 1.367c.017 1.575.035 3.188.003 4.612-.01.387.004.843.395 1.038a1.7 1.7 0 0 0 .792.118h1.32a7.545 7.545 0 0 0 1.796-.151c.51-.126.957-.4 1.403-.672l.159-.097a.11.11 0 0 1 .169.09c0 .201-.002.402-.004.603-.005.49-.01.981.014 1.47a.11.11 0 0 1-.166.086l-.19-.113a7.2 7.2 0 0 0-.943-.499 4.833 4.833 0 0 0-1.92-.374h-1.86a2.068 2.068 0 0 0-.474.038.754.754 0 0 0-.35.163.474.474 0 0 0-.152.346l.01 1.641c.033 1.425.015 3.039-.002 4.613l-.014 1.366a.22.22 0 0 0 .22.22h2.804c.967 0 1.873-.037 2.78-.453.5-.23.933-.61 1.408-1.026Zm196.866-7.023c-1.319-.435-2.612-.906-3.76-1.719-2.176-1.553-1.634-3.596-.278-4.91 1.523-1.476 4.304-1.14 5.711-.204l.03.02c.363.268.659.613.869 1.011.232.4.448.813.664 1.223l.002.004.003.005.002.004.137.261c.013.023.023.046.034.07l.002.003.021.045c.022.042.035.056.068.056a.067.067 0 0 0 .064-.06v-.013c0-.066.003-.136.006-.204V31.8c.002-.052.004-.103.004-.149 0-.169.004-.338.008-.508v-.001c.007-.34.015-.681-.008-1.02l-.003-.067c-.009-.144-.015-.257-.031-.352a.52.52 0 0 0-.073-.218.578.578 0 0 0-.089-.1.778.778 0 0 0-.223-.15 12.293 12.293 0 0 0-3.221-.973l-.151-.017c-.046 0-.094-.006-.141-.013a8.054 8.054 0 0 0-.566-.043h-.028c-4.532-.15-5.202 3.559-5.201 3.559-.317 1.17-.072 2.245.873 3.285 1.014 1.117 2.307 1.75 3.72 2.178 1.239.377 2.417.867 3.443 1.688.604.484 1.148 1.03 1.373 1.791.388 1.317-.349 2.84-1.662 3.516-1.528.789-3.129.596-4.682.215a4.07 4.07 0 0 1-1.628-.811 4.517 4.517 0 0 1-.623-.638 5.727 5.727 0 0 1-.515-.765c-.098-.174-.19-.35-.282-.525l-.103-.193v-.001l-.035-.066c-.021-.037-.036-.077-.054-.114-.018-.038-.036-.06-.071-.06a.065.065 0 0 0-.064.058v.015c0 .066-.002.136-.005.204v.003c-.002.051-.005.101-.005.147 0 .17-.004.34-.008.51v.001c-.007.34-.014.68.008 1.019l.005.09c.031.544.037.648.667.892 1.661.643 3.389.89 5.154.906 1.59.012 3.031-.423 4.078-1.7 1.032-1.247 1.418-2.943.391-4.463-.932-1.4-2.278-2.21-3.827-2.72ZM136.52 28.385h2.028v.005h.423v.093h-.042a.642.642 0 0 0-.151.027.653.653 0 0 0-.228.139l-.023.023a5.223 5.223 0 0 0-.495.56c-.17.2-.322.415-.453.642-.432.767-.864 1.533-1.297 2.298-1.042 1.847-2.085 3.694-3.117 5.546a1.865 1.865 0 0 0-.21.848c-.008.754-.006 1.509-.005 2.264.001.916.002 1.833-.012 2.749v.057c-.004.255-.008.522.126.746a.743.743 0 0 0 .589.4h.071v.096H130.6v-.1h.071a.753.753 0 0 0 .554-.364c.157-.226.154-.471.152-.728v-.095c.013-1.51.013-3.021.013-4.531a.782.782 0 0 0-.065-.348 1.212 1.212 0 0 0-.078-.15l-.082-.152-.711-1.343-.712-1.341-.711-1.343-.713-1.341-.713-1.341a47.97 47.97 0 0 0-.196-.37 28.674 28.674 0 0 1-.587-1.14 8.133 8.133 0 0 0-.862-1.412.708.708 0 0 0-.535-.285h-.042v-.097h3.701v.097h-.044a.673.673 0 0 0-.314.09c-.198.11-.419.334-.396.578.04.214.113.422.216.614.101.217.201.43.302.642.132.269.27.535.409.802v.001a2195.781 2195.781 0 0 0 3.189 6.184c.04.08.088.153.147.245l.098.153a.407.407 0 0 1 .051-.092c.025-.04.048-.081.07-.123l.015-.028.019-.035.491-.885.755-1.373.889-1.6.865-1.559.696-1.253a7.51 7.51 0 0 0 .605-1.231c.093-.254.142-.523 0-.766a.726.726 0 0 0-.585-.38h-.042v-.093Zm-47.913-.081a239.88 239.88 0 0 1-3.13.024h-6.389c-1.042 0-2.085-.008-3.128-.024-.78-.012-1.003.122-1.009 1 0 .401 0 .81.008 1.217v.071a.156.156 0 0 0 0 .045.045.045 0 0 0 .009.017.086.086 0 0 0 .068.027.095.095 0 0 0 .085-.05c.827-1.394 2.135-1.98 3.614-2.028h2.544a.219.219 0 0 1 .22.22v3.625c-.004 1.311-.004 2.622-.005 3.933 0 1.748-.001 3.496-.01 5.243 0 .173 0 .346.012.522v.93c.01 1.51-.755 1.683-1.012 1.698h-.08v.104h3.761v-.095h-.086c-.258-.015-1.023-.184-1.012-1.698v-.93c0-.084.003-.167.006-.25.004-.09.007-.181.006-.272-.006-1.487-.007-2.975-.007-4.463 0-1.571 0-3.142-.008-4.712v-3.626a.22.22 0 0 1 .22-.22h2.544c1.479.048 2.787.634 3.613 2.028.017.032.05.051.086.05a.086.086 0 0 0 .068-.027v-.017a.119.119 0 0 0 0-.045v-.072c0-.182.003-.363.005-.543v-.002c.003-.226.006-.45.004-.673.005-.885-.216-1.02-.997-1.007Zm21.541.024c1.043-.003 2.086-.008 3.128-.024.781-.012 1.003.122.984 1.009.007.267.004.538.002.809l-.002.408v.071a.172.172 0 0 1 0 .045.05.05 0 0 1-.009.017.088.088 0 0 1-.068.027.095.095 0 0 1-.085-.05c-.828-1.394-2.136-1.98-3.614-2.028h-2.544a.22.22 0 0 0-.221.22v3.626c.008 1.57.008 3.14.009 4.712 0 1.487 0 2.975.007 4.463 0 .09-.003.181-.006.273-.003.082-.007.165-.007.249v.93c-.012 1.514.754 1.683 1.012 1.698h.085v.095h-3.759v-.104h.084c.257-.015 1.024-.188 1.012-1.698v-.93c-.012-.176-.012-.35-.012-.522.009-1.748.009-3.495.01-5.244.001-1.31.001-2.62.005-3.932v-3.625a.216.216 0 0 0-.219-.22h-2.545c-1.477.048-2.787.634-3.613 2.028a.095.095 0 0 1-.086.05.086.086 0 0 1-.068-.027v-.017a.115.115 0 0 1 0-.045v-.071c-.01-.408-.01-.816-.01-1.217.008-.878.229-1.012 1.01-1 1.042.016 2.086.024 3.129.024H110.148Z" fill-opacity=".2"></path>
</g>
</svg>