<svg width="282" height="74" xmlns="http://www.w3.org/2000/svg" viewBox="0 0 282 74" fill="none">
<path fill-rule="evenodd" clip-rule="evenodd" d="M0 28v2.778h5.892v15.224h3.041V30.778h5.892V28H0ZM49.77 28v2.778h5.891v15.224h3.042V30.778h5.891V28H49.77ZM76.243 28v2.778h5.892v15.224h3.04V30.778h5.893V28H76.243ZM102.716 46.002h3.177V28h-3.177v18.002ZM140.838 28v18.002h12.707v-2.777h-9.558V28h-3.149Z" fill="#fff"></path>
<mask id="gptcvthgjs-a" style="mask-type:luminance" maskUnits="userSpaceOnUse" x="192" y="28" width="15" height="19">
<path fill-rule="evenodd" clip-rule="evenodd" d="M192.987 28h13.779v18.001h-13.779V28Z" fill="#fff"></path>
</mask>
<g mask="url(#gptcvthgjs-a)">
<path fill-rule="evenodd" clip-rule="evenodd" d="M200.597 35.696c-2.223-.538-4.143-1.002-4.143-2.63 0-1.5 1.432-2.396 3.832-2.396 1.557 0 3.156.475 4.506 1.337l.306.194 1.031-2.503-.2-.138c-1.418-.977-3.528-1.56-5.643-1.56-5.028 0-6.82 2.666-6.82 5.162 0 3.726 3.433 4.559 6.192 5.227 2.211.535 4.119.998 4.119 2.621 0 1.476-1.423 2.323-3.905 2.323-2.017 0-4.143-.741-5.414-1.89l-.301-.273-1.17 2.462.163.151c1.452 1.348 4.091 2.218 6.722 2.218 3.18 0 6.894-1.345 6.894-5.136 0-3.677-3.278-4.47-6.169-5.17" fill="#fff"></path>
</g>
<path fill-rule="evenodd" clip-rule="evenodd" d="M230.126 35.508h-9.173v-7.313h-3.036v17.613h3.036v-7.583h9.173v7.583h3.035V28.195h-3.035v7.313ZM248.031 38.202h8.535v-2.669h-8.535v-4.62h9.582v-2.718h-12.618v17.612h12.958V43.09h-9.922v-4.887Z" fill="#fff"></path>
<mask id="gptcvthgjs-b" style="mask-type:luminance" maskUnits="userSpaceOnUse" x="268" y="28" width="14" height="19">
<path fill-rule="evenodd" clip-rule="evenodd" d="M268.221 28H282v18.001h-13.779V28Z" fill="#fff"></path>
</mask>
<g mask="url(#gptcvthgjs-b)">
<path fill-rule="evenodd" clip-rule="evenodd" d="M275.831 35.696c-2.223-.538-4.142-1.002-4.142-2.63 0-1.5 1.431-2.396 3.831-2.396 1.557 0 3.157.475 4.507 1.337l.305.194 1.032-2.503-.201-.138c-1.417-.977-3.526-1.56-5.643-1.56-5.028 0-6.82 2.666-6.82 5.162 0 3.726 3.433 4.559 6.192 5.227 2.211.535 4.12.998 4.12 2.621 0 1.476-1.423 2.323-3.905 2.323-2.018 0-4.144-.741-5.414-1.89l-.302-.273-1.17 2.462.164.151c1.452 1.348 4.09 2.218 6.722 2.218 3.179 0 6.893-1.345 6.893-5.136 0-3.677-3.278-4.47-6.169-5.17" fill="#fff"></path>
</g>
<path fill-rule="evenodd" clip-rule="evenodd" d="m176.162 39.007-2.299-4.907-2.274 4.907h4.573Zm-2.186-10.812 8.337 17.612h-3.25l-1.797-4.252h-6.78l-1.821 4.252h-3.151l8.462-17.613ZM34.715 39.007 32.416 34.1l-2.272 4.906h4.57ZM32.53 28.194l8.337 17.613h-3.25l-1.798-4.252H29.04l-1.822 4.252h-3.15l8.462-17.613Z" fill="#fff"></path>
</svg>