<svg class="w-full" width="137" height="85" xmlns="http://www.w3.org/2000/svg" viewBox="0 0 137 85" fill="none">
<path fill-rule="evenodd" clip-rule="evenodd" d="M15.6457 24.8123L11.5559 37.437H15.3035L19.4422 24.8123H15.6457ZM47.7423 37.9755C47.7423 37.4046 47.8564 36.8337 48.0845 36.3118C48.3452 35.7735 48.6873 35.3331 49.1435 34.9417C49.5997 34.5176 50.1701 34.224 50.8055 33.9956C51.4573 33.7673 52.2068 33.6531 53.0051 33.6531C53.8035 33.6531 54.439 33.7673 55.0582 33.9956C55.6611 34.224 56.2313 34.5665 56.655 35.0232C57.1112 35.4473 57.4534 35.9692 57.6815 36.5401C57.9096 37.111 58.0237 37.7472 58.0237 38.4322H55.2537C55.2537 37.7472 55.0582 37.2252 54.6508 36.8337C54.2272 36.4586 53.7058 36.2628 52.9888 36.2628C52.2719 36.2628 51.7017 36.4586 51.3269 36.8011C50.9033 37.1436 50.7241 37.5188 50.7241 37.9429C50.7241 38.3996 50.9196 38.7421 51.2943 38.9705C51.6691 39.1988 52.1579 39.4272 52.7282 39.6066L52.9555 39.678L52.9556 39.678C53.4653 39.8379 54.0193 40.0117 54.5857 40.2101C55.27 40.4058 55.9055 40.6995 56.4757 41.042C57.046 41.3845 57.5349 41.8412 57.9096 42.4447C58.2844 43.0156 58.4799 43.7333 58.4799 44.6467C58.4799 45.185 58.3333 45.7069 58.0563 46.2452C57.7956 46.7345 57.4534 47.2239 56.9645 47.648C56.4757 48.0721 55.9054 48.3656 55.2211 48.6429C54.5367 48.8713 53.7872 48.9855 52.9888 48.9855C52.1579 48.9855 51.3921 48.8713 50.7078 48.6429C50.056 48.4146 49.502 48.072 49.0458 47.6153C48.5895 47.1586 48.2148 46.6367 47.9867 46.0658C47.7586 45.4623 47.6445 44.7772 47.6445 44.0922H50.5286C50.5286 44.7772 50.7566 45.2992 51.2129 45.7559C51.6691 46.18 52.272 46.3594 53.0704 46.3594C53.9014 46.3594 54.5531 46.1637 54.9604 45.8211C55.3841 45.446 55.5633 45.0219 55.5633 44.5325C55.5633 44.0758 55.3678 43.7007 54.993 43.4723C54.6183 43.2114 54.1295 42.983 53.5592 42.7873C53.4834 42.7613 53.4065 42.7347 53.3284 42.7077L53.3283 42.7076L53.3282 42.7076C52.819 42.5316 52.2623 42.3393 51.669 42.1838C50.9847 41.988 50.3819 41.727 49.8116 41.3845C49.2413 41.042 48.7525 40.6342 48.3778 40.0959C48.003 39.5577 47.7749 38.8889 47.7749 37.9755H47.7423ZM129.491 41.2035C130.029 41.7744 130.289 42.4921 130.289 43.4055C130.289 44.3189 130.029 45.0366 129.491 45.6075C128.953 46.1784 128.318 46.4394 127.519 46.4394C126.721 46.4394 126.086 46.1458 125.548 45.6075C125.01 45.0366 124.749 44.3189 124.749 43.4055C124.749 42.4921 125.01 41.7418 125.548 41.2035C126.086 40.6326 126.721 40.3717 127.519 40.3717C128.318 40.3717 128.953 40.6653 129.491 41.2035ZM125.173 48.6414C125.776 48.9186 126.46 49.0655 127.145 49.0655L127.161 49.0818C127.65 49.0818 128.057 49.0328 128.481 48.886C128.855 48.7719 129.198 48.6087 129.458 48.462C129.752 48.2825 130.029 48.0868 130.289 47.8584V48.9513H132.799V33.8146C132.799 33.7004 132.603 33.7004 132.603 33.7004L130.029 35.0216V38.8221C129.801 38.6264 129.572 38.4306 129.263 38.2838C129.002 38.137 128.692 38.0229 128.35 37.9087C127.976 37.7945 127.601 37.713 127.145 37.713C126.46 37.713 125.776 37.8271 125.173 38.137C124.538 38.398 124 38.7732 123.511 39.3114C123.055 39.8008 122.68 40.4043 122.371 41.0893C122.094 41.807 121.947 42.5084 121.947 43.3566C121.947 44.2048 122.11 44.9551 122.371 45.6401C122.68 46.3741 123.055 46.9287 123.511 47.467C124 47.9563 124.538 48.3315 125.173 48.6414ZM63.6901 35.2517L61.4904 36.3446L61.5231 36.3609V38.1388H59.47V40.4223H61.1319V45.0547C61.1319 45.6582 61.1972 46.1964 61.3927 46.6858C61.5882 47.1914 61.8489 47.5992 62.1585 47.9417C62.5006 48.3169 62.8754 48.5778 63.3317 48.7736C63.7879 48.953 64.3093 49.0346 64.847 49.0346C65.2217 49.0346 65.5313 49.0019 65.792 48.9204C65.8839 48.8999 65.963 48.8731 66.0373 48.8479L66.0375 48.8478L66.0378 48.8477C66.0819 48.8327 66.1243 48.8183 66.1668 48.8062V46.4248C65.9387 46.539 65.7105 46.539 65.4498 46.539C64.9936 46.539 64.6188 46.3759 64.3092 46.1149C64.0323 45.8539 63.8856 45.4624 63.8856 44.9731V40.3734H66.2808V37.8289H63.8856V35.3659C63.8856 35.2843 63.6901 35.2517 63.6901 35.2517ZM74.8704 41.2061C75.4081 41.777 75.6687 42.4947 75.6687 43.4081C75.6687 44.3216 75.4081 45.0392 74.8704 45.6101C74.3327 46.181 73.6972 46.442 72.8988 46.442C72.1004 46.442 71.4649 46.1484 70.9272 45.6101C70.3895 45.0392 70.1288 44.3216 70.1288 43.4081C70.1288 42.4947 70.3895 41.7444 70.9272 41.2061C71.4649 40.6353 72.1004 40.3743 72.8988 40.3743C73.6972 40.3743 74.3327 40.6679 74.8704 41.2061ZM70.5851 48.644C71.1879 48.9213 71.8722 49.0681 72.5566 49.0681V49.0355C73.0128 49.0355 73.4691 49.0028 73.8438 48.8071C74.2186 48.7092 74.5607 48.5461 74.8214 48.3993C75.1147 48.2199 75.3917 48.0242 75.6524 47.7958V48.905H78.1943V37.8298H75.6524V38.9389C75.3917 38.7106 75.131 38.5311 74.8214 38.3354C74.5607 38.1723 74.2186 38.0255 73.8438 37.9113C73.4691 37.7971 73.0454 37.7156 72.5566 37.7156C71.8722 37.7156 71.1879 37.8298 70.5851 38.1397C69.9496 38.4006 69.4119 38.7758 68.9231 39.3141C68.4668 39.8034 68.0921 40.4069 67.7825 41.092C67.5218 41.8097 67.3751 42.511 67.3751 43.3592C67.3751 44.2074 67.5218 44.9577 67.7825 45.6427C68.0921 46.3767 68.4668 46.9313 68.9231 47.4696C69.4119 47.9589 69.9333 48.3341 70.5851 48.644ZM85.6764 37.747C86.2467 37.747 86.7355 37.8286 87.1103 37.9754C87.5339 38.1222 87.8273 38.2853 88.1043 38.4647C88.4139 38.6931 88.642 38.9214 88.7886 39.1824C89.0493 38.9214 89.3589 38.6441 89.6684 38.4647C89.978 38.269 90.3202 38.1222 90.695 37.9754C91.1186 37.8286 91.526 37.747 92.0148 37.747C93.2368 37.747 94.1819 38.1222 94.8988 38.8888C95.6157 39.6391 96.0068 40.7809 96.0068 42.2978V48.9364H93.2368V42.5588C93.2368 41.8737 93.0413 41.3518 92.6666 40.9603C92.3244 40.5851 91.9007 40.3894 91.4119 40.3894C90.9231 40.3894 90.4995 40.5851 90.1247 40.9603C89.7826 41.3354 89.587 41.8737 89.587 42.5588V48.9364H86.817V42.5588C86.817 41.8737 86.6215 41.3518 86.2468 40.9603C85.9046 40.5851 85.4809 40.3894 84.9921 40.3894C84.5033 40.3894 84.0797 40.5851 83.7049 40.9603C83.3628 41.3354 83.1672 41.8737 83.1672 42.5588V48.9364H80.3973V37.8612H82.9391V38.954C83.1672 38.7257 83.3954 38.53 83.7049 38.3505C83.8919 38.2302 84.1008 38.1318 84.3585 38.0104L84.3592 38.01C84.4157 37.9834 84.4745 37.9557 84.5359 37.9264C84.8781 37.8123 85.2528 37.7307 85.6764 37.7307V37.747ZM101.477 45.609C100.94 45.0381 100.679 44.3204 100.679 43.407C100.679 42.4935 100.94 41.7759 101.477 41.205C102.015 40.6341 102.651 40.3731 103.449 40.3731C104.247 40.3731 104.883 40.6667 105.421 41.205C105.958 41.7759 106.219 42.4935 106.219 43.407C106.219 44.3204 105.958 45.0707 105.421 45.609C104.883 46.1798 104.247 46.4408 103.449 46.4408C102.651 46.4408 102.015 46.1472 101.477 45.609ZM105.795 38.1711C105.192 37.8938 104.508 37.747 103.824 37.747V37.7307C103.335 37.7307 102.911 37.8123 102.569 37.9264C102.436 37.9842 102.308 38.0359 102.185 38.085L102.185 38.0851C101.962 38.1746 101.76 38.2558 101.591 38.3505C101.298 38.53 100.989 38.7257 100.76 38.954V37.8612H98.2186V52.7369C98.2186 52.8184 98.4142 52.8511 98.4142 52.8511L100.989 51.5299V48.0067C101.217 48.235 101.445 48.4308 101.754 48.5776C101.966 48.7244 102.276 48.8385 102.618 48.9527C102.96 49.0669 103.367 49.0995 103.824 49.0995C104.508 49.0995 105.192 48.9364 105.795 48.6754C106.398 48.3818 106.968 47.9904 107.425 47.501C107.93 46.9628 108.305 46.3593 108.565 45.6742C108.842 44.9565 108.989 44.2551 108.989 43.407C108.989 42.5588 108.875 41.8085 108.565 41.1234C108.288 40.4384 107.914 39.8348 107.425 39.3455C106.968 38.8562 106.398 38.4321 105.795 38.1711ZM115.622 40.4058C114.905 40.4058 114.302 40.6016 113.846 41.042C113.39 41.466 113.129 41.988 112.982 42.5915H118.294C118.18 41.988 117.87 41.4497 117.414 41.042C116.925 40.5852 116.355 40.4058 115.638 40.4058H115.622ZM120.559 45.5601C120.553 45.5764 120.547 45.5928 120.541 45.6091H117.691C117.544 45.7722 117.398 45.919 117.202 46.0331C117.007 46.1473 116.811 46.2615 116.55 46.343C116.322 46.4246 116.013 46.4572 115.638 46.4572C114.905 46.4572 114.351 46.2615 113.927 45.8863C113.52 45.4949 113.21 45.0545 113.096 44.5162H120.787C120.787 44.4592 120.795 44.394 120.803 44.3288L120.803 44.3286L120.803 44.3284C120.811 44.2632 120.819 44.1981 120.819 44.1411C120.819 44.084 120.828 44.0269 120.836 43.9698C120.844 43.9127 120.852 43.8556 120.852 43.7985C120.885 43.6843 120.885 43.5375 120.885 43.4234C120.885 42.5752 120.771 41.8249 120.461 41.1398C120.2 40.4221 119.809 39.8023 119.32 39.313C118.864 38.8237 118.31 38.4322 117.658 38.1712C117.007 37.9102 116.322 37.7634 115.605 37.7634C114.889 37.7634 114.172 37.9102 113.487 38.2201C112.835 38.5137 112.281 38.8889 111.744 39.4272C111.255 39.9654 110.848 40.5689 110.538 41.254C110.261 41.9391 110.114 42.6894 110.114 43.456C110.114 44.2226 110.228 44.9729 110.538 45.658C110.831 46.3267 111.255 46.8976 111.744 47.4359C112.233 47.9252 112.835 48.333 113.487 48.6429C114.123 48.9202 114.84 49.067 115.605 49.067C116.257 49.067 116.811 48.9854 117.349 48.7571C117.87 48.5287 118.359 48.2677 118.783 47.9578C119.223 47.6153 119.565 47.2402 119.874 46.8161C120.172 46.4083 120.394 46.0156 120.541 45.6091H120.608V45.5764L120.559 45.5601ZM134.718 48.0234V47.7951H133.772V48.0234H134.115V48.9368H134.376V48.0234H134.718ZM136.149 47.7625V48.9042H135.888V48.2192L135.513 48.8227H135.464L135.09 48.2192V48.9042H134.829V47.7625H135.09L135.464 48.366L135.855 47.7625H136.149ZM11.6173 48.8722L0.863327 41.0429L2.03653 37.4382L12.7904 45.2675L11.6173 48.8722ZM11.6977 60.1265L22.4679 52.3135L19.3884 50.0789L8.63447 57.8918L11.6977 60.1265ZM29.1028 43.0168L33.1925 55.6905L30.1619 57.8925L26.0232 45.2678L29.1028 43.0168ZM35.653 33.8323H22.3571L23.5304 37.437H36.8261L35.653 33.8323Z" fill="white"></path>
</svg>