<svg width="265" height="74" xmlns="http://www.w3.org/2000/svg" viewBox="0 0 265 74" fill="none">
<mask id="ewmfafifmi-a" style="mask-type:luminance" maskUnits="userSpaceOnUse" x="259" y="28" width="6" height="7">
<path fill-rule="evenodd" clip-rule="evenodd" d="M259.681 28.639H265v5.377h-5.319V28.64Z" fill="#fff"></path>
<path fill-rule="evenodd" clip-rule="evenodd" d="M259.681 28.639H265v5.377h-5.319V28.64Z" stroke="#fff"></path>
</mask>
<g mask="url(#ewmfafifmi-a)">
<path fill-rule="evenodd" clip-rule="evenodd" d="M261.708 30.215h.906c.795 0 .78 1.112-.022 1.112h-.884v-1.112Zm.905-.339h-1.252v2.822h.346v-1.061h.611l.921 1.06h.383v-.058l-.884-1.002c1.12-.14 1.076-1.76-.125-1.76Zm-.273 3.809c1.458 0 2.291-1.046 2.291-2.358 0-1.318-.833-2.364-2.291-2.364-1.459 0-2.284 1.046-2.284 2.364 0 1.312.825 2.358 2.284 2.358Zm2.66-2.358c0 1.46-.951 2.69-2.66 2.69-1.701 0-2.659-1.23-2.659-2.69 0-1.466.958-2.689 2.659-2.689 1.709 0 2.66 1.223 2.66 2.69Z" fill="#fff"></path>
</g>
<path fill-rule="evenodd" clip-rule="evenodd" d="M193.178 36.672h10.226v1.222h-10.226v6.884h11.025v1.297h-12.347V28.616h12.047v1.272h-10.725v6.784ZM212.881 29.888v14.89h4.564c5.188 0 7.583-3.89 7.508-7.632-.075-3.641-2.469-7.258-7.508-7.258h-4.564Zm13.418 7.258c.1 4.44-2.743 8.93-8.854 8.93h-5.911v-17.46h5.911c5.911 0 8.754 4.24 8.854 8.53ZM234.129 46.075h1.322V28.616h-1.322v17.459ZM249.542 29.838h-6.31v-1.197h13.967v1.197h-6.31v16.237h-1.347V29.838ZM6.31 29.826H0V28.63h13.967v1.197h-6.31v16.237H6.31V29.826ZM33.495 46.063v-7.931H22.372v7.931h-1.348V28.604h1.348v8.306h11.123v-8.306h1.347v17.459h-1.347ZM44.493 36.66h10.226v1.222H44.493v6.884h11.024v1.297H43.171V28.604h12.046v1.272H44.493v6.784ZM73.212 32.814c-.598-.998-2.244-1.946-4.14-1.946-2.444 0-3.616 1.023-3.616 2.32 0 1.521 1.795 1.945 3.89 2.195 3.642.449 7.034 1.396 7.034 5.562 0 3.89-3.442 5.562-7.333 5.562-3.566 0-6.31-1.098-7.607-4.29l2.744-1.422c.773 1.92 2.793 2.768 4.913 2.768 2.07 0 4.016-.723 4.016-2.618 0-1.646-1.721-2.32-4.04-2.57-3.567-.423-6.86-1.37-6.86-5.287 0-3.592 3.542-5.063 6.76-5.088 2.718 0 5.536.773 6.858 3.467l-2.619 1.347ZM86.705 37.902h4.938c4.215 0 4.19-6.186 0-6.186h-4.938v6.186Zm4.938 3.018h-4.939v5.137h-3.292V28.6c2.744 0 5.487-.025 8.231-.025 8.53 0 8.555 12.346 0 12.346ZM107.23 37.503c.075 2.868 1.621 5.936 5.736 5.936 4.116 0 5.662-3.093 5.712-5.961.05-2.943-1.596-6.236-5.712-6.236-4.115 0-5.811 3.318-5.736 6.26m14.69-.074c-.05 4.514-2.818 9.029-8.954 9.029-6.135 0-8.979-4.415-8.979-9.004 0-4.59 2.943-9.204 8.979-9.204 6.011 0 9.004 4.615 8.954 9.179M132.146 31.667v5.587h5.013c2.095 0 2.993-1.397 2.993-2.794s-.923-2.793-2.993-2.793h-5.013Zm12.171 14.39h-3.916l-5.087-5.836h-3.168v5.837h-3.292V28.574c2.768 0 5.537.025 8.305.025 4.115.024 6.285 2.768 6.285 5.786 0 2.394-1.097 4.814-4.414 5.487l5.287 5.961v.225ZM155.439 31.592h-5.537v-2.993h14.367v2.993h-5.537v14.466h-3.293V31.592ZM181.526 32.814c-.598-.998-2.244-1.946-4.14-1.946-2.444 0-3.616 1.023-3.616 2.32 0 1.521 1.795 1.945 3.891 2.195 3.641.449 7.033 1.396 7.033 5.562 0 3.89-3.442 5.562-7.333 5.562-3.566 0-6.31-1.098-7.607-4.29l2.744-1.422c.773 1.92 2.793 2.768 4.913 2.768 2.07 0 4.016-.723 4.016-2.618 0-1.646-1.722-2.32-4.041-2.57-3.567-.423-6.859-1.37-6.859-5.287 0-3.592 3.542-5.063 6.759-5.088 2.719 0 5.537.773 6.859 3.467l-2.619 1.347Z" fill="#fff"></path>
</svg>