<svg width="200" height="74" xmlns="http://www.w3.org/2000/svg" viewBox="0 0 200 74" fill="none">
<g opacity=".3">
<path d="M24.615 32.77 47.692 45.46 24.615 58.154 1.538 45.46 24.615 32.77Z" fill="#000"></path>
<path d="M24.615 32.77 47.692 45.46 24.615 58.154 1.538 45.46 24.615 32.77Z" fill="#000" fill-opacity=".2"></path>
<path d="M24.615 47.646 2.335 35.462l22.28-12.185 22.28 12.185-22.28 12.184Z" fill="#000"></path>
<path d="M24.615 47.646 2.335 35.462l22.28-12.185 22.28 12.185-22.28 12.184Z" fill="#000" fill-opacity=".2"></path>
<path d="M24.615 47.646 2.335 35.462l22.28-12.185 22.28 12.185-22.28 12.184Z" stroke="#fff" stroke-width="2.242"></path>
<path d="M24.615 37.646 2.335 25.462l22.28-12.185 22.28 12.185-22.28 12.184Z" fill="#000"></path>
<path d="M24.615 37.646 2.335 25.462l22.28-12.185 22.28 12.185-22.28 12.184Z" fill="#000" fill-opacity=".2"></path>
<path d="M24.615 37.646 2.335 25.462l22.28-12.185 22.28 12.185-22.28 12.184Z" stroke="#fff" stroke-width="2.242"></path>
<path fill-rule="evenodd" clip-rule="evenodd" d="M156.014 30.957v-9.108h2.334v-2.706h-2.358v-.604c0-1.16.505-2.102 1.708-2.102.481 0 .866.073 1.179.17l.144-2.827c-.505-.145-1.13-.241-1.948-.241-1.059 0-2.334.313-3.248 1.183-1.058.967-1.491 2.537-1.491 3.962v.46h-1.54v2.705h1.54v9.108h3.68Zm-92.412 0h1.155v-7.079c0-.483.024-.797.144-1.16.505-1.425 1.853-2.609 3.489-2.609 2.357 0 3.175 1.909 3.175 3.986v6.861h1.155v-6.981c0-4.325-2.935-4.88-4.018-4.88-.866 0-1.66.265-2.333.676a4.314 4.314 0 0 0-1.564 1.667h-.048V13.78h-1.155v17.176Zm-6.27-13.722v2.126h-1.948v.942h1.949v7.32c0 1.184.192 2.174.721 2.778.433.532 1.13.797 1.973.797.697 0 1.227-.12 1.612-.265l-.145-.87c-.288.097-.721.169-1.323.169-1.227 0-1.684-.918-1.684-2.392v-7.537h3.296v-.942h-3.296V16.8l-1.154.435Zm27.179 7.102c0 .314 0 .483-.048.701h-8.516c0 3.696 2.02 5.17 4.402 5.17 1.684 0 2.55-.338 3.2-.652l.288.893c-.433.242-1.611.75-3.632.75-3.32 0-5.389-2.417-5.389-5.823 0-3.865 2.213-6.281 5.197-6.281 3.776 0 4.498 3.575 4.498 5.242Zm-8.493-.217c.216-1.788 1.299-4.059 3.849-4.059 2.79 0 3.464 2.44 3.44 4.059h-7.29Zm21.181-4.977h3.681v8.02c0 1.547.048 2.803.096 3.794h-3.175l-.169-1.667h-.072c-.457.725-1.564 1.933-3.68 1.933-2.382 0-4.138-1.498-4.138-5.146v-6.934h3.68v6.354c0 1.715.554 2.754 1.829 2.754 1.01 0 1.587-.7 1.828-1.28.096-.218.12-.508.12-.798v-7.03Zm5.895 11.814h3.657v-6.813c0-.338.048-.676.144-.918.241-.677.842-1.377 1.852-1.377 1.323 0 1.853 1.039 1.853 2.56v6.548h3.656V23.95c0-3.48-1.804-5.074-4.21-5.074-1.948 0-3.151 1.136-3.632 1.885h-.072l-.169-1.619h-3.175c.048 1.039.096 2.295.096 3.769v8.045Zm21-10.751v-6.402h3.656v13.625c0 1.33.048 2.73.096 3.527h-3.247l-.169-1.739h-.048c-.746 1.329-2.165 2.005-3.68 2.005-2.791 0-5.028-2.392-5.028-6.064-.024-3.986 2.454-6.28 5.268-6.28 1.444 0 2.574.507 3.103 1.328h.049Zm-.001 5.484c0 .314-.024.58-.096.846-.217 1.038-1.059 1.763-2.117 1.763-1.516 0-2.502-1.256-2.502-3.261 0-1.86.866-3.358 2.526-3.358 1.131 0 1.924.821 2.141 1.812.024.193.048.459.048.652v1.546Zm16.496-.918c0 .628-.072 1.184-.12 1.45h-7.578c.121 1.521 1.612 2.246 3.32 2.246 1.251 0 2.261-.169 3.248-.483l.481 2.488c-1.203.484-2.67.75-4.258.75-3.993 0-6.279-2.344-6.279-6.04 0-2.996 1.853-6.306 5.942-6.306 3.801 0 5.244 2.972 5.244 5.895Zm-7.722-1.063c.096-.99.722-2.392 2.261-2.392 1.684 0 2.069 1.498 2.069 2.392h-4.33Zm12.974 7.248h-3.657v-7.924c0-1.74-.048-2.875-.096-3.89h3.151l.121 2.174h.096c.601-1.715 2.045-2.44 3.175-2.44.337 0 .506 0 .77.049v3.479a3.65 3.65 0 0 0-.986-.121c-1.347 0-2.261.725-2.502 1.86a4.358 4.358 0 0 0-.072.821v5.992Zm17.938 0h-3.656V13.803h3.656v17.152Zm7.973-12.08c-3.777 0-6.279 2.44-6.279 6.257 0 3.817 2.647 6.088 6.087 6.088 3.151 0 6.206-1.98 6.206-6.305 0-3.551-2.405-6.04-6.014-6.04Zm2.238 6.16c0-1.763-.674-3.55-2.334-3.55-1.756 0-2.405 1.812-2.405 3.55 0 2.03.842 3.552 2.405 3.552 1.42 0 2.334-1.425 2.334-3.551Zm11.115-6.16c-3.777 0-6.279 2.44-6.279 6.257 0 3.817 2.647 6.088 6.087 6.088 3.151 0 6.206-1.98 6.206-6.305 0-3.551-2.405-6.04-6.014-6.04Zm2.238 6.16c0-1.763-.674-3.55-2.334-3.55-1.756 0-2.405 1.812-2.405 3.55 0 2.03.841 3.552 2.405 3.552 1.419 0 2.334-1.425 2.334-3.551Zm5.44 5.92h3.657v-5.992c0-.29.024-.58.072-.821.24-1.135 1.155-1.86 2.502-1.86.409 0 .721.048.986.12v-3.478c-.265-.049-.433-.049-.77-.049-1.13 0-2.574.725-3.175 2.44h-.096l-.121-2.174h-3.151a75.13 75.13 0 0 1 .096 3.89v7.924Zm-52.181 21.788c-1.107 0-2.165-.314-2.935-.797l.409-.967c.625.387 1.564.797 2.598.797 1.828 0 2.694-.99 2.694-2.198 0-1.28-.769-1.957-2.429-2.633-1.901-.725-2.935-1.764-2.935-3.165 0-1.691 1.323-3.14 3.56-3.14 1.059 0 1.973.313 2.55.724l-.433.942c-.409-.29-1.155-.7-2.309-.7-1.468 0-2.238.942-2.238 2.005 0 1.208.818 1.715 2.382 2.367 1.876.75 2.983 1.692 2.983 3.455 0 1.981-1.54 3.31-3.897 3.31Zm6.761-13.964v2.126h-1.948v.942h1.948v7.32c0 1.184.193 2.175.722 2.779.433.531 1.13.797 1.972.797.698 0 1.227-.12 1.612-.266l-.144-.87c-.289.097-.722.17-1.323.17-1.227 0-1.684-.919-1.684-2.392v-7.538h3.296v-.942h-3.296v-2.56l-1.155.434Zm16.112 7.828c0 4.3-2.959 6.16-5.509 6.16h-.024c-2.983 0-5.292-2.343-5.292-5.967 0-3.962 2.598-6.16 5.46-6.16 3.2 0 5.365 2.415 5.365 5.967Zm-5.486 5.194c-2.357 0-4.185-2.174-4.185-5.073 0-2.489 1.323-5.122 4.282-5.122 3.055 0 4.233 2.923 4.233 5.049 0 2.972-1.9 5.146-4.306 5.146h-.024Zm8.955.7h-1.155v-8.117c0-1.16-.024-2.343-.096-3.479h1.059l.048 2.344h.072c.505-1.474 1.708-2.61 3.272-2.61.168 0 .336.025.481.049v1.087c-.169-.024-.337-.024-.554-.024-1.587 0-2.718 1.377-3.031 3.237a5.474 5.474 0 0 0-.096 1.111v6.402Zm13.788-5.919c.048-.217.048-.386.048-.7 0-1.667-.722-5.242-4.499-5.242-2.983 0-5.196 2.415-5.196 6.28 0 3.407 2.069 5.823 5.389 5.823 2.021 0 3.199-.508 3.632-.75l-.288-.893c-.65.314-1.516.652-3.2.652-2.381 0-4.402-1.473-4.402-5.17h8.516Zm-4.594-4.976c-2.55 0-3.633 2.27-3.849 4.059h7.289c.024-1.62-.65-4.06-3.44-4.06Z" fill="#000"></path>
<path fill-rule="evenodd" clip-rule="evenodd" d="M156.014 30.957v-9.108h2.334v-2.706h-2.358v-.604c0-1.16.505-2.102 1.708-2.102.481 0 .866.073 1.179.17l.144-2.827c-.505-.145-1.13-.241-1.948-.241-1.059 0-2.334.313-3.248 1.183-1.058.967-1.491 2.537-1.491 3.962v.46h-1.54v2.705h1.54v9.108h3.68Zm-92.412 0h1.155v-7.079c0-.483.024-.797.144-1.16.505-1.425 1.853-2.609 3.489-2.609 2.357 0 3.175 1.909 3.175 3.986v6.861h1.155v-6.981c0-4.325-2.935-4.88-4.018-4.88-.866 0-1.66.265-2.333.676a4.314 4.314 0 0 0-1.564 1.667h-.048V13.78h-1.155v17.176Zm-6.27-13.722v2.126h-1.948v.942h1.949v7.32c0 1.184.192 2.174.721 2.778.433.532 1.13.797 1.973.797.697 0 1.227-.12 1.612-.265l-.145-.87c-.288.097-.721.169-1.323.169-1.227 0-1.684-.918-1.684-2.392v-7.537h3.296v-.942h-3.296V16.8l-1.154.435Zm27.179 7.102c0 .314 0 .483-.048.701h-8.516c0 3.696 2.02 5.17 4.402 5.17 1.684 0 2.55-.338 3.2-.652l.288.893c-.433.242-1.611.75-3.632.75-3.32 0-5.389-2.417-5.389-5.823 0-3.865 2.213-6.281 5.197-6.281 3.776 0 4.498 3.575 4.498 5.242Zm-8.493-.217c.216-1.788 1.299-4.059 3.849-4.059 2.79 0 3.464 2.44 3.44 4.059h-7.29Zm21.181-4.977h3.681v8.02c0 1.547.048 2.803.096 3.794h-3.175l-.169-1.667h-.072c-.457.725-1.564 1.933-3.68 1.933-2.382 0-4.138-1.498-4.138-5.146v-6.934h3.68v6.354c0 1.715.554 2.754 1.829 2.754 1.01 0 1.587-.7 1.828-1.28.096-.218.12-.508.12-.798v-7.03Zm5.895 11.814h3.657v-6.813c0-.338.048-.676.144-.918.241-.677.842-1.377 1.852-1.377 1.323 0 1.853 1.039 1.853 2.56v6.548h3.656V23.95c0-3.48-1.804-5.074-4.21-5.074-1.948 0-3.151 1.136-3.632 1.885h-.072l-.169-1.619h-3.175c.048 1.039.096 2.295.096 3.769v8.045Zm21-10.751v-6.402h3.656v13.625c0 1.33.048 2.73.096 3.527h-3.247l-.169-1.739h-.048c-.746 1.329-2.165 2.005-3.68 2.005-2.791 0-5.028-2.392-5.028-6.064-.024-3.986 2.454-6.28 5.268-6.28 1.444 0 2.574.507 3.103 1.328h.049Zm-.001 5.484c0 .314-.024.58-.096.846-.217 1.038-1.059 1.763-2.117 1.763-1.516 0-2.502-1.256-2.502-3.261 0-1.86.866-3.358 2.526-3.358 1.131 0 1.924.821 2.141 1.812.024.193.048.459.048.652v1.546Zm16.496-.918c0 .628-.072 1.184-.12 1.45h-7.578c.121 1.521 1.612 2.246 3.32 2.246 1.251 0 2.261-.169 3.248-.483l.481 2.488c-1.203.484-2.67.75-4.258.75-3.993 0-6.279-2.344-6.279-6.04 0-2.996 1.853-6.306 5.942-6.306 3.801 0 5.244 2.972 5.244 5.895Zm-7.722-1.063c.096-.99.722-2.392 2.261-2.392 1.684 0 2.069 1.498 2.069 2.392h-4.33Zm12.974 7.248h-3.657v-7.924c0-1.74-.048-2.875-.096-3.89h3.151l.121 2.174h.096c.601-1.715 2.045-2.44 3.175-2.44.337 0 .506 0 .77.049v3.479a3.65 3.65 0 0 0-.986-.121c-1.347 0-2.261.725-2.502 1.86a4.358 4.358 0 0 0-.072.821v5.992Zm17.938 0h-3.656V13.803h3.656v17.152Zm7.973-12.08c-3.777 0-6.279 2.44-6.279 6.257 0 3.817 2.647 6.088 6.087 6.088 3.151 0 6.206-1.98 6.206-6.305 0-3.551-2.405-6.04-6.014-6.04Zm2.238 6.16c0-1.763-.674-3.55-2.334-3.55-1.756 0-2.405 1.812-2.405 3.55 0 2.03.842 3.552 2.405 3.552 1.42 0 2.334-1.425 2.334-3.551Zm11.115-6.16c-3.777 0-6.279 2.44-6.279 6.257 0 3.817 2.647 6.088 6.087 6.088 3.151 0 6.206-1.98 6.206-6.305 0-3.551-2.405-6.04-6.014-6.04Zm2.238 6.16c0-1.763-.674-3.55-2.334-3.55-1.756 0-2.405 1.812-2.405 3.55 0 2.03.841 3.552 2.405 3.552 1.419 0 2.334-1.425 2.334-3.551Zm5.44 5.92h3.657v-5.992c0-.29.024-.58.072-.821.24-1.135 1.155-1.86 2.502-1.86.409 0 .721.048.986.12v-3.478c-.265-.049-.433-.049-.77-.049-1.13 0-2.574.725-3.175 2.44h-.096l-.121-2.174h-3.151a75.13 75.13 0 0 1 .096 3.89v7.924Zm-52.181 21.788c-1.107 0-2.165-.314-2.935-.797l.409-.967c.625.387 1.564.797 2.598.797 1.828 0 2.694-.99 2.694-2.198 0-1.28-.769-1.957-2.429-2.633-1.901-.725-2.935-1.764-2.935-3.165 0-1.691 1.323-3.14 3.56-3.14 1.059 0 1.973.313 2.55.724l-.433.942c-.409-.29-1.155-.7-2.309-.7-1.468 0-2.238.942-2.238 2.005 0 1.208.818 1.715 2.382 2.367 1.876.75 2.983 1.692 2.983 3.455 0 1.981-1.54 3.31-3.897 3.31Zm6.761-13.964v2.126h-1.948v.942h1.948v7.32c0 1.184.193 2.175.722 2.779.433.531 1.13.797 1.972.797.698 0 1.227-.12 1.612-.266l-.144-.87c-.289.097-.722.17-1.323.17-1.227 0-1.684-.919-1.684-2.392v-7.538h3.296v-.942h-3.296v-2.56l-1.155.434Zm16.112 7.828c0 4.3-2.959 6.16-5.509 6.16h-.024c-2.983 0-5.292-2.343-5.292-5.967 0-3.962 2.598-6.16 5.46-6.16 3.2 0 5.365 2.415 5.365 5.967Zm-5.486 5.194c-2.357 0-4.185-2.174-4.185-5.073 0-2.489 1.323-5.122 4.282-5.122 3.055 0 4.233 2.923 4.233 5.049 0 2.972-1.9 5.146-4.306 5.146h-.024Zm8.955.7h-1.155v-8.117c0-1.16-.024-2.343-.096-3.479h1.059l.048 2.344h.072c.505-1.474 1.708-2.61 3.272-2.61.168 0 .336.025.481.049v1.087c-.169-.024-.337-.024-.554-.024-1.587 0-2.718 1.377-3.031 3.237a5.474 5.474 0 0 0-.096 1.111v6.402Zm13.788-5.919c.048-.217.048-.386.048-.7 0-1.667-.722-5.242-4.499-5.242-2.983 0-5.196 2.415-5.196 6.28 0 3.407 2.069 5.823 5.389 5.823 2.021 0 3.199-.508 3.632-.75l-.288-.893c-.65.314-1.516.652-3.2.652-2.381 0-4.402-1.473-4.402-5.17h8.516Zm-4.594-4.976c-2.55 0-3.633 2.27-3.849 4.059h7.289c.024-1.62-.65-4.06-3.44-4.06Z" fill="#000" fill-opacity=".2"></path>
<path fill-rule="evenodd" clip-rule="evenodd" d="M56.923 53.08h3.64v-7.039c0-.267.024-.582.12-.825.264-.656.863-1.287 1.82-1.287 1.366 0 1.893 1.068 1.893 2.622v6.53h3.64v-6.943c0-3.568-1.772-5.194-4.095-5.194-.67 0-1.341.17-1.892.46a4.114 4.114 0 0 0-1.438 1.214h-.047v-6.772h-3.641v17.235Zm23.785-4.757c.048-.267.12-.825.12-1.456 0-2.938-1.438-5.923-5.222-5.923-4.072 0-5.917 3.325-5.917 6.335 0 3.714 2.276 6.069 6.252 6.069 1.58 0 3.042-.267 4.24-.753l-.48-2.5c-.981.316-1.987.485-3.233.485-1.7 0-3.186-.728-3.306-2.257h7.546Zm-5.319-4.928c-1.533 0-2.156 1.408-2.251 2.403h4.311c0-.898-.383-2.403-2.06-2.403Zm16.8 2.67c0-2.791-1.246-5.121-5.15-5.121-2.132 0-3.737.582-4.551 1.043l.67 2.38c.767-.486 2.037-.899 3.234-.899 1.797 0 2.132.898 2.132 1.53v.17c-4.144-.025-6.874 1.456-6.874 4.538 0 1.894 1.413 3.642 3.784 3.642 1.39 0 2.587-.51 3.353-1.457h.072l.216 1.19h3.281c-.12-.656-.167-1.748-.167-2.889v-4.127Zm-3.618 3.326a2.68 2.68 0 0 0 .072-.631v-1.287c-1.916-.024-3.401.437-3.401 1.87 0 .946.622 1.407 1.437 1.407.91 0 1.653-.607 1.892-1.36Zm6.215-10.414v2.234H93.23v2.718h1.557v4.855c0 1.675.336 2.816 1.006 3.52.575.606 1.557 1.043 2.73 1.043 1.03 0 1.893-.145 2.372-.34l-.024-2.79c-.359.072-.575.096-1.078.096-1.101 0-1.437-.655-1.437-2.087v-4.297h2.611v-2.718h-2.61v-3.229l-3.57.995Zm11.335 2.234v11.87h-3.641V41.21h3.641Zm-1.821-5.17c-1.173 0-1.94.8-1.916 1.868-.024 1.02.743 1.845 1.892 1.845 1.198 0 1.965-.825 1.965-1.845-.024-1.068-.767-1.869-1.941-1.869Zm7.796 17.04h-3.641v-8.084c0-1.48-.048-2.742-.095-3.786h3.161l.168 1.626h.072c.479-.753 1.677-1.893 3.617-1.893 2.395 0 4.192 1.602 4.192 5.097v7.04h-3.641v-6.579c0-1.529-.527-2.573-1.845-2.573-1.006 0-1.605.704-1.844 1.384-.096.243-.144.582-.144.922v6.846Zm20.885-8.35c0-1.773.048-2.768.096-3.52h-3.162l-.12 1.408h-.048c-.598-.971-1.604-1.675-3.209-1.675-2.875 0-5.318 2.427-5.318 6.238 0 3.423 2.06 5.801 4.958 5.801 1.342 0 2.468-.558 3.162-1.553h.048v.777c0 2.184-1.317 3.131-3.042 3.131-1.365 0-2.659-.461-3.401-.898l-.719 2.791c1.054.607 2.683.923 4.216.923 1.724 0 3.473-.34 4.767-1.457 1.317-1.189 1.772-3.058 1.772-5.34V44.73Zm-3.76 4.029c.095-.267.119-.656.119-.971V46.04c0-.243-.024-.485-.071-.68-.264-.97-.959-1.626-1.965-1.626-1.317 0-2.395 1.214-2.395 3.374 0 1.772.862 3.156 2.395 3.156.935 0 1.677-.631 1.917-1.505Z" fill="#000"></path>
<path fill-rule="evenodd" clip-rule="evenodd" d="M56.923 53.08h3.64v-7.039c0-.267.024-.582.12-.825.264-.656.863-1.287 1.82-1.287 1.366 0 1.893 1.068 1.893 2.622v6.53h3.64v-6.943c0-3.568-1.772-5.194-4.095-5.194-.67 0-1.341.17-1.892.46a4.114 4.114 0 0 0-1.438 1.214h-.047v-6.772h-3.641v17.235Zm23.785-4.757c.048-.267.12-.825.12-1.456 0-2.938-1.438-5.923-5.222-5.923-4.072 0-5.917 3.325-5.917 6.335 0 3.714 2.276 6.069 6.252 6.069 1.58 0 3.042-.267 4.24-.753l-.48-2.5c-.981.316-1.987.485-3.233.485-1.7 0-3.186-.728-3.306-2.257h7.546Zm-5.319-4.928c-1.533 0-2.156 1.408-2.251 2.403h4.311c0-.898-.383-2.403-2.06-2.403Zm16.8 2.67c0-2.791-1.246-5.121-5.15-5.121-2.132 0-3.737.582-4.551 1.043l.67 2.38c.767-.486 2.037-.899 3.234-.899 1.797 0 2.132.898 2.132 1.53v.17c-4.144-.025-6.874 1.456-6.874 4.538 0 1.894 1.413 3.642 3.784 3.642 1.39 0 2.587-.51 3.353-1.457h.072l.216 1.19h3.281c-.12-.656-.167-1.748-.167-2.889v-4.127Zm-3.618 3.326a2.68 2.68 0 0 0 .072-.631v-1.287c-1.916-.024-3.401.437-3.401 1.87 0 .946.622 1.407 1.437 1.407.91 0 1.653-.607 1.892-1.36Zm6.215-10.414v2.234H93.23v2.718h1.557v4.855c0 1.675.336 2.816 1.006 3.52.575.606 1.557 1.043 2.73 1.043 1.03 0 1.893-.145 2.372-.34l-.024-2.79c-.359.072-.575.096-1.078.096-1.101 0-1.437-.655-1.437-2.087v-4.297h2.611v-2.718h-2.61v-3.229l-3.57.995Zm11.335 2.234v11.87h-3.641V41.21h3.641Zm-1.821-5.17c-1.173 0-1.94.8-1.916 1.868-.024 1.02.743 1.845 1.892 1.845 1.198 0 1.965-.825 1.965-1.845-.024-1.068-.767-1.869-1.941-1.869Zm7.796 17.04h-3.641v-8.084c0-1.48-.048-2.742-.095-3.786h3.161l.168 1.626h.072c.479-.753 1.677-1.893 3.617-1.893 2.395 0 4.192 1.602 4.192 5.097v7.04h-3.641v-6.579c0-1.529-.527-2.573-1.845-2.573-1.006 0-1.605.704-1.844 1.384-.096.243-.144.582-.144.922v6.846Zm20.885-8.35c0-1.773.048-2.768.096-3.52h-3.162l-.12 1.408h-.048c-.598-.971-1.604-1.675-3.209-1.675-2.875 0-5.318 2.427-5.318 6.238 0 3.423 2.06 5.801 4.958 5.801 1.342 0 2.468-.558 3.162-1.553h.048v.777c0 2.184-1.317 3.131-3.042 3.131-1.365 0-2.659-.461-3.401-.898l-.719 2.791c1.054.607 2.683.923 4.216.923 1.724 0 3.473-.34 4.767-1.457 1.317-1.189 1.772-3.058 1.772-5.34V44.73Zm-3.76 4.029c.095-.267.119-.656.119-.971V46.04c0-.243-.024-.485-.071-.68-.264-.97-.959-1.626-1.965-1.626-1.317 0-2.395 1.214-2.395 3.374 0 1.772.862 3.156 2.395 3.156.935 0 1.677-.631 1.917-1.505Z" fill="#000" fill-opacity=".2"></path>
</g>
</svg>