<svg class="w-full" width="136" height="85" xmlns="http://www.w3.org/2000/svg" viewBox="0 0 136 85" fill="none">
<path fill-rule="evenodd" clip-rule="evenodd" d="M4.86034 33.1714L19.3619 26.7415V22.4048L0.00174263 30.9889L0 30.9881V30.9897V35.3248V35.3264L0.00174263 35.3256L9.65444 39.6616V35.3248L4.86034 33.1714ZM67.0358 37.0748V43.9074H63.9945V36.9863C63.9945 34.5613 63.0043 33.2692 60.5819 33.2692C59.2203 33.1983 57.9295 33.7294 57.01 34.7914V43.9074H53.9687V36.5261C53.9687 34.4728 53.0669 33.2514 50.6975 33.2514C49.2475 33.1806 47.8861 33.8533 46.9843 34.933V43.8189H43.9429V30.8972H46.6837L46.8428 32.7912C48.0629 31.3398 49.7957 30.5078 51.7054 30.5963C53.5266 30.437 55.2772 31.4283 56.1082 33.0213C57.3283 31.4991 59.1496 30.6671 61.0416 30.5963C65.0731 30.7556 67.0358 32.8797 67.0358 37.0571V37.0748ZM38.8824 36.0845C38.5818 34.1021 37.3618 32.8099 34.7094 32.8099C32.3577 32.8099 30.837 34.0312 30.4657 36.0845H38.8824ZM41.7646 37.7661V38.067H30.3773C30.5364 40.7222 32.4284 41.8727 35.01 41.8727C37.2203 41.8727 38.8117 41.1116 39.6427 40.0495L41.0927 42.1028C39.3421 43.5543 37.1496 44.2269 34.8686 44.1561C30.6956 44.1561 27.725 41.9612 27.725 37.8546V37.4829C27.725 33.6772 30.4657 30.7212 34.8686 30.7212C40.0318 30.792 41.7823 34.3676 41.7823 37.7838L41.7646 37.7661ZM79.8687 38.668V40.4912C78.9493 41.4825 77.2872 41.9427 75.4659 41.9427C73.6446 41.9427 72.0533 41.6418 72.0533 39.9602C72.0533 38.2786 73.4148 37.9069 75.6958 37.9069C77.128 37.9069 78.5779 38.2078 79.8687 38.668ZM79.9395 42.4029C80.0102 42.9339 80.081 43.4649 80.2401 43.996V44.0137H82.8217C82.5918 42.8631 82.5211 41.6418 82.5918 40.5089V36.4023C82.6802 32.3665 79.9395 30.7734 76.297 30.7734C74.1751 30.7734 72.1947 31.2337 70.3734 32.2249L71.2752 34.5083C72.566 33.5171 74.2458 33.0746 75.8372 33.1454C78.1889 33.1454 79.8511 33.7472 79.8511 36.1014V36.8625C78.3481 36.243 76.739 35.8713 75.0769 35.8713C71.8234 35.8713 69.3125 36.8448 69.3125 40.1195C69.3125 43.0932 72.124 44.2261 74.9355 44.2261C76.7567 44.3854 78.578 43.6951 79.9395 42.4029ZM93.9092 31.2873L93.3788 34.1017C92.8483 33.8008 92.2471 33.6415 91.6283 33.6415C90.1076 33.7123 88.8168 34.7744 88.5162 36.2966V43.9788H85.634V31.0572H88.3747L88.5339 34.0132C89.0644 32.0307 90.2844 30.9687 92.1764 30.9687C92.7069 30.8979 93.3965 30.9687 93.9269 31.2696L93.9092 31.2873ZM95.7348 40.193L94.7446 42.618V42.6534C96.6366 43.7154 98.8292 44.3172 101.039 44.2464C104.912 44.2464 107.264 42.8835 107.264 39.9097C107.264 36.9924 104.558 36.6475 102.235 36.3513L102.1 36.3342C101.651 36.2802 101.232 36.2379 100.846 36.1989C98.9544 36.0079 97.8567 35.8971 97.8567 34.8827C97.8567 33.6613 99.0767 33.0595 101.199 33.0595C102.861 32.9887 104.452 33.2896 105.902 34.1216L106.733 31.8382C104.912 31.077 103.002 30.7053 101.11 30.7761C97.1671 30.7761 95.2751 32.6701 95.2751 35.0243C95.2751 37.3785 97.1848 37.9272 100.368 38.299C100.757 38.3417 101.123 38.3766 101.464 38.4091C103.528 38.6058 104.7 38.7174 104.7 39.9628C104.7 41.4143 103.25 41.9453 100.898 41.9453C99.0767 42.0161 97.1847 41.4143 95.7348 40.193ZM123.3 30.9879C120.029 38.3692 116.917 45.0424 114.194 49.4499L111.312 48.5295C112.372 47.0072 113.292 45.4849 114.123 43.821L108.2 30.9702H111.382L115.714 41.5376L120.117 30.9702H123.3V30.9879ZM124.13 40.1929L123.14 42.618L123.157 42.6534C125.12 43.7154 127.242 44.2464 129.452 44.2464C133.325 44.2464 135.676 42.8835 135.676 39.9097C135.676 36.9924 132.97 36.6475 130.647 36.3513L130.513 36.3342C130.064 36.2802 129.645 36.2379 129.259 36.1989C127.367 36.0079 126.269 35.8971 126.269 34.8827C126.269 33.6613 127.489 33.0595 129.611 33.0595C131.273 32.9002 132.865 33.2896 134.315 34.1216L135.146 31.8382C133.395 31.077 131.486 30.7053 129.594 30.7761C125.633 30.7761 123.741 32.6701 123.741 35.0243C123.741 37.3785 125.651 37.9272 128.833 38.299C129.222 38.3417 129.588 38.3765 129.929 38.409L129.93 38.4091L129.93 38.4091C131.994 38.6058 133.165 38.7174 133.165 39.9628C133.165 41.4143 131.716 41.9453 129.364 41.9453C127.472 42.0161 125.58 41.4143 124.13 40.1929ZM9.65606 35.325V39.6617L19.3635 35.325V30.9883L9.65606 35.325ZM4.86266 50.3721V46.1239L19.362 39.6631V43.9821L4.86266 50.3721ZM55.7327 57.2919L54.3712 53.3446L53.0096 57.2919H55.7327ZM53.9998 52.5127H54.8132L57.6247 60.4073H56.8643L56.0333 57.9823H52.8505L51.9487 60.4073H51.1883L53.9998 52.5127ZM59.5191 54.7788H58.7764L58.8471 60.4077H59.6075V56.1595C59.8373 55.9294 60.1556 55.6993 60.5269 55.4691C60.8275 55.3098 61.1458 55.239 61.5172 55.239C61.8178 55.239 62.1184 55.3098 62.3482 55.54C62.5074 55.8586 62.5781 56.1595 62.5781 56.4604V60.4077H63.3384V56.3896C63.3384 55.9294 63.1793 55.4691 62.8787 55.1682C62.5781 54.8673 62.1183 54.708 61.6586 54.708C61.1989 54.708 60.8099 54.7788 60.4385 55.0089C60.1203 55.1682 59.8197 55.3983 59.5191 55.6992V54.7788ZM69.9154 60.5489C69.2258 60.5489 68.6246 60.3896 68.0234 60.0178C67.4929 59.6461 67.1923 59.0974 67.0332 58.4956L67.7227 58.2655C67.9526 59.3275 68.9428 60.0178 70.0038 59.947C70.5342 59.947 70.9939 59.8763 71.3653 59.5576C71.7366 59.3275 71.8958 58.9558 71.8958 58.4956C71.8958 58.3363 71.8957 58.1239 71.825 57.9645C71.7543 57.8052 71.6658 57.6636 71.5244 57.5043C71.4648 57.4631 71.4112 57.423 71.3605 57.385L71.3593 57.3841L71.3591 57.384C71.2146 57.2758 71.093 57.1849 70.9232 57.1326C70.6226 56.9733 70.2336 56.8317 69.933 56.7609C69.728 56.6899 69.5546 56.6364 69.3925 56.5864L69.3924 56.5864C69.1911 56.5243 69.0071 56.4676 68.8014 56.3892C68.5008 56.2299 68.2709 56.0883 68.041 55.929C67.8111 55.7696 67.6697 55.5395 67.5813 55.3271C67.5106 55.097 67.4222 54.7961 67.4222 54.4952C67.4222 54.2651 67.4929 53.9642 67.5813 53.734C67.598 53.71 67.6144 53.6859 67.6308 53.6619L67.6316 53.6608C67.7715 53.456 67.9063 53.2588 68.1117 53.1322C68.3416 52.9729 68.5715 52.8313 68.8721 52.672C69.1727 52.6012 69.5617 52.5127 69.8623 52.5127C70.1629 52.5127 70.5519 52.5835 70.8525 52.672C71.1177 52.7345 71.3279 52.8658 71.5316 52.9932C71.5587 53.0101 71.5858 53.027 71.6128 53.0437C71.8183 53.1703 71.953 53.3675 72.093 53.5722L72.093 53.5723C72.1096 53.5966 72.1264 53.6211 72.1433 53.6455C72.3024 53.8757 72.4439 54.1058 72.5146 54.4067L71.9134 54.7076C71.7543 54.2474 71.4537 53.8757 71.0823 53.6455C70.6933 53.4154 70.2513 53.2738 69.7916 53.3446C69.5617 53.3446 69.3318 53.3446 69.1019 53.4154C68.8721 53.4862 68.713 53.5747 68.5715 53.7164C68.4124 53.7872 68.3416 53.9465 68.2709 54.1058L68.2567 54.1375C68.191 54.2844 68.1294 54.4221 68.1294 54.6368C68.1294 54.8669 68.1295 55.0085 68.2002 55.1678C68.2535 55.2879 68.357 55.3979 68.4654 55.513C68.5008 55.5506 68.5367 55.5888 68.5715 55.628C68.8014 55.7873 69.0312 55.9289 69.2611 55.9997C69.4986 56.1257 69.7362 56.1963 70.0524 56.2903C70.1362 56.3152 70.2256 56.3418 70.322 56.3715C70.6933 56.4423 71.0824 56.6016 71.383 56.7432C71.6836 56.9025 71.9134 57.0441 72.1433 57.2034C72.3731 57.3627 72.5146 57.5751 72.603 57.8052C72.6738 58.0354 72.7622 58.3363 72.7622 58.6372C72.7622 58.9381 72.6914 59.239 72.5323 59.5399C72.516 59.5635 72.4999 59.587 72.4839 59.6105L72.4537 59.655C72.3235 59.8468 72.1934 60.0385 72.0018 60.2303C71.7012 60.3896 71.4006 60.5312 71.1 60.602C70.7622 60.4849 70.5103 60.5017 70.2531 60.5188C70.1603 60.5249 70.0668 60.5312 69.9684 60.5312L69.9154 60.5489ZM76.5293 53.3446L77.8908 57.2919H75.1677L76.5293 53.3446ZM76.9713 52.5127H76.1579L73.3464 60.4073H74.1068L75.0086 57.9823H78.1914L79.0224 60.4073H79.7828L76.9713 52.5127ZM83.7414 56.229C84.2719 56.229 84.8024 56.1582 85.2621 55.8573C85.6335 55.5563 85.8633 55.0961 85.7926 54.6359C85.8633 54.1757 85.6335 53.8039 85.2621 53.503C84.8024 53.2729 84.2719 53.1136 83.7414 53.1136H81.9202V56.1582L83.7414 56.229ZM81.0891 52.5118H83.6707C84.3604 52.441 85.1206 52.6711 85.7218 53.0428C86.2523 53.4145 86.5529 54.0341 86.4822 54.6359C86.4822 55.0076 86.4115 55.3262 86.2523 55.6271C86.1109 55.928 85.9517 56.1582 85.6511 56.3175C85.3505 56.5476 85.0499 56.6184 84.7493 56.6892L84.6839 56.7018L84.5886 56.7204C84.2668 56.7835 83.9358 56.8485 83.6177 56.8485H81.8671V60.4241H81.1068V52.5295L81.0891 52.5118ZM91.7226 60.2481C92.1646 60.4782 92.6243 60.549 93.0841 60.549V60.5844C93.7737 60.5844 94.4633 60.3543 95.0645 59.7525C95.595 59.2923 95.9663 58.6196 96.1254 57.9293L95.3651 57.77C95.2236 58.3895 94.9053 58.9205 94.534 59.2922C94.145 59.664 93.6145 59.8233 93.0841 59.8233C92.3945 59.8233 91.7225 59.5047 91.2628 58.9028C91.0329 58.6019 90.8031 58.2125 90.7324 57.8408C90.644 57.3806 90.5732 56.9203 90.5732 56.3893V56.3892C90.5732 55.9467 90.5732 55.4865 90.7324 55.0263C90.7589 54.9644 90.785 54.9019 90.811 54.8394C90.9411 54.5272 91.0713 54.215 91.2628 53.9643C91.7225 53.3448 92.3237 53.0438 93.0841 53.0438C93.5261 52.973 94.0743 53.2032 94.4456 53.5041C94.8346 53.9643 95.0468 54.4245 95.206 54.9555L95.9663 54.7962C95.8071 54.1059 95.4358 53.5041 94.9761 53.0438C94.4456 52.5836 93.7737 52.3535 93.0841 52.3535C92.1823 52.3535 91.3336 52.7252 90.7324 53.4864C90.4141 53.8581 90.2019 54.3183 90.0427 54.7785C89.8836 55.3273 89.8129 55.9291 89.8129 56.4601C89.8129 56.9911 89.8836 57.593 90.0427 58.124C90.2019 58.5842 90.4318 59.0444 90.7324 59.4162C90.9522 59.7717 91.3177 59.9977 91.674 60.218L91.7226 60.2481ZM99.4629 59.8737C99.6927 59.8737 99.9933 59.8029 100.223 59.7144C100.453 59.5551 100.612 59.4135 100.754 59.2542C100.913 59.0241 101.054 58.794 101.125 58.493C101.196 58.1921 101.266 57.8912 101.266 57.5726C101.266 57.2831 101.208 57.0229 101.144 56.7388L101.125 56.6522L101.116 56.6242L101.116 56.6241L101.116 56.624L101.116 56.6239L101.116 56.6237C101.047 56.3978 100.96 56.1146 100.824 55.9618C100.665 55.7317 100.524 55.5901 100.294 55.4308C100.064 55.2892 99.7635 55.2892 99.5336 55.2892C99.3037 55.2892 99.0031 55.36 98.7732 55.4308C98.6327 55.5282 98.5186 55.619 98.4026 55.7112C98.3289 55.7699 98.2545 55.8291 98.172 55.891C98.0129 56.1211 97.8715 56.3512 97.8007 56.6522L97.8006 56.6527C97.7299 56.9534 97.6592 57.2542 97.6592 57.5726C97.6592 57.8912 97.6593 58.1744 97.73 58.493C97.8007 58.794 97.8715 59.0241 98.0306 59.2542C98.1897 59.4843 98.4019 59.6436 98.6318 59.7852C98.7922 59.7852 98.9525 59.8053 99.1021 59.8242C99.233 59.8406 99.3556 59.856 99.4629 59.856V59.8737ZM99.4629 60.4578C99.1623 60.4578 98.7733 60.387 98.4727 60.2277L98.4202 60.2001L98.3613 60.1692C98.0988 60.032 97.843 59.8983 97.6416 59.6967L97.6414 59.6964C97.4116 59.3956 97.1818 59.0948 97.1111 58.7763C96.8105 57.9443 96.8105 57.1124 97.1111 56.2627C97.1536 56.1824 97.1948 56.0958 97.2368 56.0076C97.3521 55.7653 97.4731 55.511 97.6416 55.3423C97.8715 55.1122 98.1721 54.8821 98.4727 54.8113C98.7733 54.652 99.0738 54.5812 99.4629 54.652C99.7635 54.652 100.152 54.7228 100.453 54.8113C100.49 54.8309 100.527 54.8504 100.564 54.8697C100.827 55.0069 101.083 55.1406 101.284 55.3423C101.514 55.5724 101.744 55.9441 101.815 56.2627C102.115 57.0947 102.115 57.9266 101.815 58.7763C101.772 58.8566 101.731 58.9432 101.689 59.0315C101.574 59.2737 101.453 59.528 101.284 59.6967C101.054 59.9268 100.754 60.1569 100.453 60.2277C100.152 60.387 99.7635 60.4578 99.4629 60.4578ZM104.1 54.7788H103.34H103.304L103.233 60.4077H103.994V56.1595C104.312 55.9297 104.612 55.7 104.912 55.4703L104.912 55.4701L104.912 55.47L104.912 55.4699L104.912 55.4698L104.913 55.4691C105.214 55.3098 105.603 55.239 105.903 55.239C106.204 55.239 106.505 55.3098 106.734 55.54C106.894 55.8586 106.964 56.1595 106.964 56.4604V60.4077H107.725V56.1595C108.043 55.9294 108.344 55.6993 108.644 55.4691C108.874 55.3098 109.263 55.239 109.564 55.239C109.864 55.239 110.165 55.3098 110.395 55.54C110.554 55.8586 110.625 56.1595 110.625 56.4604V60.4077H111.385V56.4604C111.385 56.0002 111.314 55.6107 111.014 55.239C110.713 54.9381 110.253 54.708 109.793 54.7788C109.422 54.7788 109.033 54.8496 108.662 55.0797C108.273 55.239 107.972 55.4691 107.672 55.7701C107.583 55.4691 107.442 55.239 107.212 55.0089C106.911 54.7788 106.522 54.708 106.151 54.708C105.78 54.708 105.391 54.7788 105.019 55.0089C104.701 55.1682 104.4 55.3983 104.1 55.6992V54.7788ZM115.464 59.8748C115.694 59.8748 115.924 59.804 116.154 59.7155C116.345 59.6565 116.475 59.5361 116.606 59.4156C116.632 59.3915 116.658 59.3674 116.684 59.3438C116.843 59.1137 116.985 58.8836 117.056 58.6535C117.126 58.3526 117.215 57.9632 117.215 57.5914C117.215 57.2905 117.144 56.9011 117.056 56.6002C116.985 56.3701 116.826 56.0691 116.684 55.9098C116.543 55.7505 116.384 55.6089 116.154 55.5204C115.924 55.4319 115.694 55.3611 115.464 55.3611C115.164 55.3611 114.863 55.4319 114.562 55.5912C114.481 55.6534 114.4 55.7104 114.32 55.7664C114.104 55.9178 113.899 56.0619 113.731 56.2816V59.0075C113.961 59.3084 114.262 59.5385 114.562 59.6978C114.613 59.7096 114.663 59.7219 114.713 59.7342C114.963 59.7957 115.214 59.8571 115.464 59.8571V59.8748ZM112.953 54.7593H113.714V55.5204L113.714 55.5204C113.943 55.2903 114.173 55.0602 114.474 54.9186C114.775 54.6885 115.164 54.6177 115.535 54.6177C115.835 54.6177 116.136 54.6885 116.454 54.777C116.773 54.8655 116.985 55.0779 117.215 55.308C117.445 55.5381 117.586 55.9098 117.674 56.2285C117.904 57.0604 117.904 57.9808 117.674 58.8128C117.609 59.0913 117.407 59.3698 117.195 59.6623L117.144 59.7332C116.914 59.9633 116.684 60.1049 116.384 60.2642C116.083 60.4236 115.782 60.4235 115.464 60.4235C115.093 60.4235 114.775 60.3528 114.474 60.1935C114.437 60.1738 114.4 60.1543 114.363 60.135C114.1 59.9978 113.844 59.8641 113.643 59.6624V62.5476H112.883L112.953 54.7947V54.7593ZM121.623 59.6433C121.322 59.8026 120.933 59.8734 120.562 59.8734H120.544C120.244 59.8734 120.014 59.8026 119.713 59.6433C119.483 59.484 119.413 59.1831 119.413 58.953C119.413 58.7612 119.474 58.6309 119.535 58.5006L119.553 58.4618C119.56 58.4486 119.566 58.4354 119.572 58.422L119.572 58.4217C119.731 58.2625 119.872 58.121 120.102 57.9617C120.152 57.9382 120.202 57.9141 120.252 57.89C120.503 57.7696 120.753 57.6491 121.004 57.59C121.534 57.4484 121.994 57.3599 122.525 57.2891V59.0415C122.312 59.2539 121.994 59.484 121.623 59.6433ZM119.165 60.1036C119.554 60.4045 119.925 60.4753 120.385 60.4753L120.42 60.493C120.792 60.493 121.163 60.4222 121.552 60.1213C121.923 59.9619 122.312 59.7318 122.613 59.4309C122.613 59.5129 122.632 59.5949 122.65 59.6744L122.65 59.6745C122.667 59.7495 122.684 59.8224 122.684 59.8911C122.684 59.9599 122.7 60.0119 122.718 60.0655C122.736 60.1223 122.754 60.1809 122.754 60.2629H123.515C123.426 60.1036 123.356 59.8911 123.356 59.7318V56.3864C123.356 55.9261 123.196 55.4659 122.896 55.0942C122.525 54.7933 122.065 54.5632 121.534 54.634C120.986 54.634 120.544 54.7048 120.084 54.9349C119.642 55.165 119.253 55.3951 118.953 55.696L119.324 56.1563C119.554 55.9262 119.943 55.7137 120.244 55.5544C120.615 55.3951 120.986 55.3243 121.375 55.3243C121.676 55.3243 121.976 55.3951 122.206 55.6252C122.436 55.8553 122.507 56.1563 122.507 56.4572V56.7581C121.906 56.8289 121.287 56.9705 120.686 57.1298C120.226 57.2891 119.837 57.4307 119.466 57.6608C119.236 57.8909 119.024 58.1211 118.864 58.3512C118.776 58.5813 118.705 58.8822 118.705 59.1123C118.705 59.5017 118.864 59.8734 119.165 60.1036ZM124.912 54.7788H125.654V55.6992C125.955 55.3983 126.256 55.1682 126.574 55.0089C126.945 54.7788 127.334 54.708 127.794 54.708C128.254 54.708 128.713 54.8673 129.014 55.1682C129.315 55.4691 129.474 55.9294 129.474 56.3896V60.4077H128.713V56.4604C128.713 56.1595 128.643 55.8586 128.413 55.54C128.183 55.3098 127.882 55.239 127.582 55.239C127.21 55.239 126.892 55.3098 126.591 55.4691C126.22 55.6993 125.902 55.9294 125.672 56.1595V60.4077H124.912V54.7788ZM130.584 62.5303H131.114H131.185C131.415 62.5303 131.645 62.5303 131.715 62.4595C131.945 62.3887 132.105 62.3179 132.246 62.1586C132.281 62.1193 132.317 62.0812 132.352 62.0435C132.46 61.9284 132.564 61.8184 132.617 61.6984C132.776 61.4683 132.847 61.2382 132.918 61.0081L132.918 61.008L135.34 54.7773H134.58L132.829 59.4858L131.079 54.7773H130.319L132.511 60.4062L132.281 61.008C132.211 61.3089 132.051 61.5391 131.822 61.6984C131.662 61.8577 131.362 61.9285 131.132 61.9285H130.672C130.602 61.9285 130.372 61.8577 130.372 61.8577L130.212 62.4595C130.283 62.4595 130.341 62.4772 130.398 62.4949C130.456 62.5126 130.513 62.5303 130.584 62.5303Z" fill="white"></path>
</svg>