<svg class="w-full" width="138" height="85" xmlns="http://www.w3.org/2000/svg" viewBox="0 0 138 85" fill="none">
<path fill-rule="evenodd" clip-rule="evenodd" d="M112.685 32.8569C113.94 33.1042 115.011 34.0313 115.813 35.5972V35.5766C117.522 38.7083 117.871 42.932 117.172 46.414C116.328 50.5759 114.023 53.275 111.491 52.7599C110.236 52.5127 109.186 51.5855 108.363 50.0196C107.519 48.3302 107.004 46.517 106.819 44.6421C106.613 42.7878 106.716 40.9129 107.066 39.0586C107.931 34.9379 110.153 32.3418 112.685 32.8569ZM101.756 42.7672C101.715 45.6105 102.806 48.3302 104.782 50.3493C106.799 52.4509 109.268 53.5016 112.129 53.481C114.97 53.481 117.419 52.389 119.436 50.3287C120.424 49.3397 121.206 48.1447 121.741 46.8467C122.297 45.5693 122.544 44.1682 122.523 42.7672C122.544 41.3662 122.276 39.9857 121.741 38.6877C121.226 37.3897 120.424 36.2153 119.436 35.2263C117.419 33.1042 115.011 32.0534 112.129 32.0534C109.248 32.0534 106.799 33.1042 104.782 35.2263C103.794 36.2359 103.011 37.4103 102.497 38.7083C101.982 40.0063 101.735 41.3868 101.756 42.7672ZM121.226 32.6097H137.136L133.802 27.2734L137.136 21.9371H121.226V32.6097ZM45.2796 50.2463C46.2675 49.4633 46.7616 48.3714 46.7616 47.0321L46.741 47.0115V41.7576C46.5978 41.8293 46.351 41.9217 45.9846 42.0589C45.7186 42.1584 45.3897 42.2816 44.9916 42.4375L43.1185 43.1175C42.7274 43.2969 42.4395 43.4506 41.9891 43.6909C41.8707 43.7541 41.7412 43.8232 41.5955 43.9004C41.0398 44.127 40.587 44.4979 40.1548 44.91C39.6402 45.5281 39.0022 46.5789 39.0022 47.712C39.0022 50.1227 40.3194 51.4207 42.3158 51.4207C43.3655 51.4207 44.3328 51.0292 45.2796 50.2463ZM51.1249 40.7481V49.8548L51.1455 49.8342C51.1455 50.4111 51.31 52.7805 53.3682 52.4715V53.0072C53.3682 53.0072 48.758 54.6554 47.379 51.8534C47.0085 51.1116 46.8232 50.3081 46.8026 49.484C45.5266 52.1006 42.7686 53.481 40.1342 53.481C36.8205 53.481 34.4536 51.9358 34.4536 48.5568C34.4536 47.712 34.6801 46.8673 35.174 46.1668C36.1619 44.7039 37.2734 43.9416 39.4139 43.1175C40.4635 42.726 41.3691 42.4376 42.0689 42.2315C42.7481 42.0461 43.6743 41.8194 44.724 41.6134L46.7616 41.1189V38.6671C46.7616 34.6082 45.0121 32.7745 42.5423 32.7745C40.6076 32.7745 39.5167 34.0313 39.5167 35.4942C39.5167 35.8909 39.6522 36.3831 39.7894 36.8814C39.9301 37.3924 40.0725 37.9098 40.0725 38.3375C40.0725 39.4706 39.0434 40.2948 37.6026 40.2948C36.2648 40.2948 35.4416 39.244 35.4416 37.7399C35.4416 36.2359 36.1825 34.9379 37.7055 33.7841C39.1463 32.6715 40.9369 32.0534 42.7687 32.074C48.511 32.074 51.022 34.7936 51.1249 40.7481ZM30.3578 48.8864C30.3578 51.1116 31.3664 52.183 32.5601 52.389L32.5189 52.3066C33.0334 52.4096 33.4657 52.4302 33.4657 52.4302V52.8629H17.8853C16.2799 52.8629 15.2508 52.1418 14.1394 50.3081L9.48802 42.7054L7.57381 44.8276V48.8452C7.57381 51.0086 8.29419 52.1418 9.77607 52.3478V52.8835H0.823059V52.3478C1.99622 52.183 3.12821 51.2558 3.12821 48.8246V27.0261C3.12821 25.0276 1.97564 23.8944 0.823059 23.8944V23.3381L7.57381 21.8752V43.9622L12.4929 38.2344C14.798 35.556 14.9216 33.8459 12.9251 33.063V32.5273H20.6639V33.063C18.3587 33.8253 15.8888 35.7002 13.2338 38.6259L9.71439 42.4994C10.9287 42.1697 12.1842 42.2315 13.3368 42.6848C14.4894 43.1381 15.4773 43.9416 16.1359 44.9924L19.2644 49.9578C19.9024 50.988 20.6639 51.7091 21.5695 52.1006C22.1046 52.3478 22.7014 52.4509 23.2777 52.4096C23.3394 52.3993 23.3909 52.3942 23.4424 52.389C23.4939 52.3839 23.5453 52.3787 23.6071 52.3684C24.7597 52.2036 25.9122 50.988 25.9122 48.8658V26.9849C25.9122 24.8215 24.7597 23.812 23.6071 23.9356V23.3793L30.3578 21.9165V48.8864ZM103.835 32.5067H97.1251V33.0423C98.4217 33.0423 99.2861 33.7841 99.2861 35.3705C99.2861 36.2565 98.9156 37.7606 98.1335 39.8827C97.0839 42.7054 95.9725 45.9608 94.7787 49.6694C94.2642 47.8769 93.2145 45.0542 91.959 41.7782L90.8476 38.7701C90.2302 37.1012 89.9008 35.7826 89.9008 34.9379C89.9008 33.7635 90.4565 33.1042 91.568 32.9805V32.4448H82.2857V32.9805C83.5618 33.1248 84.5702 34.2992 85.9286 37.8636L91.8151 53.3574C92.6177 55.3972 92.5353 57.2309 91.5886 58.8998C90.8888 60.3626 89.9421 61.0837 88.7895 61.0837C87.3487 61.0837 86.6284 60.5068 86.6284 59.2294C86.6284 59.022 86.7949 58.7349 86.9883 58.4015C87.256 57.94 87.5751 57.3897 87.5751 56.8394C87.5751 55.562 86.5666 54.9439 85.414 54.9439C83.8087 54.9439 82.759 56.0565 82.759 57.7254C82.7796 60.1772 84.8584 62.2375 87.6575 62.2375C89.0982 62.3405 90.2302 61.6194 91.0123 60.9601C91.4564 60.6267 92.0002 59.5941 92.3448 58.9398C92.3836 58.8662 92.4198 58.7974 92.4531 58.7349C92.7206 58.261 92.9265 57.746 93.0911 57.2309C93.2904 56.7244 93.4326 56.2751 93.5432 55.9256C93.5811 55.8058 93.6152 55.6978 93.6467 55.6032C93.6782 55.514 93.7176 55.4088 93.7637 55.2859C93.8987 54.926 94.0906 54.4141 94.3054 53.7077L94.964 51.6473C96.734 46.1874 98.4012 41.428 99.986 37.4103C100.953 35.0821 102.168 33.7017 102.785 33.4132C103.114 33.2278 103.464 33.1042 103.835 33.0423V32.5067ZM80.1657 29.1483C79.6512 29.6428 78.9308 29.9312 78.2104 29.9312V29.9106C77.5106 29.89 76.8315 29.6016 76.3375 29.1277C75.823 28.6126 75.5348 27.9327 75.5348 27.2322C75.5142 26.5316 75.8024 25.8311 76.3169 25.316C76.8315 24.7803 77.5107 24.4919 78.231 24.4713C78.972 24.4713 79.6718 24.7803 80.1863 25.2954C80.7009 25.8105 81.0096 26.5316 81.0096 27.2528C80.9891 27.9533 80.6803 28.6538 80.1657 29.1483ZM80.5962 32.6298V48.9066C80.5962 51.1936 81.584 52.2444 82.7366 52.4298V52.9655H73.8247V52.4298C74.9567 52.265 76.0682 51.2142 76.0682 48.9272V35.2877C76.0682 33.1243 73.8247 33.1243 73.8247 33.1243C73.3101 33.1037 72.7956 33.2273 72.3223 33.4128C71.8283 33.5982 71.3961 33.9072 71.0462 34.2781C70.3053 34.9786 69.6466 35.9882 69.0703 37.3274C68.6273 38.2996 65.8151 46.3871 64.2875 50.7801C63.9697 51.6941 63.7075 52.4481 63.5338 52.9449H60.4261C59.8292 51.07 57.9562 45.5482 56.392 41.5511L54.9718 37.8425C53.9633 34.9992 52.7078 33.4128 51.3288 33.1243V32.5886H60.673V33.1243C58.903 33.3303 58.5119 34.5872 59.6233 37.9661C59.823 38.5659 60.2205 39.6604 60.795 41.243C61.0495 41.9438 61.3387 42.7404 61.6609 43.6321C62.5732 46.1569 63.19 48.2148 63.525 49.3325C63.5755 49.5008 63.6196 49.6479 63.6573 49.772C63.6893 49.6644 63.7142 49.5754 63.7393 49.4856C63.9406 48.7661 64.1578 47.9894 68.1647 37.1832C69.0291 34.855 68.103 33.4128 66.1889 33.1243V32.6298H80.5962Z" fill="white"></path>
</svg>