<svg class="w-full" width="137" height="85" xmlns="http://www.w3.org/2000/svg" viewBox="0 0 137 85" fill="none">
<path fill-rule="evenodd" clip-rule="evenodd" d="M81.7522 37.1623C81.7522 37.1623 81.8044 45.7213 81.7522 45.9654C81.0208 46.5755 80.098 46.8195 79.1054 46.8893H78.6701C76.2148 46.7672 74.0555 44.6057 74.0555 42.0258C74.0555 41.4157 74.1774 40.7881 74.3689 40.2478C75.0481 38.4697 76.772 37.1798 78.7397 37.1798H81.7522V37.1623ZM81.7522 33.2228H78.7397C75.7969 33.2228 73.1501 34.7568 71.6177 37.1623C70.8863 38.2605 70.3813 39.6202 70.2594 41.0322C70.2072 41.712 70.2072 42.3919 70.2594 43.0543C70.5032 45.3901 71.6699 47.4819 73.3938 48.8939C73.5679 49.0856 73.7594 49.2076 73.9509 49.3296L73.951 49.3297C74.7521 49.8178 75.675 50.1316 76.7198 50.1316C77.8168 50.1316 78.8617 49.7655 79.6627 49.138C80.6552 48.4058 81.4388 47.3599 81.7522 46.192V49.9398C81.7522 51.2995 81.3866 52.2757 80.7074 52.9555C79.9761 53.6354 78.8094 54.0014 77.1377 54.0014C76.6456 54.0014 75.9341 53.9648 75.1555 53.9248L75.1545 53.9247C74.8589 53.9095 74.5536 53.8938 74.247 53.8794C74.0555 53.8794 73.9337 53.9491 73.8814 54.1235L73.0804 56.7731C73.0107 56.9648 73.1326 57.2089 73.3938 57.2612C74.752 57.4529 76.0406 57.5749 76.772 57.5749C79.7845 57.5749 81.9961 56.8951 83.4762 55.6052C84.7648 54.4372 85.5136 52.5895 85.6355 50.1316V33.5714C85.6355 33.3796 85.4439 33.2053 85.2697 33.2053H81.7696L81.7522 33.2228ZM132.147 45.9654C131.415 46.5755 130.423 46.8195 129.378 46.8893H129.204C126.626 46.8893 124.467 44.6754 124.467 42.0258C124.467 41.4157 124.589 40.7881 124.781 40.2478C125.46 38.4697 127.184 37.1798 129.151 37.1798H132.164V45.9828L132.147 45.9654ZM132.147 33.2228H129.134C126.191 33.2228 123.544 34.7568 122.012 37.1623C121.089 38.5743 120.602 40.2303 120.602 42.0258C120.602 44.7975 121.838 47.2553 123.806 48.8591C123.997 49.0508 124.171 49.1728 124.363 49.2949C125.164 49.7829 126.087 50.0967 127.132 50.0967H127.933C129.952 49.7829 131.746 48.1792 132.303 46.2269V49.8004C132.303 49.9921 132.495 50.1664 132.669 50.1664H135.734C135.925 50.1664 136.099 49.9747 136.099 49.8004V33.6237C136.099 33.4319 135.908 33.2576 135.734 33.2576H132.164L132.147 33.2228ZM55.9282 45.9654C55.1969 46.5755 54.2043 46.8195 53.1595 46.8893H52.9679C50.3908 46.8893 48.2314 44.6754 48.2314 42.0258C48.2314 41.4157 48.3534 40.7881 48.545 40.2478C49.2241 38.4697 50.9479 37.1798 52.9156 37.1798H55.9282V45.9654ZM55.9282 33.2228H52.9156C49.9554 33.2228 47.326 34.7568 45.7936 37.1623C44.8707 38.5743 44.3832 40.2303 44.3832 42.0258C44.3832 44.7975 45.6194 47.2553 47.5872 48.8591C47.7787 49.0508 47.9529 49.1728 48.1444 49.2949C48.9454 49.7829 49.8684 50.0967 50.9132 50.0967H51.7141C53.7341 49.7829 55.5277 48.1792 56.0849 46.2269V49.8004C56.0849 49.9921 56.2765 50.1664 56.4506 50.1664H59.5154C59.7069 50.1664 59.881 49.9747 59.881 49.8004V33.6237C59.881 33.4319 59.6895 33.2576 59.5154 33.2576H55.9457L55.9282 33.2228ZM98.5213 45.5993C97.8422 46.5755 96.7974 47.081 95.5784 47.081C94.2898 47.081 93.2973 46.5929 92.6356 45.5993C91.9564 44.6057 91.5908 43.5075 91.5908 41.8515C91.5908 40.1955 91.9564 38.8358 92.6356 37.8422C93.3147 36.866 94.3595 36.3605 95.5784 36.3605C96.867 36.3605 97.8596 36.8486 98.5213 37.8422C99.2004 38.8358 99.5661 40.178 99.5661 41.8515C99.6358 43.5075 99.2526 44.6754 98.5213 45.5993ZM101.29 35.576C100.611 34.8439 99.7577 34.2164 98.7651 33.8503C97.7899 33.4145 96.7451 33.2402 95.5784 33.2402C94.4117 33.2402 93.367 33.4319 92.3744 33.8503C91.3993 34.2861 90.5982 34.8439 89.8495 35.576C89.1703 36.3082 88.6131 37.2321 88.1952 38.278C87.8295 39.3239 87.6379 40.5615 87.6379 41.8515C87.6379 43.1414 87.8295 44.135 88.2475 45.181C88.6131 46.2269 89.1703 47.1507 89.8495 47.8829C90.5286 48.615 91.3819 49.2426 92.3744 49.6086C93.3496 50.0444 94.8296 50.2187 95.5784 50.2187C96.3272 50.2187 97.8597 49.9747 98.8348 49.6086C99.81 49.1728 100.611 48.615 101.36 47.8829C102.039 47.1507 102.596 46.2269 102.962 45.181C103.327 44.135 103.519 43.1414 103.519 41.8515C103.519 40.5615 103.327 39.3239 102.909 38.278C102.544 37.2321 101.987 36.3082 101.307 35.576H101.29ZM109.422 43.6993V27.1565C109.422 26.9125 109.231 26.7904 108.987 26.7904L105.922 27.2785C105.73 27.2785 105.609 27.4703 105.609 27.6446V44.4488C105.609 45.2507 105.609 50.1664 111.512 50.2885C111.703 50.2885 111.877 50.1141 111.877 49.9224V47.3948C111.877 47.203 111.756 47.0287 111.564 47.0287C109.405 46.837 109.405 44.135 109.405 43.6993H109.422ZM114.82 31.1484H117.955C118.146 31.1484 118.32 30.9566 118.32 30.7823V27.0868C118.32 26.8427 118.129 26.7207 117.885 26.7207L114.751 27.2088C114.559 27.2088 114.437 27.4005 114.437 27.5749V30.7649C114.437 31.0089 114.559 31.1309 114.803 31.1309L114.82 31.1484ZM66.7365 27.138V43.6808H66.7192C66.7192 44.1166 66.7192 46.8185 68.861 47.0103C69.0526 47.0103 69.1745 47.1846 69.1745 47.3763V49.9039C69.1745 50.0783 69.0003 50.27 68.8087 50.27C62.9057 50.148 62.9057 45.2324 62.9057 44.4304V44.4304V27.6261C62.9057 27.4518 63.0276 27.2601 63.2191 27.2601L66.3012 26.772C66.545 26.772 66.7365 26.894 66.7365 27.138ZM114.75 33.2241H117.884C118.128 33.2241 118.25 33.3461 118.25 33.5902V49.9586C118.25 50.1329 118.076 50.3247 117.884 50.3247H114.75C114.575 50.3247 114.384 50.1504 114.384 49.9586V33.5902C114.384 33.4159 114.558 33.2241 114.75 33.2241ZM0.987618 41.9032C1.10951 33.536 7.91805 26.7724 16.3461 26.7724L16.3636 26.8073H31.1127C31.4262 26.8073 31.7222 27.0514 31.7919 27.3651V56.8946C31.7919 57.4001 31.1127 57.6964 30.747 57.3304L21.5354 49.1548C20.0552 50.253 18.2094 50.8806 16.2416 50.8109C11.5052 50.7411 7.63945 46.6272 7.76134 41.8858C7.90065 37.0223 12.0103 33.135 16.9905 33.4488C21.2916 33.6929 24.7917 37.1966 25.1051 41.5023C25.1573 42.2344 25.1051 42.984 24.9832 43.7161C24.931 43.9776 24.5653 44.0996 24.3738 43.9079L22.528 42.2519C22.2842 42.0601 22.1622 41.8161 22.1622 41.572C21.9184 38.6086 19.3935 36.2728 16.381 36.2728C13.055 36.2728 10.3559 39.1664 10.5997 42.5482C10.7913 45.4419 13.1247 47.708 15.9456 47.8998C17.9656 48.0741 19.8811 47.0979 20.9781 45.6162C21.1523 45.3547 21.4657 45.3547 21.7095 45.5465L28.8316 51.8219V29.6661H16.3636C9.55492 29.6661 4.01752 35.1397 3.89562 41.9032C3.77373 48.7888 9.31118 54.5064 16.1895 54.5761C17.9656 54.5761 19.6896 54.2798 21.222 53.5999C21.5354 53.4779 21.9533 53.5477 22.2667 53.7917L23.6772 55.0817C23.8513 55.256 23.8514 55.5697 23.6076 55.6918C21.3787 56.9294 18.8712 57.5395 16.2243 57.5395C7.74401 57.4698 0.865725 50.3925 0.987618 41.9032Z" fill="white"></path>
</svg>