<svg class="w-full" width="137" height="85" xmlns="http://www.w3.org/2000/svg" viewBox="0 0 137 85" fill="none">
<path fill-rule="evenodd" clip-rule="evenodd" d="M115.662 29.4325C122.911 25.9276 131.598 28.921 135.156 36.1581V36.1771C135.44 36.8023 135.685 37.4464 135.913 38.0716L132.317 39.8146L113.486 49.0031C116.514 52.9817 122.002 54.4594 126.677 52.186C129.932 50.5756 132.033 47.5254 132.544 44.172L136.613 42.1828C136.764 47.7148 133.736 53.0574 128.437 55.6719C121.189 59.2147 112.502 56.1834 108.944 48.9463C105.405 41.6902 108.433 32.9753 115.662 29.4325ZM111.802 45.3656L130.576 36.1771C127.548 32.1985 122.059 30.7397 117.423 33.0132C112.748 35.2866 110.477 40.5345 111.802 45.3656ZM28.6606 38.4283C27.1466 30.8122 20.5226 27.9704 14.9964 27.9704C7.10448 27.9704 0.897034 34.0329 0.897034 42.5584C0.897034 51.0838 6.95308 57.0895 14.9964 57.0895C20.2009 57.0895 26.1057 53.5467 28.0929 48.0525V48.0904C28.4714 47.1432 28.6606 45.5328 28.8877 43.1267H13.4257V47.2947H24.0617C22.3585 51.5006 18.5733 53.111 15.0343 53.111C9.41342 53.111 5.06054 48.602 5.06054 42.5584C5.06054 36.5148 9.41342 32.1384 15.0343 32.1384C18.668 32.1384 23.1154 33.8435 24.2509 38.4851L28.6606 38.4472V38.4283ZM31.4957 56.7504H35.5647V28.7112H31.4957V56.7504ZM47.4309 36.4409C41.7533 36.4409 37.0219 41.0257 37.0219 46.7662C37.0219 52.5066 41.6965 57.0914 47.4309 57.0914C53.1653 57.0914 57.8399 52.5445 57.8399 46.7662C57.8399 40.9878 53.1085 36.4409 47.4309 36.4409ZM47.4309 40.5521C50.8943 40.5521 53.6385 43.2992 53.6385 46.7472C53.6385 50.1953 50.8943 52.9424 47.4309 52.9424C43.9676 52.9424 41.2424 50.1953 41.2424 46.7472C41.2424 43.2992 43.9865 40.5521 47.4309 40.5521ZM60.3002 28.7112V28.7301H60.2813L60.3002 28.7112ZM60.3002 28.7301H64.4449V38.1081C65.7696 37.0472 67.3405 36.4788 69.4601 36.4409C74.1536 36.3841 78.5443 39.2827 78.4497 46.9935C78.4119 54.5717 74.1914 57.0346 69.5169 57.0346C67.3972 57.0346 65.3154 56.22 64.0853 54.9885V56.7504H60.3002V28.7301ZM64.5584 41.7646H64.528C65.8838 40.7933 67.389 40.4005 69.0437 40.4005C72.7342 40.4005 74.2482 43.4697 74.2482 47.0314C74.2482 50.8205 72.7342 53.2266 69.0437 53.2266C67.4351 53.2266 65.8264 52.7529 64.5584 51.3699V41.7646ZM81.7617 41.7456L81.7764 41.7362L81.7806 41.7456H81.7617ZM81.7764 41.7362C83.0079 40.945 85.0265 40.3247 87.4393 40.3247C90.808 40.3247 92.7005 42.1814 92.7384 44.8337C90.808 44.0759 89.1047 43.7349 87.4393 43.697C82.2348 43.6023 79.4527 46.4062 79.4527 50.1764C79.4527 54.818 82.5755 57.0914 86.8716 57.0914C89.5211 57.0914 92.2653 56.1063 93.2684 55.0453V56.7504H96.9966V45.0042C96.9966 40.23 93.9307 36.3841 87.9692 36.3841C84.9032 36.3841 82.3483 36.9903 80.3044 38.4681L81.7764 41.7362ZM92.6817 51.6351C90.7324 52.4877 88.7452 52.9613 87.3258 52.9613C84.733 52.9613 83.5974 51.9193 83.5974 50.309C83.5974 48.8881 84.6383 47.524 87.4204 47.524C88.8398 47.524 90.6945 47.7513 92.6817 48.5092V51.6351ZM99.4948 56.7504H103.564V28.7112H99.4948V56.7504Z" fill="white"></path>
</svg>