<svg width="235" height="74" xmlns="http://www.w3.org/2000/svg" viewBox="0 0 235 74" fill="none">
<g opacity=".3" fill="#000">
<path d="M70.803 37.74c0-4.953 3.616-8.74 8.61-8.74 5.613 0 8.42 4.127 8.42 8.497 0 5-3.712 8.593-8.42 8.593h-.098c-5.27.001-8.512-3.91-8.512-8.35Zm2.426-.73c0 3.69 1.76 8.4 6.517 8.4 2.901-.048 5.66-2.282 5.66-7.136 0-4.08-1.76-8.45-6.42-8.45-2.522 0-5.757 1.748-5.757 7.187Zm122.387 5.342-5.566-6.554c-.666-.778-2.283-2.768-2.806-3.351h-.048c-.095.291-.143.874-.143 1.602v5.39c0 1.166.048 4.37.429 5.098.143.243.618.437 1.237.486l.76.097c.143.193.143.533-.047.63-1.094-.048-1.903-.097-2.853-.097-1 0-1.666.049-2.521.097-.191-.145-.191-.485-.048-.63l.665-.097c.524-.097.952-.195 1.095-.535.333-.874.333-3.932.333-5.098v-7.04c0-.68-.048-1.214-.524-1.797-.333-.34-.904-.534-1.521-.583l-.429-.048c-.143-.146-.143-.535.048-.583.998.097 2.283.097 2.711.097.381 0 .808-.049 1.141-.097.524 1.263 3.33 4.516 4.138 5.438l2.331 2.671c1.666 1.942 2.854 3.301 3.996 4.467h.048c.095-.146.095-.534.095-1.02v-5.292c0-1.166-.047-4.37-.523-5.098-.143-.194-.524-.389-1.523-.535l-.332-.048c-.19-.146-.143-.535.047-.583 1.142.049 1.903.097 2.854.097 1.047 0 1.665-.049 2.521-.097.19.146.19.486.047.583l-.333.048c-.808.146-1.236.34-1.331.535-.428.874-.381 3.98-.381 5.098l-.095 5.923c0 .729 0 3.691.095 4.322-.047.145-.19.242-.476.242-.285-.437-.998-1.262-3.091-3.738Zm-82.813 0-5.612-6.506c-.666-.777-2.283-2.768-2.806-3.35h-.048c-.095.29-.143.874-.143 1.601v5.39c0 1.166.048 4.37.428 5.099.143.242.619.437 1.238.485l.76.098c.143.193.143.533-.048.63-1.093-.049-1.902-.097-2.854-.097-.998 0-1.664.048-2.52.097-.19-.146-.19-.486-.047-.63l.665-.098c.523-.097.952-.194 1.094-.534.333-.874.333-3.932.333-5.098v-7.09c0-.68-.047-1.213-.523-1.796-.333-.34-.904-.534-1.522-.583l-.428-.048c-.143-.146-.143-.535.048-.583.998.097 2.283.097 2.711.097.38 0 .808-.049 1.141-.097.523 1.263 3.33 4.516 4.138 5.438l2.331 2.671c1.664 1.942 2.854 3.301 3.995 4.467h.048c.095-.146.095-.534.095-1.02v-5.292c0-1.166-.048-4.37-.523-5.098-.142-.194-.523-.389-1.522-.535l-.429-.048c-.189-.146-.141-.535.048-.583 1.142.049 1.903.097 2.854.097 1.047 0 1.665-.049 2.521-.097.191.146.191.486.048.583l-.333.048c-.808.146-1.236.34-1.332.535-.428.874-.38 3.98-.38 5.098l.047 5.923c0 .729 0 3.691.095 4.322-.047.145-.19.242-.475.242-.286-.437-.999-1.262-3.093-3.738Zm-76.722 2.38c-1.285-1.118-1.904-2.914-1.904-5.828v-5.826c0-2.573-.046-2.962-1.474-3.108l-.57-.048c-.144-.097-.096-.535.047-.583 1.19.049 2.045.097 2.997.097.999 0 1.807-.049 2.949-.097.143.097.19.534.048.583l-.571.048c-1.427.146-1.475.535-1.475 3.108v5.34c0 3.983 1.19 6.605 4.946 6.605 3.52 0 4.852-2.817 4.852-6.556v-2.815h-.095c0-1.555-.048-4.37-.475-5.099-.19-.291-.57-.485-1.19-.534l-.57-.049c-.143-.194-.096-.534.047-.582.904.048 1.807.097 2.76.097.998 0 1.664-.049 2.568-.098.19.146.19.438.047.583l-.57.049c-.572.049-1.094.243-1.19.583-.332.826-.332 3.69-.332 5.05v2.767c0 2.137-.334 4.419-1.712 5.875-1.047 1.165-2.855 1.796-4.614 1.796-1.666 0-3.33-.34-4.52-1.359Zm92.895.776c-.665-.34-1.189-.777-1.474-1.36a3.558 3.558 0 0 1-.476-1.844c0-.923.285-1.748.856-2.477.571-.68 1.379-1.457 2.474-2.233-.286-.437-.523-.875-.714-1.215-.428-.97-.666-1.844-.666-2.67 0-.728.143-1.36.476-1.99a3.67 3.67 0 0 1 1.426-1.409 4.2 4.2 0 0 1 2.094-.534c.761 0 1.427.194 1.998.583.57.389.855 1.02.855 1.893 0 .632-.142 1.215-.474 1.748a6.349 6.349 0 0 1-1.143 1.36c-.475.389-1.093.825-1.854 1.36-.096.048-.286.194-.524.34 1.142 1.893 2.854 3.69 5.185 5.486.571-1.02.808-2.136.808-3.302 0-.583-.095-1.019-.332-1.31-.238-.292-.714-.437-1.38-.437-.048 0-.095-.049-.095-.146 0-.097 0-.146.095-.146l5.042-.048c.048 0 .095.048.095.145 0 .098-.047.146-.095.146-.571 0-.952.049-1.237.146-.285.097-.475.243-.57.437-.095.194-.238.485-.333.873-.429 1.555-1 2.865-1.665 3.934.951.727 1.903 1.31 2.758 1.796.857.486 1.618.776 2.236.873.047-.048.095 0 .095.098 0 .097-.048.145-.095.145h-2.615c-.714 0-1.856-.581-3.331-1.747-1.283 1.359-2.949 2.039-4.899 2.039-.998 0-1.855-.194-2.521-.535Zm.143-5.972a3.773 3.773 0 0 0-.523 1.893c0 .68.19 1.312.523 1.894.333.583.809 1.068 1.475 1.36.617.34 1.331.486 2.093.486 1.284.096 2.426-.39 3.424-1.458l-.428-.388a34.363 34.363 0 0 1-2.806-2.574c-.904-.97-1.666-1.893-2.283-2.864-.619.534-1.142 1.068-1.475 1.65Zm1.189-6.895c.048 1.31.476 2.67 1.284 4.03.857-.68 1.523-1.31 1.998-1.942.476-.632.714-1.36.714-2.136 0-.73-.191-1.311-.571-1.7-.381-.388-.904-.582-1.522-.582-1.237 0-1.903.777-1.903 2.33Zm48.707 13.255c-1.188 0-2.092.049-2.806.097-.191-.097-.191-.534-.048-.631l.714-.097c.523-.048.856-.194.856-.437 0-.242-.142-.728-.333-1.311l-1.142-3.544c-.19-.534-.238-.583-.998-.583h-3.663c-.57 0-.761.097-.903.583l-.857 2.622c-.381 1.116-.523 1.796-.523 2.04 0 .29.142.436.713.534l.809.096c.191.145.191.534-.047.631-.619-.048-1.38-.048-2.521-.097-.809 0-1.665.049-2.331.097-.143-.097-.19-.534-.048-.631l.809-.096c.57-.049 1.141-.34 1.474-1.215.429-1.165 1.142-2.72 2.141-5.487l2.473-6.652c.334-.873.524-1.359.429-1.747a2.56 2.56 0 0 0 1.236-.922c.143 0 .333.047.381.193.333 1.117.713 2.233 1.093 3.35l3.283 9.955c.713 2.136.999 2.525 2.045 2.62l.666.098c.19.145.143.534 0 .631-.999-.048-1.855-.097-2.902-.097Zm-5.993-12.38-1.57 4.32c-.189.534-.189.583.523.583h2.95c.714 0 .761-.096.523-.777l-1.285-4.03c-.19-.582-.428-1.262-.523-1.554h-.048c-.094.146-.332.729-.57 1.458ZM54.251 45.799c-1 0-1.904.049-2.997.097-.143-.097-.19-.486-.047-.631l.523-.096c1.427-.195 1.474-.535 1.474-3.06l-.047-9.468c0-1.748-.143-2.282-1.142-2.38l-.523-.096c-.19-.146-.19-.535.047-.583a83.576 83.576 0 0 1 6.041-.195c2.045 0 3.757.146 5.328.73 3.281 1.214 4.947 4.029 4.947 7.283 0 3.156-1.475 5.825-4.234 7.38-1.57.873-3.567 1.213-5.422 1.213-1.522 0-3.093-.194-3.948-.194Zm1.093-15.343c-.19.146-.238.777-.238 1.894v9.08c0 1.31.096 2.087.524 2.67.523.777 1.474 1.02 2.95 1.02 4.661 0 6.801-3.156 6.801-7.72 0-2.72-1.284-7.284-7.658-7.284-1.427 0-2.236.195-2.379.34Zm-27.207 15.44c-1.189 0-2.093.049-2.807.097-.19-.097-.19-.534-.047-.631l.713-.097c.524-.048.857-.194.857-.437 0-.242-.143-.728-.333-1.311l-1.19-3.544c-.19-.534-.237-.583-.998-.583h-3.615c-.57 0-.761.097-.904.583l-.857 2.622c-.38 1.116-.523 1.796-.523 2.04 0 .29.143.436.714.534l.809.096c.19.145.19.534-.048.631-.618-.048-1.38-.048-2.52-.097-.81 0-1.665.049-2.332.097-.142-.097-.19-.534-.047-.631l.809-.096c.57-.049 1.14-.34 1.474-1.215.428-1.165 1.141-2.72 2.14-5.487l2.474-6.652c.333-.873.523-1.359.428-1.747a2.556 2.556 0 0 0 1.236-.922c.143 0 .334.047.381.193.333 1.117.714 2.233 1.095 3.35l3.281 9.955c.714 2.136 1 2.525 2.045 2.62l.667.098c.19.145.142.534 0 .631-1-.048-1.855-.097-2.902-.097Zm-6.04-12.38-1.57 4.32c-.19.534-.19.583.522.583H24c.714 0 .761-.096.523-.777l-1.285-4.03c-.19-.582-.427-1.262-.522-1.554h-.048c-.095.146-.333.729-.57 1.458Zm-18.79 12.38c-1.093 0-1.902.049-2.854.097-.189-.097-.189-.486-.046-.631l.475-.097c1.237-.194 1.284-.485 1.284-3.156l-.047-9.565c0-1.893-.095-2.33-1.19-2.428l-.808-.097c-.19-.194-.143-.534.048-.631 1.331-.146 2.996-.242 5.326-.242 1.523 0 2.997.144 4.139.727 1.046.535 1.903 1.555 1.903 3.157 0 1.796-1.047 2.719-2.521 3.447 0 .242.19.34.475.388 1.332.243 3.282 1.505 3.282 4.224 0 2.914-2.14 4.904-6.516 4.904-.714 0-1.903-.097-2.95-.097Zm.81-7.962c.047.048.047 3.787.047 3.787 0 .874.048 2.185.523 2.719.475.583 1.19.729 1.903.729 2.188 0 3.853-1.02 3.853-3.545 0-1.991-.999-4.322-4.9-4.322-1.331 0-1.427.195-1.427.632Zm.38-7.77c-.238.098-.333.195-.333.632v5.099c0 .727.048.776 1.284.727C7.969 36.525 9.3 35.75 9.3 33.37c0-2.477-1.808-3.4-3.663-3.4-.523 0-.903.049-1.14.195Zm222.94 15.684h-2.188c-1.046 0-1.903.048-3.282.097-.143-.097-.19-.486-.047-.632l.809-.097c1.379-.145 1.521-.533 1.521-3.058v-9.031c0-2.574-.047-2.962-1.474-3.108l-.38-.049c-.143-.097-.096-.534.047-.582 1.046.048 1.903.097 2.853.097h4.567c1.522 0 2.949 0 3.282-.098.143.438.286 2.234.381 3.303-.095.145-.524.194-.571.048-.381-1.166-.571-1.99-1.855-2.33-.524-.146-1.285-.146-2.331-.146h-1.76c-.713 0-.713.049-.713.971v4.903c0 .68.095.68.809.68h1.426c1 0 1.76-.048 2.045-.145.286-.097.476-.243.571-.873l.191-1.02c.143-.146.522-.146.617.048 0 .583-.095 1.553-.095 2.525 0 .874.095 1.845.095 2.38-.095.193-.522.193-.617.048l-.191-.972c-.095-.437-.237-.825-.761-.922-.333-.097-.903-.145-1.902-.145h-1.427c-.714 0-.809.048-.809.678v3.546c0 1.31.095 2.136.476 2.573.285.291.808.534 2.902.534 1.902 0 2.567-.097 3.091-.388.428-.243 1.094-1.117 1.712-2.38.19-.145.523-.048.571.195-.19.873-.809 2.767-1.093 3.447-2.188-.049-4.329-.097-6.47-.097ZM94.206 45.75c-1 0-1.855.049-3.045.098-.142-.098-.19-.486-.047-.632l.57-.096c1.427-.194 1.475-.534 1.475-3.156v-8.788c0-2.623-.048-3.011-1.474-3.157l-.571-.049c-.143-.097-.095-.534.047-.582 1.19.048 2.046.097 3.045.097.95 0 1.807-.049 2.996-.098.143.098.19.535.047.583l-.57.049c-1.427.146-1.475.534-1.475 3.157v8.788c0 2.622.048 2.962 1.476 3.156l.57.096c.142.097.095.534-.048.632-1.189-.049-2.045-.098-2.996-.098Zm62.977-.097h-2.236c-.999 0-1.807.049-3.139.097-.143-.097-.191-.485-.048-.63l.714-.097c1.426-.146 1.474-.535 1.474-3.06v-8.836c0-2.622-.048-2.962-1.569-3.108l-.571-.049c-.143-.097-.096-.534.047-.582 1.333.048 2.188.097 3.14.097.951 0 1.76-.049 2.948-.098.143.098.191.535.048.583l-.57.049c-1.428.146-1.475.534-1.475 3.108v8.594c0 1.553.095 2.233.523 2.67.238.243.714.535 2.616.535 2.046 0 2.569-.098 2.95-.34.522-.292 1.141-1.215 1.569-2.428.143-.146.571-.049.571.146 0 .242-.666 2.767-.999 3.446a172.545 172.545 0 0 0-5.993-.097Zm48.707-2.622c-1.427-1.456-2.188-3.35-2.188-5.486 0-2.039.666-4.127 2.14-5.73 1.57-1.699 3.948-2.815 7.468-2.815 1.332 0 2.569.242 2.996.339.476.097 1.19.243 1.476.194 0 .826.142 2.04.333 3.497-.095.194-.524.194-.619.097-.666-2.622-2.426-3.4-4.852-3.4-4.614 0-6.611 3.351-6.611 6.944 0 4.661 2.33 8.255 7.087 8.255 1.474 0 2.331-.292 2.569-.729.143-.194.238-.583.238-1.359v-.972c0-2.039-.095-2.184-1.523-2.33l-1.046-.146c-.19-.097-.19-.534 0-.583.665.049 1.998.097 3.377.097.904 0 1.713-.048 2.521-.097.19.097.19.486.047.583l-.38.049c-.999.145-.999.825-.999 2.039v1.408h.096c0 .971.142 1.554.57 1.7.095.097.095.194-.048.291-.285 0-.713.097-1.189.194-1.236.34-2.949.63-4.233.63-2.807 0-5.375-.824-7.23-2.67Z"></path>
<path d="M70.803 37.74c0-4.953 3.616-8.74 8.61-8.74 5.613 0 8.42 4.127 8.42 8.497 0 5-3.712 8.593-8.42 8.593h-.098c-5.27.001-8.512-3.91-8.512-8.35Zm2.426-.73c0 3.69 1.76 8.4 6.517 8.4 2.901-.048 5.66-2.282 5.66-7.136 0-4.08-1.76-8.45-6.42-8.45-2.522 0-5.757 1.748-5.757 7.187Zm122.387 5.342-5.566-6.554c-.666-.778-2.283-2.768-2.806-3.351h-.048c-.095.291-.143.874-.143 1.602v5.39c0 1.166.048 4.37.429 5.098.143.243.618.437 1.237.486l.76.097c.143.193.143.533-.047.63-1.094-.048-1.903-.097-2.853-.097-1 0-1.666.049-2.521.097-.191-.145-.191-.485-.048-.63l.665-.097c.524-.097.952-.195 1.095-.535.333-.874.333-3.932.333-5.098v-7.04c0-.68-.048-1.214-.524-1.797-.333-.34-.904-.534-1.521-.583l-.429-.048c-.143-.146-.143-.535.048-.583.998.097 2.283.097 2.711.097.381 0 .808-.049 1.141-.097.524 1.263 3.33 4.516 4.138 5.438l2.331 2.671c1.666 1.942 2.854 3.301 3.996 4.467h.048c.095-.146.095-.534.095-1.02v-5.292c0-1.166-.047-4.37-.523-5.098-.143-.194-.524-.389-1.523-.535l-.332-.048c-.19-.146-.143-.535.047-.583 1.142.049 1.903.097 2.854.097 1.047 0 1.665-.049 2.521-.097.19.146.19.486.047.583l-.333.048c-.808.146-1.236.34-1.331.535-.428.874-.381 3.98-.381 5.098l-.095 5.923c0 .729 0 3.691.095 4.322-.047.145-.19.242-.476.242-.285-.437-.998-1.262-3.091-3.738Zm-82.813 0-5.612-6.506c-.666-.777-2.283-2.768-2.806-3.35h-.048c-.095.29-.143.874-.143 1.601v5.39c0 1.166.048 4.37.428 5.099.143.242.619.437 1.238.485l.76.098c.143.193.143.533-.048.63-1.093-.049-1.902-.097-2.854-.097-.998 0-1.664.048-2.52.097-.19-.146-.19-.486-.047-.63l.665-.098c.523-.097.952-.194 1.094-.534.333-.874.333-3.932.333-5.098v-7.09c0-.68-.047-1.213-.523-1.796-.333-.34-.904-.534-1.522-.583l-.428-.048c-.143-.146-.143-.535.048-.583.998.097 2.283.097 2.711.097.38 0 .808-.049 1.141-.097.523 1.263 3.33 4.516 4.138 5.438l2.331 2.671c1.664 1.942 2.854 3.301 3.995 4.467h.048c.095-.146.095-.534.095-1.02v-5.292c0-1.166-.048-4.37-.523-5.098-.142-.194-.523-.389-1.522-.535l-.429-.048c-.189-.146-.141-.535.048-.583 1.142.049 1.903.097 2.854.097 1.047 0 1.665-.049 2.521-.097.191.146.191.486.048.583l-.333.048c-.808.146-1.236.34-1.332.535-.428.874-.38 3.98-.38 5.098l.047 5.923c0 .729 0 3.691.095 4.322-.047.145-.19.242-.475.242-.286-.437-.999-1.262-3.093-3.738Zm-76.722 2.38c-1.285-1.118-1.904-2.914-1.904-5.828v-5.826c0-2.573-.046-2.962-1.474-3.108l-.57-.048c-.144-.097-.096-.535.047-.583 1.19.049 2.045.097 2.997.097.999 0 1.807-.049 2.949-.097.143.097.19.534.048.583l-.571.048c-1.427.146-1.475.535-1.475 3.108v5.34c0 3.983 1.19 6.605 4.946 6.605 3.52 0 4.852-2.817 4.852-6.556v-2.815h-.095c0-1.555-.048-4.37-.475-5.099-.19-.291-.57-.485-1.19-.534l-.57-.049c-.143-.194-.096-.534.047-.582.904.048 1.807.097 2.76.097.998 0 1.664-.049 2.568-.098.19.146.19.438.047.583l-.57.049c-.572.049-1.094.243-1.19.583-.332.826-.332 3.69-.332 5.05v2.767c0 2.137-.334 4.419-1.712 5.875-1.047 1.165-2.855 1.796-4.614 1.796-1.666 0-3.33-.34-4.52-1.359Zm92.895.776c-.665-.34-1.189-.777-1.474-1.36a3.558 3.558 0 0 1-.476-1.844c0-.923.285-1.748.856-2.477.571-.68 1.379-1.457 2.474-2.233-.286-.437-.523-.875-.714-1.215-.428-.97-.666-1.844-.666-2.67 0-.728.143-1.36.476-1.99a3.67 3.67 0 0 1 1.426-1.409 4.2 4.2 0 0 1 2.094-.534c.761 0 1.427.194 1.998.583.57.389.855 1.02.855 1.893 0 .632-.142 1.215-.474 1.748a6.349 6.349 0 0 1-1.143 1.36c-.475.389-1.093.825-1.854 1.36-.096.048-.286.194-.524.34 1.142 1.893 2.854 3.69 5.185 5.486.571-1.02.808-2.136.808-3.302 0-.583-.095-1.019-.332-1.31-.238-.292-.714-.437-1.38-.437-.048 0-.095-.049-.095-.146 0-.097 0-.146.095-.146l5.042-.048c.048 0 .095.048.095.145 0 .098-.047.146-.095.146-.571 0-.952.049-1.237.146-.285.097-.475.243-.57.437-.095.194-.238.485-.333.873-.429 1.555-1 2.865-1.665 3.934.951.727 1.903 1.31 2.758 1.796.857.486 1.618.776 2.236.873.047-.048.095 0 .095.098 0 .097-.048.145-.095.145h-2.615c-.714 0-1.856-.581-3.331-1.747-1.283 1.359-2.949 2.039-4.899 2.039-.998 0-1.855-.194-2.521-.535Zm.143-5.972a3.773 3.773 0 0 0-.523 1.893c0 .68.19 1.312.523 1.894.333.583.809 1.068 1.475 1.36.617.34 1.331.486 2.093.486 1.284.096 2.426-.39 3.424-1.458l-.428-.388a34.363 34.363 0 0 1-2.806-2.574c-.904-.97-1.666-1.893-2.283-2.864-.619.534-1.142 1.068-1.475 1.65Zm1.189-6.895c.048 1.31.476 2.67 1.284 4.03.857-.68 1.523-1.31 1.998-1.942.476-.632.714-1.36.714-2.136 0-.73-.191-1.311-.571-1.7-.381-.388-.904-.582-1.522-.582-1.237 0-1.903.777-1.903 2.33Zm48.707 13.255c-1.188 0-2.092.049-2.806.097-.191-.097-.191-.534-.048-.631l.714-.097c.523-.048.856-.194.856-.437 0-.242-.142-.728-.333-1.311l-1.142-3.544c-.19-.534-.238-.583-.998-.583h-3.663c-.57 0-.761.097-.903.583l-.857 2.622c-.381 1.116-.523 1.796-.523 2.04 0 .29.142.436.713.534l.809.096c.191.145.191.534-.047.631-.619-.048-1.38-.048-2.521-.097-.809 0-1.665.049-2.331.097-.143-.097-.19-.534-.048-.631l.809-.096c.57-.049 1.141-.34 1.474-1.215.429-1.165 1.142-2.72 2.141-5.487l2.473-6.652c.334-.873.524-1.359.429-1.747a2.56 2.56 0 0 0 1.236-.922c.143 0 .333.047.381.193.333 1.117.713 2.233 1.093 3.35l3.283 9.955c.713 2.136.999 2.525 2.045 2.62l.666.098c.19.145.143.534 0 .631-.999-.048-1.855-.097-2.902-.097Zm-5.993-12.38-1.57 4.32c-.189.534-.189.583.523.583h2.95c.714 0 .761-.096.523-.777l-1.285-4.03c-.19-.582-.428-1.262-.523-1.554h-.048c-.094.146-.332.729-.57 1.458ZM54.251 45.799c-1 0-1.904.049-2.997.097-.143-.097-.19-.486-.047-.631l.523-.096c1.427-.195 1.474-.535 1.474-3.06l-.047-9.468c0-1.748-.143-2.282-1.142-2.38l-.523-.096c-.19-.146-.19-.535.047-.583a83.576 83.576 0 0 1 6.041-.195c2.045 0 3.757.146 5.328.73 3.281 1.214 4.947 4.029 4.947 7.283 0 3.156-1.475 5.825-4.234 7.38-1.57.873-3.567 1.213-5.422 1.213-1.522 0-3.093-.194-3.948-.194Zm1.093-15.343c-.19.146-.238.777-.238 1.894v9.08c0 1.31.096 2.087.524 2.67.523.777 1.474 1.02 2.95 1.02 4.661 0 6.801-3.156 6.801-7.72 0-2.72-1.284-7.284-7.658-7.284-1.427 0-2.236.195-2.379.34Zm-27.207 15.44c-1.189 0-2.093.049-2.807.097-.19-.097-.19-.534-.047-.631l.713-.097c.524-.048.857-.194.857-.437 0-.242-.143-.728-.333-1.311l-1.19-3.544c-.19-.534-.237-.583-.998-.583h-3.615c-.57 0-.761.097-.904.583l-.857 2.622c-.38 1.116-.523 1.796-.523 2.04 0 .29.143.436.714.534l.809.096c.19.145.19.534-.048.631-.618-.048-1.38-.048-2.52-.097-.81 0-1.665.049-2.332.097-.142-.097-.19-.534-.047-.631l.809-.096c.57-.049 1.14-.34 1.474-1.215.428-1.165 1.141-2.72 2.14-5.487l2.474-6.652c.333-.873.523-1.359.428-1.747a2.556 2.556 0 0 0 1.236-.922c.143 0 .334.047.381.193.333 1.117.714 2.233 1.095 3.35l3.281 9.955c.714 2.136 1 2.525 2.045 2.62l.667.098c.19.145.142.534 0 .631-1-.048-1.855-.097-2.902-.097Zm-6.04-12.38-1.57 4.32c-.19.534-.19.583.522.583H24c.714 0 .761-.096.523-.777l-1.285-4.03c-.19-.582-.427-1.262-.522-1.554h-.048c-.095.146-.333.729-.57 1.458Zm-18.79 12.38c-1.093 0-1.902.049-2.854.097-.189-.097-.189-.486-.046-.631l.475-.097c1.237-.194 1.284-.485 1.284-3.156l-.047-9.565c0-1.893-.095-2.33-1.19-2.428l-.808-.097c-.19-.194-.143-.534.048-.631 1.331-.146 2.996-.242 5.326-.242 1.523 0 2.997.144 4.139.727 1.046.535 1.903 1.555 1.903 3.157 0 1.796-1.047 2.719-2.521 3.447 0 .242.19.34.475.388 1.332.243 3.282 1.505 3.282 4.224 0 2.914-2.14 4.904-6.516 4.904-.714 0-1.903-.097-2.95-.097Zm.81-7.962c.047.048.047 3.787.047 3.787 0 .874.048 2.185.523 2.719.475.583 1.19.729 1.903.729 2.188 0 3.853-1.02 3.853-3.545 0-1.991-.999-4.322-4.9-4.322-1.331 0-1.427.195-1.427.632Zm.38-7.77c-.238.098-.333.195-.333.632v5.099c0 .727.048.776 1.284.727C7.969 36.525 9.3 35.75 9.3 33.37c0-2.477-1.808-3.4-3.663-3.4-.523 0-.903.049-1.14.195Zm222.94 15.684h-2.188c-1.046 0-1.903.048-3.282.097-.143-.097-.19-.486-.047-.632l.809-.097c1.379-.145 1.521-.533 1.521-3.058v-9.031c0-2.574-.047-2.962-1.474-3.108l-.38-.049c-.143-.097-.096-.534.047-.582 1.046.048 1.903.097 2.853.097h4.567c1.522 0 2.949 0 3.282-.098.143.438.286 2.234.381 3.303-.095.145-.524.194-.571.048-.381-1.166-.571-1.99-1.855-2.33-.524-.146-1.285-.146-2.331-.146h-1.76c-.713 0-.713.049-.713.971v4.903c0 .68.095.68.809.68h1.426c1 0 1.76-.048 2.045-.145.286-.097.476-.243.571-.873l.191-1.02c.143-.146.522-.146.617.048 0 .583-.095 1.553-.095 2.525 0 .874.095 1.845.095 2.38-.095.193-.522.193-.617.048l-.191-.972c-.095-.437-.237-.825-.761-.922-.333-.097-.903-.145-1.902-.145h-1.427c-.714 0-.809.048-.809.678v3.546c0 1.31.095 2.136.476 2.573.285.291.808.534 2.902.534 1.902 0 2.567-.097 3.091-.388.428-.243 1.094-1.117 1.712-2.38.19-.145.523-.048.571.195-.19.873-.809 2.767-1.093 3.447-2.188-.049-4.329-.097-6.47-.097ZM94.206 45.75c-1 0-1.855.049-3.045.098-.142-.098-.19-.486-.047-.632l.57-.096c1.427-.194 1.475-.534 1.475-3.156v-8.788c0-2.623-.048-3.011-1.474-3.157l-.571-.049c-.143-.097-.095-.534.047-.582 1.19.048 2.046.097 3.045.097.95 0 1.807-.049 2.996-.098.143.098.19.535.047.583l-.57.049c-1.427.146-1.475.534-1.475 3.157v8.788c0 2.622.048 2.962 1.476 3.156l.57.096c.142.097.095.534-.048.632-1.189-.049-2.045-.098-2.996-.098Zm62.977-.097h-2.236c-.999 0-1.807.049-3.139.097-.143-.097-.191-.485-.048-.63l.714-.097c1.426-.146 1.474-.535 1.474-3.06v-8.836c0-2.622-.048-2.962-1.569-3.108l-.571-.049c-.143-.097-.096-.534.047-.582 1.333.048 2.188.097 3.14.097.951 0 1.76-.049 2.948-.098.143.098.191.535.048.583l-.57.049c-1.428.146-1.475.534-1.475 3.108v8.594c0 1.553.095 2.233.523 2.67.238.243.714.535 2.616.535 2.046 0 2.569-.098 2.95-.34.522-.292 1.141-1.215 1.569-2.428.143-.146.571-.049.571.146 0 .242-.666 2.767-.999 3.446a172.545 172.545 0 0 0-5.993-.097Zm48.707-2.622c-1.427-1.456-2.188-3.35-2.188-5.486 0-2.039.666-4.127 2.14-5.73 1.57-1.699 3.948-2.815 7.468-2.815 1.332 0 2.569.242 2.996.339.476.097 1.19.243 1.476.194 0 .826.142 2.04.333 3.497-.095.194-.524.194-.619.097-.666-2.622-2.426-3.4-4.852-3.4-4.614 0-6.611 3.351-6.611 6.944 0 4.661 2.33 8.255 7.087 8.255 1.474 0 2.331-.292 2.569-.729.143-.194.238-.583.238-1.359v-.972c0-2.039-.095-2.184-1.523-2.33l-1.046-.146c-.19-.097-.19-.534 0-.583.665.049 1.998.097 3.377.097.904 0 1.713-.048 2.521-.097.19.097.19.486.047.583l-.38.049c-.999.145-.999.825-.999 2.039v1.408h.096c0 .971.142 1.554.57 1.7.095.097.095.194-.048.291-.285 0-.713.097-1.189.194-1.236.34-2.949.63-4.233.63-2.807 0-5.375-.824-7.23-2.67Z" fill-opacity=".2"></path>
</g>
</svg>