<svg width="109" height="74" xmlns="http://www.w3.org/2000/svg" viewBox="0 0 109 74" fill="none">
<g opacity=".3" fill-rule="evenodd" clip-rule="evenodd" fill="#000">
<path d="M42.064 60.331V13h4.911v47.331h-4.911ZM8.7 60.997c-2.623 0-5.673-1.034-7.188-3.253C.109 55.713 0 53.088 0 50.686V39.822h4.912v10.456c0 2.956.59 6.21 4.283 6.21 3.693 0 4.284-3.251 4.284-6.21V39.822h4.912v10.864c0 2.402-.111 5.027-1.513 7.058-1.513 2.217-4.64 3.253-7.262 3.253h-.915Zm57.987-3.216v2.55H71.194v-20.51H66.69v2.588h-.074c-.185-.297-.516-.628-.739-.85-1.661-1.517-3.804-2.44-6.056-2.44-6.056 0-10.266 4.987-10.266 10.828 0 5.84 3.802 11.05 9.97 11.05 2.51 0 5.539-1.294 7.163-3.216ZM54.465 50.17c0-3.51 2.437-6.54 6.093-6.54 3.619 0 5.982 2.882 5.982 6.392 0 3.51-2.475 6.466-5.982 6.466-3.508 0-6.093-2.807-6.093-6.318Zm26.698 10.829c-2.29 0-4.69-.888-6.13-2.699-1.07-1.368-1.404-2.734-1.55-4.433h5.02c.332 1.479.996 2.624 2.697 2.624 1.181 0 2.215-.813 2.215-2.068 0-.368-.074-.74-.294-1.071-.546-.758-2.412-1.367-3.634-1.766a27.279 27.279 0 0 1-.687-.23c-2.732-.962-4.578-2.845-4.578-5.875 0-3.733 3.287-6.356 6.867-6.356s6.535 2.7 6.684 6.281h-4.8c-.223-1.07-.851-1.773-1.958-1.773-1.034 0-1.884.74-1.884 1.773 0 1.035.85 1.368 1.698 1.7.56.21 1.12.386 1.68.562l.093.03c3.176.996 5.722 2.327 5.722 6.134 0 4.064-3.102 7.169-7.163 7.169l.002-.002Zm22.928-11.16V60.33H109V48.432c0-2.144-.294-4.435-1.624-6.172-1.402-1.847-3.987-3.141-6.314-3.141-2.103 0-3.804.702-5.317 2.145V13h-4.911v47.331h4.911v-10.42c0-2.844.406-6.28 4.136-6.28s4.21 3.25 4.21 6.206ZM34.334 60.33l-.002-.002h6.204l-8.345-10.457 7.386-10.05h-5.649l-6.535 9.645h-.074V13h-4.912v47.331h4.912v-9.608h.074l6.94 9.606h-.001l.002.002Zm70.057-31.299a3.25 3.25 0 0 0 1.36.275 3.25 3.25 0 0 0 1.36-.275 3.098 3.098 0 0 0 1.664-1.789c.15-.397.224-.81.224-1.235 0-.425-.074-.835-.224-1.235-.149-.399-.362-.75-.641-1.055a3.078 3.078 0 0 0-1.023-.733 3.248 3.248 0 0 0-1.36-.275c-.504 0-.957.091-1.36.274a3.098 3.098 0 0 0-1.664 1.79c-.15.396-.224.809-.224 1.234 0 .426.074.836.224 1.235.149.4.362.75.641 1.056.277.306.619.55 1.023.733Zm2.454-.471a2.49 2.49 0 0 1-1.094.233 2.5 2.5 0 0 1-1.094-.233 2.522 2.522 0 0 1-.822-.62 2.735 2.735 0 0 1-.517-.89 3.073 3.073 0 0 1-.179-1.043c0-.36.059-.707.179-1.043.12-.335.292-.632.517-.89.224-.257.499-.464.822-.62a2.5 2.5 0 0 1 1.094-.233 2.497 2.497 0 0 1 1.916.853c.225.258.397.555.517.89a3.123 3.123 0 0 1 0 2.086c-.12.336-.292.633-.517.89a2.522 2.522 0 0 1-.822.62Zm-2.26-4.483v3.654h.564v-1.167h.7l.728 1.167h.637l-.781-1.248c.258-.085.458-.231.602-.44.144-.21.216-.448.216-.719 0-.165-.031-.327-.089-.48a1.239 1.239 0 0 0-.251-.399 1.127 1.127 0 0 0-.395-.27 1.314 1.314 0 0 0-.512-.098h-1.419Zm1.877 1.773a.644.644 0 0 1-.513.22h-.797v-1.5h.797c.216 0 .386.074.513.224a.8.8 0 0 1 .189.53c0 .203-.063.38-.189.526Z"></path>
<path d="M42.064 60.331V13h4.911v47.331h-4.911ZM8.7 60.997c-2.623 0-5.673-1.034-7.188-3.253C.109 55.713 0 53.088 0 50.686V39.822h4.912v10.456c0 2.956.59 6.21 4.283 6.21 3.693 0 4.284-3.251 4.284-6.21V39.822h4.912v10.864c0 2.402-.111 5.027-1.513 7.058-1.513 2.217-4.64 3.253-7.262 3.253h-.915Zm57.987-3.216v2.55H71.194v-20.51H66.69v2.588h-.074c-.185-.297-.516-.628-.739-.85-1.661-1.517-3.804-2.44-6.056-2.44-6.056 0-10.266 4.987-10.266 10.828 0 5.84 3.802 11.05 9.97 11.05 2.51 0 5.539-1.294 7.163-3.216ZM54.465 50.17c0-3.51 2.437-6.54 6.093-6.54 3.619 0 5.982 2.882 5.982 6.392 0 3.51-2.475 6.466-5.982 6.466-3.508 0-6.093-2.807-6.093-6.318Zm26.698 10.829c-2.29 0-4.69-.888-6.13-2.699-1.07-1.368-1.404-2.734-1.55-4.433h5.02c.332 1.479.996 2.624 2.697 2.624 1.181 0 2.215-.813 2.215-2.068 0-.368-.074-.74-.294-1.071-.546-.758-2.412-1.367-3.634-1.766a27.279 27.279 0 0 1-.687-.23c-2.732-.962-4.578-2.845-4.578-5.875 0-3.733 3.287-6.356 6.867-6.356s6.535 2.7 6.684 6.281h-4.8c-.223-1.07-.851-1.773-1.958-1.773-1.034 0-1.884.74-1.884 1.773 0 1.035.85 1.368 1.698 1.7.56.21 1.12.386 1.68.562l.093.03c3.176.996 5.722 2.327 5.722 6.134 0 4.064-3.102 7.169-7.163 7.169l.002-.002Zm22.928-11.16V60.33H109V48.432c0-2.144-.294-4.435-1.624-6.172-1.402-1.847-3.987-3.141-6.314-3.141-2.103 0-3.804.702-5.317 2.145V13h-4.911v47.331h4.911v-10.42c0-2.844.406-6.28 4.136-6.28s4.21 3.25 4.21 6.206ZM34.334 60.33l-.002-.002h6.204l-8.345-10.457 7.386-10.05h-5.649l-6.535 9.645h-.074V13h-4.912v47.331h4.912v-9.608h.074l6.94 9.606h-.001l.002.002Zm70.057-31.299a3.25 3.25 0 0 0 1.36.275 3.25 3.25 0 0 0 1.36-.275 3.098 3.098 0 0 0 1.664-1.789c.15-.397.224-.81.224-1.235 0-.425-.074-.835-.224-1.235-.149-.399-.362-.75-.641-1.055a3.078 3.078 0 0 0-1.023-.733 3.248 3.248 0 0 0-1.36-.275c-.504 0-.957.091-1.36.274a3.098 3.098 0 0 0-1.664 1.79c-.15.396-.224.809-.224 1.234 0 .426.074.836.224 1.235.149.4.362.75.641 1.056.277.306.619.55 1.023.733Zm2.454-.471a2.49 2.49 0 0 1-1.094.233 2.5 2.5 0 0 1-1.094-.233 2.522 2.522 0 0 1-.822-.62 2.735 2.735 0 0 1-.517-.89 3.073 3.073 0 0 1-.179-1.043c0-.36.059-.707.179-1.043.12-.335.292-.632.517-.89.224-.257.499-.464.822-.62a2.5 2.5 0 0 1 1.094-.233 2.497 2.497 0 0 1 1.916.853c.225.258.397.555.517.89a3.123 3.123 0 0 1 0 2.086c-.12.336-.292.633-.517.89a2.522 2.522 0 0 1-.822.62Zm-2.26-4.483v3.654h.564v-1.167h.7l.728 1.167h.637l-.781-1.248c.258-.085.458-.231.602-.44.144-.21.216-.448.216-.719 0-.165-.031-.327-.089-.48a1.239 1.239 0 0 0-.251-.399 1.127 1.127 0 0 0-.395-.27 1.314 1.314 0 0 0-.512-.098h-1.419Zm1.877 1.773a.644.644 0 0 1-.513.22h-.797v-1.5h.797c.216 0 .386.074.513.224a.8.8 0 0 1 .189.53c0 .203-.063.38-.189.526Z" fill-opacity=".2"></path>
</g>
</svg>