<svg class="w-full" width="137" height="85" xmlns="http://www.w3.org/2000/svg" viewBox="0 0 137 85" fill="none">
<path fill-rule="evenodd" clip-rule="evenodd" d="M11.6454 43.3601C11.9061 43.5559 12.0038 43.8495 11.906 44.1431H11.9223L11.9215 44.1458C11.6768 44.9296 11.1887 46.4931 10.8795 47.5521C10.8306 47.6989 10.8958 47.8457 11.0099 47.9435C11.1239 48.0414 11.2869 48.0414 11.4172 47.9435C12.2645 47.3074 13.4866 46.3614 14.1221 45.8557C14.3665 45.66 14.7249 45.66 14.9856 45.8557C15.3766 46.1591 15.9788 46.621 16.581 47.0829C16.9825 47.3909 17.384 47.6988 17.7229 47.9598C17.837 48.0577 18.0162 48.0577 18.1303 47.9598C18.2606 47.8783 18.3096 47.7152 18.2607 47.5684C17.9185 46.5082 17.4134 44.9423 17.169 44.1594C17.0712 43.8658 17.169 43.5559 17.4134 43.3764C17.7179 43.1478 18.1541 42.8159 18.6188 42.4622C19.1487 42.059 19.7157 41.6275 20.167 41.2886C20.2811 41.2071 20.33 41.0439 20.2811 40.8971C20.2322 40.7503 20.0856 40.6525 19.939 40.6525H16.6476C16.338 40.6525 16.0773 40.4568 15.9795 40.1632C15.9026 39.9321 15.8043 39.6343 15.6949 39.3024C15.4334 38.5097 15.1079 37.5226 14.8552 36.7868C14.8063 36.64 14.676 36.5421 14.5131 36.5421C14.3502 36.5421 14.2198 36.6563 14.1709 36.7868C13.8941 37.6736 13.4761 38.9253 13.1968 39.762C13.1473 39.9102 13.1022 40.0453 13.0629 40.1632C12.9815 40.4568 12.7045 40.6525 12.3949 40.6525H9.10354C8.9406 40.6525 8.81022 40.7503 8.76134 40.8971C8.72875 41.0439 8.76136 41.1908 8.89171 41.2886C9.73899 41.9411 11.0099 42.8871 11.6454 43.3601ZM14.5456 51.222C9.78783 51.222 5.90991 47.3563 5.90991 42.5772C5.90991 37.798 9.78783 33.916 14.5456 33.916C19.3197 33.916 23.1978 37.8144 23.1978 42.5772C23.1978 47.34 19.3034 51.222 14.5456 51.222ZM116.378 45.9206V45.8716L116.411 45.9043C116.411 44.6809 115.71 44.0122 112.94 43.3923C109.632 42.6583 108.133 41.5492 108.133 39.1841V39.1515C108.133 36.8516 110.105 35.1553 112.875 35.1553C114.732 35.1553 116.101 35.6283 117.404 36.558C117.6 36.7048 117.812 36.9658 117.812 37.3409C117.812 37.8629 117.405 38.2707 116.883 38.2707C116.655 38.2707 116.476 38.2381 116.313 38.1076C115.156 37.2757 114.064 36.9332 112.81 36.9332C111.115 36.9332 110.023 37.8303 110.023 39.0047V39.0536C110.023 40.2933 110.74 40.962 113.657 41.5818C116.867 42.2832 118.333 43.4739 118.333 45.6922V45.7411C118.333 48.2367 116.264 49.8678 113.396 49.8678C111.327 49.8678 109.6 49.2154 108.019 47.9594C107.791 47.829 107.645 47.5517 107.645 47.2254C107.645 46.6872 108.052 46.2794 108.573 46.2794C108.818 46.2794 109.046 46.3773 109.176 46.5078C110.447 47.5843 111.685 48.1062 113.445 48.1062C115.205 48.1062 116.378 47.2091 116.378 45.9206ZM68.5074 36.2482V48.7914C68.5074 49.3297 68.9473 49.7701 69.4524 49.7701C69.9901 49.7701 70.4301 49.3297 70.4301 48.7914V36.2482C70.4301 35.7099 69.9901 35.2695 69.4524 35.2695C68.9473 35.2695 68.5074 35.7099 68.5074 36.2482ZM59.3496 49.8356H59.4474C59.9688 49.8356 60.2946 49.5257 60.5065 49.069L65.8997 36.591C65.9486 36.4768 65.9812 36.3463 65.9812 36.2158C65.9812 35.7265 65.5739 35.2861 65.0362 35.2861C64.6126 35.2861 64.2704 35.6123 64.1074 35.9386L59.4148 47.1443L54.7548 35.9875C54.5919 35.596 54.2496 35.2861 53.7771 35.2861C53.2394 35.2861 52.7995 35.7591 52.7995 36.2322C52.7995 36.3953 52.8321 36.5258 52.8973 36.6726L58.2742 49.069C58.4677 49.537 58.8207 49.8294 59.3332 49.8355L59.3334 49.8356H59.3496ZM35.8889 39.7526V39.8015C35.8889 41.4979 34.455 42.4929 32.4835 42.4929H28.3775V37.1918H32.4998C34.618 37.1918 35.8889 38.1378 35.8889 39.7526ZM37.5346 48.1202L34.2595 43.8793C36.3614 43.39 37.8442 42.0035 37.8442 39.72V39.6711C37.8442 38.5293 37.4369 37.5017 36.7199 36.8003C35.8238 35.9032 34.4062 35.3486 32.6302 35.3486H27.4324C26.911 35.3486 26.4874 35.789 26.4874 36.3273V48.7726C26.4874 49.3109 26.9273 49.7513 27.4324 49.7513C27.9701 49.7513 28.41 49.3109 28.41 48.7726V44.2382H32.1414L36.003 49.262C36.2148 49.5556 36.5081 49.7513 36.8665 49.7513C37.3553 49.7513 37.8442 49.3109 37.8442 48.789C37.8442 48.5443 37.7139 48.3322 37.5346 48.1202ZM40.6296 48.6934C40.6296 49.2317 41.0696 49.6721 41.5747 49.6721H50.3245C50.8296 49.6721 51.2043 49.2806 51.2043 48.775C51.2043 48.2693 50.8133 47.8942 50.3245 47.8942H42.5361V43.376H49.3469C49.852 43.376 50.243 42.9846 50.243 42.4952C50.243 42.0059 49.852 41.5981 49.3469 41.5981H42.5686V37.1941H50.243C50.7319 37.1941 51.1392 36.8027 51.1392 36.297C51.1392 35.7914 50.7481 35.3999 50.243 35.3999H41.591C41.0696 35.3999 40.6459 35.8403 40.6459 36.3786V48.726L40.6296 48.6934ZM74.8944 35.3843H83.579L83.5627 35.4169C84.0515 35.4169 84.4262 35.8084 84.4262 36.314C84.4262 36.8196 84.0189 37.2111 83.5301 37.2111H75.8556V41.6151H82.6339C83.139 41.6151 83.5301 42.0229 83.5301 42.5122C83.5301 43.0015 83.139 43.393 82.6339 43.393H75.8556V47.9112H83.6441C84.133 47.9112 84.524 48.2863 84.524 48.792C84.524 49.2976 84.133 49.6891 83.6441 49.6891H74.8944C74.3892 49.6891 73.9493 49.2487 73.9493 48.7104V36.3629C73.9493 35.8247 74.3892 35.3843 74.8944 35.3843ZM100.639 49.8512H100.802C101.259 49.8512 101.601 49.525 101.764 49.052L106.228 36.6719C106.239 36.6405 106.25 36.6091 106.261 36.5779L106.261 36.5775L106.261 36.5771L106.261 36.577C106.302 36.4625 106.342 36.3501 106.342 36.2478C106.342 35.7585 105.886 35.3018 105.365 35.3018C104.909 35.3018 104.583 35.6117 104.436 36.0358L100.754 46.6542L97.2666 36.0521C97.1363 35.628 96.8104 35.3181 96.3216 35.3181H96.2076C95.7025 35.3181 95.4092 35.628 95.2625 36.0521L91.7756 46.6542L88.1095 36.0847C87.9792 35.6606 87.6045 35.3018 87.1319 35.3018C86.5942 35.3018 86.1379 35.7585 86.1379 36.2804C86.1379 36.4109 86.1868 36.5577 86.2357 36.6882L90.7003 49.0846C90.8632 49.5739 91.2053 49.8675 91.6616 49.8838H91.8246C92.2808 49.8675 92.6229 49.5576 92.7858 49.0846L96.2238 38.8739L99.6781 49.1009C99.8411 49.5087 100.183 49.8349 100.639 49.8512ZM120.532 47.8125C120.157 47.8125 119.897 48.0898 119.897 48.4323V48.6607C119.897 49.0358 120.157 49.2968 120.532 49.2968C120.907 49.2968 121.151 49.0195 121.151 48.6607V48.4486C121.151 48.0898 120.891 47.8288 120.532 47.8125ZM121.037 48.7748C121.037 48.7748 121.066 48.7748 121.095 48.7605C121.078 48.7697 121.058 48.7748 121.037 48.7748ZM123.323 42.2986C122.981 42.2986 122.704 42.054 122.704 41.7278V41.5973C122.704 41.2547 122.981 41.0264 123.323 41.0264C123.665 41.0264 123.926 41.2547 123.926 41.5973V41.7278C123.926 42.0703 123.665 42.2986 123.323 42.2986ZM122.801 48.7578V43.7666C122.801 43.473 123.029 43.2284 123.339 43.2284C123.649 43.2284 123.877 43.4567 123.877 43.7666V48.7578C123.877 49.0677 123.649 49.2961 123.339 49.2961C123.029 49.2961 122.801 49.0677 122.801 48.7578ZM130.391 46.2951C130.391 45.1044 129.528 44.142 128.355 44.142C127.181 44.142 126.35 45.1044 126.35 46.2625C126.35 47.4532 127.214 48.3992 128.371 48.3992C129.528 48.3992 130.391 47.4369 130.391 46.2951ZM131.483 46.2951V46.2625C131.483 44.5824 130.163 43.1797 128.387 43.1797C126.611 43.1797 125.275 44.6151 125.275 46.2951C125.275 47.9915 126.579 49.3942 128.355 49.3942C130.131 49.3942 131.483 47.9751 131.483 46.2951Z" fill="white"></path>
</svg>