<svg class="w-full" width="136" height="86" xmlns="http://www.w3.org/2000/svg" viewBox="0 0 136 86" fill="none">
<path fill-rule="evenodd" clip-rule="evenodd" d="M17.5006 48.7451C17.5658 48.6799 17.5658 48.5494 17.5658 48.5494L17.5984 48.5168C17.5984 48.2558 17.4681 47.9948 17.3377 47.8643C17.1422 47.7991 16.9426 47.7502 16.743 47.7012C16.5434 47.6523 16.3438 47.6034 16.1482 47.5381C15.1706 47.2608 14.2419 46.9998 13.248 46.7389C12.9221 46.6084 12.7265 46.7389 12.5962 46.9346C12.5962 46.9672 12.5799 46.9999 12.5636 47.0325C12.5473 47.0651 12.531 47.0977 12.531 47.1303C12.3445 47.744 12.1821 48.377 12.0202 49.0083C11.8852 49.5348 11.7505 50.0602 11.6023 50.572C11.592 50.5925 11.5834 50.6113 11.5757 50.6283C11.5339 50.7197 11.5167 50.7575 11.4068 50.7025C11.1298 50.6372 10.8691 50.572 10.6084 50.5067C10.2821 50.4111 9.94025 50.3311 9.59994 50.2514C9.24351 50.168 8.88876 50.0849 8.55534 49.9848C8.35981 49.9848 8.35979 49.9195 8.42496 49.789C8.61153 49.1754 8.77388 48.5424 8.93578 47.9111C9.07081 47.3845 9.20553 46.8592 9.35372 46.3474V46.3472C9.35372 46.2167 9.35372 46.0211 9.28858 45.8907C9.22341 45.7602 9.09297 45.695 8.89745 45.6297C8.66931 45.5645 8.43711 45.4992 8.20491 45.434C7.97275 45.3687 7.7406 45.3035 7.51251 45.2382C6.81648 45.1144 6.19384 44.9317 5.561 44.7461C5.52719 44.7362 5.49335 44.7262 5.45947 44.7163H5.39433C5.32916 44.6511 5.32919 44.5858 5.32919 44.5858V44.5206C5.51852 43.8962 5.70023 43.2338 5.87953 42.5801C5.96256 42.2775 6.04506 41.9767 6.12757 41.6824V41.6172C6.12757 41.552 6.19266 41.552 6.25782 41.552H6.25785C6.32303 41.5846 6.40451 41.6009 6.48599 41.6172C6.56747 41.6335 6.64895 41.6498 6.71413 41.6824C7.75393 41.9589 8.74511 42.2192 9.73617 42.4794L9.74476 42.4817C9.87511 42.5469 10.0054 42.5469 10.1358 42.4817C10.2661 42.4164 10.3965 42.286 10.4617 42.0902C10.4951 41.8811 10.5457 41.6934 10.5959 41.5073C10.6435 41.3306 10.6907 41.1554 10.7224 40.9648C10.9992 39.9869 11.2597 38.9928 11.5201 37.9987L11.5208 37.9961C11.586 37.6536 11.3904 37.3274 11.0646 37.2621C10.4516 37.0754 9.81921 36.9129 9.18861 36.7508C8.66263 36.6156 8.13787 36.4808 7.62658 36.3324H7.56144L7.56126 36.3322C7.49626 36.2672 7.4962 36.2671 7.4962 36.2019C7.4962 36.1749 7.50739 36.1367 7.52051 36.0919C7.53905 36.0286 7.56144 35.9522 7.56144 35.8757C7.6533 35.5008 7.75435 35.129 7.85528 34.7575C7.98709 34.2725 8.11871 33.7881 8.22944 33.2986C8.22944 33.2551 8.27292 33.2333 8.35982 33.2333C8.46902 33.2606 8.56677 33.2765 8.65309 33.2905C8.77286 33.31 8.87062 33.3259 8.94638 33.3638C9.87513 33.5758 10.8527 33.8368 11.7815 34.0978C11.977 34.163 12.1725 34.1631 12.368 33.9673L12.3681 33.9673C12.4332 33.9021 12.4984 33.8368 12.4984 33.7063C12.65 33.2332 12.7772 32.7454 12.9041 32.2589C13.009 31.8566 13.1137 31.4553 13.2317 31.0639C13.2643 30.9661 13.2968 30.8519 13.3294 30.7377C13.362 30.6236 13.3946 30.5094 13.4272 30.4115C13.4374 30.391 13.446 30.3721 13.4538 30.3551C13.4956 30.2637 13.5128 30.226 13.6227 30.281C13.8437 30.3427 14.0607 30.4035 14.2755 30.4638C15.0265 30.6744 15.7501 30.8773 16.5231 31.0803H16.5882C16.6533 31.1455 16.6533 31.1455 16.6533 31.2106V31.2108V31.2109C16.6533 31.2761 16.6533 31.3412 16.5882 31.3412C16.4578 31.8714 16.3071 32.4015 16.1564 32.9316C16.0056 33.4617 15.8549 33.9918 15.7246 34.5219C15.7246 34.5654 15.7173 34.6089 15.7101 34.6524C15.6956 34.7394 15.6811 34.8264 15.7246 34.9133C15.7897 35.1091 15.9202 35.2396 16.1157 35.3048C16.4579 35.4353 16.7185 35.5006 17.0444 35.5658C17.4662 35.678 17.8907 35.7981 18.3168 35.9188C18.944 36.0963 19.5747 36.2749 20.2054 36.4303H20.5313C20.7268 36.4303 20.8571 36.2345 20.9223 36.0388C21.0527 35.6963 21.1179 35.4353 21.1831 35.1091C21.2923 34.6263 21.4218 34.1689 21.5489 33.72C21.6494 33.365 21.7484 33.0153 21.8348 32.6624V32.5972C21.8348 32.5537 21.8782 32.5319 21.9651 32.5319C22.3073 32.6624 22.568 32.7277 22.8939 32.7929C23.218 32.8879 23.5421 32.9675 23.8643 33.0466C24.2063 33.1306 24.5462 33.2141 24.8818 33.3149C24.9253 33.3149 24.9592 33.31 24.9833 33.3003C24.8681 33.7612 24.7453 34.2119 24.6229 34.6613C24.4577 35.2675 24.2931 35.8715 24.1486 36.4955C24.0834 36.6913 24.0833 36.887 24.2137 37.0175C24.2789 37.148 24.4092 37.2132 24.5396 37.2785L24.5396 37.2785C25.338 37.5394 26.1201 37.7352 26.9185 37.9309C27.0815 37.9635 27.2485 38.0125 27.4155 38.0614C27.5825 38.1103 27.7495 38.1593 27.9124 38.1919C27.9329 38.2021 27.9517 38.2107 27.9687 38.2185C28.06 38.2603 28.0977 38.2776 28.0427 38.3876C27.9216 38.8423 27.797 39.2863 27.6721 39.7313C27.5282 40.2442 27.3839 40.7582 27.2443 41.291V41.3562C27.2443 41.4215 27.1792 41.4215 27.1141 41.4215H27.114C27.0489 41.4215 27 41.4052 26.9511 41.3888C26.9022 41.3725 26.8533 41.3562 26.7881 41.3562C26.1138 41.165 25.4007 40.9814 24.6969 40.8003C24.3804 40.7189 24.0658 40.6379 23.7575 40.557C23.562 40.557 23.3665 40.557 23.2361 40.6875C23.1447 40.7332 23.1174 40.8111 23.0867 40.8986C23.0737 40.9358 23.06 40.9747 23.0406 41.0137C22.9238 41.3825 22.8317 41.7315 22.7399 42.0797C22.6652 42.363 22.5906 42.6458 22.5029 42.9384C22.4051 43.3054 22.3073 43.6683 22.2096 44.0312C22.1118 44.3942 22.0141 44.7571 21.9163 45.1241C21.8511 45.3198 21.8511 45.5155 22.0466 45.7113C22.1118 45.7765 22.177 45.8418 22.3073 45.8418C22.674 45.9396 23.0202 46.0375 23.3664 46.1354C23.7127 46.2332 24.0589 46.3311 24.4255 46.429C24.621 46.4942 24.8206 46.5431 25.0202 46.5921C25.2198 46.641 25.4194 46.6899 25.6149 46.7552C25.7018 46.7987 25.7453 46.8639 25.7453 46.9509C25.6242 47.4056 25.4996 47.8497 25.3747 48.2947C25.2308 48.8075 25.0865 49.3216 24.9469 49.8543C24.9367 49.8748 24.9281 49.8936 24.9203 49.9107C24.8786 50.002 24.8613 50.0398 24.7514 49.9848C24.2505 49.8612 23.7625 49.728 23.276 49.5951C22.6704 49.4297 22.0671 49.265 21.4437 49.1203C21.3786 49.0551 21.2483 49.0551 21.1831 49.0551H21.1831C20.9224 49.0551 20.7268 49.1855 20.6616 49.4465C20.5965 49.6748 20.5313 49.9073 20.4661 50.1397C20.401 50.3721 20.3358 50.6046 20.2706 50.833C20.1729 51.1999 20.0751 51.5465 19.9774 51.8931C19.8796 52.2397 19.7818 52.5864 19.6841 52.9534C19.6739 52.9738 19.6652 52.9926 19.6575 53.0096C19.6157 53.1011 19.5984 53.1389 19.4884 53.0839C18.8204 52.9534 18.1035 52.7577 17.4355 52.5619C17.3052 52.5293 17.1707 52.4967 17.0363 52.4641C16.9018 52.4314 16.7674 52.3988 16.637 52.3662H16.5719C16.5284 52.3662 16.5067 52.3227 16.5067 52.2357C16.5719 51.9747 16.6371 51.779 16.7023 51.5832C16.8929 50.9435 17.0757 50.2806 17.2562 49.6264C17.338 49.3299 17.4193 49.0351 17.5006 48.7451ZM5.7894 48.5603C5.8924 48.5893 5.99539 48.6183 6.11126 48.6473L6.12757 48.6799C6.12757 48.6799 6.12754 48.7451 6.19271 49.0061C6.13743 49.3935 6.03526 49.7456 5.92597 50.1223C5.9064 50.1897 5.88661 50.258 5.86682 50.3273C5.80164 50.6209 5.72019 50.9186 5.63873 51.2163C5.55727 51.5139 5.47582 51.8116 5.41064 52.1052C5.28029 52.6924 5.55731 53.2307 6.14388 53.3612C7.12151 53.6385 8.11535 53.8994 9.10928 54.1604H9.50041C9.69594 54.1604 9.89138 54.0299 10.0217 53.8994L12.14 51.779C12.2703 51.6486 12.3354 51.5182 12.4005 51.3878L12.4007 51.3875C12.4007 51.3549 12.4169 51.3223 12.4332 51.2897C12.4495 51.257 12.4658 51.2244 12.4658 51.1918C12.5004 51.1138 12.5167 51.022 12.534 50.9238C12.5494 50.8371 12.5656 50.7453 12.5962 50.6535C12.9563 50.7707 13.3215 50.863 13.6861 50.9551C13.9813 51.0297 14.2762 51.1042 14.5678 51.1918V51.3223C14.3768 51.9971 14.1935 52.7108 14.0127 53.4151C13.9312 53.7321 13.8503 54.0473 13.7694 54.3561C13.7042 54.4214 13.7041 54.5519 13.7041 54.6171C13.639 55.0901 13.9812 55.4816 14.4374 55.6121C15.4313 55.8894 16.409 56.1504 17.4029 56.4113H17.8591C18.0546 56.3461 18.2501 56.2156 18.3805 56.0851L20.4335 54.0299C20.629 53.8994 20.6942 53.7037 20.7594 53.508C20.7594 53.296 20.8246 53.1004 20.8897 52.9047L20.8898 52.9045V52.8392H20.9549C21.3353 52.948 21.7722 53.0568 22.2091 53.1656C22.2963 53.1873 22.3835 53.209 22.4702 53.2307C22.8776 53.2959 23.2034 53.2307 23.4641 52.9697C23.7248 52.774 23.9204 52.5782 24.1159 52.3825L25.5661 50.9308C25.7616 50.8003 25.8268 50.6046 25.892 50.4088C25.9572 50.1316 26.0223 49.8706 26.0875 49.6096C26.1853 49.2426 26.283 48.8797 26.3808 48.5168C26.4786 48.1539 26.5763 47.7909 26.6741 47.4239C26.7393 47.2282 26.7393 47.0977 26.6741 46.902C26.5926 46.4942 26.3319 46.2985 25.9408 46.168C24.9469 45.8907 23.9693 45.6297 22.9753 45.3687L22.8451 45.3035C22.9754 44.961 23.0405 44.7 23.1057 44.3738H23.2361C23.4968 44.439 23.7453 44.5043 23.9938 44.5695C24.2422 44.6347 24.4907 44.7 24.7514 44.7652C25.1588 44.8957 25.4846 44.7652 25.7453 44.5043L27.8635 42.3838C27.9938 42.2533 28.0591 42.1228 28.1243 41.9271C28.2763 41.3452 28.4234 40.7878 28.5683 40.2388C28.6874 39.7876 28.805 39.3421 28.9226 38.8932V38.5018C28.7923 38.0288 28.5153 37.7678 28.1243 37.6373C27.2119 37.3601 26.218 37.0991 25.2242 36.8381L25.2239 36.8381C25.1587 36.7728 25.0935 36.7728 25.0935 36.7728L25.1588 36.6423C25.4358 35.6474 25.6964 34.6687 25.9571 33.6737C26.0875 33.0702 25.7453 32.5482 25.2239 32.4178C24.2463 32.0752 23.2524 31.8142 22.1933 31.5533C21.8511 31.488 21.5252 31.5533 21.2645 31.8143C20.8979 32.1813 20.5517 32.5442 20.2054 32.9071C19.8592 33.27 19.5129 33.6329 19.1463 33.9999C19.016 34.1304 18.9508 34.2609 18.8856 34.4566C18.8204 34.4566 18.8204 34.5218 18.8204 34.587V34.5871C18.7878 34.6524 18.7715 34.7176 18.7552 34.7829C18.7389 34.8481 18.7226 34.9134 18.6901 34.9786C18.3642 34.8807 18.0342 34.7992 17.7043 34.7176C17.3744 34.6361 17.0444 34.5545 16.7186 34.4566C16.7186 34.424 16.7349 34.3751 16.7511 34.3262C16.7674 34.2772 16.7837 34.2283 16.7837 34.1957C17.0444 33.2823 17.3051 32.3525 17.5006 31.4228C17.6473 30.8193 17.3051 30.2973 16.7837 30.1668C15.8061 29.8896 14.8121 29.6286 13.8182 29.3676C13.4109 29.2371 13.085 29.3676 12.8243 29.6286L10.7061 31.749C10.5758 31.8795 10.5106 32.01 10.4454 32.2057C10.4128 32.271 10.3965 32.3525 10.3802 32.4341C10.364 32.5156 10.3477 32.5972 10.3151 32.6624V32.7277H10.2499C9.82696 32.5689 9.35045 32.4531 8.90729 32.3454C8.80408 32.3203 8.70267 32.2956 8.60417 32.271C8.19682 32.2057 7.87097 32.271 7.61027 32.5319C7.41574 32.7267 7.22695 32.9214 7.03963 33.1146C6.52092 33.6497 6.01353 34.173 5.42695 34.6524C5.2966 34.7829 5.23137 34.9134 5.16619 35.1091C5.16619 35.3047 5.10105 35.5004 5.0359 35.696L5.03582 35.6963C4.93805 36.0959 4.84029 36.4915 4.74253 36.887C4.64478 37.2825 4.54702 37.6781 4.44926 38.0777C4.38412 38.1429 4.38412 38.2733 4.38412 38.4037V38.4039C4.4493 38.8769 4.72628 39.2032 5.1825 39.3337C6.16002 39.6761 7.21903 39.9371 8.27801 40.198L8.27837 40.1981H8.34351C8.21316 40.5407 8.14793 40.8017 8.08276 41.1279H7.95248C7.69177 41.0626 7.42698 40.9974 7.16219 40.9321C6.8974 40.8669 6.63262 40.8016 6.37192 40.7364C6.30676 40.6712 6.17648 40.6712 6.1113 40.6712H6.11126C5.76909 40.6712 5.50841 40.8017 5.31288 40.9974L3.1946 43.1178C3.06425 43.2483 2.99912 43.3788 2.93395 43.5745C2.65712 44.5526 2.39658 45.547 2.13603 46.5413L2.13556 46.5431C2.13556 46.5845 2.12903 46.6323 2.12217 46.6826C2.10736 46.791 2.09103 46.9107 2.13556 46.9998C2.20074 47.4076 2.47776 47.6686 2.86881 47.7991C3.3006 47.897 3.71201 48.0111 4.12343 48.1253C4.53483 48.2395 4.94624 48.3537 5.37802 48.4515C5.53191 48.4878 5.66065 48.524 5.7894 48.5603ZM76.5183 39.3621C77.1048 38.4323 78.0337 37.9104 79.158 37.9104L79.1416 37.9267C81.6509 37.9267 83.1662 39.5741 83.101 42.347V47.8927H80.3311V42.7384C80.3311 41.4825 79.549 40.618 78.4247 40.618C77.2516 40.618 76.5183 41.4825 76.5183 42.7384V47.8927H73.7484V33.9468H76.5183V39.3621ZM62.9282 38.1084V40.7508H60.4842V43.8499C60.4842 44.9101 61.2011 45.3668 62.195 45.3668H62.1951C62.4721 45.3668 62.7327 45.3668 62.9282 45.3016V47.8787C62.6024 47.944 61.9995 48.0092 61.6084 48.0092C59.2947 48.0092 57.7793 46.4923 57.7793 43.8499V40.7508H56.0034V38.1084H57.7793V35.5312H60.5493V38.1084H62.9282ZM39.3508 45.3662C37.9658 45.3662 36.9067 44.306 36.9067 42.9848C36.9067 41.6636 37.9658 40.6033 39.3508 40.6033C40.7357 40.6033 41.7948 41.6636 41.7948 42.9848C41.7948 44.306 40.6706 45.3662 39.3508 45.3662ZM40.0189 37.8957C38.6991 37.8957 37.6399 38.4177 36.923 39.4779V38.0914H34.153V51.1077H36.923V46.4753C37.5748 47.4703 38.6339 48.0575 40.0189 48.0575C42.5281 48.0575 44.5811 45.7413 44.5811 42.9684C44.5811 40.1956 42.5281 37.8794 40.0189 37.8794V37.8957ZM50.1237 45.385C48.8039 45.385 47.6796 44.3248 47.6796 43.0036C47.6796 41.6824 48.8039 40.6222 50.1237 40.6222C51.5086 40.6222 52.5677 41.6824 52.5677 43.0036C52.5677 44.3248 51.5086 45.385 50.1237 45.385ZM52.5677 38.1103V39.4967C51.8997 38.5018 50.8568 37.9146 49.4719 37.9146C46.9626 37.9146 44.9096 40.1655 44.9096 43.0036C44.9096 45.8417 46.8974 48.0926 49.4719 48.0926C50.8568 48.0926 51.916 47.4891 52.5677 46.5105V47.8969H55.3376V38.1103H52.5677ZM68.1457 48.0904C70.655 48.0904 72.708 46.443 72.9035 44.0616H70.0684C69.8729 44.7956 69.0745 45.3828 68.162 45.3828C66.8422 45.3828 65.8482 44.3225 65.8482 43.0013C65.8482 41.6149 66.8422 40.6199 68.162 40.6199C69.0908 40.6199 69.8729 41.1419 70.0684 41.8759H72.9035C72.6428 39.625 70.5898 37.9775 68.1457 37.9775C65.2454 37.9775 63.0621 40.1632 63.0621 43.0666C63.0621 45.9699 65.2454 48.0904 68.1457 48.0904ZM86.6204 47.8778H88.8038L90.7753 42.5277L92.7632 47.8778H94.9466L98.4334 38.1074H95.4028L93.8223 43.4574L91.8344 38.1074H89.6511L87.7447 43.4574L86.099 38.1074H83.1173L86.6204 47.8778ZM105.504 43.0036C105.504 41.6172 104.51 40.6222 103.19 40.6222C101.87 40.6222 100.811 41.6172 100.876 43.0036C100.876 44.3248 101.87 45.385 103.19 45.385C104.51 45.385 105.504 44.39 105.504 43.0036ZM98.1064 43.0036C98.1064 40.1002 100.29 37.9146 103.19 37.9146C106.025 37.9146 108.209 40.1002 108.274 43.0036C108.274 45.907 106.091 48.0926 103.19 48.0926C100.29 48.0926 98.1064 45.907 98.1064 43.0036ZM114.549 37.9146C113.425 37.9146 112.643 38.3713 112.04 39.2357V38.1103H109.27V47.8969H112.04V43.0688C112.04 41.2909 113.165 40.4264 114.484 40.4264C114.81 40.4264 115.152 40.4917 115.478 40.5569V37.9798C115.306 37.9798 115.13 37.9616 114.963 37.9444C114.814 37.9291 114.673 37.9146 114.549 37.9146ZM121.735 42.8689L126.102 47.8764H122.533L118.965 43.5214V47.8764H116.195V33.9468H118.965V42.2002L122.338 38.1713H125.776L121.735 42.8689ZM130.256 48.0894C132.44 48.0894 134.151 46.703 134.151 44.9088C134.151 42.3638 132.035 42.0122 130.434 41.7462C129.46 41.5842 128.676 41.4539 128.676 40.8799C128.676 40.4232 129.132 40.2112 129.8 40.2112C130.729 40.2112 131.25 40.6679 131.25 41.1409H134.085C133.825 38.9552 131.967 37.895 129.865 37.895C127.486 37.895 125.971 39.2815 125.971 41.0594C125.971 43.2335 127.927 43.5895 129.501 43.8758C130.56 44.0686 131.446 44.2298 131.446 44.8925C131.446 45.3492 130.99 45.6265 130.126 45.6265C129.197 45.6265 128.48 45.1698 128.415 44.501H125.71C125.971 46.7519 127.763 48.0731 130.273 48.0731L130.256 48.0894Z" fill="white"></path>
</svg>