<svg width="166" height="74" xmlns="http://www.w3.org/2000/svg" viewBox="0 0 166 74" fill="none">
<path fill-rule="evenodd" clip-rule="evenodd" d="M74.934 24.203h4.184v17.476c0 .903-.038 1.66-.114 2.274a8.926 8.926 0 0 1-.32 1.578 5.833 5.833 0 0 1-.49 1.148 8.939 8.939 0 0 1-.66.976c-.778 1.051-1.71 1.785-2.789 2.198-1.08.414-2.324.621-3.732.621-1.005 0-1.897-.138-2.677-.413a4.404 4.404 0 0 1-1.959-1.372c-.527-.638-.924-1.478-1.187-2.518-.264-1.04-.396-2.312-.396-3.815V24.203h4.183v-.526H56.84v.526h4.185v17.776c0 3.058.799 5.325 2.395 6.804C65.014 50.262 67.32 51 70.335 51c1.984 0 3.582-.275 4.787-.827 1.206-.551 2.15-1.278 2.827-2.18.702-.927 1.17-1.82 1.395-2.686.226-.865.339-1.824.339-2.876V24.203h4.184v-.526h-8.933v.526Zm27.212 0h4.185v19.956h-.076L93.516 23.68H85.45v.525h4.185V49.91H85.45v.528h8.934v-.528H90.2V25.744h.075l15.869 25.218h.753v-26.76h4.186v-.525h-8.936v.526Zm63.439 18.001c-.076.578-.253 1.305-.528 2.182a9.09 9.09 0 0 1-1.283 2.535 7.981 7.981 0 0 1-2.242 2.105c-.917.59-2.067.883-3.448.883h-7.125V36.342h3.053c.906 0 1.641.157 2.205.47a3.75 3.75 0 0 1 1.357 1.26c.34.525.603 1.127.792 1.803.189.676.37 1.377.547 2.104h.414V30.29h-.414c-.278 1.13-.56 2.05-.849 2.763-.288.714-.64 1.28-1.055 1.692-.41.411-.925.704-1.489.846-.579.149-1.282.225-2.111.225h-2.45V24.203h6.257c1.03 0 1.909.126 2.639.375.728.25 1.358.634 1.886 1.147.527.514.979 1.14 1.356 1.88.377.738.728 1.596 1.055 2.573h.415v-6.5h-21.559v.525h4.181v25.706h-4.183v.527h22.993v-8.23h-.415l.001-.002Zm-36.036-1.352h4.863v3.157c0 1.103-.195 2.062-.583 2.876-.391.815-.894 1.484-1.509 2.011a6.281 6.281 0 0 1-2.092 1.184 7.293 7.293 0 0 1-2.336.394c-1.281 0-2.326-.132-3.128-.394-.806-.264-1.584-.733-2.338-1.41a7.178 7.178 0 0 1-1.659-2.18c-.44-.885-.775-1.819-.998-2.782a22.256 22.256 0 0 1-.511-3.194 38.331 38.331 0 0 1 .171-8.307c.214-1.627.641-3.087 1.282-4.378a8.067 8.067 0 0 1 2.677-3.119c1.142-.788 2.657-1.184 4.542-1.184 1.582 0 2.883.277 3.9.827 1.019.551 1.835 1.228 2.451 2.029a8.508 8.508 0 0 1 1.355 2.52c.29.875.485 1.642.586 2.29h.415v-7.515h-.567c-.2.25-.408.445-.62.583-.216.136-.573.205-1.075.205a3.16 3.16 0 0 1-1.225-.225 177.87 177.87 0 0 1-1.226-.507c-.519-.21-1.055-.38-1.6-.508-.617-.149-1.404-.225-2.357-.225-1.861 0-3.519.351-4.976 1.052a14.115 14.115 0 0 0-3.881 2.743c-.328.327-.735.778-1.226 1.353a12.755 12.755 0 0 0-1.433 2.142c-.465.853-.86 1.848-1.187 2.989-.326 1.14-.49 2.425-.49 3.853 0 2.13.415 4.046 1.243 5.75.83 1.705 1.872 3.181 3.13 4.435 1.281 1.277 2.613 2.212 3.996 2.8 1.382.589 2.963.883 4.748.883 1.181 0 2.188-.12 3.016-.356a13.43 13.43 0 0 0 2.169-.81 90.19 90.19 0 0 0 1.621-.808c.462-.237.921-.356 1.373-.356.378 0 .654.05.83.151.175.1.403.288.679.563h.451v-8.532h3.016v-.526h-11.497v.526ZM19.865 47.844c-1.258 1.377-2.99 2.065-5.201 2.065H7.952V24.203h4.184v-.526H0v.526h4.184v25.706H0v.527h23.03v-8.23h-.413c-.58 2.382-1.497 4.26-2.752 5.638ZM48.7 42.918c-.302 1.68-.804 3.084-1.507 4.21-.704 1.128-1.615 1.968-2.734 2.52-1.118.55-2.482.826-4.09.826-1.634 0-3.004-.276-4.108-.827-1.105-.551-2.01-1.391-2.715-2.52-.702-1.125-1.205-2.529-1.506-4.209-.302-1.676-.453-3.644-.453-5.899 0-1.73.112-3.4.34-5.017.225-1.616.659-3.057 1.3-4.324a7.725 7.725 0 0 1 2.675-3.024c1.144-.75 2.632-1.127 4.468-1.127 1.834 0 3.322.377 4.467 1.127a7.737 7.737 0 0 1 2.676 3.026c.638 1.266 1.072 2.707 1.299 4.323.226 1.617.34 3.286.34 5.017 0 2.256-.151 4.223-.452 5.9v-.002Zm.714-15.896a13.937 13.937 0 0 0-4.2-2.952A11.594 11.594 0 0 0 40.368 23c-1.557 0-3.114.358-4.671 1.072a14.282 14.282 0 0 0-4.205 2.948c-1.243 1.254-2.26 2.733-3.053 4.436-.791 1.705-1.186 3.558-1.186 5.562 0 1.804.326 3.55.978 5.243a14.245 14.245 0 0 0 2.734 4.474 13.45 13.45 0 0 0 4.165 3.1C36.738 50.61 38.484 51 40.368 51c1.836 0 3.549-.4 5.147-1.203a14.15 14.15 0 0 0 4.164-3.157 14.921 14.921 0 0 0 2.79-4.473 13.636 13.636 0 0 0 1.017-5.148c0-2.005-.37-3.859-1.11-5.563a14.57 14.57 0 0 0-2.962-4.436v.002Z" fill="#fff"></path>
</svg>