<svg width="215" height="74" xmlns="http://www.w3.org/2000/svg" viewBox="0 0 215 74" fill="none">
<g opacity=".3">
<path fill-rule="evenodd" clip-rule="evenodd" d="M44.766 54.403v1.547c0 .589.014 1.48.042 2.164.013.37.095.603 1.174.603.382 0 .382.081.382.232 0 .123 0 .178-.109.178-.095 0-.15-.027-2.172-.027-2.007 0-2.062.027-2.157.027-.11 0-.11-.055-.11-.178 0-.15 0-.232.383-.232 1.08 0 1.16-.234 1.175-.603.027-.684.04-1.575.04-2.164v-3.354c0-.972-.013-1.301-.027-1.931-.013-.807-.246-.917-1.434-.917-.15 0-.15-.11-.15-.233 0-.082.027-.178.123-.178.109 0 1.297.055 2.157.055.875 0 2.063-.055 2.172-.055.096 0 .123.096.123.178 0 .123 0 .233-.15.233-1.188 0-1.42.11-1.434.917-.014.63-.028.959-.028 1.93v1.398h5.423v-1.397c0-.972-.014-1.301-.028-1.931-.013-.807-.246-.917-1.434-.917-.15 0-.15-.11-.15-.233 0-.082.027-.178.123-.178.11 0 1.298.055 2.172.055.86 0 2.048-.055 2.158-.055.095 0 .123.096.123.178 0 .123 0 .233-.15.233-1.19 0-1.42.11-1.435.917-.013.63-.027.959-.027 1.93v3.355c0 .589.014 1.48.041 2.164.014.37.096.603 1.174.603.383 0 .383.081.383.232 0 .123 0 .178-.11.178-.095 0-.15-.027-2.157-.027-2.022 0-2.077.027-2.172.027-.109 0-.109-.055-.109-.178 0-.15 0-.232.382-.232 1.08 0 1.161-.234 1.175-.603.027-.684.04-1.575.04-2.164v-1.547h-5.422Z" fill="#000"></path>
<path fill-rule="evenodd" clip-rule="evenodd" d="M44.766 54.403v1.547c0 .589.014 1.48.042 2.164.013.37.095.603 1.174.603.382 0 .382.081.382.232 0 .123 0 .178-.109.178-.095 0-.15-.027-2.172-.027-2.007 0-2.062.027-2.157.027-.11 0-.11-.055-.11-.178 0-.15 0-.232.383-.232 1.08 0 1.16-.234 1.175-.603.027-.684.04-1.575.04-2.164v-3.354c0-.972-.013-1.301-.027-1.931-.013-.807-.246-.917-1.434-.917-.15 0-.15-.11-.15-.233 0-.082.027-.178.123-.178.109 0 1.297.055 2.157.055.875 0 2.063-.055 2.172-.055.096 0 .123.096.123.178 0 .123 0 .233-.15.233-1.188 0-1.42.11-1.434.917-.014.63-.028.959-.028 1.93v1.398h5.423v-1.397c0-.972-.014-1.301-.028-1.931-.013-.807-.246-.917-1.434-.917-.15 0-.15-.11-.15-.233 0-.082.027-.178.123-.178.11 0 1.298.055 2.172.055.86 0 2.048-.055 2.158-.055.095 0 .123.096.123.178 0 .123 0 .233-.15.233-1.19 0-1.42.11-1.435.917-.013.63-.027.959-.027 1.93v3.355c0 .589.014 1.48.041 2.164.014.37.096.603 1.174.603.383 0 .383.081.383.232 0 .123 0 .178-.11.178-.095 0-.15-.027-2.157-.027-2.022 0-2.077.027-2.172.027-.109 0-.109-.055-.109-.178 0-.15 0-.232.382-.232 1.08 0 1.161-.234 1.175-.603.027-.684.04-1.575.04-2.164v-1.547h-5.422Z" fill="#000" fill-opacity=".2"></path>
<path fill-rule="evenodd" clip-rule="evenodd" d="M62.656 49.57c-3.183 0-3.428 3.574-3.428 4.697 0 1.89.915 4.669 3.428 4.669 3.223 0 3.441-3.054 3.441-4.683 0-1.958-.914-4.682-3.441-4.682Zm-.002 9.722c-3.674 0-5.054-2.931-5.054-4.765 0-3.3 2.445-5.313 5.054-5.313 2.896 0 5.067 1.74 5.067 5.245 0 1.902-1.38 4.833-5.067 4.833Z" fill="#000"></path>
<path fill-rule="evenodd" clip-rule="evenodd" d="M62.656 49.57c-3.183 0-3.428 3.574-3.428 4.697 0 1.89.915 4.669 3.428 4.669 3.223 0 3.441-3.054 3.441-4.683 0-1.958-.914-4.682-3.441-4.682Zm-.002 9.722c-3.674 0-5.054-2.931-5.054-4.765 0-3.3 2.445-5.313 5.054-5.313 2.896 0 5.067 1.74 5.067 5.245 0 1.902-1.38 4.833-5.067 4.833Z" fill="#000" fill-opacity=".2"></path>
<path fill-rule="evenodd" clip-rule="evenodd" d="M72.906 49.748c-.123 0-.123-.082-.123-.22 0-.164.042-.191.15-.191.083 0 1.053.055 1.299.055.204 0 .996-.055 1.215-.055.041 0 .069.04.11.082 1.597 1.807 3.755 4.395 6.815 7.545.068-1.274.136-3.697.136-5.039 0-2.095-.519-2.177-1.707-2.177-.15 0-.177-.082-.177-.192 0-.137.04-.22.15-.22.218 0 1.598.056 1.98.056.3 0 1.707-.055 1.79-.055.082 0 .109.096.109.178 0 .192-.055.233-.124.233-1.106 0-1.337.137-1.515 1.137-.083.478-.246 6.914-.246 8.215 0 .178-.068.191-.205.191-.123 0-1.27-1.451-7.58-8.257-.014 1.179-.042 2.356-.042 3.533 0 2.027.055 3.19.055 3.478 0 .453.314.672 1.066.672.697 0 .697.068.697.204 0 .165-.028.206-.138.206-.108 0-.19-.027-1.87-.027-1.544 0-1.667.027-1.762.027-.137 0-.137-.096-.137-.26 0-.123.45-.15.614-.15.328 0 .875-.069.93-.603.013-.26.163-2.848.163-6.819 0-.246 0-.52-.027-.589-.096-.246-.833-.958-1.12-.958h-.506Z" fill="#000"></path>
<path fill-rule="evenodd" clip-rule="evenodd" d="M72.906 49.748c-.123 0-.123-.082-.123-.22 0-.164.042-.191.15-.191.083 0 1.053.055 1.299.055.204 0 .996-.055 1.215-.055.041 0 .069.04.11.082 1.597 1.807 3.755 4.395 6.815 7.545.068-1.274.136-3.697.136-5.039 0-2.095-.519-2.177-1.707-2.177-.15 0-.177-.082-.177-.192 0-.137.04-.22.15-.22.218 0 1.598.056 1.98.056.3 0 1.707-.055 1.79-.055.082 0 .109.096.109.178 0 .192-.055.233-.124.233-1.106 0-1.337.137-1.515 1.137-.083.478-.246 6.914-.246 8.215 0 .178-.068.191-.205.191-.123 0-1.27-1.451-7.58-8.257-.014 1.179-.042 2.356-.042 3.533 0 2.027.055 3.19.055 3.478 0 .453.314.672 1.066.672.697 0 .697.068.697.204 0 .165-.028.206-.138.206-.108 0-.19-.027-1.87-.027-1.544 0-1.667.027-1.762.027-.137 0-.137-.096-.137-.26 0-.123.45-.15.614-.15.328 0 .875-.069.93-.603.013-.26.163-2.848.163-6.819 0-.246 0-.52-.027-.589-.096-.246-.833-.958-1.12-.958h-.506Z" fill="#000" fill-opacity=".2"></path>
<path fill-rule="evenodd" clip-rule="evenodd" d="M98.047 55.869c0-.302-.177-.41-1.257-.41-.832 0-.832-.084-.832-.234 0-.123 0-.179.245-.179.096 0 .464.028 2.486.028 1.912 0 1.967-.028 2.063-.028.109 0 .109.056.109.179 0 .15 0 .233-.287.233-1.079 0-1.174.232-1.174.616v1.876c0 .384.382.438.382.602 0 .11-.013.15-.232.22-.956.342-2.596.52-4.357.52-3.675 0-5.054-2.931-5.054-4.765 0-3.3 2.445-5.313 5.054-5.313 1.734 0 2.84.233 3.77.89.04.027.163.096.231.096.096 0 .315-.26.424-.26.096 0 .096.041.096.602 0 1.48.068 1.63.068 1.849 0 .096-.15.137-.287.137-.055 0-.232-.398-.41-.986-.355-1.096-1.544-1.972-3.538-1.972-1.693 0-3.783 1.615-3.783 4.902 0 3.026 2.158 4.464 4.03 4.464 1.365 0 2.253-.151 2.253-.986v-2.081Z" fill="#000"></path>
<path fill-rule="evenodd" clip-rule="evenodd" d="M98.047 55.869c0-.302-.177-.41-1.257-.41-.832 0-.832-.084-.832-.234 0-.123 0-.179.245-.179.096 0 .464.028 2.486.028 1.912 0 1.967-.028 2.063-.028.109 0 .109.056.109.179 0 .15 0 .233-.287.233-1.079 0-1.174.232-1.174.616v1.876c0 .384.382.438.382.602 0 .11-.013.15-.232.22-.956.342-2.596.52-4.357.52-3.675 0-5.054-2.931-5.054-4.765 0-3.3 2.445-5.313 5.054-5.313 1.734 0 2.84.233 3.77.89.04.027.163.096.231.096.096 0 .315-.26.424-.26.096 0 .096.041.096.602 0 1.48.068 1.63.068 1.849 0 .096-.15.137-.287.137-.055 0-.232-.398-.41-.986-.355-1.096-1.544-1.972-3.538-1.972-1.693 0-3.783 1.615-3.783 4.902 0 3.026 2.158 4.464 4.03 4.464 1.365 0 2.253-.151 2.253-.986v-2.081Z" fill="#000" fill-opacity=".2"></path>
<path fill-rule="evenodd" clip-rule="evenodd" d="M124.085 57.95c.723.767 1.188.767 1.625.767.409 0 .424.095.424.232 0 .123-.028.178-.138.178-.095 0-.218-.027-2.293-.027-2.022 0-2.118.027-2.2.027-.108 0-.108-.11-.108-.274 0-.068.136-.136.722-.136.301 0 .398-.151.398-.288 0-.096 0-.192-.178-.384-.971-1.068-2.677-2.985-3.06-3.286-.206-.164-.397-.164-.711-.164v1.355c0 .589.015 1.48.042 2.164.013.37.096.603 1.175.603.382 0 .382.081.382.232 0 .123 0 .178-.11.178-.095 0-.149-.027-2.172-.027-2.007 0-2.062.027-2.157.027-.11 0-.11-.055-.11-.178 0-.15 0-.232.383-.232 1.08 0 1.161-.234 1.174-.603.029-.684.042-1.575.042-2.164v-3.354c0-.972-.013-1.301-.028-1.931-.014-.807-.246-.917-1.435-.917-.149 0-.149-.11-.149-.233 0-.082.026-.178.123-.178.11 0 1.298.055 2.157.055.874 0 2.062-.055 2.172-.055.097 0 .123.096.123.178 0 .123 0 .233-.149.233-1.189 0-1.421.11-1.435.917-.013.63-.028.959-.028 1.93v1.658c.411 0 .534 0 .821-.301 3.222-3.273 3.468-3.506 3.468-3.835 0-.205-.013-.37-.928-.37-.15 0-.164-.068-.164-.204 0-.055.041-.206.137-.206.286 0 1.489.055 1.706.055.315 0 1.189-.055 1.463-.055.121 0 .136.096.136.206 0 .15-.015.205-.178.205-.683 0-.955.068-1.994 1.11l-2.635 2.669c-.11.123-.192.191-.192.246 0 .069.123.165.3.356l3.579 3.82Z" fill="#000"></path>
<path fill-rule="evenodd" clip-rule="evenodd" d="M124.085 57.95c.723.767 1.188.767 1.625.767.409 0 .424.095.424.232 0 .123-.028.178-.138.178-.095 0-.218-.027-2.293-.027-2.022 0-2.118.027-2.2.027-.108 0-.108-.11-.108-.274 0-.068.136-.136.722-.136.301 0 .398-.151.398-.288 0-.096 0-.192-.178-.384-.971-1.068-2.677-2.985-3.06-3.286-.206-.164-.397-.164-.711-.164v1.355c0 .589.015 1.48.042 2.164.013.37.096.603 1.175.603.382 0 .382.081.382.232 0 .123 0 .178-.11.178-.095 0-.149-.027-2.172-.027-2.007 0-2.062.027-2.157.027-.11 0-.11-.055-.11-.178 0-.15 0-.232.383-.232 1.08 0 1.161-.234 1.174-.603.029-.684.042-1.575.042-2.164v-3.354c0-.972-.013-1.301-.028-1.931-.014-.807-.246-.917-1.435-.917-.149 0-.149-.11-.149-.233 0-.082.026-.178.123-.178.11 0 1.298.055 2.157.055.874 0 2.062-.055 2.172-.055.097 0 .123.096.123.178 0 .123 0 .233-.149.233-1.189 0-1.421.11-1.435.917-.013.63-.028.959-.028 1.93v1.658c.411 0 .534 0 .821-.301 3.222-3.273 3.468-3.506 3.468-3.835 0-.205-.013-.37-.928-.37-.15 0-.164-.068-.164-.204 0-.055.041-.206.137-.206.286 0 1.489.055 1.706.055.315 0 1.189-.055 1.463-.055.121 0 .136.096.136.206 0 .15-.015.205-.178.205-.683 0-.955.068-1.994 1.11l-2.635 2.669c-.11.123-.192.191-.192.246 0 .069.123.165.3.356l3.579 3.82Z" fill="#000" fill-opacity=".2"></path>
<path fill-rule="evenodd" clip-rule="evenodd" d="M134.94 49.57c-3.183 0-3.429 3.574-3.429 4.697 0 1.89.916 4.669 3.429 4.669 3.223 0 3.442-3.054 3.442-4.683 0-1.958-.916-4.682-3.442-4.682Zm0 9.722c-3.674 0-5.054-2.931-5.054-4.765 0-3.3 2.445-5.313 5.054-5.313 2.895 0 5.067 1.74 5.067 5.245 0 1.902-1.379 4.833-5.067 4.833Z" fill="#000"></path>
<path fill-rule="evenodd" clip-rule="evenodd" d="M134.94 49.57c-3.183 0-3.429 3.574-3.429 4.697 0 1.89.916 4.669 3.429 4.669 3.223 0 3.442-3.054 3.442-4.683 0-1.958-.916-4.682-3.442-4.682Zm0 9.722c-3.674 0-5.054-2.931-5.054-4.765 0-3.3 2.445-5.313 5.054-5.313 2.895 0 5.067 1.74 5.067 5.245 0 1.902-1.379 4.833-5.067 4.833Z" fill="#000" fill-opacity=".2"></path>
<path fill-rule="evenodd" clip-rule="evenodd" d="M145.464 49.748c-.123 0-.123-.082-.123-.22 0-.164.042-.191.152-.191.081 0 1.051.055 1.297.055.205 0 .998-.055 1.215-.055.042 0 .068.04.11.082 1.597 1.807 3.756 4.395 6.815 7.545.069-1.274.136-3.697.136-5.039 0-2.095-.518-2.177-1.706-2.177-.151 0-.178-.082-.178-.192 0-.137.042-.22.15-.22.219 0 1.598.056 1.98.056.301 0 1.707-.055 1.79-.055.081 0 .108.096.108.178 0 .192-.053.233-.123.233-1.105 0-1.337.137-1.515 1.137-.082.478-.246 6.914-.246 8.215 0 .178-.068.191-.205.191-.122 0-1.269-1.451-7.579-8.257-.015 1.179-.042 2.356-.042 3.533 0 2.027.055 3.19.055 3.478 0 .453.314.672 1.065.672.697 0 .697.068.697.204 0 .165-.027.206-.137.206-.109 0-.191-.027-1.871-.027-1.544 0-1.667.027-1.762.027-.137 0-.137-.096-.137-.26 0-.123.452-.15.615-.15.328 0 .874-.069.928-.603.014-.26.165-2.848.165-6.819 0-.246 0-.52-.028-.589-.095-.246-.833-.958-1.12-.958h-.506Z" fill="#000"></path>
<path fill-rule="evenodd" clip-rule="evenodd" d="M145.464 49.748c-.123 0-.123-.082-.123-.22 0-.164.042-.191.152-.191.081 0 1.051.055 1.297.055.205 0 .998-.055 1.215-.055.042 0 .068.04.11.082 1.597 1.807 3.756 4.395 6.815 7.545.069-1.274.136-3.697.136-5.039 0-2.095-.518-2.177-1.706-2.177-.151 0-.178-.082-.178-.192 0-.137.042-.22.15-.22.219 0 1.598.056 1.98.056.301 0 1.707-.055 1.79-.055.081 0 .108.096.108.178 0 .192-.053.233-.123.233-1.105 0-1.337.137-1.515 1.137-.082.478-.246 6.914-.246 8.215 0 .178-.068.191-.205.191-.122 0-1.269-1.451-7.579-8.257-.015 1.179-.042 2.356-.042 3.533 0 2.027.055 3.19.055 3.478 0 .453.314.672 1.065.672.697 0 .697.068.697.204 0 .165-.027.206-.137.206-.109 0-.191-.027-1.871-.027-1.544 0-1.667.027-1.762.027-.137 0-.137-.096-.137-.26 0-.123.452-.15.615-.15.328 0 .874-.069.928-.603.014-.26.165-2.848.165-6.819 0-.246 0-.52-.028-.589-.095-.246-.833-.958-1.12-.958h-.506Z" fill="#000" fill-opacity=".2"></path>
<mask id="ferfgfaydf-a" style="mask-type:luminance" maskUnits="userSpaceOnUse" x="0" y="15" width="174" height="45">
<path fill-rule="evenodd" clip-rule="evenodd" d="M0 15.286h173.42v44.005H0V15.286Z" fill="#fff"></path>
</mask>
<g mask="url(#ferfgfaydf-a)" fill-rule="evenodd" clip-rule="evenodd" fill="#000">
<path d="M170.605 55.869c0-.302-.177-.41-1.257-.41-.832 0-.832-.083-.832-.234 0-.123 0-.178.245-.178.095 0 .464.028 2.486.028 1.912 0 1.967-.028 2.063-.028.11 0 .11.055.11.178 0 .15 0 .233-.288.233-1.078 0-1.175.233-1.175.616v1.876c0 .384.383.438.383.602 0 .11-.014.15-.231.22-.958.342-2.596.52-4.358.52-3.674 0-5.054-2.93-5.054-4.765 0-3.3 2.445-5.313 5.054-5.313 1.735 0 2.84.233 3.769.89.042.027.165.097.233.097.095 0 .314-.261.424-.261.094 0 .094.041.094.603 0 1.478.069 1.63.069 1.848 0 .096-.15.137-.286.137-.055 0-.233-.398-.411-.986-.356-1.095-1.543-1.971-3.538-1.971-1.693 0-3.782 1.615-3.782 4.9 0 3.028 2.157 4.465 4.028 4.465 1.366 0 2.254-.15 2.254-.986v-2.081Z"></path>
<path d="M170.605 55.869c0-.302-.177-.41-1.257-.41-.832 0-.832-.083-.832-.234 0-.123 0-.178.245-.178.095 0 .464.028 2.486.028 1.912 0 1.967-.028 2.063-.028.11 0 .11.055.11.178 0 .15 0 .233-.288.233-1.078 0-1.175.233-1.175.616v1.876c0 .384.383.438.383.602 0 .11-.014.15-.231.22-.958.342-2.596.52-4.358.52-3.674 0-5.054-2.93-5.054-4.765 0-3.3 2.445-5.313 5.054-5.313 1.735 0 2.84.233 3.769.89.042.027.165.097.233.097.095 0 .314-.261.424-.261.094 0 .094.041.094.603 0 1.478.069 1.63.069 1.848 0 .096-.15.137-.286.137-.055 0-.233-.398-.411-.986-.356-1.095-1.543-1.971-3.538-1.971-1.693 0-3.782 1.615-3.782 4.9 0 3.028 2.157 4.465 4.028 4.465 1.366 0 2.254-.15 2.254-.986v-2.081Z" fill-opacity=".2"></path>
<path d="M5.097 16.067c-.129.546-.18 1.742-.18 3.64v4.316c.362.026.544 0 .985 0 3.89 0 5.266-1.404 5.266-3.563 0-3.535-2.335-4.446-4.902-4.446-.415 0-.727.026-1.169.053Zm2.88 8.527c-.674.105-1.504.156-2.048.156-.52 0-.649 0-1.011-.05v3.067c0 3.744 0 3.927 2.411 4.108.078 0 .208.522-.051.495-.804-.105-2.075-.156-3.217-.156-1.504 0-2.723.027-3.812.156-.209.052-.105-.495-.027-.495 2.335-.233 2.438-.207 2.438-4.108v-7.826c0-2.94-.051-3.85-1.53-3.85-.285 0-.623.053-.986.104-.129.027-.285-.389-.05-.468 1.062-.337 3.655-.44 6.509-.44 3.787 0 6.9 1.17 6.9 4.055 0 1.456-.907 3.589-3.631 4.707 1.4 3.745 5.473 8.243 8.378 8.243.077 0 .207.494-.027.494-6.069 0-9.103-4.083-10.245-8.192Z"></path>
<path d="M5.097 16.067c-.129.546-.18 1.742-.18 3.64v4.316c.362.026.544 0 .985 0 3.89 0 5.266-1.404 5.266-3.563 0-3.535-2.335-4.446-4.902-4.446-.415 0-.727.026-1.169.053Zm2.88 8.527c-.674.105-1.504.156-2.048.156-.52 0-.649 0-1.011-.05v3.067c0 3.744 0 3.927 2.411 4.108.078 0 .208.522-.051.495-.804-.105-2.075-.156-3.217-.156-1.504 0-2.723.027-3.812.156-.209.052-.105-.495-.027-.495 2.335-.233 2.438-.207 2.438-4.108v-7.826c0-2.94-.051-3.85-1.53-3.85-.285 0-.623.053-.986.104-.129.027-.285-.389-.05-.468 1.062-.337 3.655-.44 6.509-.44 3.787 0 6.9 1.17 6.9 4.055 0 1.456-.907 3.589-3.631 4.707 1.4 3.745 5.473 8.243 8.378 8.243.077 0 .207.494-.027.494-6.069 0-9.103-4.083-10.245-8.192Z" fill-opacity=".2"></path>
</g>
<path fill-rule="evenodd" clip-rule="evenodd" d="M27.757 23.269c0 5.72 3.84 8.66 7.549 8.66 3.916 0 6.847-2.758 6.847-7.464 0-5.72-3.89-8.685-7.574-8.685-3.916 0-6.822 2.782-6.822 7.489Zm-2.332.858c0-4.316 4.02-9.127 9.753-9.127 5.525 0 9.312 4.108 9.312 8.581 0 4.342-4.047 9.153-9.805 9.153-5.5 0-9.26-4.108-9.26-8.607Z" fill="#000"></path>
<path fill-rule="evenodd" clip-rule="evenodd" d="M27.757 23.269c0 5.72 3.84 8.66 7.549 8.66 3.916 0 6.847-2.758 6.847-7.464 0-5.72-3.89-8.685-7.574-8.685-3.916 0-6.822 2.782-6.822 7.489Zm-2.332.858c0-4.316 4.02-9.127 9.753-9.127 5.525 0 9.312 4.108 9.312 8.581 0 4.342-4.047 9.153-9.805 9.153-5.5 0-9.26-4.108-9.26-8.607Z" fill="#000" fill-opacity=".2"></path>
<path fill-rule="evenodd" clip-rule="evenodd" d="M55.01 30.992c-.131-.104.05-1.612.155-3.433 0-.13.467-.103.467-.026.182 2.654 1.634 4.396 4.331 4.396 1.765 0 3.45-.962 3.45-3.043 0-4.318-7.807-4.342-7.807-9.075 0-2.392 2.102-4.811 5.11-4.811 1.505 0 2.49.339 3.398.832.207.104.39 1.093.39 2.834 0 .13-.52.105-.52.027-.311-1.925-1.583-2.913-3.476-2.913-1.634 0-3.112 1.04-3.112 2.652 0 4.135 7.652 4.058 7.652 9.024 0 2.86-2.205 5.278-5.318 5.278-1.842 0-3.346-.598-4.72-1.742Z" fill="#000"></path>
<path fill-rule="evenodd" clip-rule="evenodd" d="M55.01 30.992c-.131-.104.05-1.612.155-3.433 0-.13.467-.103.467-.026.182 2.654 1.634 4.396 4.331 4.396 1.765 0 3.45-.962 3.45-3.043 0-4.318-7.807-4.342-7.807-9.075 0-2.392 2.102-4.811 5.11-4.811 1.505 0 2.49.339 3.398.832.207.104.39 1.093.39 2.834 0 .13-.52.105-.52.027-.311-1.925-1.583-2.913-3.476-2.913-1.634 0-3.112 1.04-3.112 2.652 0 4.135 7.652 4.058 7.652 9.024 0 2.86-2.205 5.278-5.318 5.278-1.842 0-3.346-.598-4.72-1.742Z" fill="#000" fill-opacity=".2"></path>
<path fill-rule="evenodd" clip-rule="evenodd" d="M90.484 32.343c-.959 0-2.62-.129-4.539-.129-2.62 0-5.291.027-7.185.156-.233.027-.104-.495-.026-.495 2.62-.285 2.671-.18 2.671-4.108v-7.8c0-3.954-.051-3.849-2.671-4.16-.078 0-.233-.495.026-.469 1.894.13 4.436.183 7.08.183 1.92 0 3.685-.054 5.215-.183-.156.494-.182.962-.182 1.508 0 .26 0 .78.026.988.026.13-.44.077-.467 0-.207-1.144-.751-1.482-4.15-1.482h-2.49c-.104.65-.129 1.846-.129 3.484v3.328h2.67c2.855 0 2.646-.207 2.802-.884.026-.078.442 0 .493.053-.103.39-.155 1.014-.155 1.611 0 .288 0 .806.026 1.016.051.13-.442.102-.467.025-.156-.806-.311-1.118-2.698-1.118h-2.671v3.796c0 3.38.414 3.692 1.607 3.692h1.375c3.97 0 4.203-.337 4.592-2.053 0-.053.493-.053.467.078-.105.65-.338 1.872-.494 2.418-.129.467-.285.545-.726.545Z" fill="#000"></path>
<path fill-rule="evenodd" clip-rule="evenodd" d="M90.484 32.343c-.959 0-2.62-.129-4.539-.129-2.62 0-5.291.027-7.185.156-.233.027-.104-.495-.026-.495 2.62-.285 2.671-.18 2.671-4.108v-7.8c0-3.954-.051-3.849-2.671-4.16-.078 0-.233-.495.026-.469 1.894.13 4.436.183 7.08.183 1.92 0 3.685-.054 5.215-.183-.156.494-.182.962-.182 1.508 0 .26 0 .78.026.988.026.13-.44.077-.467 0-.207-1.144-.751-1.482-4.15-1.482h-2.49c-.104.65-.129 1.846-.129 3.484v3.328h2.67c2.855 0 2.646-.207 2.802-.884.026-.078.442 0 .493.053-.103.39-.155 1.014-.155 1.611 0 .288 0 .806.026 1.016.051.13-.442.102-.467.025-.156-.806-.311-1.118-2.698-1.118h-2.671v3.796c0 3.38.414 3.692 1.607 3.692h1.375c3.97 0 4.203-.337 4.592-2.053 0-.053.493-.053.467.078-.105.65-.338 1.872-.494 2.418-.129.467-.285.545-.726.545Z" fill="#000" fill-opacity=".2"></path>
<path fill-rule="evenodd" clip-rule="evenodd" d="M120.305 32.553c-.052.129-.363.18-.44-.027L115.948 21.5l-4.851 11.052c-.051.129-.389.18-.467-.027l-5.006-12.534c-1.245-3.12-1.66-4.004-3.709-4.186-.129 0-.233-.468.026-.442.727.103 1.763.156 2.776.156 1.4 0 3.138-.026 4.149-.156.26-.026.105.442.027.442-1.193.104-1.842.26-1.842.962 0 .546.597 2.34.934 3.173l3.709 9.257 3.839-8.894-.129-.312c-1.272-3.042-1.558-4.004-3.529-4.186-.078 0-.181-.468.027-.442.751.103 1.763.156 2.776.156 1.4 0 3.371-.026 4.382-.156.208-.053.13.442.053.442-1.608.13-2.128.312-2.128 1.092 0 .572.26 1.508.779 3.043l3.138 9.257 3.71-9.388c.595-1.534.933-2.34.933-3.015 0-.651-.415-.86-1.685-.989-.078 0-.235-.468.025-.442.753.103 1.531.156 2.568.156 1.427 0 1.4-.026 2.438-.156.208-.053.105.442.027.442-1.635.156-2.154 1.275-3.373 4.186l-5.24 12.56Z" fill="#000"></path>
<path fill-rule="evenodd" clip-rule="evenodd" d="M120.305 32.553c-.052.129-.363.18-.44-.027L115.948 21.5l-4.851 11.052c-.051.129-.389.18-.467-.027l-5.006-12.534c-1.245-3.12-1.66-4.004-3.709-4.186-.129 0-.233-.468.026-.442.727.103 1.763.156 2.776.156 1.4 0 3.138-.026 4.149-.156.26-.026.105.442.027.442-1.193.104-1.842.26-1.842.962 0 .546.597 2.34.934 3.173l3.709 9.257 3.839-8.894-.129-.312c-1.272-3.042-1.558-4.004-3.529-4.186-.078 0-.181-.468.027-.442.751.103 1.763.156 2.776.156 1.4 0 3.371-.026 4.382-.156.208-.053.13.442.053.442-1.608.13-2.128.312-2.128 1.092 0 .572.26 1.508.779 3.043l3.138 9.257 3.71-9.388c.595-1.534.933-2.34.933-3.015 0-.651-.415-.86-1.685-.989-.078 0-.235-.468.025-.442.753.103 1.531.156 2.568.156 1.427 0 1.4-.026 2.438-.156.208-.053.105.442.027.442-1.635.156-2.154 1.275-3.373 4.186l-5.24 12.56Z" fill="#000" fill-opacity=".2"></path>
<path fill-rule="evenodd" clip-rule="evenodd" d="M140.056 23.269c0 5.72 3.84 8.66 7.549 8.66 3.917 0 6.848-2.758 6.848-7.464 0-5.72-3.891-8.685-7.574-8.685-3.916 0-6.823 2.782-6.823 7.489Zm-2.334.858c0-4.316 4.02-9.127 9.754-9.127 5.525 0 9.312 4.108 9.312 8.581 0 4.342-4.047 9.153-9.805 9.153-5.5 0-9.261-4.108-9.261-8.607Z" fill="#000"></path>
<path fill-rule="evenodd" clip-rule="evenodd" d="M140.056 23.269c0 5.72 3.84 8.66 7.549 8.66 3.917 0 6.848-2.758 6.848-7.464 0-5.72-3.891-8.685-7.574-8.685-3.916 0-6.823 2.782-6.823 7.489Zm-2.334.858c0-4.316 4.02-9.127 9.754-9.127 5.525 0 9.312 4.108 9.312 8.581 0 4.342-4.047 9.153-9.805 9.153-5.5 0-9.261-4.108-9.261-8.607Z" fill="#000" fill-opacity=".2"></path>
<path fill-rule="evenodd" clip-rule="evenodd" d="M169.668 23.269c0 5.72 3.839 8.66 7.548 8.66 3.916 0 6.847-2.758 6.847-7.464 0-5.72-3.889-8.685-7.574-8.685-3.915 0-6.821 2.782-6.821 7.489Zm-2.335.858c0-4.316 4.021-9.127 9.754-9.127 5.525 0 9.311 4.108 9.311 8.581 0 4.342-4.045 9.153-9.804 9.153-5.5 0-9.261-4.108-9.261-8.607Z" fill="#000"></path>
<path fill-rule="evenodd" clip-rule="evenodd" d="M169.668 23.269c0 5.72 3.839 8.66 7.548 8.66 3.916 0 6.847-2.758 6.847-7.464 0-5.72-3.889-8.685-7.574-8.685-3.915 0-6.821 2.782-6.821 7.489Zm-2.335.858c0-4.316 4.021-9.127 9.754-9.127 5.525 0 9.311 4.108 9.311 8.581 0 4.342-4.045 9.153-9.804 9.153-5.5 0-9.261-4.108-9.261-8.607Z" fill="#000" fill-opacity=".2"></path>
<path fill-rule="evenodd" clip-rule="evenodd" d="M202.081 16.326c-.155.806-.207 1.664-.207 3.615v8.762c0 2.55.389 2.809 4.149 2.809 3.736 0 6.641-2.574 6.641-7.073 0-5.46-3.009-8.243-7.807-8.243-1.79 0-2.336.078-2.776.13Zm-.673 15.889c-1.531 0-3.113.026-4.202.155-.26.027-.104-.494-.027-.494 2.309-.234 2.438-.208 2.438-4.108v-7.801c0-3.9-.129-3.9-2.438-4.16-.077 0-.233-.468.027-.442 1.089.13 2.904.156 4.435.156.647 0 3.06-.105 3.995-.105 6.199 0 9.364 3.59 9.364 8.192 0 4.732-3.892 8.71-9.702 8.71-.908 0-3.268-.103-3.89-.103Z" fill="#000"></path>
<path fill-rule="evenodd" clip-rule="evenodd" d="M202.081 16.326c-.155.806-.207 1.664-.207 3.615v8.762c0 2.55.389 2.809 4.149 2.809 3.736 0 6.641-2.574 6.641-7.073 0-5.46-3.009-8.243-7.807-8.243-1.79 0-2.336.078-2.776.13Zm-.673 15.889c-1.531 0-3.113.026-4.202.155-.26.027-.104-.494-.027-.494 2.309-.234 2.438-.208 2.438-4.108v-7.801c0-3.9-.129-3.9-2.438-4.16-.077 0-.233-.468.027-.442 1.089.13 2.904.156 4.435.156.647 0 3.06-.105 3.995-.105 6.199 0 9.364 3.59 9.364 8.192 0 4.732-3.892 8.71-9.702 8.71-.908 0-3.268-.103-3.89-.103Z" fill="#000" fill-opacity=".2"></path>
</g>
</svg>