<svg width="139" height="74" xmlns="http://www.w3.org/2000/svg" viewBox="0 0 139 74" fill="none">
<g opacity=".3" fill="#000">
<path d="m73.21 21.503 1.073-2.204h-5.299l1.072 2.202v31.001l-1.072 2.204H74.28l-1.07-2.202V21.503Z"></path>
<path d="m73.21 21.503 1.073-2.204h-5.299l1.072 2.202v31.001l-1.072 2.204H74.28l-1.07-2.202V21.503Z" fill-opacity=".2"></path>
<path d="M85.7 19.299v3.833l2.116-1.087h1.419v30.457l-1.073 2.202h5.297l-1.072-2.2V22.045h1.417l2.118 1.085v-3.831H85.7Z"></path>
<path d="M85.7 19.299v3.833l2.116-1.087h1.419v30.457l-1.073 2.202h5.297l-1.072-2.2V22.045h1.417l2.118 1.085v-3.831H85.7Z" fill-opacity=".2"></path>
<path d="M106.655 19.299v3.833l2.119-1.087h1.415v30.459l-1.071 2.2h5.298l-1.073-2.202V22.045h1.419l2.117 1.085v-3.831h-10.224Z"></path>
<path d="M106.655 19.299v3.833l2.119-1.087h1.415v30.459l-1.071 2.2h5.298l-1.073-2.202V22.045h1.419l2.117 1.085v-3.831h-10.224Z" fill-opacity=".2"></path>
<path d="M34.124 19.299h-5.3l1.06 2.177v27.44c0 2.55-.766 3.336-2.39 3.336-1.575 0-2.387-.786-2.387-3.337v-27.43l1.06-2.177h-5.3l1.081 2.211v28.429c0 3.922 2.864 5.052 5.492 5.052 2.723 0 5.589-1.13 5.589-5.052v-28.44l1.095-2.21Z"></path>
<path d="M34.124 19.299h-5.3l1.06 2.177v27.44c0 2.55-.766 3.336-2.39 3.336-1.575 0-2.387-.786-2.387-3.337v-27.43l1.06-2.177h-5.3l1.081 2.211v28.429c0 3.922 2.864 5.052 5.492 5.052 2.723 0 5.589-1.13 5.589-5.052v-28.44l1.095-2.21Z" fill-opacity=".2"></path>
<path d="M6.693 45.855v4.149c0 1.522-.53 2.259-1.767 2.259-1.237 0-1.767-.737-1.767-2.259V24.006c0-1.52.53-2.257 1.767-2.257 1.237 0 1.767.737 1.767 2.257v4.149h4.23l-1.078-2.213v-2.036c0-2.991-1.623-4.898-4.919-4.898C1.631 19.008 0 20.915 0 23.906v26.189c0 2.991 1.624 4.898 4.92 4.898 3.298 0 4.92-1.914 4.92-4.898V48.07l1.078-2.213-4.225-.002Z"></path>
<path d="M6.693 45.855v4.149c0 1.522-.53 2.259-1.767 2.259-1.237 0-1.767-.737-1.767-2.259V24.006c0-1.52.53-2.257 1.767-2.257 1.237 0 1.767.737 1.767 2.257v4.149h4.23l-1.078-2.213v-2.036c0-2.991-1.623-4.898-4.919-4.898C1.631 19.008 0 20.915 0 23.906v26.189c0 2.991 1.624 4.898 4.92 4.898 3.298 0 4.92-1.914 4.92-4.898V48.07l1.078-2.213-4.225-.002Z" fill-opacity=".2"></path>
<path d="M131.881 31.064c-.53-.933-.707-2.06-.707-3.188v-3.728c0-1.371.334-2.401 1.815-2.401 1.481 0 1.816 1.03 1.816 2.401v4.004H139l-1.043-2.14v-2.06c0-3.234-1.434-4.952-4.968-4.952-3.2 0-4.967 1.718-4.967 5.197v4.267c0 1.814.477 2.993 1.338 4.514l4.633 8.286c.669 1.227.906 2.157.906 3.384V49.6c0 1.67-.62 2.65-1.91 2.65-1.384 0-2.006-.98-2.006-2.65v-3.748h-4.23l1.061 2.197v1.747c0 3.58 1.671 5.2 5.157 5.2 3.152 0 5.064-1.866 5.064-5.2v-5.59a8.67 8.67 0 0 0-1.147-4.315l-5.007-8.827Z"></path>
<path d="M131.881 31.064c-.53-.933-.707-2.06-.707-3.188v-3.728c0-1.371.334-2.401 1.815-2.401 1.481 0 1.816 1.03 1.816 2.401v4.004H139l-1.043-2.14v-2.06c0-3.234-1.434-4.952-4.968-4.952-3.2 0-4.967 1.718-4.967 5.197v4.267c0 1.814.477 2.993 1.338 4.514l4.633 8.286c.669 1.227.906 2.157.906 3.384V49.6c0 1.67-.62 2.65-1.91 2.65-1.384 0-2.006-.98-2.006-2.65v-3.748h-4.23l1.061 2.197v1.747c0 3.58 1.671 5.2 5.157 5.2 3.152 0 5.064-1.866 5.064-5.2v-5.59a8.67 8.67 0 0 0-1.147-4.315l-5.007-8.827Z" fill-opacity=".2"></path>
<path d="M53.269 36.264v-.096c2.438-.1 3.44-1.089 3.44-3.826v-8.974c0-3.53-1.863-4.07-4.873-4.07h-6.958l1.077 2.214v30.98l-1.077 2.212h6.952c3.154 0 5.017-.544 5.017-4.07V39.55c.005-2.453-1.38-3.189-3.578-3.287Zm-4.15-14.219h1.766c1.624 0 2.675.343 2.675 2.402v7.944c0 2.108-.86 2.55-2.34 2.55h-2.102V22.045Zm4.593 27.51c0 2.06-1.05 2.403-2.675 2.403h-1.919V37.686h2.103c1.48 0 2.484.443 2.484 2.16l.007 9.708Z"></path>
<path d="M53.269 36.264v-.096c2.438-.1 3.44-1.089 3.44-3.826v-8.974c0-3.53-1.863-4.07-4.873-4.07h-6.958l1.077 2.214v30.98l-1.077 2.212h6.952c3.154 0 5.017-.544 5.017-4.07V39.55c.005-2.453-1.38-3.189-3.578-3.287Zm-4.15-14.219h1.766c1.624 0 2.675.343 2.675 2.402v7.944c0 2.108-.86 2.55-2.34 2.55h-2.102V22.045Zm4.593 27.51c0 2.06-1.05 2.403-2.675 2.403h-1.919V37.686h2.103c1.48 0 2.484.443 2.484 2.16l.007 9.708Z" fill-opacity=".2"></path>
</g>
</svg>