<svg width="143" height="74" xmlns="http://www.w3.org/2000/svg" viewBox="0 0 143 74" fill="none">
<path d="M8.93996 49.8971H12.6649L21.6049 25H18.4121L10.8557 46.2337L3.2638 25H0L8.93996 49.8971Z" fill="white"></path>
<path fill-rule="evenodd" clip-rule="evenodd" d="M37.2321 43.7556C36.5221 47.354 33.5403 50 29.3515 50C23.9203 50 20.3705 46.2957 20.3705 40.7922C20.3705 35.3239 23.8493 31.5843 28.961 31.5843C34.0727 31.5843 37.4095 34.7947 37.5515 40.1219C37.5515 40.5099 37.516 40.9333 37.4805 41.3566H23.4233V41.6036C23.5298 45.0256 25.6952 47.4246 29.1385 47.4246C31.6944 47.4246 33.6822 46.084 34.2857 43.7556H37.2321ZM28.9953 34.1243C26.3329 34.1243 23.8836 36.0294 23.5996 38.9576H34.4265C34.1425 35.853 32.0126 34.1243 28.9953 34.1243Z" fill="white"></path>
<path d="M49.3924 31.6872C46.1753 31.6872 44.7966 33.0363 43.9481 34.421L43.5592 31.6872H41.0492V49.7941H43.9481V40.5631C43.9481 37.6873 44.9734 34.5275 48.7561 34.5275H50.2056V31.6872H49.3924Z" fill="white"></path>
<path d="M57.976 49.7941H61.4698L68.2105 31.6872H65.1755L59.7758 46.4923L54.3409 31.6872H51.2353L57.976 49.7941Z" fill="white"></path>
<path fill-rule="evenodd" clip-rule="evenodd" d="M84.121 45.9429C84.121 46.8954 84.4757 47.1424 85.2915 47.1424H86.2137V49.7883H84.6176C82.2057 49.7883 81.3899 48.7652 81.3544 47.0013C80.2194 48.6241 78.4105 50 75.2893 50C71.3168 50 68.6211 48.0243 68.6211 44.7434C68.6211 41.1449 71.1394 39.134 75.8922 39.134H81.2126V37.8993C81.2126 35.5709 79.5455 34.1597 76.708 34.1597C74.1543 34.1597 72.4518 35.3592 72.0971 37.1937H69.1886C69.6142 33.6658 72.4872 31.5843 76.8499 31.5843C81.4609 31.5843 84.121 33.8775 84.121 38.0757V45.9429ZM75.5031 47.5304C79.121 47.5304 81.2136 45.449 81.2136 42.4503V41.5683H75.6095C73.0203 41.5683 71.5661 42.5208 71.5661 44.567C71.5661 46.3309 73.0913 47.5304 75.5031 47.5304Z" fill="white"></path>
<path d="M100.791 40.7371C100.791 44.8184 98.8012 47.3382 95.4975 47.3382C92.478 47.3382 90.7728 45.3507 90.7728 41.5888V31.6872H87.8599V41.7663C87.8599 47.7641 91.0215 49.9999 95.0001 49.9999C97.9841 49.9999 99.7248 48.7223 100.791 47.3737L101.181 49.787H103.703V31.6872H100.791V40.7371Z" fill="white"></path>
<path d="M116.318 31.5843C113.253 31.5843 111.399 32.862 110.329 34.2461L109.937 31.7973H107.406V49.8971H110.329V40.8472C110.329 36.7659 112.397 34.2461 115.819 34.2461C118.992 34.2461 120.738 36.2335 120.738 39.9954V49.8971H123.662V39.818C123.662 33.8202 120.418 31.5843 116.318 31.5843Z" fill="white"></path>
<path d="M128.667 45.0794C128.667 48.2698 129.906 49.7941 133.374 49.7941H136.523V47.1355H133.657C132.1 47.1355 131.569 46.5683 131.569 45.044V34.3739H136.24V31.7152H131.569V26.646H128.667V31.7152H125.412V34.3739H128.667V45.0794Z" fill="white"></path>
<ellipse cx="141.049" cy="36.4198" rx="1.95473" ry="1.95473" transform="rotate(-180 141.049 36.4198)" fill="white"></ellipse>
<ellipse cx="141.049" cy="45.1646" rx="1.95473" ry="1.95473" transform="rotate(-180 141.049 45.1646)" fill="white"></ellipse>
</svg>