<svg width="265" height="74" xmlns="http://www.w3.org/2000/svg" viewBox="0 0 265 74" fill="none">
<g opacity=".3">
<mask id="qosxjpblzm-a" style="mask-type:luminance" maskUnits="userSpaceOnUse" x="259" y="28" width="6" height="7">
<path fill-rule="evenodd" clip-rule="evenodd" d="M259.681 28.639H265v5.377h-5.319V28.64Z" fill="#fff"></path>
<path fill-rule="evenodd" clip-rule="evenodd" d="M259.681 28.639H265v5.377h-5.319V28.64Z" stroke="#fff"></path>
</mask>
<g mask="url(#qosxjpblzm-a)" fill-rule="evenodd" clip-rule="evenodd" fill="#000">
<path d="M261.708 30.215h.906c.795 0 .78 1.113-.022 1.113h-.884v-1.113Zm.905-.339h-1.252v2.822h.346v-1.061h.611l.921 1.06h.383v-.058l-.884-1.002c1.12-.14 1.076-1.76-.125-1.76Zm-.273 3.809c1.458 0 2.291-1.046 2.291-2.358 0-1.318-.833-2.364-2.291-2.364-1.459 0-2.284 1.046-2.284 2.364 0 1.312.825 2.358 2.284 2.358Zm2.66-2.358c0 1.46-.951 2.69-2.66 2.69-1.701 0-2.659-1.23-2.659-2.69 0-1.466.958-2.688 2.659-2.688 1.709 0 2.66 1.223 2.66 2.689Z"></path>
<path d="M261.708 30.215h.906c.795 0 .78 1.113-.022 1.113h-.884v-1.113Zm.905-.339h-1.252v2.822h.346v-1.061h.611l.921 1.06h.383v-.058l-.884-1.002c1.12-.14 1.076-1.76-.125-1.76Zm-.273 3.809c1.458 0 2.291-1.046 2.291-2.358 0-1.318-.833-2.364-2.291-2.364-1.459 0-2.284 1.046-2.284 2.364 0 1.312.825 2.358 2.284 2.358Zm2.66-2.358c0 1.46-.951 2.69-2.66 2.69-1.701 0-2.659-1.23-2.659-2.69 0-1.466.958-2.688 2.659-2.688 1.709 0 2.66 1.223 2.66 2.689Z" fill-opacity=".2"></path>
</g>
<path fill-rule="evenodd" clip-rule="evenodd" d="M193.178 36.672h10.226v1.222h-10.226v6.884h11.025v1.297h-12.347V28.616h12.047v1.272h-10.725v6.784Z" fill="#000"></path>
<path fill-rule="evenodd" clip-rule="evenodd" d="M193.178 36.672h10.226v1.222h-10.226v6.884h11.025v1.297h-12.347V28.616h12.047v1.272h-10.725v6.784Z" fill="#000" fill-opacity=".2"></path>
<path fill-rule="evenodd" clip-rule="evenodd" d="M212.881 29.888v14.89h4.565c5.187 0 7.582-3.89 7.507-7.632-.075-3.641-2.469-7.258-7.507-7.258h-4.565Zm13.418 7.258c.1 4.44-2.743 8.93-8.854 8.93h-5.911v-17.46h5.911c5.911 0 8.755 4.24 8.854 8.53Z" fill="#000"></path>
<path fill-rule="evenodd" clip-rule="evenodd" d="M212.881 29.888v14.89h4.565c5.187 0 7.582-3.89 7.507-7.632-.075-3.641-2.469-7.258-7.507-7.258h-4.565Zm13.418 7.258c.1 4.44-2.743 8.93-8.854 8.93h-5.911v-17.46h5.911c5.911 0 8.755 4.24 8.854 8.53Z" fill="#000" fill-opacity=".2"></path>
<path fill-rule="evenodd" clip-rule="evenodd" d="M234.129 46.075h1.322V28.616h-1.322v17.459Z" fill="#000"></path>
<path fill-rule="evenodd" clip-rule="evenodd" d="M234.129 46.075h1.322V28.616h-1.322v17.459Z" fill="#000" fill-opacity=".2"></path>
<path fill-rule="evenodd" clip-rule="evenodd" d="M249.542 29.838h-6.31v-1.197h13.967v1.197h-6.31v16.237h-1.347V29.838Z" fill="#000"></path>
<path fill-rule="evenodd" clip-rule="evenodd" d="M249.542 29.838h-6.31v-1.197h13.967v1.197h-6.31v16.237h-1.347V29.838Z" fill="#000" fill-opacity=".2"></path>
<path fill-rule="evenodd" clip-rule="evenodd" d="M6.31 29.826H0V28.63h13.967v1.197h-6.31v16.237H6.31V29.826Z" fill="#000"></path>
<path fill-rule="evenodd" clip-rule="evenodd" d="M6.31 29.826H0V28.63h13.967v1.197h-6.31v16.237H6.31V29.826Z" fill="#000" fill-opacity=".2"></path>
<path fill-rule="evenodd" clip-rule="evenodd" d="M33.495 46.063v-7.931H22.37v7.931h-1.347V28.604h1.347v8.306h11.124v-8.306h1.347v17.459h-1.347Z" fill="#000"></path>
<path fill-rule="evenodd" clip-rule="evenodd" d="M33.495 46.063v-7.931H22.37v7.931h-1.347V28.604h1.347v8.306h11.124v-8.306h1.347v17.459h-1.347Z" fill="#000" fill-opacity=".2"></path>
<path fill-rule="evenodd" clip-rule="evenodd" d="M44.493 36.66h10.226v1.222H44.493v6.884h11.024v1.297H43.171V28.604h12.047v1.272H44.493v6.784Z" fill="#000"></path>
<path fill-rule="evenodd" clip-rule="evenodd" d="M44.493 36.66h10.226v1.222H44.493v6.884h11.024v1.297H43.171V28.604h12.047v1.272H44.493v6.784Z" fill="#000" fill-opacity=".2"></path>
<path fill-rule="evenodd" clip-rule="evenodd" d="M73.212 32.814c-.598-.998-2.245-1.946-4.14-1.946-2.444 0-3.617 1.023-3.617 2.32 0 1.521 1.796 1.945 3.891 2.195 3.642.449 7.034 1.396 7.034 5.562 0 3.89-3.442 5.562-7.333 5.562-3.567 0-6.31-1.098-7.607-4.29l2.743-1.422c.774 1.92 2.794 2.768 4.914 2.768 2.07 0 4.015-.723 4.015-2.618 0-1.646-1.72-2.32-4.04-2.57-3.567-.423-6.859-1.37-6.859-5.287 0-3.592 3.542-5.063 6.76-5.088 2.718 0 5.536.773 6.858 3.467l-2.619 1.347Z" fill="#000"></path>
<path fill-rule="evenodd" clip-rule="evenodd" d="M73.212 32.814c-.598-.998-2.245-1.946-4.14-1.946-2.444 0-3.617 1.023-3.617 2.32 0 1.521 1.796 1.945 3.891 2.195 3.642.449 7.034 1.396 7.034 5.562 0 3.89-3.442 5.562-7.333 5.562-3.567 0-6.31-1.098-7.607-4.29l2.743-1.422c.774 1.92 2.794 2.768 4.914 2.768 2.07 0 4.015-.723 4.015-2.618 0-1.646-1.72-2.32-4.04-2.57-3.567-.423-6.859-1.37-6.859-5.287 0-3.592 3.542-5.063 6.76-5.088 2.718 0 5.536.773 6.858 3.467l-2.619 1.347Z" fill="#000" fill-opacity=".2"></path>
<path fill-rule="evenodd" clip-rule="evenodd" d="M86.704 37.902h4.939c4.215 0 4.19-6.186 0-6.186h-4.939v6.186Zm4.939 3.018h-4.939v5.137h-3.292V28.6c2.744 0 5.487-.025 8.23-.025 8.531 0 8.556 12.346 0 12.346Z" fill="#000"></path>
<path fill-rule="evenodd" clip-rule="evenodd" d="M86.704 37.902h4.939c4.215 0 4.19-6.186 0-6.186h-4.939v6.186Zm4.939 3.018h-4.939v5.137h-3.292V28.6c2.744 0 5.487-.025 8.23-.025 8.531 0 8.556 12.346 0 12.346Z" fill="#000" fill-opacity=".2"></path>
<path fill-rule="evenodd" clip-rule="evenodd" d="M107.23 37.503c.074 2.868 1.621 5.936 5.736 5.936 4.116 0 5.662-3.093 5.712-5.961.05-2.943-1.596-6.236-5.712-6.236-4.115 0-5.811 3.318-5.736 6.26Zm14.69-.075c-.05 4.514-2.818 9.029-8.954 9.029-6.136 0-8.979-4.415-8.979-9.004 0-4.59 2.943-9.204 8.979-9.204 6.011 0 9.004 4.615 8.954 9.179Z" fill="#000"></path>
<path fill-rule="evenodd" clip-rule="evenodd" d="M107.23 37.503c.074 2.868 1.621 5.936 5.736 5.936 4.116 0 5.662-3.093 5.712-5.961.05-2.943-1.596-6.236-5.712-6.236-4.115 0-5.811 3.318-5.736 6.26Zm14.69-.075c-.05 4.514-2.818 9.029-8.954 9.029-6.136 0-8.979-4.415-8.979-9.004 0-4.59 2.943-9.204 8.979-9.204 6.011 0 9.004 4.615 8.954 9.179Z" fill="#000" fill-opacity=".2"></path>
<path fill-rule="evenodd" clip-rule="evenodd" d="M132.145 31.667v5.587h5.014c2.095 0 2.993-1.397 2.993-2.794s-.923-2.793-2.993-2.793h-5.014Zm12.172 14.39h-3.916l-5.088-5.836h-3.167v5.837h-3.293V28.574c2.769 0 5.537.025 8.306.025 4.115.024 6.285 2.768 6.285 5.786 0 2.394-1.097 4.814-4.414 5.487l5.287 5.961v.225Z" fill="#000"></path>
<path fill-rule="evenodd" clip-rule="evenodd" d="M132.145 31.667v5.587h5.014c2.095 0 2.993-1.397 2.993-2.794s-.923-2.793-2.993-2.793h-5.014Zm12.172 14.39h-3.916l-5.088-5.836h-3.167v5.837h-3.293V28.574c2.769 0 5.537.025 8.306.025 4.115.024 6.285 2.768 6.285 5.786 0 2.394-1.097 4.814-4.414 5.487l5.287 5.961v.225Z" fill="#000" fill-opacity=".2"></path>
<path fill-rule="evenodd" clip-rule="evenodd" d="M155.439 31.592h-5.537v-2.993h14.366v2.993h-5.536v14.466h-3.293V31.592Z" fill="#000"></path>
<path fill-rule="evenodd" clip-rule="evenodd" d="M155.439 31.592h-5.537v-2.993h14.366v2.993h-5.536v14.466h-3.293V31.592Z" fill="#000" fill-opacity=".2"></path>
<path fill-rule="evenodd" clip-rule="evenodd" d="M181.527 32.814c-.599-.998-2.245-1.946-4.141-1.946-2.444 0-3.616 1.023-3.616 2.32 0 1.521 1.796 1.945 3.891 2.195 3.641.449 7.033 1.396 7.033 5.562 0 3.89-3.442 5.562-7.332 5.562-3.567 0-6.311-1.098-7.608-4.29l2.744-1.422c.773 1.92 2.793 2.768 4.913 2.768 2.07 0 4.016-.723 4.016-2.618 0-1.646-1.721-2.32-4.041-2.57-3.566-.423-6.859-1.37-6.859-5.287 0-3.592 3.542-5.063 6.759-5.088 2.719 0 5.537.773 6.86 3.467l-2.619 1.347Z" fill="#000"></path>
<path fill-rule="evenodd" clip-rule="evenodd" d="M181.527 32.814c-.599-.998-2.245-1.946-4.141-1.946-2.444 0-3.616 1.023-3.616 2.32 0 1.521 1.796 1.945 3.891 2.195 3.641.449 7.033 1.396 7.033 5.562 0 3.89-3.442 5.562-7.332 5.562-3.567 0-6.311-1.098-7.608-4.29l2.744-1.422c.773 1.92 2.793 2.768 4.913 2.768 2.07 0 4.016-.723 4.016-2.618 0-1.646-1.721-2.32-4.041-2.57-3.566-.423-6.859-1.37-6.859-5.287 0-3.592 3.542-5.063 6.759-5.088 2.719 0 5.537.773 6.86 3.467l-2.619 1.347Z" fill="#000" fill-opacity=".2"></path>
</g>
</svg>