<svg width="160" height="74" xmlns="http://www.w3.org/2000/svg" viewBox="0 0 160 74" fill="none">
<g opacity=".3" fill="#000">
<path d="M10.002 50.885h4.168L24.173 23H20.6l-8.454 23.782L3.652 23H0l10.002 27.885Z"></path>
<path d="M10.002 50.885h4.168L24.173 23H20.6l-8.454 23.782L3.652 23H0l10.002 27.885Z" fill-opacity=".2"></path>
<path fill-rule="evenodd" clip-rule="evenodd" d="M41.657 44.006C40.863 48.036 37.527 51 32.84 51 26.763 51 22.79 46.85 22.79 40.687c0-6.124 3.893-10.313 9.612-10.313 5.72 0 9.453 3.596 9.611 9.562 0 .435-.04.91-.079 1.383H26.207v.277c.12 3.833 2.542 6.52 6.395 6.52 2.86 0 5.083-1.502 5.758-4.11h3.297ZM32.443 33.22c-2.979 0-5.72 2.134-6.037 5.413H38.52c-.318-3.477-2.701-5.413-6.077-5.413Z"></path>
<path fill-rule="evenodd" clip-rule="evenodd" d="M41.657 44.006C40.863 48.036 37.527 51 32.84 51 26.763 51 22.79 46.85 22.79 40.687c0-6.124 3.893-10.313 9.612-10.313 5.72 0 9.453 3.596 9.611 9.562 0 .435-.04.91-.079 1.383H26.207v.277c.12 3.833 2.542 6.52 6.395 6.52 2.86 0 5.083-1.502 5.758-4.11h3.297ZM32.443 33.22c-2.979 0-5.72 2.134-6.037 5.413H38.52c-.318-3.477-2.701-5.413-6.077-5.413Z" fill-opacity=".2"></path>
<path d="M55.263 30.49c-3.6 0-5.142 1.511-6.091 3.062l-.435-3.062h-2.809v20.28h3.244V40.43c0-3.22 1.147-6.76 5.38-6.76h1.62V30.49h-.909Z"></path>
<path d="M55.263 30.49c-3.6 0-5.142 1.511-6.091 3.062l-.435-3.062h-2.809v20.28h3.244V40.43c0-3.22 1.147-6.76 5.38-6.76h1.62V30.49h-.909Z" fill-opacity=".2"></path>
<path d="M64.866 50.77h3.909l7.542-20.28H72.92l-6.042 16.582L60.8 30.49h-3.475l7.542 20.28Z"></path>
<path d="M64.866 50.77h3.909l7.542-20.28H72.92l-6.042 16.582L60.8 30.49h-3.475l7.542 20.28Z" fill-opacity=".2"></path>
<path fill-rule="evenodd" clip-rule="evenodd" d="M94.119 46.456c0 1.067.397 1.343 1.31 1.343h1.031v2.964h-1.785c-2.699 0-3.612-1.146-3.651-3.122C89.754 49.46 87.73 51 84.236 51c-4.444 0-7.46-2.213-7.46-5.888 0-4.03 2.817-6.282 8.135-6.282h5.953v-1.383c0-2.608-1.865-4.188-5.04-4.188-2.857 0-4.762 1.343-5.16 3.398h-3.253c.476-3.951 3.69-6.283 8.572-6.283 5.159 0 8.135 2.569 8.135 7.27v8.812Zm-9.643 1.778c4.048 0 6.39-2.331 6.39-5.69v-.987h-6.271c-2.897 0-4.524 1.066-4.524 3.358 0 1.976 1.706 3.32 4.405 3.32Z"></path>
<path fill-rule="evenodd" clip-rule="evenodd" d="M94.119 46.456c0 1.067.397 1.343 1.31 1.343h1.031v2.964h-1.785c-2.699 0-3.612-1.146-3.651-3.122C89.754 49.46 87.73 51 84.236 51c-4.444 0-7.46-2.213-7.46-5.888 0-4.03 2.817-6.282 8.135-6.282h5.953v-1.383c0-2.608-1.865-4.188-5.04-4.188-2.857 0-4.762 1.343-5.16 3.398h-3.253c.476-3.951 3.69-6.283 8.572-6.283 5.159 0 8.135 2.569 8.135 7.27v8.812Zm-9.643 1.778c4.048 0 6.39-2.331 6.39-5.69v-.987h-6.271c-2.897 0-4.524 1.066-4.524 3.358 0 1.976 1.706 3.32 4.405 3.32Z" fill-opacity=".2"></path>
<path d="M112.77 40.626c0 4.57-2.226 7.393-5.923 7.393-3.378 0-5.286-2.226-5.286-6.44V30.49h-3.259v11.29c0 6.717 3.537 9.221 7.989 9.221 3.339 0 5.286-1.43 6.479-2.941l.437 2.703h2.822V30.49h-3.259v10.136Z"></path>
<path d="M112.77 40.626c0 4.57-2.226 7.393-5.923 7.393-3.378 0-5.286-2.226-5.286-6.44V30.49h-3.259v11.29c0 6.717 3.537 9.221 7.989 9.221 3.339 0 5.286-1.43 6.479-2.941l.437 2.703h2.822V30.49h-3.259v10.136Z" fill-opacity=".2"></path>
<path d="M130.144 30.374c-3.43 0-5.504 1.431-6.701 2.982l-.438-2.743h-2.832v20.272h3.27V40.749c0-4.571 2.314-7.394 6.143-7.394 3.549 0 5.504 2.226 5.504 6.44v11.09h3.27V39.596c0-6.717-3.629-9.222-8.216-9.222Z"></path>
<path d="M130.144 30.374c-3.43 0-5.504 1.431-6.701 2.982l-.438-2.743h-2.832v20.272h3.27V40.749c0-4.571 2.314-7.394 6.143-7.394 3.549 0 5.504 2.226 5.504 6.44v11.09h3.27V39.596c0-6.717-3.629-9.222-8.216-9.222Z" fill-opacity=".2"></path>
<path d="M143.959 45.49c0 3.573 1.385 5.28 5.265 5.28h3.524v-2.978h-3.207c-1.742 0-2.336-.635-2.336-2.342V33.5h5.226V30.52h-5.226v-5.677h-3.246v5.677h-3.643V33.5h3.643v11.99Z"></path>
<path d="M143.959 45.49c0 3.573 1.385 5.28 5.265 5.28h3.524v-2.978h-3.207c-1.742 0-2.336-.635-2.336-2.342V33.5h5.226V30.52h-5.226v-5.677h-3.246v5.677h-3.643V33.5h3.643v11.99Z" fill-opacity=".2"></path>
<ellipse cx="157.813" cy="35.79" rx="2.187" ry="2.189" transform="rotate(-180 157.813 35.79)"></ellipse>
<ellipse cx="157.813" cy="35.79" rx="2.187" ry="2.189" transform="rotate(-180 157.813 35.79)" fill-opacity=".2"></ellipse>
<ellipse cx="157.813" cy="45.584" rx="2.187" ry="2.189" transform="rotate(-180 157.813 45.584)"></ellipse>
<ellipse cx="157.813" cy="45.584" rx="2.187" ry="2.189" transform="rotate(-180 157.813 45.584)" fill-opacity=".2"></ellipse>
</g>
</svg>