<svg width="130" height="74" xmlns="http://www.w3.org/2000/svg" viewBox="0 0 130 74" fill="none">
<g opacity=".3" fill-rule="evenodd" clip-rule="evenodd" fill="#000">
<path d="M38.23 35.047h-.001c-3.098 0-5.924 1.19-8.05 3.136V26.977c0-4.45 3.612-8.07 8.05-8.07 4.44 0 8.05 3.62 8.05 8.07s-3.61 8.07-8.05 8.07Zm11.945 19.152v-7.175c0-4.19-2.159-7.883-5.419-10.024a11.981 11.981 0 0 0 5.42-10.023C50.176 20.373 44.817 15 38.23 15s-11.947 5.373-11.947 11.977v31.046h3.896v-11c0-4.45 3.612-8.07 8.05-8.07 4.439 0 8.05 3.62 8.05 8.07V54.2c0 1.337.223 2.622.628 3.824h4.232a8.035 8.035 0 0 1-.964-3.824Z"></path>
<path d="M38.23 35.047h-.001c-3.098 0-5.924 1.19-8.05 3.136V26.977c0-4.45 3.612-8.07 8.05-8.07 4.44 0 8.05 3.62 8.05 8.07s-3.61 8.07-8.05 8.07Zm11.945 19.152v-7.175c0-4.19-2.159-7.883-5.419-10.024a11.981 11.981 0 0 0 5.42-10.023C50.176 20.373 44.817 15 38.23 15s-11.947 5.373-11.947 11.977v31.046h3.896v-11c0-4.45 3.612-8.07 8.05-8.07 4.439 0 8.05 3.62 8.05 8.07V54.2c0 1.337.223 2.622.628 3.824h4.232a8.035 8.035 0 0 1-.964-3.824Z" fill-opacity=".2"></path>
<path d="M91.758 15c-6.587 0-11.946 5.373-11.946 11.977v20.046c0 6.604 5.36 11.977 11.946 11.977 6.26 0 11.408-4.854 11.904-11.004l-3.887-.318c-.334 4.144-3.798 7.416-8.017 7.416-4.438 0-8.05-3.62-8.05-8.07V26.976c0-4.45 3.612-8.07 8.05-8.07 4.219 0 7.683 3.27 8.017 7.415l3.887-.318C103.166 19.854 98.018 15 91.758 15Z"></path>
<path d="M91.758 15c-6.587 0-11.946 5.373-11.946 11.977v20.046c0 6.604 5.36 11.977 11.946 11.977 6.26 0 11.408-4.854 11.904-11.004l-3.887-.318c-.334 4.144-3.798 7.416-8.017 7.416-4.438 0-8.05-3.62-8.05-8.07V26.976c0-4.45 3.612-8.07 8.05-8.07 4.219 0 7.683 3.27 8.017 7.415l3.887-.318C103.166 19.854 98.018 15 91.758 15Z" fill-opacity=".2"></path>
<path d="M117.884 35.054c-3.115.274-5.839 1.473-7.881 3.297V26.977c0-4.45 3.612-8.07 8.051-8.07 4.438 0 8.05 3.62 8.05 8.07 0 4.263-3.457 7.66-8.22 8.077Zm.17-20.054c-6.588 0-11.947 5.373-11.947 11.977v20.046c0 6.604 5.359 11.977 11.947 11.977a11.914 11.914 0 0 0 11.905-11.004l-3.891-.318a8.022 8.022 0 0 1-8.014 7.416c-4.439 0-8.051-3.62-8.051-8.07 0-4.263 3.457-7.66 8.22-8.078 6.824-.599 11.777-5.632 11.777-11.97C130 20.373 124.641 15 118.054 15Z"></path>
<path d="M117.884 35.054c-3.115.274-5.839 1.473-7.881 3.297V26.977c0-4.45 3.612-8.07 8.051-8.07 4.438 0 8.05 3.62 8.05 8.07 0 4.263-3.457 7.66-8.22 8.077Zm.17-20.054c-6.588 0-11.947 5.373-11.947 11.977v20.046c0 6.604 5.359 11.977 11.947 11.977a11.914 11.914 0 0 0 11.905-11.004l-3.891-.318a8.022 8.022 0 0 1-8.014 7.416c-4.439 0-8.051-3.62-8.051-8.07 0-4.263 3.457-7.66 8.22-8.078 6.824-.599 11.777-5.632 11.777-11.97C130 20.373 124.641 15 118.054 15Z" fill-opacity=".2"></path>
<path d="M72.608 47.023c0 4.45-3.612 8.07-8.05 8.07-4.44 0-8.05-3.62-8.05-8.07 0-4.262 3.456-7.66 8.22-8.077 3.113-.273 5.838-1.47 7.88-3.293v11.37ZM64.558 15A11.916 11.916 0 0 0 52.65 26.004l3.892.318a8.023 8.023 0 0 1 8.015-7.416c4.438 0 8.05 3.62 8.05 8.07 0 4.264-3.457 7.66-8.22 8.078-6.824.599-11.777 5.633-11.777 11.97 0 6.603 5.36 11.976 11.947 11.976 6.587 0 11.946-5.373 11.946-11.977V26.976c0-6.603-5.36-11.976-11.946-11.976Z"></path>
<path d="M72.608 47.023c0 4.45-3.612 8.07-8.05 8.07-4.44 0-8.05-3.62-8.05-8.07 0-4.262 3.456-7.66 8.22-8.077 3.113-.273 5.838-1.47 7.88-3.293v11.37ZM64.558 15A11.916 11.916 0 0 0 52.65 26.004l3.892.318a8.023 8.023 0 0 1 8.015-7.416c4.438 0 8.05 3.62 8.05 8.07 0 4.264-3.457 7.66-8.22 8.078-6.824.599-11.777 5.633-11.777 11.97 0 6.603 5.36 11.976 11.947 11.976 6.587 0 11.946-5.373 11.946-11.977V26.976c0-6.603-5.36-11.976-11.946-11.976Z" fill-opacity=".2"></path>
<path d="M11.963 35.047a.017.017 0 0 0-.017.017v-.017c-1.195 0-2.395.098-3.566.29l.63 3.854a18.181 18.181 0 0 1 2.936-.238v-.016c0 .009.008.016.016.016 4.432.009 8.034 3.626 8.034 8.07 0 4.548-3.772 8.23-8.345 8.066-4.365-.158-7.755-3.9-7.755-8.28V27.19c0-4.379 3.39-8.121 7.755-8.279 4.438-.16 8.122 3.304 8.335 7.666l3.89-.193c-.314-6.443-5.73-11.565-12.276-11.38C5.094 15.192 0 20.723 0 27.248v19.506C0 53.28 5.094 58.81 11.6 58.995c6.745.192 12.292-5.252 12.292-11.971 0-6.599-5.35-11.968-11.929-11.977Z"></path>
<path d="M11.963 35.047a.017.017 0 0 0-.017.017v-.017c-1.195 0-2.395.098-3.566.29l.63 3.854a18.181 18.181 0 0 1 2.936-.238v-.016c0 .009.008.016.016.016 4.432.009 8.034 3.626 8.034 8.07 0 4.548-3.772 8.23-8.345 8.066-4.365-.158-7.755-3.9-7.755-8.28V27.19c0-4.379 3.39-8.121 7.755-8.279 4.438-.16 8.122 3.304 8.335 7.666l3.89-.193c-.314-6.443-5.73-11.565-12.276-11.38C5.094 15.192 0 20.723 0 27.248v19.506C0 53.28 5.094 58.81 11.6 58.995c6.745.192 12.292-5.252 12.292-11.971 0-6.599-5.35-11.968-11.929-11.977Z" fill-opacity=".2"></path>
</g>
</svg>