<svg class="w-full" width="137" height="85" xmlns="http://www.w3.org/2000/svg" viewBox="0 0 137 85" fill="none">
<path fill-rule="evenodd" clip-rule="evenodd" d="M114.446 34.498C111.169 34.498 108.944 36.9117 108.944 40.4205C108.944 43.9294 111.189 46.343 114.446 46.343C117.703 46.343 119.887 43.9294 119.887 40.4205C119.887 36.9117 117.642 34.498 114.446 34.498ZM39.1576 34.498C35.8807 34.498 33.6556 36.9117 33.6556 40.4205C33.6556 43.9294 35.9009 46.343 39.1576 46.343C42.4143 46.343 44.5989 43.9294 44.5989 40.4205C44.5989 36.9117 42.3536 34.498 39.1576 34.498ZM86.0662 34.498C82.8499 34.498 80.6248 36.9117 80.6248 40.4205C80.6248 43.9294 82.8095 46.343 86.0662 46.343C89.3229 46.343 91.5681 43.9294 91.5681 40.4205C91.5074 36.8508 89.3229 34.498 86.0662 34.498ZM133.035 44.9638C135.22 44.9638 137 46.7487 137 48.9392C137 51.1297 135.22 52.9146 133.035 52.9146C130.851 52.9146 129.071 51.1297 129.071 48.9392C129.071 46.7487 130.851 44.9638 133.035 44.9638ZM114.466 28.0076C121.87 28.0076 127.149 33.1188 127.149 40.4205C127.149 47.7223 121.87 52.8335 114.466 52.8335C107.063 52.8335 101.743 47.6614 101.743 40.4205C101.803 33.1188 107.022 28.0076 114.466 28.0076ZM63.8357 23.2412V28.535H69.7422V34.7414H63.8357V43.3007C63.8357 45.1869 64.7459 46.2822 66.4653 46.343H66.5867C67.7397 46.343 68.5893 46.0591 69.3984 45.3086L69.459 45.2478L69.6209 45.0855H69.6815V51.9207L69.459 52.0424C68.2453 52.6104 67.5779 52.8537 65.4944 52.8537C59.8104 52.8537 56.6749 49.7505 56.5536 43.9497V34.7414H53.9645V28.535H56.7761V23.2412H63.8357ZM39.1779 28.0076C46.5813 28.0076 51.8607 33.1188 51.8607 40.4205C51.8607 47.7223 46.5813 52.8335 39.1779 52.8335C31.7745 52.8335 26.4544 47.6614 26.4544 40.4205C26.5151 33.1188 31.734 28.0076 39.1779 28.0076ZM87.1787 28.0076C93.8943 28.0076 98.8097 33.2405 98.8097 40.4205C98.8097 47.6006 93.8741 52.8335 87.1787 52.8335C84.7109 52.8335 82.5869 52.2047 80.9889 50.8863L80.8676 50.8255L80.7462 50.7646V60.6017H73.5856V28.5147H79.9573V30.9283L80.018 30.8675C81.5554 29.0826 83.9826 28.109 86.8954 28.0482H87.0573L87.1787 27.9873V28.0076ZM8.39093 28.535L13.3873 42.3879L18.6667 28.535H26.1106L13.3873 60.622H5.9838L9.76641 50.6835L0.704346 28.5552H8.39093V28.535Z" fill="white"></path>
</svg>