<svg width="161" height="60" xmlns="http://www.w3.org/2000/svg" viewBox="0 0 161 60" fill="none">
<g opacity="0.3">
<path d="M84.6216 5.79821L86.7435 2.19668C86.9736 1.81354 87.0758 1.45594 86.9224 1.35377C86.7691 1.2516 86.4367 1.48148 86.181 1.89017C85.9254 2.27331 85.8231 2.68199 85.9765 2.78416C86.0021 2.78416 86.0021 2.80971 86.0277 2.80971C85.5163 3.26948 84.8772 3.75479 84.4937 3.75479C83.9313 3.72925 83.5734 3.14176 83.42 2.73308C83.5478 2.60536 83.6245 2.29885 83.6245 1.94125C83.6245 1.48148 83.4711 1.09834 83.2922 1.09834C83.1132 1.09834 82.9598 1.48148 82.9598 1.94125C82.9598 2.29885 83.0365 2.63091 83.1643 2.73308C82.9854 3.11622 82.5763 3.75479 81.8861 3.75479C80.7867 3.75479 80.48 1.66028 80.48 1.66028C80.6589 1.66028 80.71 1.30268 80.71 0.842912C80.71 0.383142 80.5566 0 80.3777 0H80.301C80.122 0 79.9686 0.383142 79.9686 0.842912C79.9686 1.30268 80.0198 1.66028 80.1987 1.66028C80.1987 1.66028 79.9175 3.78033 78.7926 3.75479C78.0768 3.75479 77.6933 3.11622 77.5144 2.73308C77.6422 2.60536 77.7189 2.29885 77.7189 1.94125C77.7189 1.48148 77.5655 1.09834 77.3865 1.09834C77.2076 1.09834 77.0542 1.48148 77.0542 1.94125C77.0542 2.29885 77.1309 2.63091 77.2587 2.73308C77.0797 3.11622 76.7474 3.72925 76.185 3.75479C75.7759 3.75479 75.1623 3.29502 74.651 2.80971C74.6766 2.80971 74.6766 2.80971 74.7022 2.78416C74.8555 2.68199 74.7533 2.27331 74.4976 1.89017C74.242 1.50702 73.9096 1.27714 73.7562 1.35377C73.6028 1.45594 73.6795 1.81354 73.9352 2.19668L75.8782 5.79821H84.6216Z" fill="black"></path>
<path d="M84.6216 5.79821L86.7435 2.19668C86.9736 1.81354 87.0758 1.45594 86.9224 1.35377C86.7691 1.2516 86.4367 1.48148 86.181 1.89017C85.9254 2.27331 85.8231 2.68199 85.9765 2.78416C86.0021 2.78416 86.0021 2.80971 86.0277 2.80971C85.5163 3.26948 84.8772 3.75479 84.4937 3.75479C83.9313 3.72925 83.5734 3.14176 83.42 2.73308C83.5478 2.60536 83.6245 2.29885 83.6245 1.94125C83.6245 1.48148 83.4711 1.09834 83.2922 1.09834C83.1132 1.09834 82.9598 1.48148 82.9598 1.94125C82.9598 2.29885 83.0365 2.63091 83.1643 2.73308C82.9854 3.11622 82.5763 3.75479 81.8861 3.75479C80.7867 3.75479 80.48 1.66028 80.48 1.66028C80.6589 1.66028 80.71 1.30268 80.71 0.842912C80.71 0.383142 80.5566 0 80.3777 0H80.301C80.122 0 79.9686 0.383142 79.9686 0.842912C79.9686 1.30268 80.0198 1.66028 80.1987 1.66028C80.1987 1.66028 79.9175 3.78033 78.7926 3.75479C78.0768 3.75479 77.6933 3.11622 77.5144 2.73308C77.6422 2.60536 77.7189 2.29885 77.7189 1.94125C77.7189 1.48148 77.5655 1.09834 77.3865 1.09834C77.2076 1.09834 77.0542 1.48148 77.0542 1.94125C77.0542 2.29885 77.1309 2.63091 77.2587 2.73308C77.0797 3.11622 76.7474 3.72925 76.185 3.75479C75.7759 3.75479 75.1623 3.29502 74.651 2.80971C74.6766 2.80971 74.6766 2.80971 74.7022 2.78416C74.8555 2.68199 74.7533 2.27331 74.4976 1.89017C74.242 1.50702 73.9096 1.27714 73.7562 1.35377C73.6028 1.45594 73.6795 1.81354 73.9352 2.19668L75.8782 5.79821H84.6216Z" fill="black" fill-opacity="0.2"></path>
<path fill-rule="evenodd" clip-rule="evenodd" d="M68.3622 24.3935L80.4035 32.9248L92.4448 24.368L92.4704 7.10107H68.3622V24.3935ZM80.4032 32.2094L68.9499 24.0868H68.9243V7.71386H91.8565L91.8309 24.0868L80.4032 32.2094Z" fill="black"></path>
<path fill-rule="evenodd" clip-rule="evenodd" d="M68.3622 24.3935L80.4035 32.9248L92.4448 24.368L92.4704 7.10107H68.3622V24.3935ZM80.4032 32.2094L68.9499 24.0868H68.9243V7.71386H91.8565L91.8309 24.0868L80.4032 32.2094Z" fill="black" fill-opacity="0.2"></path>
<path fill-rule="evenodd" clip-rule="evenodd" d="M69.5126 23.7547L80.3779 31.5198L91.2176 23.7547L91.2432 8.37799H69.5126V23.7547ZM87.1784 21.175C87.2295 21.1494 87.2806 21.1239 87.3317 21.1239C87.4596 21.1239 87.5618 21.2516 87.5618 21.3793C87.5618 21.507 87.4596 21.6092 87.3317 21.6092C87.2806 21.6092 87.2039 21.5836 87.1784 21.5581L86.3603 21.6347L86.2836 21.6603V21.7369C86.3347 21.7624 86.3603 21.8135 86.3603 21.8646C86.3603 21.9157 86.3347 21.9668 86.2836 21.9923V22.2222C86.3091 22.2478 86.3347 22.2988 86.3347 22.3499C86.3347 22.401 86.3091 22.4521 86.258 22.4776L86.2069 24.3933C86.2069 24.3933 86.258 24.5466 86.258 24.5977L86.2709 24.6168C86.3211 24.6911 86.3858 24.7868 86.3858 24.9042C86.3858 25.083 86.2836 25.1596 86.2324 25.1852C86.2069 25.1852 86.1813 25.2107 86.1557 25.2363V25.2618C86.1557 25.364 86.079 25.4406 85.9768 25.4406C85.8745 25.4406 85.7978 25.364 85.7978 25.2618V25.2363L85.7211 25.1852C85.7158 25.1799 85.71 25.1743 85.7038 25.1684L85.7037 25.1683C85.6498 25.1171 85.5677 25.0389 85.5677 24.8787C85.5677 24.7254 85.6444 24.6232 85.6956 24.5721C85.7211 24.5211 85.7467 24.3423 85.7467 24.3423L85.6956 22.4521C85.67 22.4265 85.6444 22.3755 85.6444 22.3244C85.6444 22.2733 85.67 22.2222 85.6956 22.1967V21.9668C85.6444 21.9157 85.6189 21.8646 85.6189 21.8135C85.6189 21.7624 85.6444 21.7114 85.67 21.6858V21.6092L85.6189 21.5836L84.8008 21.507L84.8008 21.507C84.7496 21.5326 84.6985 21.5581 84.6474 21.5581C84.5195 21.5581 84.4173 21.4559 84.4173 21.3282C84.4173 21.2005 84.5195 21.0983 84.6474 21.0983C84.6985 21.0983 84.7496 21.1239 84.8008 21.175H85.6189C85.6189 21.0584 85.6172 20.8465 85.6152 20.584C85.6092 19.8112 85.5998 18.5991 85.6189 18.0843C85.6444 17.7778 85.6444 16.705 85.6444 15.5811C85.6444 13.9208 85.6444 12.0306 85.67 11.673C85.7109 11.1826 85.8172 10.7576 85.8582 10.5941L85.8582 10.5941C85.8684 10.5532 85.8745 10.5287 85.8745 10.5236L85.9768 10.166L86.079 10.5236C86.079 10.5287 86.0852 10.5532 86.0954 10.5941L86.0954 10.5941C86.1363 10.7576 86.2427 11.1826 86.2836 11.673C86.3091 12.0306 86.3091 13.9463 86.3091 15.6322C86.3347 16.7816 86.3347 17.7778 86.3347 18.0843V21.175H87.1784ZM81.8351 23.576C81.8862 23.525 81.9373 23.4994 82.014 23.4994C82.1674 23.4994 82.2952 23.6271 82.2697 23.7293C82.2697 23.9081 82.1163 24.0358 81.9629 24.0358C81.8606 24.0358 81.8095 24.0103 81.7584 23.9592L80.7613 24.0358L80.6846 24.0614V24.138C80.7358 24.1891 80.7613 24.2402 80.7613 24.3168C80.7613 24.3934 80.7358 24.4445 80.6846 24.4956V24.751C80.7358 24.7766 80.7613 24.8532 80.7613 24.9043C80.7613 24.9554 80.7358 25.0064 80.6846 25.0575L80.6335 27.3308C80.6335 27.3819 80.6591 27.5352 80.6846 27.6118C80.7613 27.6884 80.838 27.7906 80.838 27.9694C80.8162 28.1655 80.72 28.2501 80.6604 28.3024L80.6468 28.3145C80.6419 28.3189 80.6375 28.323 80.6335 28.327C80.6207 28.3398 80.6016 28.3525 80.5824 28.3653L80.5824 28.3653C80.5632 28.3781 80.544 28.3909 80.5312 28.4036V28.4292C80.5312 28.5569 80.429 28.6591 80.3011 28.6591C80.1733 28.6591 80.0711 28.5569 80.0711 28.4292V28.4036C80.0583 28.3909 80.0455 28.3845 80.0327 28.3781C80.0199 28.3717 80.0071 28.3653 79.9944 28.3525L79.9864 28.3473C79.9092 28.2961 79.7898 28.2171 79.7898 27.9949C79.7898 27.8595 79.8697 27.7441 79.9235 27.6662C79.9306 27.6559 79.9373 27.6463 79.9432 27.6373C79.9432 27.6118 79.956 27.5607 79.9688 27.5097L79.9688 27.5096C79.9816 27.4585 79.9944 27.4075 79.9944 27.3819L79.9432 25.1086C79.8921 25.0831 79.8665 25.032 79.8665 24.9554C79.8665 24.9043 79.8921 24.8532 79.9432 24.8021V24.5467C79.8921 24.4956 79.8665 24.4445 79.8665 24.3679C79.8665 24.2912 79.8921 24.2402 79.9432 24.1891V24.1124L79.8921 24.0869L78.895 24.0103C78.8183 24.0614 78.7672 24.0869 78.6905 24.0869C78.5116 24.0869 78.3837 23.9336 78.3837 23.7804C78.3837 23.6016 78.5371 23.4739 78.6905 23.4739C78.7672 23.4739 78.8439 23.4994 78.895 23.5505H79.8665C79.841 22.9886 79.841 20.6897 79.8665 19.8723C79.8921 19.4892 79.8921 18.3142 79.8921 16.9349C79.9027 16.087 79.9089 15.195 79.9144 14.4106L79.9144 14.4102V14.4102V14.4102C79.9221 13.3045 79.9283 12.4124 79.9432 12.1584C79.9851 11.5723 80.13 11.0377 80.181 10.8497L80.181 10.8496C80.1922 10.8083 80.1989 10.7837 80.1989 10.7791L80.3523 10.3193L80.5057 10.7791C80.5312 10.8302 80.7102 11.4432 80.7613 12.184C80.8125 12.6182 80.8125 14.9426 80.8125 16.986C80.838 18.3398 80.838 19.5147 80.838 19.8979C80.8569 20.5028 80.8479 21.9052 80.8419 22.8315L80.8419 22.8318C80.8397 23.157 80.838 23.4234 80.838 23.576H81.5283H81.8351ZM76.1339 21.2003C76.0828 21.2003 76.0316 21.2259 75.9805 21.2514H75.8015H75.1113V18.1607C75.1113 17.8287 75.1113 16.8325 75.0857 15.6831C75.0857 13.9973 75.0857 12.1071 75.0601 11.7495C75.0192 11.2591 74.9129 10.834 74.872 10.6706L74.872 10.6706L74.872 10.6705C74.8618 10.6297 74.8556 10.6052 74.8556 10.6001L74.7534 10.2425L74.6511 10.6001C74.6511 10.6052 74.645 10.6297 74.6347 10.6706C74.5938 10.834 74.4875 11.2591 74.4466 11.7495C74.421 12.1071 74.421 14.0228 74.421 15.6831V15.6831C74.421 16.8325 74.421 17.8287 74.3954 18.1607C74.3764 18.6755 74.3858 19.8876 74.3918 20.6605C74.3938 20.923 74.3954 21.1348 74.3954 21.2514H73.5774C73.5262 21.2003 73.4751 21.1748 73.424 21.1748C73.2961 21.1748 73.1939 21.2769 73.1939 21.4047C73.1939 21.5324 73.2961 21.6345 73.424 21.6345C73.4751 21.6345 73.5518 21.609 73.5774 21.5835L74.3954 21.6601L74.4466 21.6856V21.7623C74.3954 21.7878 74.3954 21.8389 74.3954 21.89C74.3954 21.9411 74.421 21.9921 74.4721 22.0432V22.2731C74.4466 22.2987 74.421 22.3497 74.421 22.4008C74.421 22.4519 74.4466 22.503 74.4721 22.5285L74.5233 24.4187L74.4721 24.6486C74.421 24.6997 74.3443 24.8018 74.3443 24.9551C74.3443 25.1153 74.4264 25.1935 74.4803 25.2448C74.4865 25.2507 74.4924 25.2563 74.4977 25.2616C74.5105 25.2744 74.5233 25.2808 74.5361 25.2872C74.5488 25.2935 74.5616 25.2999 74.5744 25.3127V25.3382C74.5744 25.4404 74.6511 25.517 74.7534 25.517C74.8556 25.517 74.9323 25.4404 74.9323 25.3382V25.3127L75.009 25.2616C75.0601 25.2361 75.1624 25.1594 75.1624 24.9806C75.1624 24.8633 75.0977 24.7675 75.0475 24.6933L75.0346 24.6741C75.0346 24.623 74.9835 24.4698 74.9835 24.4698L75.0346 22.5541C75.0857 22.5285 75.1113 22.4775 75.1113 22.4264C75.1113 22.3753 75.0857 22.3242 75.0601 22.2987V22.0688C75.1113 22.0432 75.1368 21.9921 75.1368 21.9411C75.1368 21.89 75.1113 21.8389 75.0601 21.8133V21.7367L75.1368 21.7112L75.9549 21.6601C75.9805 21.6856 76.0316 21.7112 76.1083 21.7112C76.2362 21.7112 76.3384 21.609 76.3384 21.4813C76.364 21.3025 76.2617 21.2003 76.1339 21.2003Z" fill="black"></path>
<path fill-rule="evenodd" clip-rule="evenodd" d="M69.5126 23.7547L80.3779 31.5198L91.2176 23.7547L91.2432 8.37799H69.5126V23.7547ZM87.1784 21.175C87.2295 21.1494 87.2806 21.1239 87.3317 21.1239C87.4596 21.1239 87.5618 21.2516 87.5618 21.3793C87.5618 21.507 87.4596 21.6092 87.3317 21.6092C87.2806 21.6092 87.2039 21.5836 87.1784 21.5581L86.3603 21.6347L86.2836 21.6603V21.7369C86.3347 21.7624 86.3603 21.8135 86.3603 21.8646C86.3603 21.9157 86.3347 21.9668 86.2836 21.9923V22.2222C86.3091 22.2478 86.3347 22.2988 86.3347 22.3499C86.3347 22.401 86.3091 22.4521 86.258 22.4776L86.2069 24.3933C86.2069 24.3933 86.258 24.5466 86.258 24.5977L86.2709 24.6168C86.3211 24.6911 86.3858 24.7868 86.3858 24.9042C86.3858 25.083 86.2836 25.1596 86.2324 25.1852C86.2069 25.1852 86.1813 25.2107 86.1557 25.2363V25.2618C86.1557 25.364 86.079 25.4406 85.9768 25.4406C85.8745 25.4406 85.7978 25.364 85.7978 25.2618V25.2363L85.7211 25.1852C85.7158 25.1799 85.71 25.1743 85.7038 25.1684L85.7037 25.1683C85.6498 25.1171 85.5677 25.0389 85.5677 24.8787C85.5677 24.7254 85.6444 24.6232 85.6956 24.5721C85.7211 24.5211 85.7467 24.3423 85.7467 24.3423L85.6956 22.4521C85.67 22.4265 85.6444 22.3755 85.6444 22.3244C85.6444 22.2733 85.67 22.2222 85.6956 22.1967V21.9668C85.6444 21.9157 85.6189 21.8646 85.6189 21.8135C85.6189 21.7624 85.6444 21.7114 85.67 21.6858V21.6092L85.6189 21.5836L84.8008 21.507L84.8008 21.507C84.7496 21.5326 84.6985 21.5581 84.6474 21.5581C84.5195 21.5581 84.4173 21.4559 84.4173 21.3282C84.4173 21.2005 84.5195 21.0983 84.6474 21.0983C84.6985 21.0983 84.7496 21.1239 84.8008 21.175H85.6189C85.6189 21.0584 85.6172 20.8465 85.6152 20.584C85.6092 19.8112 85.5998 18.5991 85.6189 18.0843C85.6444 17.7778 85.6444 16.705 85.6444 15.5811C85.6444 13.9208 85.6444 12.0306 85.67 11.673C85.7109 11.1826 85.8172 10.7576 85.8582 10.5941L85.8582 10.5941C85.8684 10.5532 85.8745 10.5287 85.8745 10.5236L85.9768 10.166L86.079 10.5236C86.079 10.5287 86.0852 10.5532 86.0954 10.5941L86.0954 10.5941C86.1363 10.7576 86.2427 11.1826 86.2836 11.673C86.3091 12.0306 86.3091 13.9463 86.3091 15.6322C86.3347 16.7816 86.3347 17.7778 86.3347 18.0843V21.175H87.1784ZM81.8351 23.576C81.8862 23.525 81.9373 23.4994 82.014 23.4994C82.1674 23.4994 82.2952 23.6271 82.2697 23.7293C82.2697 23.9081 82.1163 24.0358 81.9629 24.0358C81.8606 24.0358 81.8095 24.0103 81.7584 23.9592L80.7613 24.0358L80.6846 24.0614V24.138C80.7358 24.1891 80.7613 24.2402 80.7613 24.3168C80.7613 24.3934 80.7358 24.4445 80.6846 24.4956V24.751C80.7358 24.7766 80.7613 24.8532 80.7613 24.9043C80.7613 24.9554 80.7358 25.0064 80.6846 25.0575L80.6335 27.3308C80.6335 27.3819 80.6591 27.5352 80.6846 27.6118C80.7613 27.6884 80.838 27.7906 80.838 27.9694C80.8162 28.1655 80.72 28.2501 80.6604 28.3024L80.6468 28.3145C80.6419 28.3189 80.6375 28.323 80.6335 28.327C80.6207 28.3398 80.6016 28.3525 80.5824 28.3653L80.5824 28.3653C80.5632 28.3781 80.544 28.3909 80.5312 28.4036V28.4292C80.5312 28.5569 80.429 28.6591 80.3011 28.6591C80.1733 28.6591 80.0711 28.5569 80.0711 28.4292V28.4036C80.0583 28.3909 80.0455 28.3845 80.0327 28.3781C80.0199 28.3717 80.0071 28.3653 79.9944 28.3525L79.9864 28.3473C79.9092 28.2961 79.7898 28.2171 79.7898 27.9949C79.7898 27.8595 79.8697 27.7441 79.9235 27.6662C79.9306 27.6559 79.9373 27.6463 79.9432 27.6373C79.9432 27.6118 79.956 27.5607 79.9688 27.5097L79.9688 27.5096C79.9816 27.4585 79.9944 27.4075 79.9944 27.3819L79.9432 25.1086C79.8921 25.0831 79.8665 25.032 79.8665 24.9554C79.8665 24.9043 79.8921 24.8532 79.9432 24.8021V24.5467C79.8921 24.4956 79.8665 24.4445 79.8665 24.3679C79.8665 24.2912 79.8921 24.2402 79.9432 24.1891V24.1124L79.8921 24.0869L78.895 24.0103C78.8183 24.0614 78.7672 24.0869 78.6905 24.0869C78.5116 24.0869 78.3837 23.9336 78.3837 23.7804C78.3837 23.6016 78.5371 23.4739 78.6905 23.4739C78.7672 23.4739 78.8439 23.4994 78.895 23.5505H79.8665C79.841 22.9886 79.841 20.6897 79.8665 19.8723C79.8921 19.4892 79.8921 18.3142 79.8921 16.9349C79.9027 16.087 79.9089 15.195 79.9144 14.4106L79.9144 14.4102V14.4102V14.4102C79.9221 13.3045 79.9283 12.4124 79.9432 12.1584C79.9851 11.5723 80.13 11.0377 80.181 10.8497L80.181 10.8496C80.1922 10.8083 80.1989 10.7837 80.1989 10.7791L80.3523 10.3193L80.5057 10.7791C80.5312 10.8302 80.7102 11.4432 80.7613 12.184C80.8125 12.6182 80.8125 14.9426 80.8125 16.986C80.838 18.3398 80.838 19.5147 80.838 19.8979C80.8569 20.5028 80.8479 21.9052 80.8419 22.8315L80.8419 22.8318C80.8397 23.157 80.838 23.4234 80.838 23.576H81.5283H81.8351ZM76.1339 21.2003C76.0828 21.2003 76.0316 21.2259 75.9805 21.2514H75.8015H75.1113V18.1607C75.1113 17.8287 75.1113 16.8325 75.0857 15.6831C75.0857 13.9973 75.0857 12.1071 75.0601 11.7495C75.0192 11.2591 74.9129 10.834 74.872 10.6706L74.872 10.6706L74.872 10.6705C74.8618 10.6297 74.8556 10.6052 74.8556 10.6001L74.7534 10.2425L74.6511 10.6001C74.6511 10.6052 74.645 10.6297 74.6347 10.6706C74.5938 10.834 74.4875 11.2591 74.4466 11.7495C74.421 12.1071 74.421 14.0228 74.421 15.6831V15.6831C74.421 16.8325 74.421 17.8287 74.3954 18.1607C74.3764 18.6755 74.3858 19.8876 74.3918 20.6605C74.3938 20.923 74.3954 21.1348 74.3954 21.2514H73.5774C73.5262 21.2003 73.4751 21.1748 73.424 21.1748C73.2961 21.1748 73.1939 21.2769 73.1939 21.4047C73.1939 21.5324 73.2961 21.6345 73.424 21.6345C73.4751 21.6345 73.5518 21.609 73.5774 21.5835L74.3954 21.6601L74.4466 21.6856V21.7623C74.3954 21.7878 74.3954 21.8389 74.3954 21.89C74.3954 21.9411 74.421 21.9921 74.4721 22.0432V22.2731C74.4466 22.2987 74.421 22.3497 74.421 22.4008C74.421 22.4519 74.4466 22.503 74.4721 22.5285L74.5233 24.4187L74.4721 24.6486C74.421 24.6997 74.3443 24.8018 74.3443 24.9551C74.3443 25.1153 74.4264 25.1935 74.4803 25.2448C74.4865 25.2507 74.4924 25.2563 74.4977 25.2616C74.5105 25.2744 74.5233 25.2808 74.5361 25.2872C74.5488 25.2935 74.5616 25.2999 74.5744 25.3127V25.3382C74.5744 25.4404 74.6511 25.517 74.7534 25.517C74.8556 25.517 74.9323 25.4404 74.9323 25.3382V25.3127L75.009 25.2616C75.0601 25.2361 75.1624 25.1594 75.1624 24.9806C75.1624 24.8633 75.0977 24.7675 75.0475 24.6933L75.0346 24.6741C75.0346 24.623 74.9835 24.4698 74.9835 24.4698L75.0346 22.5541C75.0857 22.5285 75.1113 22.4775 75.1113 22.4264C75.1113 22.3753 75.0857 22.3242 75.0601 22.2987V22.0688C75.1113 22.0432 75.1368 21.9921 75.1368 21.9411C75.1368 21.89 75.1113 21.8389 75.0601 21.8133V21.7367L75.1368 21.7112L75.9549 21.6601C75.9805 21.6856 76.0316 21.7112 76.1083 21.7112C76.2362 21.7112 76.3384 21.609 76.3384 21.4813C76.364 21.3025 76.2617 21.2003 76.1339 21.2003Z" fill="black" fill-opacity="0.2"></path>
<path fill-rule="evenodd" clip-rule="evenodd" d="M95.078 50.0639H92.4448L90.6552 48.3014C89.4281 49.6552 88.1498 50.3959 86.2068 50.3959C82.9344 50.3959 81.4516 48.4802 81.4516 46.5645C81.4516 44.6999 82.9856 43.5249 84.7496 42.7586C83.8292 41.8646 83.0367 40.9706 83.0367 39.6935C83.0367 37.6756 84.8518 36.5773 86.9226 36.5773C88.9423 36.5773 90.6808 37.5734 90.6808 39.5658C90.6808 41.2261 89.1213 42.2733 87.664 42.9885L90.5274 45.7216L92.3425 43.0141H94.5667L91.7545 46.9987L95.078 50.0639ZM85.9766 43.8059C84.8006 44.4189 83.5479 45.1341 83.5479 46.5134C83.5479 47.8161 84.8773 48.8378 86.2834 48.8378C87.6895 48.8378 88.7376 47.9694 89.5046 47.152L85.9766 43.8059ZM85.0309 39.719C85.0309 38.7229 85.9001 38.1609 86.9483 38.1609C87.9709 38.1609 88.7123 38.6973 88.7123 39.5913C88.7123 40.7886 87.4664 41.4269 86.4706 41.9371L86.4625 41.9413C85.8234 41.3538 85.0309 40.5875 85.0309 39.719ZM17.2057 46.6921L18.7397 50.0638H20.9639L14.8793 36.8581H14.0867L8.00216 50.0638H10.1241L11.658 46.6921H17.2057ZM15.3362 42.5559L15.3903 42.6819L16.4641 45.134H12.3736L13.4729 42.6564C13.7797 41.9923 14.0098 41.4048 14.3932 40.3575H14.4444C14.8051 41.3187 15.0528 41.8955 15.3362 42.5559ZM2.17306 38.7485V42.682H7.00494V44.3679H2.17306V50.0639H0V37.0371H7.87416V38.7229H2.17306V38.7485ZM23.6224 37.0371V50.0639H25.7955V37.0371H23.6224ZM33.6186 44.3423L38.1181 50.0639H40.6491L35.7661 44.0358C37.1466 43.525 38.2715 42.4266 38.2715 40.6897C38.2715 38.2121 35.9961 37.0371 33.9765 37.0371H29.4514V50.0639H31.5989V44.3423H33.6186ZM31.5988 38.7229H33.5929C34.8712 38.7229 36.1239 39.3614 36.1239 40.6897C36.1239 42.069 34.8712 42.682 33.5929 42.682H31.5988V38.7229ZM45.3787 42.682V38.7485V38.7229H51.0798V37.0371H43.2057V50.0639H45.3787V44.3679H50.2106V42.682H45.3787ZM59.9 46.6921L61.4339 50.0638H63.6581L57.5736 36.8581H56.781L50.6964 50.0638H52.8184L54.3523 46.6921H59.9ZM58.0308 42.5559L58.0849 42.6819L59.1586 45.134H55.0682L56.1675 42.6564C56.4743 41.9923 56.7044 41.4048 57.0878 40.3575H57.139C57.4997 41.3187 57.7473 41.8955 58.0308 42.5559ZM72.6571 47.5861L74.3444 50.0638V50.0383H76.7987L72.2736 43.3205L76.6198 37.0114H74.3189L72.6827 39.4125L72.539 39.6242L72.5388 39.6245C72.0384 40.3616 71.4893 41.1705 71.0465 41.9156H70.9954C70.6187 41.2818 70.1497 40.5865 69.7197 39.9489L69.7188 39.9476C69.5947 39.7634 69.4737 39.5841 69.3592 39.4125L67.7485 37.037H65.2943L69.6404 43.4738L65.0897 50.0638H67.3906L69.1035 47.5606C69.7171 46.6921 70.3562 45.7215 70.8675 44.9042H70.9187C71.43 45.7215 72.0947 46.7432 72.6571 47.5861ZM102.236 42.682V38.7485V38.7229H107.963V37.0371H100.063V50.0639H102.236V44.3679H107.068V42.682H102.236ZM116.834 46.6921L118.368 50.0638H120.592L114.508 36.8581H113.715L107.631 50.0638H109.752L111.286 46.6921H116.834ZM114.965 42.5559L115.019 42.6819L116.093 45.134H112.002L113.102 42.6564C113.408 41.9923 113.639 41.4048 114.022 40.3575H114.073C114.434 41.3184 114.681 41.8952 114.965 42.5553L114.965 42.5557L114.965 42.5559ZM125.578 50.2427H126.268L131.944 37.0371H129.898L128.211 40.9707C127.546 42.5543 126.575 44.9554 126.063 46.3347H126.012C125.501 44.9298 124.504 42.5032 123.865 40.9707L122.178 37.0371H119.902L125.578 50.2427ZM131.867 43.5505C131.867 47.765 135.599 50.3193 139.408 50.3193C143.218 50.3193 146.95 47.765 146.95 43.5505C146.95 39.3615 143.218 36.7816 139.408 36.7816C135.625 36.7816 131.867 39.3615 131.867 43.5505ZM134.04 43.525C134.04 40.3066 136.775 38.4931 139.409 38.4931C141.991 38.4931 144.777 40.3066 144.777 43.525C144.777 46.7434 141.991 48.5825 139.409 48.5825C136.775 48.5825 134.04 46.7434 134.04 43.525ZM157.944 50.0639L153.444 44.3423H151.424V50.0639H149.302V37.0371H153.827C155.847 37.0371 158.122 38.2121 158.122 40.6897C158.122 42.4266 156.998 43.525 155.617 44.0358L160.5 50.0639H157.944ZM153.444 38.7229H151.45V42.682H153.444C154.722 42.682 155.975 42.069 155.975 40.6897C155.975 39.3614 154.722 38.7229 153.444 38.7229Z" fill="black"></path>
<path fill-rule="evenodd" clip-rule="evenodd" d="M95.078 50.0639H92.4448L90.6552 48.3014C89.4281 49.6552 88.1498 50.3959 86.2068 50.3959C82.9344 50.3959 81.4516 48.4802 81.4516 46.5645C81.4516 44.6999 82.9856 43.5249 84.7496 42.7586C83.8292 41.8646 83.0367 40.9706 83.0367 39.6935C83.0367 37.6756 84.8518 36.5773 86.9226 36.5773C88.9423 36.5773 90.6808 37.5734 90.6808 39.5658C90.6808 41.2261 89.1213 42.2733 87.664 42.9885L90.5274 45.7216L92.3425 43.0141H94.5667L91.7545 46.9987L95.078 50.0639ZM85.9766 43.8059C84.8006 44.4189 83.5479 45.1341 83.5479 46.5134C83.5479 47.8161 84.8773 48.8378 86.2834 48.8378C87.6895 48.8378 88.7376 47.9694 89.5046 47.152L85.9766 43.8059ZM85.0309 39.719C85.0309 38.7229 85.9001 38.1609 86.9483 38.1609C87.9709 38.1609 88.7123 38.6973 88.7123 39.5913C88.7123 40.7886 87.4664 41.4269 86.4706 41.9371L86.4625 41.9413C85.8234 41.3538 85.0309 40.5875 85.0309 39.719ZM17.2057 46.6921L18.7397 50.0638H20.9639L14.8793 36.8581H14.0867L8.00216 50.0638H10.1241L11.658 46.6921H17.2057ZM15.3362 42.5559L15.3903 42.6819L16.4641 45.134H12.3736L13.4729 42.6564C13.7797 41.9923 14.0098 41.4048 14.3932 40.3575H14.4444C14.8051 41.3187 15.0528 41.8955 15.3362 42.5559ZM2.17306 38.7485V42.682H7.00494V44.3679H2.17306V50.0639H0V37.0371H7.87416V38.7229H2.17306V38.7485ZM23.6224 37.0371V50.0639H25.7955V37.0371H23.6224ZM33.6186 44.3423L38.1181 50.0639H40.6491L35.7661 44.0358C37.1466 43.525 38.2715 42.4266 38.2715 40.6897C38.2715 38.2121 35.9961 37.0371 33.9765 37.0371H29.4514V50.0639H31.5989V44.3423H33.6186ZM31.5988 38.7229H33.5929C34.8712 38.7229 36.1239 39.3614 36.1239 40.6897C36.1239 42.069 34.8712 42.682 33.5929 42.682H31.5988V38.7229ZM45.3787 42.682V38.7485V38.7229H51.0798V37.0371H43.2057V50.0639H45.3787V44.3679H50.2106V42.682H45.3787ZM59.9 46.6921L61.4339 50.0638H63.6581L57.5736 36.8581H56.781L50.6964 50.0638H52.8184L54.3523 46.6921H59.9ZM58.0308 42.5559L58.0849 42.6819L59.1586 45.134H55.0682L56.1675 42.6564C56.4743 41.9923 56.7044 41.4048 57.0878 40.3575H57.139C57.4997 41.3187 57.7473 41.8955 58.0308 42.5559ZM72.6571 47.5861L74.3444 50.0638V50.0383H76.7987L72.2736 43.3205L76.6198 37.0114H74.3189L72.6827 39.4125L72.539 39.6242L72.5388 39.6245C72.0384 40.3616 71.4893 41.1705 71.0465 41.9156H70.9954C70.6187 41.2818 70.1497 40.5865 69.7197 39.9489L69.7188 39.9476C69.5947 39.7634 69.4737 39.5841 69.3592 39.4125L67.7485 37.037H65.2943L69.6404 43.4738L65.0897 50.0638H67.3906L69.1035 47.5606C69.7171 46.6921 70.3562 45.7215 70.8675 44.9042H70.9187C71.43 45.7215 72.0947 46.7432 72.6571 47.5861ZM102.236 42.682V38.7485V38.7229H107.963V37.0371H100.063V50.0639H102.236V44.3679H107.068V42.682H102.236ZM116.834 46.6921L118.368 50.0638H120.592L114.508 36.8581H113.715L107.631 50.0638H109.752L111.286 46.6921H116.834ZM114.965 42.5559L115.019 42.6819L116.093 45.134H112.002L113.102 42.6564C113.408 41.9923 113.639 41.4048 114.022 40.3575H114.073C114.434 41.3184 114.681 41.8952 114.965 42.5553L114.965 42.5557L114.965 42.5559ZM125.578 50.2427H126.268L131.944 37.0371H129.898L128.211 40.9707C127.546 42.5543 126.575 44.9554 126.063 46.3347H126.012C125.501 44.9298 124.504 42.5032 123.865 40.9707L122.178 37.0371H119.902L125.578 50.2427ZM131.867 43.5505C131.867 47.765 135.599 50.3193 139.408 50.3193C143.218 50.3193 146.95 47.765 146.95 43.5505C146.95 39.3615 143.218 36.7816 139.408 36.7816C135.625 36.7816 131.867 39.3615 131.867 43.5505ZM134.04 43.525C134.04 40.3066 136.775 38.4931 139.409 38.4931C141.991 38.4931 144.777 40.3066 144.777 43.525C144.777 46.7434 141.991 48.5825 139.409 48.5825C136.775 48.5825 134.04 46.7434 134.04 43.525ZM157.944 50.0639L153.444 44.3423H151.424V50.0639H149.302V37.0371H153.827C155.847 37.0371 158.122 38.2121 158.122 40.6897C158.122 42.4266 156.998 43.525 155.617 44.0358L160.5 50.0639H157.944ZM153.444 38.7229H151.45V42.682H153.444C154.722 42.682 155.975 42.069 155.975 40.6897C155.975 39.3614 154.722 38.7229 153.444 38.7229Z" fill="black" fill-opacity="0.2"></path>
<path fill-rule="evenodd" clip-rule="evenodd" d="M74.6256 59.9744C75.0347 59.9744 75.4182 59.9488 75.7505 59.8467C76.0829 59.7445 76.3896 59.5912 76.6964 59.4125V57.1647H74.6256V57.8543H75.9039V59.0038C75.6227 59.1826 75.2392 59.2847 74.7279 59.2847C74.4211 59.2847 74.1655 59.2337 73.8842 59.157C73.6286 59.0549 73.3729 58.9271 73.1684 58.7483C72.9639 58.5695 72.7849 58.3397 72.6571 58.0842C72.5293 57.8288 72.4781 57.4967 72.4781 57.1391C72.4781 56.7815 72.5548 56.475 72.6827 56.1941C72.8105 55.9386 72.9894 55.7087 73.194 55.5299C73.3985 55.3511 73.6541 55.2234 73.9098 55.1213C74.191 55.0446 74.4467 54.9935 74.7279 54.9935C75.0347 54.9935 75.3159 55.0446 75.5716 55.1213C75.8272 55.2234 76.0573 55.3256 76.2618 55.4533L76.4152 54.7126C76.2107 54.5593 75.955 54.4571 75.6483 54.3805C75.3415 54.3039 75.0091 54.2528 74.6256 54.2528C74.2933 54.2528 73.9354 54.3039 73.5774 54.4316C73.2195 54.5593 72.8872 54.7381 72.606 54.968C72.2992 55.1979 72.0691 55.5044 71.8901 55.862C71.7112 56.2196 71.6089 56.6283 71.6089 57.1136C71.6089 57.5989 71.6856 58.0076 71.8646 58.3652C72.0435 58.7228 72.2736 59.0293 72.5548 59.2592C72.836 59.4891 73.1684 59.6679 73.5263 59.7956C73.8842 59.9233 74.2422 59.9744 74.6256 59.9744ZM60.2578 59.8723V54.3295H63.2489V55.0447H61.1014V56.7306H62.891V57.4458H61.1014V59.1571H63.5557V59.8723H60.2578ZM69.7171 60L67.135 57.1648C67.0816 57.1049 67.0266 57.0449 66.9707 56.9841L66.9707 56.9841L66.9707 56.9841L66.9707 56.9841L66.9707 56.9841L66.9707 56.9841C66.8122 56.8116 66.647 56.6318 66.4958 56.424C66.2657 56.1686 66.0612 55.9132 65.8822 55.6833H65.8567C65.8567 55.811 65.8631 55.9323 65.8695 56.0537C65.8759 56.175 65.8822 56.2963 65.8822 56.424V57.0882V59.8723H65.0386V54.3295H65.6266L68.0042 56.9349C68.0809 57.0115 68.1831 57.1137 68.2854 57.2414C68.3365 57.2925 68.3877 57.35 68.4388 57.4074L68.4388 57.4074L68.4388 57.4075C68.4899 57.4649 68.5411 57.5224 68.5922 57.5735C68.6433 57.6373 68.6944 57.6948 68.7456 57.7523C68.7967 57.8097 68.8478 57.8672 68.899 57.9311C68.9469 57.991 68.9949 58.0452 69.0402 58.0965C69.0915 58.1546 69.1395 58.2089 69.1802 58.2631H69.2058C69.2058 58.164 69.1997 58.0588 69.1935 57.9505C69.187 57.8357 69.1802 57.7173 69.1802 57.599V56.9604V54.3295H70.0238V60H69.7171ZM78.4095 59.8723V54.3295H79.2532V59.1571H81.7074V59.8723H78.4095ZM87.7151 59.8722H86.8715L86.2835 58.4418H84.1104L83.5224 59.8722H82.7043L85.0563 54.2528H85.3631L87.7151 59.8722ZM85.4398 56.4242C85.4088 56.3623 85.3872 56.3004 85.3637 56.2329L85.3636 56.2328C85.3483 56.1888 85.3321 56.1425 85.3119 56.0921C85.2608 55.9644 85.2352 55.8622 85.2097 55.7345H85.1841C85.1713 55.7984 85.1522 55.8559 85.133 55.9133C85.1138 55.9708 85.0946 56.0283 85.0819 56.0921C85.0617 56.1425 85.0455 56.1889 85.0301 56.2329L85.0301 56.2329L85.0301 56.2329L85.0301 56.2329L85.0301 56.233C85.0066 56.3005 84.985 56.3623 84.954 56.4242L84.4172 57.778H86.0022L85.4398 56.4242ZM93.8762 60L91.2941 57.1648C91.2409 57.1049 91.1859 57.0451 91.1301 56.9843L91.1299 56.9841C90.9714 56.8116 90.8062 56.6318 90.655 56.424C90.4249 56.1686 90.2204 55.9132 90.0414 55.6833H90.0159C90.0159 55.811 90.0223 55.9323 90.0286 56.0537C90.035 56.175 90.0414 56.2963 90.0414 56.424V57.0882V59.8723H89.1978V54.3295H89.7858L92.1634 56.9349C92.2401 57.0115 92.3423 57.1137 92.4446 57.2414C92.4957 57.2925 92.5468 57.35 92.598 57.4074C92.6491 57.4649 92.7002 57.5224 92.7514 57.5735C92.8025 57.6373 92.8536 57.6948 92.9048 57.7523C92.9559 57.8097 93.007 57.8672 93.0582 57.9311C93.1061 57.9909 93.154 58.0452 93.1993 58.0965L93.1994 58.0965C93.2507 58.1546 93.2986 58.2089 93.3394 58.2631H93.3649C93.3649 58.164 93.3589 58.0588 93.3527 57.9505L93.3527 57.9504C93.3461 57.8356 93.3394 57.7173 93.3394 57.599V56.9604V54.3295H94.183V60H93.8762ZM100.396 58.2887C100.217 58.6207 100.012 58.9272 99.7309 59.1571C99.4497 59.387 99.1429 59.5658 98.785 59.6935C98.427 59.8212 98.0436 59.8723 97.6601 59.8723H95.9472V54.3295H97.6601C98.0436 54.3295 98.427 54.3806 98.785 54.5083C99.1429 54.6361 99.4752 54.8149 99.7309 55.0447C99.9865 55.2746 100.242 55.5811 100.396 55.9132C100.575 56.2452 100.651 56.6539 100.651 57.0882C100.651 57.5479 100.575 57.9566 100.396 58.2887ZM99.6287 56.194C99.5008 55.9386 99.3474 55.7343 99.1429 55.5555C98.9384 55.3767 98.6827 55.2489 98.4271 55.1723C98.1459 55.0957 97.8646 55.0446 97.5323 55.0446H96.8165V59.157H97.5323C97.8391 59.157 98.1459 59.1059 98.4271 59.0293C98.7083 58.9526 98.9384 58.8249 99.1429 58.6461C99.3474 58.4673 99.5008 58.263 99.6287 58.0076C99.7565 57.7521 99.8076 57.4456 99.8076 57.088C99.8076 56.7304 99.7309 56.4495 99.6287 56.194Z" fill="black"></path>
<path fill-rule="evenodd" clip-rule="evenodd" d="M74.6256 59.9744C75.0347 59.9744 75.4182 59.9488 75.7505 59.8467C76.0829 59.7445 76.3896 59.5912 76.6964 59.4125V57.1647H74.6256V57.8543H75.9039V59.0038C75.6227 59.1826 75.2392 59.2847 74.7279 59.2847C74.4211 59.2847 74.1655 59.2337 73.8842 59.157C73.6286 59.0549 73.3729 58.9271 73.1684 58.7483C72.9639 58.5695 72.7849 58.3397 72.6571 58.0842C72.5293 57.8288 72.4781 57.4967 72.4781 57.1391C72.4781 56.7815 72.5548 56.475 72.6827 56.1941C72.8105 55.9386 72.9894 55.7087 73.194 55.5299C73.3985 55.3511 73.6541 55.2234 73.9098 55.1213C74.191 55.0446 74.4467 54.9935 74.7279 54.9935C75.0347 54.9935 75.3159 55.0446 75.5716 55.1213C75.8272 55.2234 76.0573 55.3256 76.2618 55.4533L76.4152 54.7126C76.2107 54.5593 75.955 54.4571 75.6483 54.3805C75.3415 54.3039 75.0091 54.2528 74.6256 54.2528C74.2933 54.2528 73.9354 54.3039 73.5774 54.4316C73.2195 54.5593 72.8872 54.7381 72.606 54.968C72.2992 55.1979 72.0691 55.5044 71.8901 55.862C71.7112 56.2196 71.6089 56.6283 71.6089 57.1136C71.6089 57.5989 71.6856 58.0076 71.8646 58.3652C72.0435 58.7228 72.2736 59.0293 72.5548 59.2592C72.836 59.4891 73.1684 59.6679 73.5263 59.7956C73.8842 59.9233 74.2422 59.9744 74.6256 59.9744ZM60.2578 59.8723V54.3295H63.2489V55.0447H61.1014V56.7306H62.891V57.4458H61.1014V59.1571H63.5557V59.8723H60.2578ZM69.7171 60L67.135 57.1648C67.0816 57.1049 67.0266 57.0449 66.9707 56.9841L66.9707 56.9841L66.9707 56.9841L66.9707 56.9841L66.9707 56.9841L66.9707 56.9841C66.8122 56.8116 66.647 56.6318 66.4958 56.424C66.2657 56.1686 66.0612 55.9132 65.8822 55.6833H65.8567C65.8567 55.811 65.8631 55.9323 65.8695 56.0537C65.8759 56.175 65.8822 56.2963 65.8822 56.424V57.0882V59.8723H65.0386V54.3295H65.6266L68.0042 56.9349C68.0809 57.0115 68.1831 57.1137 68.2854 57.2414C68.3365 57.2925 68.3877 57.35 68.4388 57.4074L68.4388 57.4074L68.4388 57.4075C68.4899 57.4649 68.5411 57.5224 68.5922 57.5735C68.6433 57.6373 68.6944 57.6948 68.7456 57.7523C68.7967 57.8097 68.8478 57.8672 68.899 57.9311C68.9469 57.991 68.9949 58.0452 69.0402 58.0965C69.0915 58.1546 69.1395 58.2089 69.1802 58.2631H69.2058C69.2058 58.164 69.1997 58.0588 69.1935 57.9505C69.187 57.8357 69.1802 57.7173 69.1802 57.599V56.9604V54.3295H70.0238V60H69.7171ZM78.4095 59.8723V54.3295H79.2532V59.1571H81.7074V59.8723H78.4095ZM87.7151 59.8722H86.8715L86.2835 58.4418H84.1104L83.5224 59.8722H82.7043L85.0563 54.2528H85.3631L87.7151 59.8722ZM85.4398 56.4242C85.4088 56.3623 85.3872 56.3004 85.3637 56.2329L85.3636 56.2328C85.3483 56.1888 85.3321 56.1425 85.3119 56.0921C85.2608 55.9644 85.2352 55.8622 85.2097 55.7345H85.1841C85.1713 55.7984 85.1522 55.8559 85.133 55.9133C85.1138 55.9708 85.0946 56.0283 85.0819 56.0921C85.0617 56.1425 85.0455 56.1889 85.0301 56.2329L85.0301 56.2329L85.0301 56.2329L85.0301 56.2329L85.0301 56.233C85.0066 56.3005 84.985 56.3623 84.954 56.4242L84.4172 57.778H86.0022L85.4398 56.4242ZM93.8762 60L91.2941 57.1648C91.2409 57.1049 91.1859 57.0451 91.1301 56.9843L91.1299 56.9841C90.9714 56.8116 90.8062 56.6318 90.655 56.424C90.4249 56.1686 90.2204 55.9132 90.0414 55.6833H90.0159C90.0159 55.811 90.0223 55.9323 90.0286 56.0537C90.035 56.175 90.0414 56.2963 90.0414 56.424V57.0882V59.8723H89.1978V54.3295H89.7858L92.1634 56.9349C92.2401 57.0115 92.3423 57.1137 92.4446 57.2414C92.4957 57.2925 92.5468 57.35 92.598 57.4074C92.6491 57.4649 92.7002 57.5224 92.7514 57.5735C92.8025 57.6373 92.8536 57.6948 92.9048 57.7523C92.9559 57.8097 93.007 57.8672 93.0582 57.9311C93.1061 57.9909 93.154 58.0452 93.1993 58.0965L93.1994 58.0965C93.2507 58.1546 93.2986 58.2089 93.3394 58.2631H93.3649C93.3649 58.164 93.3589 58.0588 93.3527 57.9505L93.3527 57.9504C93.3461 57.8356 93.3394 57.7173 93.3394 57.599V56.9604V54.3295H94.183V60H93.8762ZM100.396 58.2887C100.217 58.6207 100.012 58.9272 99.7309 59.1571C99.4497 59.387 99.1429 59.5658 98.785 59.6935C98.427 59.8212 98.0436 59.8723 97.6601 59.8723H95.9472V54.3295H97.6601C98.0436 54.3295 98.427 54.3806 98.785 54.5083C99.1429 54.6361 99.4752 54.8149 99.7309 55.0447C99.9865 55.2746 100.242 55.5811 100.396 55.9132C100.575 56.2452 100.651 56.6539 100.651 57.0882C100.651 57.5479 100.575 57.9566 100.396 58.2887ZM99.6287 56.194C99.5008 55.9386 99.3474 55.7343 99.1429 55.5555C98.9384 55.3767 98.6827 55.2489 98.4271 55.1723C98.1459 55.0957 97.8646 55.0446 97.5323 55.0446H96.8165V59.157H97.5323C97.8391 59.157 98.1459 59.1059 98.4271 59.0293C98.7083 58.9526 98.9384 58.8249 99.1429 58.6461C99.3474 58.4673 99.5008 58.263 99.6287 58.0076C99.7565 57.7521 99.8076 57.4456 99.8076 57.088C99.8076 56.7304 99.7309 56.4495 99.6287 56.194Z" fill="black" fill-opacity="0.2"></path>
</g>
</svg>