<svg class="w-full" width="137" height="85" xmlns="http://www.w3.org/2000/svg" viewBox="0 0 137 85" fill="none">
<path fill-rule="evenodd" clip-rule="evenodd" d="M16.1405 48.1323C18.639 48.214 20.7129 46.236 20.7945 43.7185H20.7782V43.5224C20.8435 41.7896 19.8311 40.1712 18.2471 39.4192L17.5285 41.2338C18.3124 41.7405 18.7859 42.6069 18.7533 43.5224C18.7206 44.9609 17.4958 46.0889 16.0751 46.0562C14.6381 46.0235 13.5114 44.7975 13.544 43.3752C13.5767 42.0184 14.6545 40.8905 16.0262 40.8414L16.6957 38.9779C14.2462 38.5855 11.9274 40.2693 11.5355 42.7214C11.5302 42.7952 11.5232 42.8708 11.5162 42.947C11.5014 43.1068 11.4864 43.2693 11.4864 43.4243V48.1323H13.544V47.413C14.3279 47.9034 15.2261 48.165 16.1405 48.1323ZM13.5604 34.842H11.5028V39.1904C12.0907 38.6019 12.7765 38.1278 13.5604 37.8009V34.842ZM0.594421 42.4598C0.594421 34.368 7.14268 27.8127 15.2586 27.8127C23.3746 27.8127 29.9229 34.368 29.9229 42.4598C29.9229 50.5517 23.3746 57.1069 15.2586 57.1069C7.14268 57.1069 0.594421 50.5517 0.594421 42.4598ZM136.161 48.1474V42.8509V42.8346C136.177 41.6412 135.687 40.4969 134.789 39.7123C133.173 38.3391 130.707 38.5353 129.319 40.1536V34.8245H127.196V48.1147H129.319V43.0634C129.351 41.7884 130.396 40.7421 131.687 40.7748H131.915C133.173 40.8566 134.12 41.9191 134.038 43.1779V48.1474H136.161ZM49.5641 34.8411H47.4412V48.1313H49.5641V34.8411ZM87.8928 42.6557V48.1483H85.77V42.9826C85.8189 41.8056 84.8718 40.8084 83.7124 40.7757C82.5366 40.7267 81.5405 41.6748 81.5079 42.8355V48.132H79.3523V42.9662C79.434 41.8219 78.5685 40.8411 77.4254 40.7594H77.1967C76.021 40.7594 75.0412 41.7402 75.0739 42.9172V48.1156H72.9183V38.9939H75.0412V40.0565C75.7107 39.2718 76.7069 38.7977 77.752 38.8304C78.9768 38.7977 80.1198 39.3862 80.7893 40.3997C81.5405 39.4026 82.7326 38.8141 83.99 38.8304C86.0313 38.7487 87.7459 40.3344 87.8439 42.3777C87.8765 42.4595 87.8766 42.5412 87.8766 42.6557H87.8928ZM94.8948 41.0876V38.8316C93.6864 38.8153 92.5432 39.3711 91.792 40.2865V38.9951H89.6692V48.1495H91.792V43.4089C91.792 42.003 92.8372 40.9568 94.8948 41.0876ZM97.3473 42.7216H102.622C102.312 41.5446 101.25 40.7109 100.058 40.7109C98.8006 40.6782 97.6902 41.5119 97.3473 42.7216ZM104.549 44.34H104.503C104.542 44.1324 104.569 43.9309 104.595 43.7353L104.596 43.7348C104.612 43.6127 104.628 43.4929 104.647 43.3755C104.63 40.8253 102.557 38.8146 100.025 38.8473H99.8295C97.2657 38.8964 95.2407 41.0215 95.2897 43.588V43.8332C95.404 46.4324 97.6086 48.4431 100.205 48.3287C101.985 48.3614 103.634 47.3315 104.418 45.7131L102.638 44.9612C102.132 45.893 101.136 46.4651 100.074 46.4324C98.768 46.4978 97.6249 45.5987 97.3473 44.34H104.503L104.5 44.3563L104.549 44.34ZM110.592 40.759C112.079 40.808 113.238 42.0667 113.189 43.5707V43.587V43.5872C113.189 43.6198 113.189 43.6361 113.222 43.6688C113.222 45.1727 112.013 46.3987 110.511 46.3987C109.09 46.317 107.947 45.1727 107.865 43.7505C107.784 42.1812 108.943 40.8407 110.511 40.759H110.592ZM115.312 48.1315V39.0098L113.189 38.9771V40.2032C112.438 39.3204 111.295 38.781 110.119 38.8137C107.555 38.8137 105.661 40.7753 105.661 43.5543C105.661 46.3334 107.555 48.295 110.119 48.295C111.295 48.3277 112.438 47.821 113.189 46.9055V48.1315H115.312ZM116.815 43.5696C116.766 41.0031 118.791 38.8779 121.355 38.8289H121.518C123.477 38.7798 125.225 39.9405 125.976 41.755L124 42.4253C123.575 41.4444 122.628 40.8069 121.567 40.8069C120.114 40.8069 118.921 41.9512 118.921 43.4061V43.5696C118.872 45.0408 119.983 46.2832 121.453 46.3649C122.596 46.4303 123.657 45.7274 124.065 44.6321L125.992 45.3841C125.274 47.1986 123.477 48.3756 121.534 48.3429C118.97 48.392 116.847 46.3813 116.798 43.8148V43.5696H116.815ZM40.6665 46.3331C39.6867 46.3331 38.7722 45.81 38.2986 44.9436C37.8577 44.0772 37.8577 43.0473 38.2986 42.2136C38.7396 41.3472 39.6704 40.7914 40.6665 40.8241C42.2015 40.8732 43.3937 42.1319 43.3773 43.6685C43.3283 45.1234 42.1525 46.3168 40.6665 46.3495V46.3331ZM38.2986 39.6471V34.8411H36.1758V48.1313H38.2986V47.4938C39.0825 48.0005 39.9643 48.2457 40.8951 48.2131C41.5157 48.2131 42.1199 48.0986 42.6752 47.8698C45.0756 46.7745 46.137 43.9628 45.0429 41.5924C44.5693 40.5299 43.7366 39.6962 42.6752 39.2221C42.1199 38.9932 41.4994 38.8952 40.8951 38.8952C39.997 38.8952 39.0825 39.1404 38.2986 39.6471ZM58.8265 43.6206C58.7612 45.1573 57.4874 46.3997 55.9524 46.3343H55.8708C54.3848 46.2689 53.1927 45.0102 53.2417 43.5389V43.4572C53.307 41.9205 54.5808 40.6945 56.1158 40.7435C57.6508 40.8089 58.8755 42.084 58.8265 43.6206ZM55.8708 38.6511C53.2253 38.7165 51.0862 40.9234 51.1352 43.5716L51.1514 43.5553V43.7841C51.2331 46.3506 53.3723 48.394 55.9688 48.3123H56.0504C58.6958 48.2469 60.8351 46.04 60.7861 43.3918C60.7208 40.7435 58.5162 38.5857 55.8708 38.6511ZM66.6623 46.3337C68.1973 46.3991 69.4711 45.1567 69.5364 43.62C69.5854 42.0834 68.3607 40.8083 66.8257 40.7429C65.2906 40.6939 64.0169 41.9199 63.9516 43.4566V43.5383C63.9026 45.0095 65.0946 46.2683 66.5807 46.3337H66.6623ZM61.8451 43.571C61.7961 40.8901 63.9026 38.7159 66.5807 38.6505C69.2588 38.6015 71.4307 40.7102 71.496 43.3912C71.545 46.0721 69.4385 48.2463 66.7604 48.3117H66.6786C64.0822 48.3934 61.943 46.35 61.8614 43.7835V43.5546L61.8451 43.571Z" fill="white"></path>
</svg>