<svg width="133" height="74" xmlns="http://www.w3.org/2000/svg" viewBox="0 0 133 74" fill="none">
<path fill-rule="evenodd" clip-rule="evenodd" d="M65.0013 56.912H65.9816V54.8139H68.3624V54.0435H65.9816V52.4443H68.6353V51.674H65.0013V56.912ZM58.2338 54.1903H57.047V52.4443H58.2338C58.9636 52.4443 59.3321 52.745 59.3321 53.3173C59.3321 53.8895 58.9636 54.1903 58.2338 54.1903ZM60.2977 53.3173C60.2977 52.2462 59.5754 51.674 58.3443 51.674H56.089V56.912H57.047V54.9532H58.2264L59.4279 56.912H60.4968L59.1774 54.8066C59.7745 54.6157 60.2977 54.1315 60.2977 53.3173ZM75.4617 56.2297C74.4516 56.2297 73.9431 55.4595 73.9431 54.293C73.9431 53.1338 74.4516 52.3563 75.4617 52.3563C76.4641 52.3563 76.98 53.1338 76.98 54.293C76.98 55.4595 76.4641 56.2297 75.4617 56.2297ZM75.4617 51.586C73.9136 51.586 72.9482 52.723 72.9482 54.293C72.9482 55.8702 73.9136 57 75.4617 57C77.0095 57 77.9751 55.8702 77.9751 54.293C77.9751 52.723 77.0095 51.586 75.4617 51.586ZM61.2157 35.1508V35.779H66.8145V35.1508C66.4485 35.1327 66.0917 35.0165 65.7441 34.8025C65.3964 34.5888 64.9207 34.1312 64.317 33.43L60.31 28.7592C61.2522 28.0216 61.9474 27.4615 62.3958 27.0791C63.7956 25.8592 64.9116 25.2403 65.7441 25.2219V24.5936H61.2157V25.2219C61.92 25.2403 62.2722 25.4495 62.2722 25.8501C62.2722 26.4421 61.3161 27.4118 59.4042 28.7592L58.2241 29.5785V17H57.936C57.6615 17.1276 57.147 17.2552 56.3921 17.3824C55.6374 17.51 54.9901 17.5736 54.4505 17.5736V18.202C55.237 18.202 55.7335 18.3522 55.9393 18.6526C56.1452 18.9531 56.2481 19.6452 56.2481 20.7285V31.9413C56.2481 33.1889 56.2343 33.9421 56.2069 34.2016C56.1794 34.461 56.0675 34.6843 55.8707 34.8709C55.6739 35.0575 55.2464 35.1508 54.5876 35.1508H54.1622V35.779H59.8572V35.1508C59.2898 35.1508 58.8918 35.0667 58.6633 34.8981C58.4345 34.7297 58.3041 34.4931 58.2721 34.1878C58.24 33.8829 58.2241 33.1341 58.2241 31.9413V30.3297L58.8143 29.8927L61.696 33.225C62.3087 33.9353 62.6153 34.3771 62.6153 34.5498C62.6153 34.9322 62.1489 35.1327 61.2157 35.1508ZM98.5792 34.4065C97.9432 35.2032 97.0261 35.6015 95.8277 35.6015C94.6566 35.6015 93.7465 35.2032 93.0971 34.4065C92.4473 33.6098 92.1227 32.2191 92.1227 30.2341C92.1227 28.2584 92.4405 26.8539 93.0765 26.0208C93.7121 25.1877 94.6292 24.7711 95.8277 24.7711C97.0354 24.7711 97.9546 25.19 98.586 26.0276C99.2173 26.8655 99.5328 28.2674 99.5328 30.2341C99.5328 32.2191 99.2148 33.6098 98.5792 34.4065ZM95.8277 24.1429C94.1445 24.1429 92.7264 24.7189 91.5737 25.8706C90.421 27.0225 89.8446 28.4541 89.8446 30.1659C89.8446 32.0143 90.428 33.4868 91.5943 34.584C92.7608 35.6813 94.1717 36.2296 95.8277 36.2296C97.4836 36.2296 98.897 35.6902 100.068 34.6112C101.239 33.5324 101.825 32.0505 101.825 30.1659C101.825 28.4634 101.248 27.0339 100.095 25.8773C98.9428 24.7212 97.5201 24.1429 95.8277 24.1429ZM113.474 34.4065C112.838 35.2032 111.921 35.6015 110.723 35.6015C109.552 35.6015 108.641 35.2032 107.992 34.4065C107.342 33.6098 107.018 32.2191 107.018 30.2341C107.018 28.2584 107.335 26.8539 107.971 26.0208C108.607 25.1877 109.524 24.7711 110.723 24.7711C111.93 24.7711 112.85 25.19 113.481 26.0276C114.112 26.8655 114.428 28.2674 114.428 30.2341C114.428 32.2191 114.11 33.6098 113.474 34.4065ZM110.723 24.1429C109.039 24.1429 107.621 24.7189 106.469 25.8706C105.316 27.0225 104.74 28.4541 104.74 30.1659C104.74 32.0143 105.323 33.4868 106.489 34.584C107.656 35.6813 109.067 36.2296 110.723 36.2296C112.378 36.2296 113.792 35.6902 114.963 34.6112C116.134 33.5324 116.719 32.0505 116.719 30.1659C116.719 28.4634 116.143 27.0339 114.99 25.8773C113.838 24.7212 112.415 24.1429 110.723 24.1429ZM129.144 33.4437C128.641 34.0991 128.092 34.5908 127.498 34.9186C126.903 35.2463 126.258 35.4103 125.563 35.4103C124.52 35.4103 123.644 34.978 122.935 34.1128C122.226 33.248 121.871 31.9049 121.871 30.0839C121.871 28.2903 122.217 26.9973 122.907 26.2052C123.598 25.413 124.46 25.017 125.494 25.017C126.107 25.017 126.718 25.1467 127.326 25.4062C127.934 25.6656 128.541 26.0548 129.144 26.5739V33.4437ZM131.621 35.0416C131.379 34.9049 131.235 34.6957 131.189 34.4133C131.143 34.1312 131.12 33.3391 131.12 32.037V17H130.832C129.515 17.3552 128.302 17.5464 127.196 17.5736V18.202H127.484C128.069 18.202 128.477 18.2837 128.705 18.4477C128.934 18.6116 129.064 18.8485 129.096 19.158C129.128 19.4675 129.144 20.2186 129.144 21.4113V25.7818C128.541 25.2355 127.9 24.8258 127.223 24.5526C126.546 24.2794 125.828 24.1429 125.069 24.1429C123.578 24.1429 122.292 24.7052 121.213 25.8296C120.133 26.9542 119.593 28.4268 119.593 30.2479C119.593 31.9049 120.122 33.3161 121.178 34.4815C122.235 35.6471 123.491 36.2296 124.945 36.2296C125.714 36.2296 126.457 36.0611 127.175 35.7245C127.893 35.3877 128.591 34.8823 129.268 34.2083C129.268 35.1282 129.323 35.8016 129.433 36.2296C130.466 36.0201 131.646 35.9019 132.973 35.8747V35.2463C132.314 35.2463 131.864 35.1781 131.621 35.0416ZM95.4462 51.674H94.3257L91.8931 54.3076V51.674H90.913V56.912H91.8931V55.3935L92.6231 54.6305L94.4732 56.912H95.6524L93.2718 53.9482L95.4462 51.674ZM83.541 51.674H82.5608V56.912H86.2536V56.1418H83.541V51.674ZM48.9897 56.2297C47.9798 56.2297 47.4713 55.4595 47.4713 54.293C47.4713 53.1338 47.9798 52.3563 48.9897 52.3563C49.9922 52.3563 50.5082 53.1338 50.5082 54.293C50.5082 55.4595 49.9922 56.2297 48.9897 56.2297ZM48.9897 51.586C47.4418 51.586 46.4762 52.723 46.4762 54.293C46.4762 55.8702 47.4418 57 48.9897 57C50.5377 57 51.5032 55.8702 51.5032 54.293C51.5032 52.723 50.5377 51.586 48.9897 51.586ZM84.5758 25.2219C85.4997 25.2583 85.9618 25.4997 85.9618 25.9458C85.9618 26.0823 85.8291 26.4875 85.5638 27.1611L83.0938 33.5119L79.718 24.5936H79.1828L75.6973 33.5119L73.4194 27.5162C73.0626 26.6333 72.8843 26.1006 72.8843 25.9183C72.8843 25.6635 72.9892 25.4837 73.1999 25.3789C73.4101 25.2743 73.8037 25.2219 74.38 25.2219V24.5936H69.2478V25.2219C69.8241 25.2219 70.2084 25.3221 70.4005 25.5224C70.5926 25.7227 70.8852 26.3282 71.2787 27.3388L74.7093 36.2161H75.313L78.73 27.3388L82.0782 36.2161H82.6958L86.1951 27.3388L86.497 26.5467C86.7072 25.9914 86.9383 25.6339 87.1899 25.4746C87.4414 25.3153 87.7868 25.231 88.226 25.2219V24.5936H84.5758V25.2219ZM9.94203 34.1401C9.24213 35.1052 8.30213 35.5878 7.12202 35.5878C6.35354 35.5878 5.68103 35.3604 5.10486 34.9049C4.52832 34.4498 4.16485 33.9742 4.01373 33.4777C3.86297 32.9816 3.78742 32.169 3.78742 31.0398V26.6559C4.37273 26.0548 4.9652 25.6067 5.56447 25.3107C6.16357 25.0149 6.77413 24.8668 7.39632 24.8668C8.48511 24.8668 9.35637 25.3016 10.0106 26.171C10.6645 27.0406 10.9918 28.3083 10.9918 29.9745C10.9918 31.7866 10.6418 33.1751 9.94203 34.1401ZM7.73938 24.1429C7.06239 24.1429 6.39472 24.2841 5.736 24.5663C5.07728 24.8486 4.42769 25.2765 3.78742 25.8501V17H3.49915C3.22484 17.1276 2.70775 17.2552 1.94859 17.3824C1.18906 17.51 0.539653 17.5736 0 17.5736V18.202C0.603752 18.202 1.02684 18.2795 1.26928 18.4341C1.51153 18.589 1.66265 18.8256 1.72227 19.1443C1.78153 19.4631 1.81143 20.1686 1.81143 21.2611V36.2296H2.34643C2.71223 35.4466 3.19262 34.7595 3.78742 34.1675C4.208 34.8504 4.7319 35.3648 5.35857 35.7107C5.98524 36.0566 6.71486 36.2296 7.54744 36.2296C9.23981 36.2296 10.6165 35.6471 11.6779 34.4815C12.739 33.3161 13.2697 31.8593 13.2697 30.1112C13.2697 28.3721 12.7527 26.9426 11.7191 25.8228C10.6851 24.7028 9.35869 24.1429 7.73938 24.1429ZM20.7193 34.9049C20.4905 34.741 20.3602 34.5043 20.3283 34.1948C20.2961 33.8853 20.2801 33.1341 20.2801 31.9413V17H19.9782C19.6946 17.1276 19.1756 17.2552 18.4209 17.3824C17.666 17.51 17.0094 17.5736 16.4517 17.5736V18.202C17.2658 18.202 17.7779 18.3545 17.9885 18.6594C18.1989 18.9646 18.3041 19.7042 18.3041 20.8787V31.9413C18.3041 33.2343 18.2812 34.0171 18.2356 34.2903C18.1897 34.5635 18.0503 34.7752 17.817 34.9254C17.5837 35.0756 17.1926 35.1508 16.6436 35.1508H16.2594V35.779H22.2699V35.1508H21.9406C21.355 35.1508 20.9478 35.0689 20.7193 34.9049ZM51.1658 33.0475H50.5621C50.0681 34.6864 48.9154 35.5058 47.1039 35.5058C45.7591 35.5058 44.755 35.0097 44.092 34.0171C43.4284 33.0249 43.097 31.6499 43.097 29.8927C43.097 28.1902 43.4057 26.9154 44.0232 26.0686C44.6408 25.2219 45.5623 24.7985 46.7883 24.7985C47.4746 24.7985 47.9363 24.9031 48.1745 25.1125C48.4029 25.3221 48.5723 25.6908 48.6821 26.2188C48.8194 26.92 49.1899 27.2705 49.7936 27.2705C50.077 27.2705 50.2944 27.1704 50.4455 26.9701C50.5963 26.7698 50.6718 26.5557 50.6718 26.3282C50.6718 25.7182 50.2647 25.2013 49.4505 24.7779C48.6362 24.3546 47.7442 24.1429 46.7747 24.1429C45.1643 24.1429 43.7693 24.7121 42.5892 25.8501C41.4091 26.9884 40.819 28.4723 40.819 30.3024C40.819 32.0871 41.3656 33.521 42.4589 34.6045C43.552 35.6881 44.8991 36.2296 46.5002 36.2296C48.9884 36.2296 50.5436 35.1692 51.1658 33.0475ZM33.6366 33.3753C32.9321 33.94 32.2964 34.3634 31.7292 34.6455C31.1618 34.9277 30.6633 35.0689 30.2334 35.0689C29.7484 35.0689 29.3552 34.8935 29.0533 34.543C28.7515 34.1926 28.6005 33.7304 28.6005 33.1568C28.6005 31.7091 29.7806 30.5073 32.141 29.5513L33.6366 28.9502V33.3753ZM38.1239 33.7304H37.6161C37.4697 34.6228 37.0948 35.0689 36.491 35.0689C36.125 35.0689 35.8873 34.9186 35.7773 34.6182C35.6676 34.3177 35.6128 33.6395 35.6128 32.5832V28.0626C35.6128 27.1066 35.5098 26.3963 35.3039 25.9321C35.0982 25.4677 34.6749 25.0535 34.0346 24.6891C33.3942 24.3251 32.493 24.1429 31.3314 24.1429C29.7668 24.1429 28.6143 24.4412 27.8732 25.0375C27.1323 25.6339 26.7617 26.1915 26.7617 26.7106C26.7617 27.2386 27.0406 27.5025 27.5987 27.5025C28.2208 27.5025 28.605 27.0383 28.7514 26.1095C28.9069 25.1993 29.6709 24.7438 31.0431 24.7438C31.7292 24.7438 32.2826 24.8805 32.7036 25.1535C33.1242 25.4267 33.3849 25.7364 33.4857 26.0823C33.5863 26.4283 33.6366 26.9884 33.6366 27.7622V28.3083L31.5097 29.1689C29.8904 29.8335 28.6211 30.5164 27.7017 31.2174C26.7823 31.9187 26.3227 32.7382 26.3227 33.6757C26.3227 34.3951 26.597 34.9732 27.1459 35.4103C27.6949 35.8474 28.3488 36.0659 29.1083 36.0659C29.7027 36.0659 30.3776 35.9019 31.1323 35.5742C31.8871 35.2463 32.7219 34.7595 33.6366 34.1128C33.7464 34.7595 33.9818 35.2463 34.3433 35.5742C34.7046 35.9019 35.1963 36.0659 35.8185 36.0659C37.2731 36.0659 38.0416 35.2873 38.1239 33.7304ZM40.9543 55.3861H40.9397L38.4629 51.674H37.3204V56.912H38.2566V52.8551H38.2713L40.9765 56.912H41.8832V51.674H40.9543V55.3861Z" fill="white"></path>
<path fill-rule="evenodd" clip-rule="evenodd" d="M65.0013 56.912H65.9816V54.8139H68.3624V54.0435H65.9816V52.4443H68.6353V51.674H65.0013V56.912ZM58.2338 54.1903H57.047V52.4443H58.2338C58.9636 52.4443 59.3321 52.745 59.3321 53.3173C59.3321 53.8895 58.9636 54.1903 58.2338 54.1903ZM60.2977 53.3173C60.2977 52.2462 59.5754 51.674 58.3443 51.674H56.089V56.912H57.047V54.9532H58.2264L59.4279 56.912H60.4968L59.1774 54.8066C59.7745 54.6157 60.2977 54.1315 60.2977 53.3173ZM75.4617 56.2297C74.4516 56.2297 73.9431 55.4595 73.9431 54.293C73.9431 53.1338 74.4516 52.3563 75.4617 52.3563C76.4641 52.3563 76.98 53.1338 76.98 54.293C76.98 55.4595 76.4641 56.2297 75.4617 56.2297ZM75.4617 51.586C73.9136 51.586 72.9482 52.723 72.9482 54.293C72.9482 55.8702 73.9136 57 75.4617 57C77.0095 57 77.9751 55.8702 77.9751 54.293C77.9751 52.723 77.0095 51.586 75.4617 51.586ZM61.2157 35.1508V35.779H66.8145V35.1508C66.4485 35.1327 66.0917 35.0165 65.7441 34.8025C65.3964 34.5888 64.9207 34.1312 64.317 33.43L60.31 28.7592C61.2522 28.0216 61.9474 27.4615 62.3958 27.0791C63.7956 25.8592 64.9116 25.2403 65.7441 25.2219V24.5936H61.2157V25.2219C61.92 25.2403 62.2722 25.4495 62.2722 25.8501C62.2722 26.4421 61.3161 27.4118 59.4042 28.7592L58.2241 29.5785V17H57.936C57.6615 17.1276 57.147 17.2552 56.3921 17.3824C55.6374 17.51 54.9901 17.5736 54.4505 17.5736V18.202C55.237 18.202 55.7335 18.3522 55.9393 18.6526C56.1452 18.9531 56.2481 19.6452 56.2481 20.7285V31.9413C56.2481 33.1889 56.2343 33.9421 56.2069 34.2016C56.1794 34.461 56.0675 34.6843 55.8707 34.8709C55.6739 35.0575 55.2464 35.1508 54.5876 35.1508H54.1622V35.779H59.8572V35.1508C59.2898 35.1508 58.8918 35.0667 58.6633 34.8981C58.4345 34.7297 58.3041 34.4931 58.2721 34.1878C58.24 33.8829 58.2241 33.1341 58.2241 31.9413V30.3297L58.8143 29.8927L61.696 33.225C62.3087 33.9353 62.6153 34.3771 62.6153 34.5498C62.6153 34.9322 62.1489 35.1327 61.2157 35.1508ZM98.5792 34.4065C97.9432 35.2032 97.0261 35.6015 95.8277 35.6015C94.6566 35.6015 93.7465 35.2032 93.0971 34.4065C92.4473 33.6098 92.1227 32.2191 92.1227 30.2341C92.1227 28.2584 92.4405 26.8539 93.0765 26.0208C93.7121 25.1877 94.6292 24.7711 95.8277 24.7711C97.0354 24.7711 97.9546 25.19 98.586 26.0276C99.2173 26.8655 99.5328 28.2674 99.5328 30.2341C99.5328 32.2191 99.2148 33.6098 98.5792 34.4065ZM95.8277 24.1429C94.1445 24.1429 92.7264 24.7189 91.5737 25.8706C90.421 27.0225 89.8446 28.4541 89.8446 30.1659C89.8446 32.0143 90.428 33.4868 91.5943 34.584C92.7608 35.6813 94.1717 36.2296 95.8277 36.2296C97.4836 36.2296 98.897 35.6902 100.068 34.6112C101.239 33.5324 101.825 32.0505 101.825 30.1659C101.825 28.4634 101.248 27.0339 100.095 25.8773C98.9428 24.7212 97.5201 24.1429 95.8277 24.1429ZM113.474 34.4065C112.838 35.2032 111.921 35.6015 110.723 35.6015C109.552 35.6015 108.641 35.2032 107.992 34.4065C107.342 33.6098 107.018 32.2191 107.018 30.2341C107.018 28.2584 107.335 26.8539 107.971 26.0208C108.607 25.1877 109.524 24.7711 110.723 24.7711C111.93 24.7711 112.85 25.19 113.481 26.0276C114.112 26.8655 114.428 28.2674 114.428 30.2341C114.428 32.2191 114.11 33.6098 113.474 34.4065ZM110.723 24.1429C109.039 24.1429 107.621 24.7189 106.469 25.8706C105.316 27.0225 104.74 28.4541 104.74 30.1659C104.74 32.0143 105.323 33.4868 106.489 34.584C107.656 35.6813 109.067 36.2296 110.723 36.2296C112.378 36.2296 113.792 35.6902 114.963 34.6112C116.134 33.5324 116.719 32.0505 116.719 30.1659C116.719 28.4634 116.143 27.0339 114.99 25.8773C113.838 24.7212 112.415 24.1429 110.723 24.1429ZM129.144 33.4437C128.641 34.0991 128.092 34.5908 127.498 34.9186C126.903 35.2463 126.258 35.4103 125.563 35.4103C124.52 35.4103 123.644 34.978 122.935 34.1128C122.226 33.248 121.871 31.9049 121.871 30.0839C121.871 28.2903 122.217 26.9973 122.907 26.2052C123.598 25.413 124.46 25.017 125.494 25.017C126.107 25.017 126.718 25.1467 127.326 25.4062C127.934 25.6656 128.541 26.0548 129.144 26.5739V33.4437ZM131.621 35.0416C131.379 34.9049 131.235 34.6957 131.189 34.4133C131.143 34.1312 131.12 33.3391 131.12 32.037V17H130.832C129.515 17.3552 128.302 17.5464 127.196 17.5736V18.202H127.484C128.069 18.202 128.477 18.2837 128.705 18.4477C128.934 18.6116 129.064 18.8485 129.096 19.158C129.128 19.4675 129.144 20.2186 129.144 21.4113V25.7818C128.541 25.2355 127.9 24.8258 127.223 24.5526C126.546 24.2794 125.828 24.1429 125.069 24.1429C123.578 24.1429 122.292 24.7052 121.213 25.8296C120.133 26.9542 119.593 28.4268 119.593 30.2479C119.593 31.9049 120.122 33.3161 121.178 34.4815C122.235 35.6471 123.491 36.2296 124.945 36.2296C125.714 36.2296 126.457 36.0611 127.175 35.7245C127.893 35.3877 128.591 34.8823 129.268 34.2083C129.268 35.1282 129.323 35.8016 129.433 36.2296C130.466 36.0201 131.646 35.9019 132.973 35.8747V35.2463C132.314 35.2463 131.864 35.1781 131.621 35.0416ZM95.4462 51.674H94.3257L91.8931 54.3076V51.674H90.913V56.912H91.8931V55.3935L92.6231 54.6305L94.4732 56.912H95.6524L93.2718 53.9482L95.4462 51.674ZM83.541 51.674H82.5608V56.912H86.2536V56.1418H83.541V51.674ZM48.9897 56.2297C47.9798 56.2297 47.4713 55.4595 47.4713 54.293C47.4713 53.1338 47.9798 52.3563 48.9897 52.3563C49.9922 52.3563 50.5082 53.1338 50.5082 54.293C50.5082 55.4595 49.9922 56.2297 48.9897 56.2297ZM48.9897 51.586C47.4418 51.586 46.4762 52.723 46.4762 54.293C46.4762 55.8702 47.4418 57 48.9897 57C50.5377 57 51.5032 55.8702 51.5032 54.293C51.5032 52.723 50.5377 51.586 48.9897 51.586ZM84.5758 25.2219C85.4997 25.2583 85.9618 25.4997 85.9618 25.9458C85.9618 26.0823 85.8291 26.4875 85.5638 27.1611L83.0938 33.5119L79.718 24.5936H79.1828L75.6973 33.5119L73.4194 27.5162C73.0626 26.6333 72.8843 26.1006 72.8843 25.9183C72.8843 25.6635 72.9892 25.4837 73.1999 25.3789C73.4101 25.2743 73.8037 25.2219 74.38 25.2219V24.5936H69.2478V25.2219C69.8241 25.2219 70.2084 25.3221 70.4005 25.5224C70.5926 25.7227 70.8852 26.3282 71.2787 27.3388L74.7093 36.2161H75.313L78.73 27.3388L82.0782 36.2161H82.6958L86.1951 27.3388L86.497 26.5467C86.7072 25.9914 86.9383 25.6339 87.1899 25.4746C87.4414 25.3153 87.7868 25.231 88.226 25.2219V24.5936H84.5758V25.2219ZM9.94203 34.1401C9.24213 35.1052 8.30213 35.5878 7.12202 35.5878C6.35354 35.5878 5.68103 35.3604 5.10486 34.9049C4.52832 34.4498 4.16485 33.9742 4.01373 33.4777C3.86297 32.9816 3.78742 32.169 3.78742 31.0398V26.6559C4.37273 26.0548 4.9652 25.6067 5.56447 25.3107C6.16357 25.0149 6.77413 24.8668 7.39632 24.8668C8.48511 24.8668 9.35637 25.3016 10.0106 26.171C10.6645 27.0406 10.9918 28.3083 10.9918 29.9745C10.9918 31.7866 10.6418 33.1751 9.94203 34.1401ZM7.73938 24.1429C7.06239 24.1429 6.39472 24.2841 5.736 24.5663C5.07728 24.8486 4.42769 25.2765 3.78742 25.8501V17H3.49915C3.22484 17.1276 2.70775 17.2552 1.94859 17.3824C1.18906 17.51 0.539653 17.5736 0 17.5736V18.202C0.603752 18.202 1.02684 18.2795 1.26928 18.4341C1.51153 18.589 1.66265 18.8256 1.72227 19.1443C1.78153 19.4631 1.81143 20.1686 1.81143 21.2611V36.2296H2.34643C2.71223 35.4466 3.19262 34.7595 3.78742 34.1675C4.208 34.8504 4.7319 35.3648 5.35857 35.7107C5.98524 36.0566 6.71486 36.2296 7.54744 36.2296C9.23981 36.2296 10.6165 35.6471 11.6779 34.4815C12.739 33.3161 13.2697 31.8593 13.2697 30.1112C13.2697 28.3721 12.7527 26.9426 11.7191 25.8228C10.6851 24.7028 9.35869 24.1429 7.73938 24.1429ZM20.7193 34.9049C20.4905 34.741 20.3602 34.5043 20.3283 34.1948C20.2961 33.8853 20.2801 33.1341 20.2801 31.9413V17H19.9782C19.6946 17.1276 19.1756 17.2552 18.4209 17.3824C17.666 17.51 17.0094 17.5736 16.4517 17.5736V18.202C17.2658 18.202 17.7779 18.3545 17.9885 18.6594C18.1989 18.9646 18.3041 19.7042 18.3041 20.8787V31.9413C18.3041 33.2343 18.2812 34.0171 18.2356 34.2903C18.1897 34.5635 18.0503 34.7752 17.817 34.9254C17.5837 35.0756 17.1926 35.1508 16.6436 35.1508H16.2594V35.779H22.2699V35.1508H21.9406C21.355 35.1508 20.9478 35.0689 20.7193 34.9049ZM51.1658 33.0475H50.5621C50.0681 34.6864 48.9154 35.5058 47.1039 35.5058C45.7591 35.5058 44.755 35.0097 44.092 34.0171C43.4284 33.0249 43.097 31.6499 43.097 29.8927C43.097 28.1902 43.4057 26.9154 44.0232 26.0686C44.6408 25.2219 45.5623 24.7985 46.7883 24.7985C47.4746 24.7985 47.9363 24.9031 48.1745 25.1125C48.4029 25.3221 48.5723 25.6908 48.6821 26.2188C48.8194 26.92 49.1899 27.2705 49.7936 27.2705C50.077 27.2705 50.2944 27.1704 50.4455 26.9701C50.5963 26.7698 50.6718 26.5557 50.6718 26.3282C50.6718 25.7182 50.2647 25.2013 49.4505 24.7779C48.6362 24.3546 47.7442 24.1429 46.7747 24.1429C45.1643 24.1429 43.7693 24.7121 42.5892 25.8501C41.4091 26.9884 40.819 28.4723 40.819 30.3024C40.819 32.0871 41.3656 33.521 42.4589 34.6045C43.552 35.6881 44.8991 36.2296 46.5002 36.2296C48.9884 36.2296 50.5436 35.1692 51.1658 33.0475ZM33.6366 33.3753C32.9321 33.94 32.2964 34.3634 31.7292 34.6455C31.1618 34.9277 30.6633 35.0689 30.2334 35.0689C29.7484 35.0689 29.3552 34.8935 29.0533 34.543C28.7515 34.1926 28.6005 33.7304 28.6005 33.1568C28.6005 31.7091 29.7806 30.5073 32.141 29.5513L33.6366 28.9502V33.3753ZM38.1239 33.7304H37.6161C37.4697 34.6228 37.0948 35.0689 36.491 35.0689C36.125 35.0689 35.8873 34.9186 35.7773 34.6182C35.6676 34.3177 35.6128 33.6395 35.6128 32.5832V28.0626C35.6128 27.1066 35.5098 26.3963 35.3039 25.9321C35.0982 25.4677 34.6749 25.0535 34.0346 24.6891C33.3942 24.3251 32.493 24.1429 31.3314 24.1429C29.7668 24.1429 28.6143 24.4412 27.8732 25.0375C27.1323 25.6339 26.7617 26.1915 26.7617 26.7106C26.7617 27.2386 27.0406 27.5025 27.5987 27.5025C28.2208 27.5025 28.605 27.0383 28.7514 26.1095C28.9069 25.1993 29.6709 24.7438 31.0431 24.7438C31.7292 24.7438 32.2826 24.8805 32.7036 25.1535C33.1242 25.4267 33.3849 25.7364 33.4857 26.0823C33.5863 26.4283 33.6366 26.9884 33.6366 27.7622V28.3083L31.5097 29.1689C29.8904 29.8335 28.6211 30.5164 27.7017 31.2174C26.7823 31.9187 26.3227 32.7382 26.3227 33.6757C26.3227 34.3951 26.597 34.9732 27.1459 35.4103C27.6949 35.8474 28.3488 36.0659 29.1083 36.0659C29.7027 36.0659 30.3776 35.9019 31.1323 35.5742C31.8871 35.2463 32.7219 34.7595 33.6366 34.1128C33.7464 34.7595 33.9818 35.2463 34.3433 35.5742C34.7046 35.9019 35.1963 36.0659 35.8185 36.0659C37.2731 36.0659 38.0416 35.2873 38.1239 33.7304ZM40.9543 55.3861H40.9397L38.4629 51.674H37.3204V56.912H38.2566V52.8551H38.2713L40.9765 56.912H41.8832V51.674H40.9543V55.3861Z" fill="white"></path>
</svg>